<?xml version="1.0" encoding="UTF-8"?>
<svg id="Layer_1" fill="currentColor" data-name="Layer 1" xmlns="http://www.w3.org/2000/svg" version="1.1" viewBox="0 0 428 428">
  <defs>
    <style>
      .cls-1 {
        fill: #000;
        stroke-width: 0px;
      }
    </style>
  </defs>
  <path class="cls-1" d="M418.6,147.53c-1.49,8.08-2.4,16.32-4.57,24.22-10.36,37.65-33.39,64.97-68.31,82.33-16.48,8.19-34.29,11.01-52.28,13.26-17.95,2.24-35.82,4.98-52.91,11.28-10.2,3.76-19.5,9.09-27.28,16.83-11.87,11.8-25.79,15.75-42.04,11.06-1.09-.32-2.94.14-3.74.93-14.76,14.58-29.42,29.28-44.09,43.93,16.22,18.96,12.78,39.36,3.79,51.91-9.9,13.83-27.47,19.6-43.94,14.62-18.22-5.51-27.09-19.09-28.16-43.35-22.78.79-38.38-9.08-44.24-31.63-3.97-15.28,3.37-32.55,16.45-41.18,12.78-8.43,32.52-11.27,51,4.53,14.64-14.68,29.32-29.35,43.9-44.12.8-.81,1.25-2.65.94-3.75-4.47-15.55-1.23-29.28,9.97-40.84,14-14.46,20.72-32.33,24.29-51.52,3.19-17.11,5.09-34.45,8.24-51.57,4.96-26.99,17.77-49.88,37.78-68.67,21.62-20.3,47.31-31.55,76.79-34.27.64-.06,1.26-.35,1.89-.54h17.57c.63.18,1.25.48,1.89.54,30.07,2.71,56.13,14.36,77.93,35.24,16.77,16.06,28.42,35.34,34.32,57.84,2.18,8.3,3.25,16.89,4.83,25.35v17.57h-.02ZM290.94,26.98c-26.31.29-49.98,8.35-70.39,24.96-20.84,16.96-34.3,38.69-39.17,65.25-2.8,15.28-4.46,30.78-7.21,46.07-4.48,24.92-12.31,48.22-30.83,66.95-11.83,11.96-6.55,32,9.24,37.99,4.29,1.63,7.04,3.99,8.65,8.48,5.81,16.19,25.74,20.99,38.56,9.49,2.57-2.31,5.02-4.77,7.68-6.97,17.21-14.21,37.89-19.98,59.22-23.8,16.08-2.88,32.45-4.28,48.42-7.65,58.41-12.32,96.8-70.82,85.59-129.68-10.06-52.82-56.12-91.04-109.77-91.09h.01ZM131.92,274.54c-2.43,2.6-5.08,5.57-7.88,8.39-13.33,13.39-26.69,26.74-40.07,40.08-3.57,3.56-7.26,4.45-10.7,2.16-1.81-1.2-3.19-3.15-4.57-4.91-8.15-10.47-23.14-12.51-33.4-4.49-10.75,8.41-12.65,23.23-4.3,33.67,8.43,10.55,23.27,12.19,33.77,3.75,1.14-.91,2.27-1.86,3.52-2.61,3.1-1.88,7.04-1.38,9.56,1.1s3.09,6.45,1.21,9.54c-.89,1.47-2.04,2.78-3.1,4.14-6.37,8.13-6.6,20.5-.29,28.6,6.07,7.8,14.1,11.27,23.89,9.25,9.91-2.04,16.36-8.29,18.51-18.14,2.13-9.78-.66-18.46-9.06-24.23-6.61-4.54-7.6-10.48-1.19-16.65,15.05-14.47,29.64-29.44,44.4-44.21,1.01-1.01,1.96-2.08,2.58-2.75-2.71-4.41-5.16-8.48-7.7-12.49-.54-.85-1.29-1.67-2.14-2.21-4.02-2.54-8.11-4.98-13.05-7.99h0Z"/>
  <path class="cls-1" d="M386.01,149.77c-1.72,16.22-7.52,31.6-17.65,45.23-15.7,21.12-36.51,34.04-62.58,38.32-5.06.83-9.27-1.59-10.13-5.97-.91-4.61,1.66-8.59,6.8-9.52,11.79-2.12,22.87-5.93,32.77-12.78,19.5-13.48,31.26-31.82,34.7-55.37.13-.92.31-1.83.55-2.73,1.2-4.52,4.54-7.05,8.62-6.58,4.3.5,7.01,3.91,6.91,9.4h.01Z"/>
  <path class="cls-1" d="M289.24,68.53c-.09,4.28-3.81,7.88-8.03,7.77-4.2-.11-7.9-3.95-7.79-8.08.11-4.22,3.88-7.81,8.11-7.72,4.29.09,7.81,3.75,7.71,8.04h0Z"/>
  <path class="cls-1" d="M385.08,116.19c.05,4.24-3.56,7.98-7.78,8.05-4.15.07-7.96-3.66-8.03-7.85-.07-4.23,3.54-7.92,7.83-7.97,4.3-.06,7.93,3.48,7.98,7.78h0Z"/>
  <path class="cls-1" d="M241.34,84.51c-.1,4.27-3.84,7.88-8.04,7.76-4.21-.12-7.89-3.94-7.78-8.09.11-4.21,3.89-7.81,8.11-7.72,4.27.09,7.81,3.79,7.71,8.05Z"/>
  <path class="cls-1" d="M257.31,132.42c-.09,4.25-3.85,7.89-8.04,7.78s-7.89-3.96-7.79-8.09c.1-4.23,3.85-7.81,8.1-7.72,4.28.09,7.82,3.77,7.73,8.04h0Z"/>
</svg>