<?xml version="1.0" encoding="UTF-8"?>
<svg id="Layer_1" fill="currentColor" data-name="Layer 1" xmlns="http://www.w3.org/2000/svg" version="1.1" viewBox="0 0 428 428">
  <defs>
    <style>
      .cls-1 {
        fill: #000;
        stroke-width: 0px;
      }
    </style>
  </defs>
  <path class="cls-1" d="M123.73,188.91c-3.31-2.97-6.1-5.27-8.65-7.79-8.18-8.08-16.29-16.25-24.41-24.39-7.65-7.66-9.9-16.64-6.03-26.79,3.6-9.44,12.48-14.94,23.38-14.98,1.38,0,2.75-.04,4.13,0,9,.31,17.52-.97,26.32-3.8,27.41-8.79,52.74-3.58,75.44,14.2.77.6,1.55,1.19,2.46,1.88,31.52-31.58,62.93-63.05,94.54-94.71,2.91,3.24,5.46,6.07,8.09,8.98-31.06,31.05-62.5,62.5-93.94,93.94,3.93,5.71,7.59,11.02,11.53,16.74,46.85-39.82,93.82-79.74,141.04-119.87,2.58,3.02,5.07,5.93,7.77,9.1-8.75,7.45-17.28,14.73-25.83,21.99-38.67,32.87-77.32,65.76-116.05,98.56-1.82,1.54-2.15,2.81-1.54,5.04,1.28,4.68,2.18,9.47,3.36,14.74,5.36.46,11.05.87,16.72,1.44,25.78,2.58,51.35,6.34,75.63,15.86,6.91,2.71,13.45,6.55,19.79,10.46,5.05,3.11,8.79,7.7,11.06,13.38.48,1.21,1.85,2.15,2.97,3.02,5.39,4.2,11.17,7.97,16.14,12.61,4.33,4.04,5.91,9.65,5.89,15.7-.07,28.63-.17,57.27.05,85.9.07,8.54-3.04,15.27-9.18,20.85-9.85,8.95-21.86,13.88-34.21,18.04-24.52,8.24-49.89,12.36-75.53,14.98-30.77,3.15-61.62,3.89-92.5,2.25-35.01-1.86-69.7-5.87-103.3-16.52-11.7-3.71-23.03-8.32-32.92-15.82-8.35-6.33-12.85-14.22-12.67-25.27.45-27.5.33-55.02.05-82.52-.09-9.16,3.34-16.18,10.03-21.97.85-.74,1.67-1.53,2.6-2.15,6.46-4.25,12.37-8.54,16.63-15.71,4.94-8.31,14.19-12.56,23.16-15.78,11.13-3.99,22.6-7.05,33.93-10.5.93-.28,1.87-.51,4.06-1.1ZM255.15,384.24v-78.63c-3.44.21-6.55.45-9.67.6-37.42,1.81-74.73.67-111.86-4.51-20.93-2.92-41.69-6.85-61.49-14.43-9.11-3.49-17.75-8.21-26.7-12.42v3.44c0,20.26.22,40.52-.13,60.77-.11,6.5,2.35,11.07,7.22,14.73,2.39,1.8,4.86,3.54,7.47,4.99,14.23,7.92,29.76,12.19,45.49,15.71,30.61,6.85,61.7,9.74,92.99,10.3,18.85.34,37.72-.34,56.69-.56ZM297.65,379.01c20.17-3.31,40-7.22,58.7-15.18,6.48-2.76,12.59-6.56,18.48-10.47,4.68-3.1,6.84-7.72,6.76-13.75-.27-20.48-.1-40.97-.1-61.46v-4.27c-25.75,17.06-54.8,22.03-83.84,27.39v77.74ZM226.64,160.64c-.21-.68-.28-1.06-.44-1.38-17.4-33.91-56.08-49.87-91.81-34.04-2.42,1.07-5.24,1.58-7.9,1.68-6.62.24-13.25-.02-19.87.12-4.92.11-8.63,2.52-10.67,7-1.9,4.17-1.82,8.65,1.35,11.98,6.43,6.77,13.33,13.09,19.96,19.53,6.82-18.77,16.69-27.51,30-26.26v11.43c-10.07,1.64-16.22,6.6-17.4,15.05-.64,4.62-2.18,9.84,1.04,14.04,2.89,3.78,6.62,6.91,10.21,10.57,5.67-18.65,17.53-29.06,30.2-26.92v11.27c-9.36,1.11-15.66,5.82-17.59,15.23-2.02,9.88,1.46,16.96,11.13,23.25,20.6-17.52,41.24-35.07,61.79-52.54ZM69.44,248.69c0,8.18-.07,15.75.11,23.32.02.81,1.36,1.96,2.32,2.32,5.38,2,10.76,4.04,16.26,5.63,28.09,8.15,56.91,11.88,86.02,13.71,45.7,2.87,91.23,1.57,136.27-7.12,14.88-2.87,29.37-7.82,44-11.95,1.18-.33,2.91-1.7,2.94-2.63.24-7.56.13-15.13.13-22.65-6.2,3.07-11.92,6.41-18,8.84-27.46,10.95-56.36,15.42-85.59,17.08-22.55,1.28-45.21,1.37-67.8.84-25.01-.59-49.79-3.93-74.12-10.01-14.79-3.7-29.2-8.41-42.53-17.38ZM139.69,204.42c-3.33-1.85-6.04-4.7-8.2-4.33-15.65,2.65-31.13,6.27-45.42,13.44-5.05,2.53-9.86,5.94-13.97,9.82-4.31,4.06-3.44,8.55,1.4,12.48,8.12-8.84,18.77-13.16,30.09-16.9,1.28,3.94,2.45,7.55,3.62,11.12-4.5,1.86-8.65,3.27-12.51,5.25-3.94,2.02-7.6,4.58-11.38,6.91l.3,1.41c36.31,16.09,75.05,19.35,113.66,21.21-11.35-11.38-22.73-22.79-34.23-34.32-5.62,4.76-11.58,9.81-17.72,15.01-2.69-3.19-5.15-6.11-7.71-9.14,6.03-5.15,11.77-10.05,16.9-14.43-2.57-3-4.82-5.62-7.75-9.04-6.6,6.86-12.88,13.4-19.08,19.85-2.81-2.71-5.49-5.3-8.39-8.11,6.56-6.51,13-12.9,20.4-20.24ZM231.15,172.59c-19.6,16.66-38.77,32.95-58.55,49.77,3.06,2.82,5.91,5.24,8.51,7.91,2.57,2.65,4.89,5.55,7.75,8.82,6.27-19.61,17.4-29.42,30.38-27.71v11.32c-1.81.37-3.43.59-4.98,1.05-10.01,2.94-16.79,17.38-12.61,26.79,1.84,4.14,8.85,7.62,13.68,6.8,5.57-.95,9.74-5.58,10-11.49.2-4.49.21-9,.03-13.49-.26-6.43.68-12.42,3.25-18.51,5.52-13.11,5.9-26.79,2.53-41.26ZM267.78,304.69v77.99c6.02-.67,11.71-1.3,17.44-1.94v-77.88c-5.97.63-11.68,1.23-17.44,1.83ZM353.53,235.89c4.81-4.51,5.22-8.34,1.23-12.82-1.72-1.94-3.71-3.85-5.96-5.06-5.69-3.08-11.41-6.24-17.44-8.51-20.22-7.63-41.4-11.1-62.76-13.54-7.66-.87-15.35-1.42-23.24-2.14-.53,4.17-1,7.92-1.5,11.89,2.93.25,5.52.49,8.13.69,22.95,1.72,45.69,4.73,67.79,11.37,12.36,3.71,24.43,8.16,33.75,18.12ZM303.95,226.85c-.21-.37-.43-.75-.64-1.12-5.61-1.08-11.24-2.06-16.81-3.27-2.45-.53-4.13,0-5.93,1.83-12.27,12.44-24.67,24.75-37.02,37.11-.74.74-1.38,1.57-2.65,3.03,9.03-.78,17.21-1.4,25.36-2.28,1.3-.14,2.67-1.23,3.67-2.22,9.58-9.48,19.07-19.05,28.64-28.54,1.66-1.65,3.58-3.04,5.37-4.55ZM343.97,242.99c-2.45-1.88-4.22-3.73-6.37-4.78-5.58-2.73-11.34-5.08-17-7.65-2.21-1-3.74-.64-5.52,1.2-6.93,7.19-14.05,14.18-21.13,21.22-1.83,1.81-3.77,3.5-5.67,5.25.22.32.45.63.67.95,18.7-3.22,37.13-7.33,55.02-16.18ZM237.41,249.45c9.57-9.5,19.55-19.4,29.94-29.71-8.72-.68-17.25-1.38-25.78-1.94-.61-.04-1.66.72-1.86,1.32-.9,2.81-2.09,5.66-2.21,8.54-.31,7.48-.1,14.98-.1,21.8ZM57.33,239.13c-7.45,3.8-12.36,10.02-11.85,14.65.51,4.56,6.87,11.35,11.85,12.59v-27.24ZM369.73,238.71v28.51c5.45-4,11.52-7.23,11.54-14.24.03-7.05-6.1-10.22-11.54-14.27Z"/>
  <path class="cls-1" d="M113.09,37.23h10.23c.15,6.2-1.85,11.42-5.35,16.17-1.92,2.6-4.2,5.1-5.43,8.01-2.31,5.47-1.35,10.77,2.52,15.4,4.73,5.66,8.51,11.72,8.26,19.79h-10.42c-2.61-4.42-4.69-8.73-7.47-12.52-8.02-10.93-8.01-23.38.05-34.25,2.74-3.7,4.8-7.9,7.61-12.6Z"/>
  <path class="cls-1" d="M159.33,37.06c.13,6.3-1.94,11.6-5.57,16.42-1.87,2.48-4.05,4.9-5.22,7.7-2.28,5.47-1.33,10.75,2.51,15.41,3.84,4.66,7.3,9.53,8.05,15.76.16,1.32.21,2.66.32,4.21h-10.36c-2.81-4.7-5-9.09-7.86-12.99-7.69-10.48-7.78-23.15.13-33.61,2.92-3.86,6.39-7.45,6.08-12.9h11.92Z"/>
  <path class="cls-1" d="M195.46,96.71h-10.62c-2.26-4.08-3.82-7.87-6.2-11.05-9.61-12.8-9.64-24.42-.06-37.24,2.39-3.19,3.98-6.98,6.33-11.18h10.41c.21,6.14-1.79,11.34-5.27,16.09-1.84,2.51-4.03,4.88-5.29,7.67-2.52,5.57-1.64,10.96,2.27,15.75,3.81,4.68,7.31,9.52,8.08,15.75.16,1.33.23,2.67.36,4.22Z"/>
  <path class="cls-1" d="M171.76,323.64c-.24,4.09-.45,7.79-.69,11.92-35.49-2.7-70.24-7.29-103.88-19.94,1.53-3.82,2.95-7.34,4.47-11.13,32.28,12.13,65.77,16.34,100.1,19.15Z"/>
  <path class="cls-1" d="M213.31,324.9v11.71h-23.69v-11.71h23.69Z"/>
</svg>