<?xml version="1.0" encoding="UTF-8"?>
<svg id="Layer_1" data-name="Layer 1" xmlns="http://www.w3.org/2000/svg" version="1.1" viewBox="0 0 428 428">
  <defs>
    <style>
      .cls-1 {
        fill: #000;
        stroke-width: 0px;
      }
    </style>
  </defs>
  <path class="cls-1" d="M403.6,175.83c-.71-1.88-1.45-3.82-2.05-5.8-19.15-64.07-57.82-106.84-114.96-127.13-54.52-19.35-107.41-17.51-157.2,5.47-36.23,16.72-64.6,44.16-86.72,83.88-6.76,12.14-12.14,24.88-16,37.89-.6,2.01-1.42,3.95-2.22,5.83-.33.77-.65,1.53-.96,2.31v6.99c2.4,6.52,6.46,11.86,12.43,16.31,1.37,1.01,2.17,2.89,2.47,4.31l3.1,14.85c6.91,33.09,14.05,67.32,20.82,101.03,1.61,8.04,5.7,14.51,12.51,19.79,11.31,8.78,24.64,13.44,37.36,17.18,4.61,1.35,9.44,2.56,14.77,3.7,2.68.57,3.82,2.07,3.67,4.85-.33,6.37-.55,12.68-.79,20.2-.11,3.23.68,5.81,2.27,7.48,1.27,1.33,2.98,2.02,5.11,2.05.05,0,.09,0,.14,0,4.61,0,7.51-3.31,7.76-8.88l.98-22,1.64.24c44.65,6.44,88,6.42,132.52-.06l1.64-.24.08,1.65c.24,5.08.47,9.99.69,14.91.04.9.08,1.8.12,2.7.05,1.22.1,2.44.16,3.66.25,4.92,3.4,8.15,7.9,8.03,4.58-.12,7.47-3.44,7.36-8.47-.12-5.62-.33-13.03-.81-20.54-.22-3.41.97-4.97,4.39-5.75,15.42-3.52,31.66-8.01,46-16.99,3.13-1.95,6.31-4.46,9.74-7.68,3.8-3.56,6.21-8.07,7.38-13.77,4.91-24.12,10-48.62,14.92-72.31,3.04-14.63,6.08-29.27,9.1-43.91.67-3.25,2.08-5.5,4.56-7.29,4.94-3.56,8.64-8.64,11-15.11v-6.97c-.29-.8-.6-1.6-.9-2.4ZM51.96,149.25c.11-.37.2-.7.28-1.01.17-.62.32-1.21.61-1.79,21.38-42.33,51.25-71.07,91.34-87.88,23.96-10.04,50.61-14.07,81.44-12.31,26.46,1.52,49.56,7.23,70.62,17.48,35.85,17.44,63.12,45.83,81.05,84.38.17.38.27.71.4,1.14l.29.1v10.65l-2.7-8.42c-1.72-.61-3.42-1.22-5.09-1.82-4.02-1.45-7.81-2.82-11.7-4.02-20.36-6.29-42.48-10.46-71.72-13.49-34.8-3.6-69.99-4.6-104.59-2.97-33.73,1.59-73.47,4.79-112.39,16.41-3.52,1.05-6.97,2.28-10.64,3.58-1.72.61-3.48,1.23-5.29,1.85l-2.79.96.87-2.82ZM370.69,220.9c-.8,4.03-1.58,7.96-2.39,11.88-1.7,8.2-3.42,16.4-5.14,24.6-4.15,19.8-8.43,40.28-12.46,60.45-1.12,5.59-3.87,9.71-8.65,12.96-10.05,6.83-21.49,10.6-32.37,13.66-19.58,5.52-41.05,8.85-67.54,10.47-9.58.59-19.11.88-28.56.88-15.43,0-30.63-.78-45.44-2.35-21.17-2.23-46.07-5.88-70.24-16.02-1.64-.69-3.24-1.49-4.78-2.26-.57-.28-1.14-.57-1.71-.84-8.54-4.2-13.14-10.3-14.93-19.78-4.35-23.01-9.25-46.32-13.99-68.87-1.88-8.94-3.76-17.89-5.61-26.83-.16-.77-.25-1.53-.33-2.34-.04-.39-.09-.79-.14-1.21l-.22-1.7h1.96l.23.08c54.96,18.08,111.85,20.43,155.36,20.43h.45c46.32-.02,101.04-2.46,155.66-20.47l2.45-.81-1.61,8.06ZM60.93,196.77l4.38-1.17c3.06-.82,6.17-1.7,9.18-2.55,6.53-1.85,13.28-3.76,20.04-5.2,42.36-8.99,89.03-12.56,142.69-10.92,34.17,1.03,62.39,4.02,88.79,9.39,8.5,1.73,17.04,3.94,25.29,6.08,3.79.98,7.57,1.96,11.37,2.9l1.49.37-.95,3.46-.72.27c-32.51,12.11-87.29,19.27-147.05,19.27-1.12,0-2.24,0-3.37,0-60.76-.27-115.69-7.83-146.93-20.23l-4.21-1.67ZM384.92,187.91l-.96-1.09-.64,1.33c-36.2-16.69-75.57-21.4-109.63-24.5-31.88-2.91-65.7-3.37-100.54-1.37-29.62,1.71-68.47,5.19-106.25,17.09-3.43,1.08-7.08,2.4-11.15,4.03-2.58,1.03-5.18,2.21-7.7,3.34-1.07.48-2.15.97-3.23,1.45l-.83.37-.71-.57c-3.04-2.43-4.48-4.75-4.4-7.09.08-2.2,1.46-4.19,4.22-6.09,6.2-4.28,12.47-7.68,18.62-10.09,21.59-8.45,43.86-12.3,64.71-15.2,32.48-4.52,67.31-6.24,106.46-5.25,32.35.8,74.9,3.25,117.12,15.1,7.83,2.19,15.48,5.33,22.89,8.36l3.19,1.3c3.56,1.44,6.76,3.92,8.86,5.67,2.78,2.31,4.03,4.29,4.06,6.43.03,2.17-1.24,4.27-4.11,6.79Z"/>
  <path class="cls-1" d="M234.22,202.95c2.49.73,4.46,3.02,5.42,4.32,2.2,3,5.46,4.36,8.49,3.57,3.42-.9,5.81-3.67,6.79-7.84-.45-.86-.86-1.75-1.26-2.62-1-2.2-1.95-4.27-3.42-5.47-3.81-3.09-8.35-5.59-12.78-7.03-11.92-3.87-24.9-4.72-38.59-2.51-7.3,1.18-14.55,3.79-20.69,6.19-4.04,1.58-6.8,4.97-7.78,9.54-.87,4.06,1.04,7.91,4.64,9.38,3.65,1.48,7.3.13,9.79-3.61.94-1.42,2.65-3.15,4.64-3.75,7.5-2.26,15.06-3.39,22.63-3.39s14.78,1.08,22.13,3.23Z"/>
</svg>