<?xml version="1.0" encoding="UTF-8"?>
<svg id="Layer_1" data-name="Layer 1" xmlns="http://www.w3.org/2000/svg" version="1.1" viewBox="0 0 428 428">
  <defs>
    <style>
      .cls-1 {
        fill: #000;
        stroke-width: 0px;
      }
    </style>
  </defs>
  <path class="cls-1" d="M373.47,266.8l-3.85.3,1.83-3.3,1.01-2.49c8.39-20.6,7.8-33.22,6.12-42.86-5.25-30.16-22.05-50.35-49.94-60.03-27.61-9.56-53.72-3.95-75.52,16.2-10.87,10.04-22.42,14.36-36.35,13.59-18.33-1-34.71,5.47-48.64,19.25-1.85,1.84-4.84,3.03-7.63,3.04-6.09.05-12.3.05-18.3.05h-5.5c-7.8,0-15.86,0-23.75.12-6.23.09-11.1.65-15.34,1.77-25.11,6.64-41.12,22.96-47.59,48.5-.04.16-.07.28-.1.4l-.02.1c-.87,3.79-3.14,5.69-6.66,5.58-5.08-.12-10.28-.15-15.32-.18-.64-.03-1.29,0-1.93,0v13.49c.16.66.3,1.32.45,1.98l.08.37c.38,1.67.77,3.39,1.21,5.03,6.06,22.6,26.07,38.32,49.78,39.12,2.91.1,5.89.07,8.76.04h1.39c.94-.02,1.87-.03,2.81-.03h2.8l.96,2.64c.41,1.13.79,2.25,1.16,3.37l.18.55c.9,2.69,1.73,5.17,2.81,7.42,9.83,20.35,25.79,30.8,47.43,31.05,38.62.45,77.48.32,115.06.19l21.36-.07c23.5-.07,44.16-16.21,50.24-39.25.16-.64.37-1.25.61-1.96l.2-.59c.09-.28.2-.58.31-.93l.9-2.77h2.91c1.92,0,3.95.06,5.58.1h.12c3.85.1,7.83.2,11.6-.16,23.81-2.27,43-20.42,46.66-44.16.14-.88.41-1.59.62-2.16v-.03s.01-13.27.01-13.27h-28.52ZM175.7,221.08h0s.62-.77.62-.77c9.87-11.6,24.23-18.06,39.27-17.77,6.03.12,13.08.08,19.66-1.12,9.35-1.69,17.86-6.55,26.77-15.3,13.93-13.69,32.91-19.75,52.05-16.63,19.07,3.1,35.07,14.79,43.9,32.09,10.28,20.13,9.29,40.53-2.93,60.61-2.02,3.33-4.83,4.88-8.84,4.88-23.89-.07-48.07-.07-68.86-.06h-36.38c-21.9,0-44.55-.02-66.81.08-5.12,0-7.8-2.24-8.72-7.27-2.5-13.65,1.25-27.72,10.28-38.75ZM65.05,261.62c.09-.35.18-.7.25-1.05.23-.98.48-2.06.94-3.18,7.7-19.18,22.05-30.17,41.5-31.76,9.75-.79,19.61-.59,29.14-.4,2.66.05,12.74.04,18.79.03l-1.84,5.41c-3.37,9.94-4.29,20.22-2.8,31.45l.61,4.53h-87.34l-.87.96,1.61-5.99ZM318.03,330.49h.02l-.85,2.07c-.14.33-.26.65-.37.95l-.12.33c-.35.93-.74,1.99-1.32,3.03-7.3,13.32-18.76,20.41-33.14,20.49-19.74.11-41.22.16-65.65.16s-50.16-.06-70.85-.11c-15.73-.04-31.03-11.16-34.83-25.32l-.14-.5v-4.55h208.65l-1.39,3.44ZM384.95,287.17c-.1.27-.19.54-.27.79l-.11.34c-.27.81-.54,1.64-.98,2.5-6.38,12.42-16.47,19.53-30.02,21.14-2.07.24-4.24.36-6.45.36h-89.33c-58.95,0-117.9,0-176.85.03-16.97,0-29.3-7.33-36.7-21.8-.37-.72-.62-1.39-.89-2.13l-.04-.11c-.12-.31-.24-.65-.39-1.03l-2.13-5.45h346.06l-1.92,5.36Z"/>
  <path class="cls-1" d="M166.86,123.12l.47.5c6.41,7.24,6.44,14.38.08,21.86l-1,1.17c-1.81,2.11-3.3,3.87-4.6,5.78-2.61,3.84-4.11,7.74-4.55,11.87h14.83c1.11-3.6,3.46-6.16,5.55-8.45.75-.81,1.34-1.46,1.89-2.14,9.42-11.56,9.51-26.46.22-37.97-.71-.9-1.45-1.75-2.24-2.65l-.3-.35c-.43-.49-.85-.98-1.27-1.48-5.91-6.92-5.99-13.96-.24-20.92.52-.64,1.07-1.27,1.6-1.9l.33-.38c1.44-1.71,2.81-3.32,4-5.02,2.64-3.75,4.18-7.71,4.7-12.06h-14.62c-.21.31-.41.61-.61.91l-.64.96c-1.7,2.58-3.31,5.03-5.31,7.29-7.23,8.22-9.63,17.31-7.33,27.76,1.31,5.95,5.14,10.78,9.04,15.21Z"/>
  <path class="cls-1" d="M121.15,137.24l1.31,1.48-.09.04c4.97,6.57,4.61,13.31-1.06,20.07-.47.56-.96,1.13-1.44,1.69-1.39,1.62-2.82,3.29-4.03,5.02-2.72,3.84-4.3,7.88-4.8,12.31h14.54c.41-.6.81-1.18,1.2-1.75l.16-.23c1.76-2.59,3.42-5.03,5.35-7.37,4.61-5.59,7.09-10.77,7.81-16.3,1.27-9.7-1.81-18.18-9.68-26.69-6.8-7.33-6.9-14.25-.34-22.44,3.04-3.79,6.13-7.9,8.21-12.2.89-1.84,1.32-4.15,1.74-6.62h-3.41c-3.91,0-7.62,0-11.27.04-1.11,3.76-3.59,6.43-5.62,8.61l-.14.15c-.64.69-1.25,1.35-1.79,2.01-5.51,6.78-7.74,14.25-6.81,22.85.83,7.81,5.38,13.91,10.17,19.33Z"/>
</svg>