<?xml version="1.0" encoding="UTF-8"?>
<svg id="Layer_1" fill="currentColor" data-name="Layer 1" xmlns="http://www.w3.org/2000/svg" version="1.1" viewBox="0 0 428 428">
  <defs>
    <style>
      .cls-1 {
        fill: #000;
        stroke-width: 0px;
      }
    </style>
  </defs>
  <path class="cls-1" d="M365.63,234.35c-4.24-4.19-7.7-4.19-11.93,0-3.74,3.7-7.41,7.4-11.3,11.32-1.8,1.82-3.64,3.67-5.53,5.57l-1.36,1.36-.34-1.89c-.08-.43-.15-.79-.21-1.1-.13-.64-.22-1.1-.24-1.6-.33-6.51-2.61-8.73-9.02-8.79-2.13-.01-4.26,0-6.39,0h-4.76s1.15-2.36,1.15-2.36c1.34-2.76,2.57-5.29,3.83-7.9l.35-.73.79.19c7.65,1.89,14.67.72,20.31-3.37,5.71-4.14,9.31-10.94,9.89-18.66l.06-.85.85-.07c9.06-.76,15.7-4.7,19.74-11.71,4.09-7.09,4.22-14.69.38-22.59l-.32-.66.54-.5c6.84-6.42,10.49-13.51,10.56-20.49.06-5.74-2.39-11.2-7.07-15.79-4.54-4.44-11.1-6.83-17.54-6.37-4.8.34-11.81,2.42-17.93,10.38l-.46.6-6.64-2.71.24-.86c3.37-11.95.4-21.19-8.81-27.44-8.98-6.1-18.4-5.61-27.98,1.47l-1.46,1.08-.13-1.81c-.1-1.32-.15-2.63-.2-3.92-.11-2.78-.22-5.4-.73-7.94-1.26-6.23-4.81-11.87-10.85-17.24-15.49-13.75-31.13-21.36-47.84-23.27-12.45-1.42-23.42-.32-33.56,3.36-11.54,4.19-17.87,12.73-19.33,26.12-.49,4.55-1.62,9.49-3.33,14.69-1.09,3.28-2.03,6.73-2.2,10.34l.78,7.04,1.94,7.07-1.43-2.42c.63,5.73,1.26,11.46,1.92,17.18.62,5.42,3.06,9.74,7.46,13.21l1.33,1.05-7.79,3.25c-2.22.92-4.36,1.82-6.42,2.68l-1.6.67.23-1.72c.17-1.3.47-2.64.76-3.94.61-2.72,1.24-5.52.62-7.83-2.42-9.15-2.33-16.96.29-24.59.31-.92.42-1.93.54-3.01.04-.4.09-.81.14-1.21-.08-.12-.16-.25-.24-.37-.38-.57-.77-1.17-.99-1.88-1.75-5.53-4.47-9.2-8.09-10.91-3.6-1.71-8.15-1.49-13.51.64-.46.18-.93.35-1.39.52l-2.14.8.19-1.63c.13-1.11.28-2.2.43-3.28.33-2.31.63-4.49.68-6.69.1-4.99-1.86-9.5-5.38-12.37-3.54-2.88-8.16-3.85-13.02-2.74-2.18.5-4.24,1.45-6.42,2.45-1.45.67-2.96,1.36-4.5,1.91-.38.14-.78.28-1.18.43-2.25.84-4.8,1.79-7.1,1.36-6.89-1.3-13.17.19-19.2,4.55-7.5,8.42-6.81,16.74,2.31,27.8l.94,1.14-1.41.45c-.86.27-1.68.52-2.47.76-1.45.44-2.81.86-4.14,1.33-6.16,2.17-10.8,6.2-13.8,11.97-3.03,5.83-3.29,11.5-.75,15.99,2.53,4.45,7.5,7.12,14,7.5,2.67.16,5.8-.29,9.56-1.39,5.33-1.56,8.51-1.73,14.42,1.27l1.7.86-1.68.91c-13.38,7.23-20.53,15.1-23.2,25.51l-1.14,4.47-.81-4.54c-.27-1.51-.5-3.04-.74-4.67-.56-3.73-1.13-7.59-2.23-11.28-2.64-8.83-8.72-14.51-18.08-16.86-5.94-1.49-11.57.82-14.69,6.03-3.53,5.89-4.14,12.02-1.81,18.21,1.68,4.47,1.68,8.5,0,12.69-1.92,4.79-1.88,9.84.12,15,3.13,8.03,8.81,10.99,17.37,9.06.3-.07.61-.11,1.23-.2.33-.05.75-.1,1.31-.19l4.26-.62-3.55,2.44c-7.16,4.92-13.41,9.21-19.67,13.5-2.9,1.99-5.8,3.97-8.7,5.96-4.32,2.95-8.63,5.9-12.94,8.87-2.61,1.8-4.03,3.61-4.36,5.54-.32,1.93.43,4.11,2.31,6.66,12.92,17.58,26.56,36.08,42.91,58.23,3.86,5.24,6.98,5.78,12.33,2.15,2.82-1.91,5.64-3.83,8.45-5.75l3.93-2.68c.24-.17.49-.25.78-.34.13-.04.3-.1.51-.17l.69-.25.44.59c.6.8,1.21,1.62,1.83,2.44,1.19,1.6,2.41,3.22,3.65,4.82,3.29,4.25,6.58,4.79,11.01,1.82,5.89-3.96,11.85-8.04,17.62-11.98,2.79-1.91,5.59-3.83,8.39-5.73.84-.58,2-1.32,3.46-1.89l3.35-1.3-2.2,2.84c-5.08,6.57-7.6,13.67-7.68,21.71v1.2s-1.19-.22-1.19-.22c-11.95-2.29-21.99.59-29.84,8.57-7.77,7.9-10.33,17.8-7.84,30.27l.55,2.75-2.16-1.78c-27.05-22.25-45.64-49.3-56.81-82.68l-13.13,4.16c.03.12.07.25.1.37.22.8.43,1.56.69,2.27,12.76,34.51,31.61,62.63,56.02,83.57,24.4,20.93,55.04,35.3,91.08,42.69,4.88,1,9.94,1.59,14.84,2.17,2.29.27,4.58.54,6.86.85h10.9v-13.79c-5.6-.37-11.1-.73-16.56-1.09l-6.1-.4,18.21-13.37.51,1.12c4.56,10.09,12.01,16.37,22.14,18.66,7.25,1.63,14.25.77,20.83-2.55,15.13-7.65,19.66-22.14,13.46-43.08l-.91-3.06,2.49,2c.38.3.72.56,1.02.79.56.42,1.04.79,1.48,1.22,1.66,1.64,3.3,3.29,4.95,4.93,1.8,1.8,3.6,3.61,5.42,5.4,4.35,4.29,7.89,4.29,12.2-.02,12.37-12.31,27.01-26.92,41.86-41.91,2.05-2.07,4.15-2.9,6.96-2.88,7.39.14,14.91.09,22.19.05h1.04c6.36-.04,8.74-2.44,8.77-8.86,0-1.69.02-3.39.03-5.08.04-5.58.09-11.34-.1-17-.12-3.63,1.01-6.3,3.77-8.91,4.72-4.46,9.37-9.18,13.87-13.74l3.12-3.16c4.55-4.6,4.58-7.99.1-12.49-6.91-6.94-14.32-14.38-21.74-21.73ZM353.31,143.97c1.69-1.72,3.99-2.7,6.31-2.7h.06c4.81.03,8.79,4,8.88,8.83l.05,2.57-.29-.31c-.38,1.6-1.18,3.08-2.37,4.28-1.68,1.71-3.91,2.65-6.28,2.65h-.04c-4.74-.02-8.83-4.07-8.94-8.83-.05-2.38.9-4.75,2.62-6.49ZM345.24,176.04c1.7-1.73,4.03-2.72,6.4-2.72h.04c2.43.01,4.71.99,6.43,2.76,1.71,1.76,2.61,4.04,2.55,6.43-.12,4.86-4.09,8.67-9.02,8.67s-8.88-3.82-8.99-8.71c-.05-2.39.86-4.68,2.59-6.43ZM63.11,199.05l-2.07.74.8-2.05c4.06-10.43,4.3-20.4.75-30.5l-.72-2.04,2.02.78c7.96,3.06,8.4,10.03,8.75,15.62.56,8.83-2.83,15.03-9.53,17.44ZM303.87,210.51l-.02,2.35-1.68-1.64c-.84-.88-1.63-1.71-2.41-2.54-1.72-1.82-3.5-3.71-5.3-5.51-5.22-5.24-8.25-5.26-13.5-.08-.63.63-1.29,1.23-1.83,1.72l-1.4,1.28-.56-1.27c-2.53-5.73-5.05-11.41-7.55-17.05l-2.63-5.93,13.17-6.29.48.35c9.95,7.32,20.05,7.31,30.03-.01l.48-.35.54.26c2.68,1.28,5.31,2.53,7.88,3.75l6.59,3.13-2.58.71c-13.14,3.64-19.59,12.51-19.71,27.12ZM259.89,271.1l1.15-1.59c.7-.97,1.39-1.89,2.06-2.8,1.5-2.03,2.92-3.94,4.2-5.93,1.29-2,2.46-4.11,3.71-6.35.57-1.02,1.15-2.07,1.77-3.16l.64-1.12.93.9c.59.57,1.17,1.16,1.74,1.74,1.34,1.35,2.6,2.62,4,3.76,1.16.94,2.45,1.8,3.7,2.64,1.04.7,2.12,1.41,3.15,2.19.89.66,1.6,1.87,1.72,2.93.14,1.35.12,2.67.09,4.07-.01.56-.02,1.13-.02,1.72v1h-28.84ZM280.57,285.47v17.58h-17.5v-17.58h17.5ZM256.05,190.9l1.12,1.14-1.51.51c-6.02,2.03-11.84,4.33-17.5,6.92v1.39s-.7-1.07-.7-1.07c-11.28,5.22-21.94,11.61-32.22,19.31-14.83,11.1-27.95,24.49-38.98,39.79l-.42.59-.69-.22c-.17-.05-.34-.11-.51-.16l-1.3-.4.19-.89c.07-.31.12-.64.17-.96.12-.82.25-1.67.65-2.46,4.74-9.58,11.49-18.14,20.07-25.46,13.86-11.82,29.86-21.94,47.57-30.08.86-.39,1.72-.79,2.66-1.23l1.21-.56-5.82-12.87c-25.84,12.46-54.91,28.16-75.17,56.24l-1.46,2.03-.34-2.47c-.2-1.42-.4-2.84-.6-4.26-.57-3.97-1.16-8.07-1.54-12.13-.14-1.6,1.44-3.35,2.39-4.13,25.06-20.57,53.87-34.75,85.63-42.15,1.17-.27,3.28-.3,4.36.73,3.11,2.96,6.12,6.04,9.3,9.31,1.13,1.16,2.28,2.34,3.47,3.56ZM254.69,158.29c-.01-4.76,3.99-8.88,8.74-8.99,2.4-.07,4.67.81,6.35,2.45,1.73,1.68,2.68,4,2.69,6.52.02,5.06-3.59,8.8-8.58,8.9-.06,0-.13,0-.19,0-2.42,0-4.67-.91-6.36-2.56-1.7-1.67-2.63-3.91-2.64-6.32ZM178.19,287.34h-3.59c-.96,0-1.9-.02-2.84-.04-2.09-.04-4.07-.09-6.03.1-1.99.19-3.99.58-6.3,1.03-1.15.22-2.38.46-3.71.7l-.51.09-1.21-1.21.97-.69,10.73-7.51,12.49,7.54ZM167.81,301.38c4.53,0,8.79,1.79,11.99,5.03,3.19,3.23,4.92,7.49,4.86,12.01-.1,9.27-7.71,16.76-16.98,16.76-.05,0-.09,0-.14,0l-.99-.04c-4.21-.27-8.11-2.04-11.07-5.06-3.15-3.21-4.86-7.45-4.81-11.93.11-9.4,7.64-16.76,17.14-16.76ZM180.52,272.36c-.83-.46-1.64-.97-2.5-1.5-.4-.25-.82-.52-1.28-.79l-.92-.56.63-.88c22-30.54,49.77-51.22,84.91-63.23l1.32-.45v1.33c.18,1.21.36,2.35.54,3.43.45,2.83.84,5.27,1.08,7.76.14,1.43-.81,2.9-1.38,3.65-.67.87-1.47,1.62-2.24,2.35-.42.39-.84.79-1.23,1.2-1.94,2.02-2.9,3.99-2.86,5.85.04,1.74.95,3.47,2.72,5.17h0c2.67,2.56,2.52,4.81,1.41,7.59-6.03,15.16-18.3,27.04-33.65,32.59-6.28,2.27-12.84,3.4-19.38,3.4-9.4,0-18.75-2.32-27.17-6.9ZM287.64,243.6l-13.38-13.59,13.02-12.87.7.71c3.89,3.9,7.97,8,11.97,12.03l.7.71-13.02,13.02ZM334.06,212.53c-1.72,1.71-4.01,2.65-6.44,2.65-.05,0-.1,0-.15,0l-2.28-.04.23-.24c-3.88-.98-6.76-4.49-6.76-8.61,0-2.36.99-4.69,2.73-6.39,1.74-1.7,4.1-2.64,6.47-2.59,4.81.11,8.77,4.12,8.81,8.94.02,2.36-.9,4.59-2.61,6.28ZM327.9,149.31c4.81.14,8.75,4.15,8.78,8.95.02,2.36-.91,4.59-2.62,6.28-1.72,1.7-4,2.64-6.42,2.64-.05,0-.1,0-.15,0l-.98-.02v-.06c-4.46-.51-7.61-4.08-7.61-8.83,0-2.57.95-4.91,2.66-6.58,1.66-1.61,3.9-2.47,6.34-2.39ZM311.46,117.28h0c2.4-.04,4.66.84,6.38,2.52,1.76,1.72,2.72,4.03,2.72,6.51,0,4.91-3.82,8.86-8.7,8.98-.07,0-.15,0-.22,0-2.3,0-4.49-.91-6.19-2.56-1.75-1.71-2.76-4.06-2.76-6.46.01-4.86,3.95-8.89,8.77-8.99ZM295.85,149.32c4.82.11,8.76,4.12,8.8,8.93.02,2.39-.91,4.64-2.6,6.31-1.7,1.69-3.98,2.61-6.42,2.61-.04,0-.09,0-.13,0-2.45-.03-4.66-.94-6.22-2.56-1.62-1.68-2.47-4.06-2.41-6.7.06-2.39,1.02-4.59,2.69-6.2,1.68-1.61,3.91-2.46,6.28-2.41ZM286.89,128.54l1.24-1.41.47,1.82c.32,1.24.65,2.47.97,3.69l.7,2.65-3.19,1.69c-2.47,1.31-4.92,2.62-7.38,3.93l-.81.43-1.42-2.19.51-.57c2.92-3.29,5.84-6.59,8.9-10.05ZM191.7,106.89c2.72-7.16,4.39-14.56,5.12-22.63.59-6.49,4.46-10.92,10.9-12.46,4.5-1.07,9.15-1.75,13.64-2.41,1.96-.29,3.92-.57,5.87-.89l.11-.02h.11c17.32.91,32.48,7.99,47.7,22.27,5.27,4.94,6.8,11.28,4.54,18.85-3.16,10.67-9.34,18.4-18.89,23.62l-.81.44c-8.34,4.56-16.96,9.29-25.37,14.06-3.91,2.22-7.85,3.33-11.8,3.33-3.06,0-6.12-.67-9.17-2-2.22-.97-4.44-1.95-6.66-2.93-3.03-1.34-6.05-2.67-9.09-3.99-3.26-1.41-3.92-4.02-4.13-6.4-.32-3.6-.8-7.25-1.26-10.78-.39-3-.8-6.1-1.11-9.17l-.07-.67c-.29-2.67-.61-5.7.35-8.22ZM216.45,166.62l3.6.71-3.46,1.22c-21.16,7.42-39.97,16.9-57.52,28.96l-2.84,1.95,1.35-3.17c7.81-18.31,32.54-34.86,58.87-29.67ZM160.1,117.72l1.92-.56-.71,1.87c-3.97,10.44-3.94,20.09.08,30.36l3.15,3-4.32-1.48c-6.53-2.24-9.76-7.96-9.6-16.99.16-9.24,3.17-14.39,9.46-16.21ZM138.44,118.87l-.18,1.71c-.7,6.53-1.41,13.11-2.12,19.7.17.4.36.8.54,1.2.52,1.12,1.05,2.28,1.36,3.52,2.59,10.42,8.5,16.83,18.07,19.61h0c1.15.33,2.39.48,3.48.62.48.06.94.12,1.35.18l1.94.31-1.4,1.39c-1.65,1.64-3.34,3.31-4.99,4.95l-6.02,5.97.13-2.58c.6-12.03-7.54-16.79-19.94-20.23l-1.42-.39.88-1.17c3.38-4.49,5.65-8.04,4.05-12.87l.78-.29-.85-.02c-.44-6.06-4.14-10.4-8.22-14.67l-.99-1.03,1.31-.57c3.72-1.63,7.22-3.16,10.64-4.65l1.58-.69ZM136.92,229.09l.21,2.84-1.94-2.09c-3.16-3.41-5.7-7.03-8.16-10.54-3.23-4.6-6.27-8.95-10.31-12.18l-.67-.54.43-.74c5.97-10.36,16.72-14.77,27.21-18.39l2.32-.8-1.1,2.2c-6.43,12.8-9.04,25.96-7.99,40.24ZM103.99,100.01c12.14.8,21.96-.09,30.42-7.06l1.53-1.26.11,1.98c.53,9.85-6.35,16.4-18.42,17.53-.76.07-1.49.11-2.19.11-6.95,0-11.26-3.47-12.5-10.12l-.24-1.27,1.29.08ZM88.71,143.24l-1.83.59.56-1.83c2.04-6.62,7.25-7.94,12.57-8.37,7.86-.65,15.31-.53,19.88,7.98l.79,1.47-1.96-.04c-10.42-3.02-20.24-2.95-30.02.2ZM114.85,173.66c9.01-5.48,17.01-5.54,21.4-.15l.82,1-1.18.54c-1.79.82-3.61,1.57-5.38,2.3-4.01,1.65-7.79,3.21-11.15,5.46-3.37,2.26-6.32,5.21-9.44,8.33-1.43,1.43-2.9,2.91-4.47,4.36l-1.18,1.1-.47-1.54c-2.43-8.26,1.28-15.46,11.05-21.41ZM87.29,188.01l.84,2.55c.3.91.6,1.98.91,3.11.8,2.87,1.79,6.44,3.45,9.54,2.25,4.22,6.7,6.21,13.52,6.1l3.27-.05-7.77,5.43c-1.91,1.33-3.71,2.59-5.54,3.87l-.26.18h-.71l-.3-.27c-1.6-1.48-2.83-3.3-4.02-5.06-2.52-3.74-4.71-6.96-9.78-6.02l-1.81.33,8.19-19.73ZM84.09,296.8c-1.56,1.08-3.13,2.18-4.82,3.35l-.8.55-36.18-49.05.78-.64-.53-.77,37.93-25.99,2.34,1.76-.6.8c-.16.21-.31.45-.46.69-.37.58-.78,1.25-1.43,1.7-5.19,3.62-10.48,7.24-15.61,10.73l-2.94,2c-3.08,2.1-4.67,4-5,5.98-.34,1.97.53,4.28,2.72,7.26l5.74,7.78c6.62,8.96,13.23,17.92,19.84,26.9.46.63.9,1.27,1.39,2,.29.43.6.89.95,1.39l.57.82-3.91,2.72ZM110.48,300.71l-.58-.78c-6.11-8.28-12.18-16.5-18.26-24.73-5.76-7.8-11.52-15.61-17.33-23.49l-.6-.81.82-.59c1.89-1.36,3.66-2.63,5.78-4.15l.8-.58,35.93,48.7h2.69l-9.25,6.44ZM130.36,287.08l-.8.55-.57-.78c-11.86-16.06-23.61-31.98-35.64-48.29l-.62-.83.85-.58c6.18-4.23,12.19-8.35,18.52-12.69l.8-.55.57.78c6.55,8.89,13.06,17.73,19.62,26.62l16.17,21.94v.86l-.43.31c-6.32,4.33-12.26,8.4-18.48,12.67ZM127.66,367.26c-9.36-.01-16.97-7.63-16.97-16.98s7.62-16.95,16.98-17.02h.12c4.34,0,8.66,1.83,11.87,5.04,3.24,3.24,5.07,7.61,5.03,12-.08,9.36-7.7,16.96-16.99,16.96h-.04ZM130.93,382.33l2.28-.95c4.39-1.84,7.95-3.33,11.54-4.83l.77-.32.45.7c1.8,2.8,3.67,5.68,5.7,8.84l4.05,6.27-24.79-9.71ZM175.65,383.17c-.08,0-.16,0-.24,0l-.99-.05c-4.17-.29-8.03-2.07-10.95-5.08-3.14-3.23-4.83-7.5-4.77-12.03.14-9.36,7.64-16.64,17.1-16.64.05,0,.1,0,.15,0,4.5.04,8.89,1.95,12.06,5.25,3.15,3.28,4.82,7.52,4.69,11.94-.28,9.36-7.75,16.61-17.04,16.61ZM198.66,326.28c-.01-9.31,7.62-16.95,17.01-17.02,4.43-.03,8.66,1.73,11.92,4.97,3.24,3.22,5.09,7.62,5.07,12.06-.03,9.36-7.65,16.98-16.98,16.98-9.38-.01-17.02-7.63-17.02-16.98ZM231.82,391.26h-.12c-4.5,0-8.72-1.72-11.9-4.87-3.21-3.17-4.99-7.42-5.02-11.97-.03-4.67,1.77-9.03,5.05-12.28,3.24-3.21,7.56-4.92,12.11-4.87,9.16.13,16.62,7.69,16.65,16.87.02,9.38-7.5,17.06-16.76,17.12ZM252.02,335.98h0c-3.4,3.27-4.03,6.35-2.14,10.6l4.03,4.03-12.64-6.07.56-.94c5.88-9.92,6.41-21.6,1.42-31.24-5.23-10.1-15.39-16.46-27.88-17.45l-4.31-.34-5.05,2.39c-3.14,1.49-6.57,3.11-9.15,4.33l-.62.29-11.55-10.94h2.67s21.04,3.16,21.04,3.16l6.92-.88c11.66-1.49,21.65-5.08,31.42-11.28l1.38-.87.16,1.62c.05.48.1.91.14,1.31.1.83.18,1.54.18,2.28,0,3.22,0,6.45,0,9.68,0,4.26,0,8.53.02,12.79.04,6.33,2.5,8.82,8.79,8.85,2.13,0,4.26,0,6.71,0h6.79s-1.72,1.71-1.72,1.71c-1.97,1.96-3.86,3.84-5.69,5.67-3.95,3.94-7.67,7.67-11.46,11.31ZM292.07,342.98c-3.85,3.84-7.86,7.85-11.68,11.67l-.71.71-.71-.72c-2.93-2.97-6.06-6.13-9.05-9.16l-3-3.03.7-.7c2.33-2.34,4.86-4.88,7.45-7.48l5.85-5.86v2.01l.58.58c3.37,3.36,7.06,7.04,10.56,10.55l.71.71-.71.71ZM312.49,323.07c-2.61,2.55-5.21,5.1-7.67,7.52l-.71.69-13.65-13.58.72-.71c2.47-2.44,5.13-5.05,7.78-7.66l4.49-4.42,13.58,13.71-4.54,4.45ZM320.31,298.24l-.39.3c-.24.19-.47.38-.71.56l-.77.62-.7-.71-11.13-13.62h13.7v12.85ZM320.41,271.1h-17.52v-17.47h17.52v17.47ZM352.56,310.91h-17.61v-17.41h17.61v17.41ZM372.31,263.21c-3.82,3.8-7.87,7.83-11.93,11.88l-.73.73-.71-.75c-3.81-4.04-7.79-8.26-11.55-12.24l-.67-.71.69-.69c2.45-2.45,5.14-5.15,7.85-7.87l4.41-4.42.71.71c1.86,1.86,3.79,3.79,5.74,5.75,2.05,2.05,4.13,4.13,6.19,6.19l.71.71-.71.71Z"/>
  <path class="cls-1" d="M33.01,229.02c0-.27,0-.53,0-.79.02-1.09.03-2.02-.02-2.96-2.35-41.88,8.9-80.48,33.44-114.71,8.73-12.18,17.74-21.89,27.55-29.68.17-.18.33-.36.49-.54.41-.47.84-.95,1.36-1.37,40.66-33.13,86.86-46.49,137.3-39.71,50.01,6.71,90.76,31.38,121.12,73.3.31.43.67.83,1.09,1.3.01.02.03.03.04.05l11.35-7.77c-.14-.27-.26-.47-.38-.65-30.5-42.77-72.06-69.33-123.52-78.95-4.64-.87-9.42-1.49-14.04-2.09-2.17-.28-4.34-.56-6.5-.87h-25.37c-1.34.17-2.69.33-4.04.5-3.01.37-6.12.74-9.16,1.19-36.13,5.29-68.11,19.26-95.04,41.51-35.12,29.02-57.45,66.33-66.37,110.9-1.16,5.79-1.92,11.79-2.65,17.6-.34,2.74-.69,5.47-1.07,8.2v22.26l.88,4.42c2.75-.23,5.49-.46,8.28-.7l5.26-.44Z"/>
  <path class="cls-1" d="M399.93,197.21c-.47-3.9-.96-7.93-1.62-11.85h0c-.78-4.69-1.72-9.27-2.71-14.13-.37-1.8-.74-3.62-1.1-5.46-2.85.77-5.5,1.48-8.12,2.19l-5.57,1.5c5.71,22.19,7.17,44.19,4.48,67.21l13.7,1.73,1.61-11.89v-23.86c-.24-1.81-.46-3.63-.68-5.45Z"/>
  <circle class="cls-1" cx="220.07" cy="91.7" r="9.11"/>
  <circle class="cls-1" cx="257.17" cy="104.43" r="9.11" transform="translate(1.48 212.44) rotate(-45)"/>
  <circle class="cls-1" cx="229.18" cy="122.64" r="9.11" transform="translate(-19.6 197.98) rotate(-45)"/>
</svg>