<?xml version="1.0" encoding="UTF-8"?>
<svg id="Layer_1" fill="currentColor" data-name="Layer 1" xmlns="http://www.w3.org/2000/svg" version="1.1" viewBox="0 0 428 428">
  <defs>
    <style>
      .cls-1 {
        fill: #000;
        stroke-width: 0px;
      }
    </style>
  </defs>
  <path class="cls-1" d="M7,222.35c3.25-15.15,12.86-25.23,25.87-32.69.95-.55,1.85-2.25,1.78-3.35-.5-8.21,1.58-15.64,6-22.53.56-.87.67-2.52.24-3.47-10.76-23.68-4.59-48.25,16.38-64.48,14.06-10.89,30.41-16.65,47.47-20.63,18.04-4.21,36.37-6.05,54.87-6.45,21.98-.48,43.46-4.65,64.91-9.04,24.68-5.04,49.36-10.22,74.72-9.77,26.47.46,51.88,5.47,74.77,19.62,16.94,10.47,29.07,24.63,33,44.76,2.67,13.69.85,26.75-5.49,39.16-.88,1.73-1.46,2.94.12,4.85,14.28,17.25,14.14,35.43-.59,52.52-4.35,5.05-9.51,9.4-14.52,14.28,10.11,6.59,18.65,14.96,22.04,27.31,3.47,12.66-.99,23.56-8.09,34.05.61.77,1.22,1.59,1.87,2.36,11.94,14.13,13.13,30.35,3.08,46-8.56,13.34-21.03,21.97-35.23,28.36-18.3,8.23-37.77,12.31-57.37,15.8-43.33,7.7-86.97,9.84-130.81,6.22-32.49-2.68-64.68-7.4-95.67-18.08-13.71-4.72-26.32-11.49-36.69-21.89-13.93-13.97-22.59-33.81-6.82-54.93-3.38-7.4-6.56-14.39-9.79-21.36-.26-.56-.78-1.06-1.29-1.43-12.37-8.72-21.21-19.93-24.76-34.9v-10.29ZM392.83,166.07c-1.72,1.86-2.96,3.43-4.43,4.73-13.96,12.36-30.42,20.23-47.87,26.17-31.53,10.73-64.25,14.09-97.3,14.92-30.9.77-61.67-1.4-92.36-4.75-17.7-1.93-35.26-4.62-52.3-10.03-4.71-1.49-6.59-4.33-5.35-8.05,1.14-3.41,4.23-4.41,8.83-3.28,9.2,2.27,18.35,4.89,27.68,6.42,29.44,4.82,59.15,7.14,88.96,7.8,31.7.7,63.26-.95,94.36-7.72,21.79-4.74,42.57-12,60.98-25,15.55-10.98,23.15-26.08,22.12-45.05-.92-16.88-9.92-29.33-23.21-39.08-18.62-13.66-39.97-19.12-62.55-20.6-25.06-1.64-49.74,1.41-74.18,6.73-27.71,6.04-55.52,10.91-84.01,11.83-14.41.47-28.87,2.69-43.08,5.3-18.49,3.4-35.52,10.4-49.7,23.47-13.77,12.69-19.8,40.74,3.19,57.05,4.28,3.04,8.96,5.51,13.41,8.33,3.07,1.95,3.88,4.88,2.35,7.82-1.52,2.91-4.48,3.93-7.76,2.61-.85-.34-1.66-.81-2.44-1.3-6.18-3.92-12.35-7.86-18.66-11.89-.12.19-.44.59-.64,1.05-4.95,10.87-1.62,20.35,5.23,29.01,8.52,10.77,20.06,17.3,32.62,22.19,21.76,8.48,44.63,12.38,67.58,15.67,30.88,4.43,61.94,5.69,93.11,4.13,30.74-1.54,61.16-5.45,91.04-12.88,15.66-3.89,30.76-9.37,43.92-19.1,7.79-5.76,13.89-12.85,16.78-22.37,2.78-9.14.08-16.76-6.3-24.14ZM392.41,295.54c-3.05,2.28-5.71,4.43-8.53,6.33-2.83,1.92-5.75,3.73-8.77,5.35-25.94,13.96-54.62,17.83-83.1,22.37-3.24.52-5.66-1.5-6.26-4.78-.6-3.3,1.02-5.59,4.2-6.67.99-.34,2.05-.49,3.09-.67,6.76-1.12,13.53-2.15,20.28-3.33,18.47-3.25,36.61-7.61,53.57-15.96,9.84-4.85,18.56-11.09,24.94-20.17,10.29-14.64,6.76-31.03-8.83-40.52-5.09,15.95-16.41,26.49-30.51,34.26-6.89,3.8-14.11,7.2-21.53,9.81-29.94,10.53-61.18,14.65-92.58,17.39-39.82,3.47-79.58,2.31-119.1-3.85-21.48-3.34-42.86-7.22-63.3-15-1.63-.62-3.28-1.21-4.91-1.81,1.95,3.31,4.23,6.02,6.83,8.4,10.03,9.19,22.04,14.92,34.89,18.71,47.61,14.04,96.36,18.66,145.82,17,8.17-.27,16.32-.94,24.49-1.32,3.9-.18,6.37,1.88,6.67,5.21.3,3.34-1.76,5.78-5.53,6.46-1.16.21-2.36.32-3.54.34-22.27.3-44.56,1.39-66.8.68-32.74-1.05-65.04-6.1-96.72-14.62-16.13-4.34-31.37-10.68-44.84-21.31-4.75,5.99-6.89,12.35-5.36,19.7,2,9.62,7.58,16.97,15.02,23.05,9.84,8.05,21.24,13.19,33.21,17.04,28.26,9.09,57.47,13.28,86.92,15.73,50.4,4.18,100.37.78,149.75-10.2,17.82-3.96,35.09-9.57,50.13-20.46,7.28-5.27,13.1-11.78,16.39-20.33,3.89-10.12,1.45-18.78-5.96-26.81ZM371.63,233.4c-9.14,3.01-17.86,6.37-26.84,8.73-34.17,8.98-69.01,13.28-104.29,14.52-45.98,1.61-91.37-2.62-136-13.82-9.65-2.42-19.14-5.89-28.29-9.84-15.9-6.87-29.6-16.67-38.03-33.45-4.55,3.97-9.13,7.2-12.75,11.28-7.47,8.43-9.09,18.34-3.52,28.17,3.3,5.82,7.93,11.21,12.96,15.67,11.28,10,25.22,15.16,39.53,19.04,31.4,8.52,63.43,13,95.91,14.57,46.35,2.24,92.18-1.52,137.38-12.1,16.36-3.83,32.18-9.2,46.04-19.11,8.33-5.96,14.83-13.4,17.9-23.64Z"/>
  <path class="cls-1" d="M122.32,116.83c-1.16,1.36-2.32,3.89-4.1,4.46-1.83.59-4.89-.03-6.36-1.32-6.65-5.86-8.25-5.98-15.04.17-2.47,2.24-5.23,2.5-7.86.37-2.48-2.01-2.98-4.77-1.34-7.43,3.82-6.2,9.65-9.31,16.83-9.26,7.18.05,12.9,3.25,16.73,9.46.46.75.56,1.72,1.13,3.55Z"/>
  <path class="cls-1" d="M136.49,142.33c6.04.19,11.4,2.84,15.31,8.19,2.37,3.24,2.01,6.64-.76,8.74-2.7,2.05-5.73,1.6-8.39-1.27-4.82-5.18-8.91-5.24-13.67-.2-2.95,3.12-5.81,3.52-8.64,1.2-2.71-2.22-2.93-5.53-.43-8.76,4.04-5.22,9.39-7.88,16.58-7.9Z"/>
  <path class="cls-1" d="M276.18,121.84c6.83.31,12.34,2.93,16.27,8.48,2.13,3.02,1.72,6.45-.84,8.47-2.61,2.06-5.82,1.62-8.4-1.15-4.96-5.31-8.84-5.32-13.9-.02-2.64,2.76-5.8,3.17-8.41,1.07-2.62-2.1-2.98-5.36-.79-8.44,3.95-5.54,9.48-8.12,16.07-8.43Z"/>
  <path class="cls-1" d="M341.67,97.34c6.84.28,12.4,2.8,16.39,8.31,2.28,3.15,1.89,6.75-.81,8.77-2.61,1.96-5.81,1.44-8.39-1.36-4.7-5.1-8.92-5.13-13.66-.1-2.78,2.95-6.06,3.39-8.69,1.16-2.67-2.26-2.83-5.53-.35-8.78,3.92-5.16,9.26-7.59,15.5-7.99Z"/>
  <path class="cls-1" d="M215.76,170.39c6.55.31,11.97,2.85,15.89,8.21,2.4,3.28,2.07,6.58-.71,8.75-2.52,1.97-5.9,1.47-8.42-1.24-4.83-5.19-8.86-5.16-13.89.11-2.49,2.6-5.99,3-8.46.95-2.52-2.09-2.85-5.46-.64-8.49,4-5.48,9.53-8.07,16.24-8.29Z"/>
  <path class="cls-1" d="M231.71,89.23c7.42-.02,12.75,2.64,16.79,7.87,2.42,3.13,2.23,6.64-.34,8.82-2.7,2.29-5.86,1.86-8.67-1.16-4.71-5.06-8.98-5.07-13.68-.03-2.74,2.94-6.06,3.36-8.7,1.1-2.47-2.11-2.74-5.48-.49-8.49,3.94-5.29,9.24-8.03,15.1-8.11Z"/>
</svg>