<?xml version="1.0" encoding="UTF-8"?>
<svg id="Layer_1" fill="currentColor" data-name="Layer 1" xmlns="http://www.w3.org/2000/svg" version="1.1" viewBox="0 0 428 428">
  <defs>
    <style>
      .cls-1 {
        fill: #000;
        stroke-width: 0px;
      }
    </style>
  </defs>
  <path class="cls-1" d="M128.51,373.52c-18.57-3.58-35.61-9.67-50.99-19.66-43.17-28.05-66-67.91-68.46-119.36-.35-7.25,1.08-8.54,8.2-8.55,9.65-.01,19.3,0,27.67,0,3.76-7.88,6.6-15.31,10.64-22.02,8.04-13.36,8.56-26.48-.17-39.41-6.83-10.12-9.87-20.91-8.62-33.07.85-8.26,4.52-15.24,9.01-21.92,5.41-8.04,7.21-16.9,5.02-26.22-1.04-4.43-3.47-8.56-5.43-12.74-3.28-7-6.68-13.93-10.78-22.44-4.41,0-10.7-.3-16.96.06-12.18.7-18.8-8.62-18.66-17.53.17-10.88,7.21-17.56,19.11-17.68,52.33-.53,104.67-1.01,157-1.57,71.5-.77,143-1.59,214.5-2.39,13.35-.15,19.26,5.68,19.27,19.02,0,2.17.01,4.33,0,6.5-.07,11.61-6.03,17.67-17.55,17.57-39-.35-78-.79-117-1.18-41.83-.42-83.67-.82-125.5-1.23-1.81-.02-3.62,0-5.7,0,.23,7.27,4.09,12.54,7.56,17.92,7.42,11.51,9.07,23.95,5.09,36.85-1.59,5.15-4.61,9.93-7.45,14.6-7.79,12.8-8.16,25.6.2,38.05,12.4,18.45,12.43,36.54,0,54.95-2.63,3.89-4.14,8.53-6.66,13.88h7.1c83.35,0,166.69,0,250.04,0,9.39,0,10.17.82,9.85,10.4-2.19,65.26-49.61,122.16-113.41,135.72-4.99,1.06-6.31,2.99-6.14,7.82.36,10.49.15,21,.09,31.51-.03,6-1.48,7.5-7.34,7.5-52.01.03-104.01.02-156.02,0-5.93,0-7.44-1.49-7.47-7.36-.07-10.84-.02-21.67-.02-32.51,0-1.79,0-3.58,0-5.5ZM19.04,236.31c1,7.42,1.6,14.21,2.86,20.88,11.31,59.76,64.1,106.06,124.87,107.76,43.63,1.22,87.34,1.07,130.99.16,60.79-1.26,111.62-42.38,126.67-101.28,2.26-8.86,3.07-18.1,4.6-27.52H19.04ZM214.5,40.01s0-.04,0-.05c60,.64,119.99,1.29,179.99,1.92q14.22.15,14.1-14.2c-.06-7.14-1.39-8.47-8.53-8.39-64.33.7-128.66,1.43-192.99,2.12-59.67.64-119.33,1.24-179,1.89-6.42.07-8.87,2.3-8.75,7.55.11,5.02,2.54,7.01,8.69,7.08,62.16.69,124.33,1.38,186.49,2.08ZM92.89,225.74c3.82-7.91,7.17-14.69,10.37-21.54,2.02-4.33,4.54-8.61,5.57-13.2,2.06-9.15.16-17.82-5.22-25.67-4.36-6.36-7.83-13.05-8.82-20.93-1.61-12.76,2.01-23.84,9.12-34.35,7.56-11.18,7.86-23.21,1.25-34.93-4.65-8.24-10.24-15.97-10.53-26.14h-38.53c2.47,5.18,4.53,9.64,6.7,14.04,2.35,4.76,5.51,9.24,7.06,14.23,4.57,14.67,1.31,28.09-7.19,40.74-8.45,12.59-8.46,25.79-.06,38.41,12.38,18.61,12.45,36.85.04,55.44-2.68,4.02-4.19,8.83-6.52,13.88h36.75ZM105.01,49.47c.23,6.41,3.5,11.6,6.82,16.76,10.86,16.87,11.08,33.87-.04,50.58-9.63,14.46-9.45,28.38.09,42.83,3.22,4.88,5.63,10.66,6.95,16.36,2.72,11.7.19,22.7-6.3,32.94-3.22,5.07-5.6,10.67-8.66,16.61h37.03c3.77-7.79,6.55-14.91,10.48-21.34,8.02-13.14,8.62-26.09.03-38.92-12.24-18.28-12.22-36.21.02-54.49,8.45-12.62,7.95-25.41.24-38.52-3.72-6.34-5.89-13.59-8.89-20.37-.44-.99-1.65-2.32-2.52-2.34-11.64-.16-23.28-.1-35.24-.1ZM139.12,375.42v32.87h149.65v-32.87h-149.65Z"/>
</svg>