<?xml version="1.0" encoding="UTF-8"?>
<svg id="Layer_1" fill="currentColor" data-name="Layer 1" xmlns="http://www.w3.org/2000/svg" version="1.1" viewBox="0 0 428 428">
  <defs>
    <style>
      .cls-1 {
        fill: #000;
        stroke-width: 0px;
      }
    </style>
  </defs>
  <path class="cls-1" d="M411.5,230.89c-2.45,6.67-4.94,13.33-7.29,20.04-.27.78.11,1.95.51,2.79,6.34,13.49,3.87,26.28-7.22,36.2-1.94,1.74-2.51,3.52-2.36,6.05,1.05,16.97-10.01,29.96-26.87,32.14-1.79.23-4.04,1.79-4.94,3.37-9.2,16.2-26.77,20.95-42.8,11.27-2.28-1.38-4.11-1.35-6.36.05-10.84,6.74-21.76,6.71-32.59-.06-2.08-1.3-3.9-1.68-5.97-.07-7.28,5.61-15.4,6.36-24.09,4.22-.99-.24-2.85.31-3.32,1.09-7.83,12.89-19.55,21.03-33.22,26.22-35.33,13.41-70.45,12.88-104.96-3.1-9.06-4.2-16.83-10.26-23.09-18.16-.62-.78-2.07-1.43-3.05-1.32-20.34,2.1-33.92-8.75-36.21-29.06-.04-.38-.16-.75-.28-1.29-2.57-.47-5.26-.71-7.79-1.47-12.37-3.71-19.88-12.11-21.86-24.74-1.94-12.36,2.6-22.58,12.95-29.65,17.47-11.93,35.18-23.51,52.74-35.3,1.99-1.34,3.81-3,5.49-4.72,7.88-8.09,16.96-14.38,27.24-19.08,5.2-2.38,10.15-5.31,15.18-8.07,11.89-6.53,20.92-16.03,29.33-26.6,27.56-34.62,55.65-68.82,83.46-103.25,5.63-6.97,12.39-10.72,21.46-8.6,13.56,3.17,19.74,18.22,12.29,30.02-3.28,5.2-7.01,10.12-10.52,15.17-.7,1.01-1.35,2.05-1.54,3.66,5.58-3.7,11.07-7.56,16.79-11.05,2.68-1.63,5.69-3.14,8.74-3.68,9.15-1.64,17.7,3.1,21.43,11.35,3.79,8.37,1.54,17.96-5.94,23.87-9.86,7.8-19.87,15.39-29.82,23.08-.77.6-1.51,1.23-3.06,2.49,5-.44,9-.87,13.01-1.13,37.56-2.4,71.92,7.02,102.86,28.4,11.73,8.1,18.48,19.67,20.92,33.73.12.72.49,1.39.75,2.08v13.09ZM90.42,277.53c0,2.04,0,3.28,0,4.52,0,15.27.16,30.53-.06,45.8-.13,8.51,2.95,15.47,8.71,21.45,6.16,6.39,13.61,10.87,21.77,14.14,24.75,9.92,50.14,10.83,75.86,4.71,13.52-3.22,26.01-8.7,35.98-18.81,5.83-5.91,8.88-12.9,8.75-21.42-.23-15.39-.07-30.79-.07-46.18v-4.17c-35.35,34.74-115.58,34.73-150.95-.03ZM312.66,164.96c.94,3.25,1.67,5.53,2.26,7.85,2.75,10.8,4,21.77,1.86,32.76-1.76,9.04-10.16,15.13-19.4,14.96-10.05-.18-17.07-5.36-18.74-14.34-.62-3.36-.35-6.9-.32-10.35.07-9.35-2.25-18.03-7.37-25.86-.67-1.02-2.54-2.24-3.45-1.98-6.46,1.89-12.81,4.14-19.57,6.41,7.4,10.7,12.2,21.78,14.56,33.88,1.77,9.08-2.81,18.06-11.22,21.85-1.13.51-2.29.98-3.81,1.62,6.03,8.97,5.65,19.01,5.42,29.64,2.22-1.21,3.76-2.03,5.29-2.89,3.68-2.07,7.21-4.49,11.06-6.18,22.26-9.76,44.02-8.29,64.82,4.07,9.1,5.41,18.31,8.87,29.09,7.69,16.28-1.79,31.03-13.6,35.23-28.64,4.61-16.52-.8-34.02-14.96-43.64-9.37-6.36-19.89-11.02-29.91-16.41-.6-.32-1.34-.38-2.14-.59.29,4.25,1.05,8.24.71,12.14-.52,5.96-1.68,11.88-2.8,17.78-.93,4.95,1.1,8.91,5.67,10.33,4.1,1.28,8.31-1.07,9.94-5.62.61-1.68.95-3.47,1.62-5.12,1.26-3.09,4.21-4.53,7.18-3.44,3.08,1.13,4.39,3.52,3.75,6.7-.45,2.25-1.2,4.46-2.01,6.61-2.58,6.86-7.27,11.61-14.68,12.62-7.75,1.06-14.46-1.34-19.41-7.7-4.51-5.79-4.75-12.23-2.74-18.98,2.7-9.1,2.8-18.2-.11-27.26-.38-1.19-1.34-2.86-2.31-3.08-7.57-1.74-15.2-3.18-23.51-4.85ZM395.46,261.65c-1.19.95-2.17,1.69-3.11,2.49-5.45,4.64-11.55,8.08-18.51,9.87-16,4.12-30.72,1.52-44.93-7.16-20.78-12.7-41.94-12.53-62.85.31-3.48,2.14-7.3,3.72-10.81,5.81-1.05.63-2.23,2.12-2.24,3.23-.21,18.73-.21,37.47-.36,56.21-.02,2.33.87,3.08,3.05,3.39,4.93.7,9.44-.22,13.62-2.85,6.14-3.87,12.22-4,18.39.02,6.83,4.44,13.75,4.36,20.58-.07,6.16-3.99,12.14-3.82,18.36.06,10.06,6.28,20.85,3.38,26.39-7.1,3.04-5.76,7.57-8.7,13.97-9.38,10.88-1.16,17.46-9.08,16.59-20.09-.47-5.85,1.35-10.53,5.6-14.45,1.59-1.47,3.17-3.03,4.43-4.78,3.34-4.65,4.28-9.69,1.83-15.5ZM170.64,292.31c4.73-.63,14.09-1.36,23.23-3.22,13.85-2.82,26.76-8.12,37.3-17.95,13.52-12.6,13.62-28.14.39-41-6.06-5.89-13.23-10.17-21.08-13.14-29.78-11.27-59.65-11.28-89.37.1-9.55,3.65-18.16,9-24.6,17.24-8.18,10.46-8.12,22.06.13,32.45,4.96,6.25,11.36,10.69,18.4,14.27,16.02,8.16,33.24,10.91,55.61,11.24ZM154.54,196.8c11.47.77,22.94,1.6,34.42,2.21.99.05,2.2-1.21,3.07-2.1,5.05-5.21,9.46-11.25,15.17-15.57,10.66-8.07,22.74-13.8,35.34-18.36,1.77-.64,3.53-1.56,5.03-2.7,13.35-10.2,26.64-20.47,39.94-30.74,4.26-3.29,8.61-6.49,12.69-9.99,3.23-2.77,3.63-7.02,1.48-10.47-2.06-3.29-6.04-4.83-9.72-3.5-1.54.55-2.94,1.54-4.32,2.46-43.43,28.91-86.85,57.83-130.27,86.76-1.05.7-2.05,1.46-2.82,2.01ZM78.87,247.35c-.98.51-1.43.7-1.84.97-13.01,8.65-26.07,17.22-38.99,25.99-9.45,6.41-11.67,18.66-5.29,27.71,5.96,8.45,17.72,9.85,26.98,3.04,5.88-4.32,11.62-8.84,17.32-13.4.87-.69,1.73-2.02,1.74-3.06.12-13.57.08-27.14.08-41.26ZM182.08,163.37c.16.19.32.38.49.56.53-.28,1.09-.51,1.58-.84,17.18-11.44,34.37-22.86,51.5-34.37,1.33-.9,2.45-2.24,3.39-3.57,8.88-12.56,17.71-25.16,26.54-37.76,1.03-1.47,2.14-2.91,2.95-4.5,1.86-3.65.82-7.94-2.33-10.35-3.38-2.58-7.72-2.34-10.86.67-1.01.97-1.88,2.1-2.76,3.2-11.72,14.44-23.43,28.88-35.14,43.33-11.79,14.54-23.57,29.09-35.35,43.63ZM281.9,165.5c6.53,11.45,8.51,23.25,7.94,35.65-.2,4.32,3.55,7.69,7.85,7.8,4.22.1,7.86-3.04,8.22-7.55.93-11.78-.55-23.23-4.99-34.27-.75-1.87-1.7-2.54-3.67-2.41-4.85.34-9.71.5-15.35.78ZM221.17,185.69c7.44,8.61,11.92,18.2,14.34,28.88.95,4.21,5.38,6.42,9.65,5.51,3.86-.82,6.8-4.84,6.06-8.98-2.05-11.51-6.66-21.96-13.8-31.24-.54-.71-2.32-1.23-3.08-.88-4.38,2.03-8.62,4.35-13.18,6.72ZM79.25,340.09v-35.27c-6.41,4.55-11.69,8.54-17.24,12.11-2.33,1.5-2.92,3.28-2.86,5.72.28,11.77,8.77,18.87,20.1,17.44ZM202.37,201.57c6.7,2.57,12.85,4.93,18.99,7.29.28-.23.56-.46.84-.69-3.34-5.32-6.69-10.64-10.47-16.65-3.48,3.73-6.23,6.69-9.36,10.05Z"/>
  <path class="cls-1" d="M165.86,344c-5.36-.31-9.88-2.34-13.08-6.81-2.15-2.99-1.8-6.12.76-8.2,2.31-1.88,5.52-1.59,7.94.72,3.78,3.61,5.12,3.62,8.87.02,2.38-2.28,5.62-2.57,7.94-.72,2.54,2.02,2.89,5.24.74,8.2-3.22,4.45-7.73,6.49-13.16,6.78Z"/>
  <path class="cls-1" d="M135.11,331.36c0,1.66.12,3.33-.03,4.98-.3,3.24-2.17,5.19-5.41,5.38-3.28.19-5.53-1.69-5.88-4.83-.41-3.66-.34-7.41-.06-11.09.25-3.23,3.02-5.28,6.15-4.96,3.28.33,5.01,2.3,5.22,5.54.11,1.65.02,3.32.01,4.98Z"/>
  <path class="cls-1" d="M196.7,331.34c0-1.79-.18-3.6.04-5.36.39-3.21,2.3-5.1,5.59-5.16,3.32-.06,5.42,1.84,5.73,5,.35,3.54.27,7.15.03,10.71-.22,3.24-2.93,5.47-5.98,5.21-3.24-.29-5.09-2.19-5.41-5.42-.16-1.64-.03-3.32-.03-4.98,0,0,.01,0,.02,0Z"/>
  <path class="cls-1" d="M165.79,237.44c-6.42,1.54-12.9,2.87-19.23,4.74-2.34.69-4.52,2.43-6.39,4.12-2.95,2.67-2.9,5.56-.04,8.32,1.46,1.4,3.3,2.4,4.95,3.62,2.67,1.98,3.43,5.14,1.89,7.78-1.53,2.62-4.75,3.63-7.72,2.04-6.44-3.45-11.77-8-12.64-15.83-.9-8.15,3.46-13.71,9.87-17.8,11.85-7.55,25.04-8.47,38.55-7.01,7.47.81,14.55,3.02,20.82,7.31,12.63,8.64,12.74,22.71.12,31.31-9.13,6.22-19.53,8.14-30.37,7.93-3.28-.06-5.14-2.12-5.35-5.42-.21-3.27,2.07-5.6,5.66-6.03,4.44-.53,8.98-.67,13.29-1.75,3.65-.92,7.3-2.52,10.47-4.56,5.51-3.54,5.43-7.74.13-11.54-5.48-3.93-11.85-5.36-18.41-6.04-1.78-.18-3.59-.03-5.38-.03-.08-.39-.16-.78-.24-1.18Z"/>
</svg>