<?xml version="1.0" encoding="UTF-8"?>
<svg id="Layer_1" fill="currentColor" data-name="Layer 1" xmlns="http://www.w3.org/2000/svg" version="1.1" viewBox="0 0 428 428">
  <defs>
    <style>
      .cls-1 {
        fill: #000;
        stroke-width: 0px;
      }
    </style>
  </defs>
  <path class="cls-1" d="M412.5,228.63c-2.72,11.17-10.19,18.02-20.25,22.74-4.65,2.18-10.25,4.07-13.11,7.84-2.86,3.76-2.88,9.7-4.08,14.7-3.21,13.4-6.1,26.88-9.63,40.19-9.38,35.31-40.8,59.78-77.29,59.94-49.14.22-98.28.08-147.42.04-10.83,0-21.24-2.21-31.17-6.56-4.05-1.77-5.59-4.9-4.1-8.21,1.4-3.12,4.53-4.09,8.61-2.39,9.79,4.08,19.98,5.64,30.56,5.62,46.43-.1,92.87-.52,139.29.11,36.6.5,65.1-23.7,71.65-56.49,2.47-12.37,5.74-24.58,8.63-36.86.17-.73.24-1.49.33-2.11-6.99,1.96-13.75,4.36-20.71,5.71-18.71,3.65-36.89,1.3-53.67-7.67-12.78-6.83-24.47-6.69-37.4-.12-25.56,13-51.74,12.77-77.28-.25-12.34-6.29-23.64-6.45-35.99-.03-23.4,12.15-47.64,12.71-72.13,2.97-.83-.33-1.66-.67-2.5-.99-.09-.03-.22.04-.77.16,1.6,6.85,3.14,13.72,4.81,20.55,2.35,9.63,4.4,19.36,7.32,28.81,3.2,10.39,9.3,19.19,17.14,26.75,1.11,1.07,2.35,2.11,3.12,3.41,1.6,2.69,1.08,5.31-1.31,7.27-2.4,1.97-5.26,1.99-7.41-.13-4.02-3.98-7.98-8.08-11.47-12.52-8.91-11.33-12.85-24.77-15.88-38.6-2.98-13.58-6.2-27.12-9.55-40.61-.42-1.71-1.97-3.56-3.51-4.5-5.16-3.16-10.57-5.91-15.84-8.88-12.08-6.81-17.5-18.61-14.38-31.18,2.99-12.05,13.31-19.91,26.81-20.43.51-.02,1.01-.11,1.64-.18,5.67-15.16,14.84-27.93,26.74-38.77,1.92-1.75.94-3.06.15-4.7-6.78-14.13-3.42-30.89,8.17-40.89,12.42-10.72,30.32-12.4,42.97-3.44,3.99,2.83,6.9,7.17,10.4,10.72.84.85,2.26,2.06,3.11,1.85,11.47-2.83,22.89-5.87,34.66-8.95-.3-13.26,4.21-25.1,14.63-34.27,8.04-7.08,17.56-10.53,28.32-10.62,18.11-.15,42.44,14.12,42.45,44.94,11.51,3.02,22.92,6.07,34.39,8.88.89.22,2.6-1.09,3.29-2.11,7.99-11.93,19.1-17.8,33.33-15.78,14.94,2.13,25.68,10.21,30.25,25.17,2.56,8.39,1.74,16.62-2.16,24.42-1.21,2.42-.98,3.7.99,5.53,10.91,10.12,19.5,21.9,25.12,35.79.43,1.06,2.04,2.26,3.17,2.34,13.59.97,22.47,8.08,26.23,21.22.13.46.47.86.71,1.29v9.29ZM372.13,200.46c-.89-2.2-1.56-4.13-2.44-5.96-4.7-9.89-11.17-18.52-19.02-26.11-18.39-17.8-40.57-28.96-64.74-36.43-34.15-10.55-69.06-12.97-104.41-8.39-28.37,3.68-55.41,11.72-80.01,26.79-16.4,10.04-30.47,22.5-40.03,39.47-1.86,3.31-3.29,6.86-4.98,10.42,8.98,4.99,17.52,9.5,25.82,14.42,11.69,6.93,23.12,6.91,35.21.67,26.47-13.65,53.26-13.63,79.73,0,11.65,6,22.54,5.85,34.3.09,8.11-3.97,17.09-6.23,25.79-8.9,3.69-1.13,6.76,1.02,7.41,4.28.7,3.57-1.38,5.82-5.34,7.12-8.4,2.75-16.94,5.31-24.95,8.98-13.59,6.21-26.94,6.76-40.15-.21-24.58-12.97-48.98-13.03-73.58-.13-13.95,7.32-27.98,6.93-41.79-.59-9.39-5.11-18.65-10.47-28.09-15.49-7.82-4.16-16.88-1.39-21.02,6.12-4.15,7.52-1.63,16.65,6.09,21.04,10.19,5.79,20.34,11.69,30.8,16.95,22.33,11.22,45.09,11.46,67.25,0,15.92-8.23,30.87-8.3,46.76-.07,22.04,11.41,44.83,11.58,66.86.2,16.35-8.45,31.63-8.46,47.82.15,16.99,9.04,35.21,10.45,53.66,4.86,16.69-5.06,30.94-15.12,45.9-23.65,3.97-2.27,5.62-6.65,5.86-11.26.63-12.08-11.97-20.11-22.86-14.39-9.81,5.14-19.36,10.79-29.13,16-12.65,6.76-25.76,7.33-38.66,1.13-9.23-4.44-18.45-8.44-28.64-10.13-1.79-.3-3.92-2.6-4.56-4.44-.52-1.47.44-4.41,1.73-5.32,1.65-1.16,4.36-1.51,6.46-1.2,9.89,1.48,19.16,4.92,27.97,9.67,8.79,4.74,18.15,5.74,27.16,1.41,10.77-5.17,21.08-11.29,31.82-17.13ZM245.28,110.62c-.1-11.22-4.72-20.52-14.71-26.62-10.99-6.71-22.33-6.53-33.12.48-9.54,6.18-13.93,15.33-13.95,26.14h61.79ZM82.83,147.67c13.65-7.47,27.15-14.85,40.69-22.25-4.32-9.75-17.58-13.53-29.61-7.87-11.91,5.6-16.72,19.05-11.09,30.13ZM345.84,147.62c5.85-9.35,1.27-23.76-9.95-29.61-12.14-6.32-26.18-2.66-30.62,7.41,13.55,7.41,27.04,14.8,40.57,22.2Z"/>
  <path class="cls-1" d="M214.26,314.99c-6.49-.16-12.31-2.5-16.97-7.45-2.71-2.88-2.73-6.16-.22-8.57,2.29-2.2,5.5-2.08,8.31.31,6.49,5.52,11.44,5.5,18.09-.08,2.81-2.36,6.06-2.41,8.31-.14,2.34,2.35,2.38,5.55-.13,8.3-4.58,5.02-10.38,7.43-17.39,7.64Z"/>
  <path class="cls-1" d="M169.53,298.52c0,1.67.1,3.35-.02,5.02-.23,3.27-2.04,5.23-5.31,5.57-3.1.32-5.87-1.85-6.12-5.11-.28-3.58-.27-7.21-.02-10.8.23-3.29,2.91-5.42,6.07-5.16,3.31.27,5.12,2.19,5.37,5.47.13,1.66.02,3.34.02,5.02Z"/>
  <path class="cls-1" d="M259.26,298.29c0-1.67-.13-3.36.03-5.02.31-3.08,2.06-4.97,5.19-5.23,3.33-.28,5.71,1.44,6.1,4.61.46,3.8.45,7.73.06,11.55-.32,3.16-2.56,5.06-5.9,4.89-3.29-.17-5.16-2.13-5.45-5.4-.16-1.79-.03-3.6-.02-5.4Z"/>
  <path class="cls-1" d="M313.46,175.33c-.67,7.72-5.4,14.28-12.47,16.62-7.08,2.34-14.64-.16-19.39-6-1.53-1.87-3.67-3.49-5.86-4.53-8.34-3.94-12.47-13.41-9.31-22.02,3.09-8.43,12.24-13.13,20.96-10.7,10.02,2.79,17.76,8.68,22.9,17.7,1.54,2.7,2.14,5.94,3.17,8.93ZM301.91,175.84c-.23-.2-.46-.4-.69-.61-.04-.38-.06-.77-.14-1.15-1.2-5.88-12.7-15.03-18.61-14.19-1.93.27-4.26,2.36-5.14,4.22-1.19,2.52.12,5.33,2.84,6.33,4.66,1.71,8.09,4.57,11.12,8.49,1.09,1.4,4.45,2.04,6.36,1.52,1.71-.46,2.86-3,4.26-4.62Z"/>
  <path class="cls-1" d="M115.53,175.16c.64-2.33.91-4.85,1.98-6.96,5.32-10.48,13.85-17.18,25.26-19.83,8.63-2,17.25,3.49,19.86,12.03,2.54,8.33-1.6,17.17-9.49,20.98-2.29,1.11-4.5,2.83-6.13,4.79-4.81,5.74-12.45,8.13-19.48,5.66-7.08-2.48-11.64-8.99-11.99-16.67ZM134.1,181.24c.81-.52,2.75-1.12,3.64-2.44,2.63-3.9,5.98-6.54,10.41-8.13,3.12-1.11,4.25-3.81,3.33-6.89-.92-3.1-3.4-4.71-6.58-3.95-7.52,1.8-13.23,6.23-16.78,13.09-1.99,3.83.89,8.24,5.97,8.32Z"/>
  <path class="cls-1" d="M197.11,165.9c0-2.71-.2-5.43.04-8.11.8-9.2,8.19-15.9,17.32-15.87,8.98.03,16.43,6.61,17.08,15.64.41,5.64.41,11.36-.05,16.99-.7,8.75-8.25,15.29-17.01,15.35-8.92.05-16.42-6.59-17.29-15.5-.27-2.81-.04-5.66-.04-8.5-.02,0-.03,0-.05,0ZM220.08,166.01s-.02,0-.03,0c0-2.44.2-4.91-.05-7.33-.34-3.27-2.38-5.13-5.69-5.1-3.31.04-5.4,1.96-5.56,5.23-.23,4.75-.24,9.53.02,14.27.18,3.29,2.42,5.16,5.67,5.12,3.25-.04,5.28-1.98,5.59-5.26.21-2.3.04-4.63.04-6.94Z"/>
</svg>