<?xml version="1.0" encoding="UTF-8"?>
<svg id="Layer_1" data-name="Layer 1" xmlns="http://www.w3.org/2000/svg" version="1.1" viewBox="0 0 428 428">
  <defs>
    <style>
      .cls-1 {
        fill: #000;
        stroke-width: 0px;
      }
    </style>
  </defs>
  <path class="cls-1" d="M70.45,316.67c3.39-73.81,62.66-134.36,137.73-138.01,0-4.2-.04-8.46.01-12.71.06-5.16,2.05-7.73,5.85-7.71,3.8.02,5.59,2.49,5.65,7.8.04,3.85.06,7.7.12,11.55,0,.29.24.58.55,1.27,36.69,2.22,68.75,15.82,94.98,42.13,26.09,26.17,39.74,58.08,42.02,95.43,1.78.09,3.47.25,5.16.25,9.45.03,18.9-.05,28.34.04,5.56.05,7.47,2.03,7.47,7.61,0,4.81.31,9.7-.41,14.41-2.75,17.9-17.13,29.85-35.66,29.85-87.28.03-174.56.01-261.83.01-11.69,0-23.38.05-35.07-.01-19.51-.1-34.1-13.67-35.56-33.12-.29-3.83-.26-7.7-.16-11.55.13-5.24,2.1-7.16,7.45-7.21,9.29-.09,18.58-.03,27.86-.03,1.73,0,3.47,0,5.49,0ZM82.46,316.23h262.82c-.68-56.71-47.65-121.67-125.11-125.69-72.17-3.75-135.59,54.15-137.72,125.69ZM41.62,328.49c-.19.87-.4,1.47-.44,2.08-.93,15.46,9.31,26.46,24.92,26.48,54.44.06,108.88.03,163.32.02,44.35,0,88.71.06,133.06-.04,16.02-.03,26.53-12.7,23.8-28.55H41.62Z"/>
  <path class="cls-1" d="M204.12,127.11c1.61-3.77,2.82-7.79,4.94-11.24,3.33-5.41,3.49-10.33,0-15.69-5.72-8.77-5.63-17.67-.29-26.73,1.49-2.53,2.33-5.55,2.98-8.45.75-3.32,2.56-5.3,5.86-5.21,3.57.09,6.06,2.5,5.51,5.91-.73,4.47-1.99,9.1-4.16,13.04-3.03,5.52-3.42,10.42.05,15.74,5.87,8.99,5.68,18,.03,27.12-1.3,2.09-2.07,4.65-2.54,7.1-.72,3.8-2.35,6.54-6.53,6.12-4.22-.43-5.38-3.49-5.85-7.7Z"/>
  <path class="cls-1" d="M187.85,67.52c-1.61,3.77-2.8,7.8-4.92,11.25-3.33,5.41-3.52,10.33-.02,15.69,5.85,8.96,5.61,18,.08,27.15-1.43,2.37-2.16,5.27-2.76,8.03-.72,3.32-2.53,5.3-5.83,5.23-3.58-.08-6.04-2.46-5.53-5.89.65-4.33,1.77-8.87,3.91-12.62,3.33-5.81,3.67-10.9-.03-16.58-5.63-8.65-5.37-17.44-.08-26.29,1.35-2.26,2.28-4.91,2.8-7.5.76-3.78,2.34-6.56,6.51-6.16,4.2.41,5.41,3.46,5.88,7.69Z"/>
  <path class="cls-1" d="M259.99,67.18c-1.55,3.79-2.65,7.87-4.77,11.3-3.42,5.55-3.71,10.58-.09,16.12,5.73,8.78,5.52,17.7.15,26.72-1.43,2.4-2.36,5.24-2.88,8-.68,3.57-2.48,5.7-6.03,5.52-3.85-.19-6.03-2.91-5.39-6.52.74-4.17,1.92-8.5,4.01-12.12,3.24-5.62,3.64-10.65.05-16.15-5.74-8.81-5.58-17.7-.14-26.7,1.36-2.25,2.21-4.93,2.74-7.53.78-3.81,2.48-6.46,6.64-5.97,3.9.46,5.18,3.31,5.7,7.34Z"/>
  <path class="cls-1" d="M125.71,270.47c-5.99,0-8.25-4.52-5.69-9.43,6.89-13.23,16.63-23.84,29.57-31.35,2.34-1.36,4.75-2.67,7.27-3.65,3.02-1.18,5.85-.54,7.36,2.55,1.56,3.21.71,6.23-2.52,7.73-14.35,6.65-24.78,17.24-32.2,31.1-.84,1.58-3,2.45-3.78,3.05Z"/>
</svg>