<?xml version="1.0" encoding="UTF-8"?>
<svg id="Layer_1" fill="currentColor" data-name="Layer 1" xmlns="http://www.w3.org/2000/svg" version="1.1" viewBox="0 0 428 428">
  <defs>
    <style>
      .cls-1 {
        fill: #000;
        stroke-width: 0px;
      }
    </style>
  </defs>
  <path class="cls-1" d="M22,333.24c4.94-7.36,9.55-14.97,14.91-22.01,5.03-6.61,7.59-13.77,8.31-21.96.68-7.7,2.06-15.35,3.08-23.02.45-3.37,2.07-5.48,5.55-6.11,4.78-.86,9.54-1.87,15-2.95-3.39-4.91-.22-7.87,2.77-11.08,60.1-64.63,120.14-129.31,180.32-193.86,1.65-1.77,4.62-2.84,7.11-3.16,4.81-.63,9.77-.99,14.59-.59,14.33,1.21,26.99-3,38.84-10.68,3.65-2.37,7.69-4.14,11.55-6.19,5.35-2.84,7.45-2.27,10.74,2.98,5.11,8.15,10.15,16.34,15.37,24.42,1.46,2.25,3.37,4.24,5.25,6.17,2.24,2.29,2.78,4.8,1.01,7.42-1.77,2.62-4.47,3.46-7.19,1.73-2.25-1.43-4.58-3.18-6.03-5.35-5.59-8.42-10.84-17.07-16.45-26.01-1.7.88-3.32,1.7-4.93,2.54-4.64,2.45-9.5,4.56-13.85,7.43-7.63,5.03-15.91,6.74-24.86,6.46-6.6-.21-13.22-.04-20.22-.04-.15,2.31-.28,3.75-.34,5.19-.31,7.74-.79,15.49-.85,23.23-.04,4.67-1.39,8.72-3.63,12.74-4.3,7.72-8.32,15.6-12.55,23.59,8.69,5.46,17.19,10.69,25.54,16.14,2.01,1.32,3.87,3.18,5.19,5.19,5.46,8.35,10.68,16.86,16.14,25.56,8.92-4.71,17.56-9.42,26.36-13.82,2.48-1.24,5.39-2.05,8.15-2.21,9.71-.56,19.43-.75,29.49-1.09.3-7.86.89-15.45.8-23.02-.09-7.2,1.32-13.69,5.12-19.93,4.07-6.7,7.42-13.83,11.25-21.08-1.69-1.1-3.24-2.09-4.76-3.11-3.44-2.3-4.42-5.32-2.68-8.21,1.78-2.95,4.94-3.51,8.49-1.39,2.89,1.73,5.75,3.53,8.57,5.37,3.68,2.41,4.37,4.94,2.29,8.92-4.92,9.4-10.01,18.72-14.8,28.19-1.14,2.24-1.82,4.91-1.95,7.43-.51,9.86-.81,19.73-1,29.61-.07,3.49-1.19,6.11-3.81,8.51-14.1,12.93-28.06,25.99-42.07,39.01-1.08,1.01-2.19,2-3.21,2.93,2.17,1.05,4.23,1.77,6,2.93,8.35,5.49,16.77,10.89,24.87,16.74,5.29,3.82,11.41,3.19,17.2,4.26,7.24,1.33,14.58,2.08,21.87,3.15,4.23.62,5.94,2.61,5.69,6.86-.64,10.85-1.44,21.7-2.09,32.55-.1,1.58-.12,3.32.44,4.74,4.1,10.46,8.35,20.85,12.58,31.26.17.41.58.72.87,1.08v4.5c-2.1,1.48-4.05,3.23-6.31,4.38-8.9,4.51-17.93,8.76-26.83,13.27-1.81.92-3.56,2.32-4.83,3.9-6.57,8.18-13.02,16.45-19.39,24.78-1.88,2.46-4.11,3.64-7.21,4.01-23.67,2.81-47.32,5.76-70.98,8.65-23.54,2.87-47.08,5.68-70.61,8.56-25.64,3.13-51.28,6.31-76.92,9.44-15.36,1.88-30.73,3.64-46.09,5.58-4.19.53-6.9-.77-8.59-4.76-1.69-4.02-4.19-7.72-5.67-11.79-5.14-14.11-14.2-24.8-26.77-32.92-4.97-3.21-9.22-7.53-13.8-11.34,0-1.25,0-2.5,0-3.75ZM65.55,361.94c3.97,8.05,7.8,15.84,11.66,23.68,1.59-.45,2.79-.77,3.98-1.12,59.67-17.7,119.35-35.4,179.02-53.1q8.09-2.4,8.74-10.62c.08-1,.23-1.99.3-2.98.3-4.8.58-9.59.88-14.66-1.54.38-2.63.6-3.69.91-48.19,13.88-96.37,27.77-144.56,41.64-3.12.9-6.21,1.9-9.38,2.57-3.5.75-6.18-.92-6.99-3.99-.74-2.81.85-5.47,4-6.68.7-.27,1.43-.45,2.15-.66,46.87-13.5,93.74-26.99,140.61-40.49,5.45-1.57,10.88-3.19,16.53-4.85-3.39-8.39-6.59-16.33-9.89-24.51-73.11,23.33-145.94,46.56-219.38,69.99,6.36,4.98,12,9.51,17.8,13.84.88.66,2.55.74,3.69.46,4.24-1.03,8.41-2.33,12.61-3.53,4.68-1.34,9.29-3.01,14.06-3.87,1.85-.34,4.64.57,5.86,1.93,1.08,1.21,1.25,4.14.55,5.75-.65,1.5-2.85,2.71-4.62,3.26-7.83,2.47-15.75,4.65-23.9,7.02ZM393.18,310.3c-3.66-9.11-7.01-17.84-10.67-26.44-1.58-3.7-2.01-7.3-1.66-11.27.82-9.17,1.29-18.38,1.91-27.82-9.34-1.31-18.33-2.65-27.35-3.79-4.04-.51-7.65-1.64-11.05-4.05-7.63-5.4-15.49-10.47-23.5-15.84-5.07,6.46-10.22,12.57-14.84,19.07-3.96,5.58-8.86,9.52-15.14,12.23-7.29,3.15-14.3,6.94-21.52,10.5,2.18,5.43,3.87,10.7,6.32,15.57,5.21,10.34,7.3,20.97,5.3,32.53-.97,5.59-.79,11.39-1.14,17.36,6.53.92,12.67,1.89,18.83,2.64,8.45,1.02,16.63,2.18,23.67,7.94,5.95,4.87,12.74,8.71,19.35,13.13,6.22-7.94,12.2-15.77,18.43-23.4,1.67-2.05,3.91-3.87,6.25-5.08,8.74-4.53,17.62-8.77,26.8-13.28ZM302.81,225.84c-.11-.23-.21-.46-.32-.68-5.42,1.79-10.83,3.57-16.25,5.37-76.83,25.5-153.66,51-230.49,76.52-1.28.42-2.93.77-3.62,1.72-3.55,4.9-6.84,9.98-10.69,15.7,2.04-.55,3.23-.82,4.38-1.18,53.24-16.98,106.5-33.91,159.71-50.98,28.71-9.21,58.03-16.86,84.45-32.12,1.27-.73,2.65-1.5,3.57-2.59,3.19-3.83,6.19-7.82,9.27-11.75ZM239.5,133.69c-25.75,34.99-51.31,69.72-77.36,105.12,10.66-2.12,20.41-4.15,30.21-5.93,2.65-.48,4.46-1.59,6.11-3.71,20.39-26.24,40.86-52.41,61.3-78.61.67-.86,1.24-1.79,1.98-2.88-7.44-4.68-14.61-9.19-22.24-13.99ZM126.93,245.75c5.83-1.16,10.44-2.31,15.11-2.93,2.92-.39,4.61-1.86,6.24-4.09,16.67-22.77,33.52-45.41,50.13-68.22,17.53-24.08,36.66-47.08,49.4-74.4,3.38-7.24,2.32-14.36,2.22-21.78-40.82,56.85-81.64,113.7-123.09,171.43ZM327.15,355.93c-5.02-3.39-9.26-6.01-13.22-9.01-3.23-2.44-6.78-3.43-10.68-3.93-8.3-1.06-16.55-2.41-24.85-3.43-2.29-.28-4.8-.32-6.97.33-41.53,12.22-83.02,24.55-124.52,36.87-.89.26-1.74.65-2.6.98.06.16.11.32.17.48,60.55-7.39,121.11-14.78,182.67-22.29ZM226.2,238.58c-.05-.21-.09-.42-.14-.63-.95.08-1.91.06-2.84.24-11.75,2.32-23.49,4.68-35.25,7-41.01,8.09-82,16.25-123.05,24.14-4.27.82-6.48,2.01-6.76,6.75-.36,6.25-1.58,12.46-2.49,19.13,57.25-19.01,113.89-37.82,170.52-56.63ZM213.45,228.18c1.41,0,2.13.11,2.8-.02,10.76-2.1,21.53-4.2,32.27-6.42,1.09-.23,2.28-1.03,2.97-1.92,10.24-13.21,20.44-26.47,30.53-39.8.63-.83.85-2.69.36-3.52-4.01-6.72-8.24-13.31-12.68-20.36-18.78,24.06-37.32,47.8-56.25,72.04ZM79.97,253.7c.13.3.26.6.38.9,1.08-.09,2.19-.08,3.25-.29,8.08-1.59,16.18-3.11,24.21-4.94,1.73-.39,3.7-1.58,4.72-3,27.56-38.2,55.02-76.48,82.49-114.75.61-.84,1.11-1.76,1.67-2.64-.17-.12-.34-.24-.5-.37-38.74,41.69-77.47,83.39-116.21,125.08ZM346.45,165.97c-4.44,0-8.27.16-12.08-.04-5.92-.32-11.18,1.16-16.32,4.19-7.09,4.17-14.52,7.73-21.75,11.67-1.37.75-2.69,1.84-3.64,3.07-7.81,10.05-15.54,20.17-23.27,30.28-.54.7-.94,1.5-1.81,2.89,9.22-1.81,17.66-3.35,26.04-5.19,1.94-.42,3.96-1.52,5.43-2.87,13.98-12.83,27.85-25.78,41.75-38.7,1.78-1.66,3.56-3.33,5.65-5.29Z"/>
  <path class="cls-1" d="M277.06,106.88c.06-17.8,14.79-32.43,32.57-32.36,17.82.07,32.44,14.8,32.34,32.59-.1,17.88-14.78,32.46-32.57,32.35-17.86-.1-32.41-14.76-32.35-32.58ZM288.31,106.92c-.04,11.61,9.5,21.23,21.13,21.3,11.59.07,21.23-9.51,21.29-21.15.05-11.6-9.53-21.26-21.14-21.3-11.6-.04-21.24,9.54-21.28,21.15Z"/>
  <path class="cls-1" d="M331.41,254.23c17.93.07,32.42,14.66,32.29,32.5-.13,17.9-14.71,32.34-32.59,32.27-17.84-.07-32.36-14.71-32.3-32.57.06-17.83,14.68-32.27,32.6-32.2ZM331.22,307.73c11.68.02,21.2-9.44,21.25-21.11.05-11.65-9.45-21.16-21.16-21.19-11.66-.03-21.25,9.49-21.25,21.11,0,11.66,9.5,21.18,21.16,21.2Z"/>
</svg>