<?xml version="1.0" encoding="UTF-8"?>
<svg id="Layer_1" data-name="Layer 1" xmlns="http://www.w3.org/2000/svg" version="1.1" viewBox="0 0 428 428">
  <defs>
    <style>
      .cls-1 {
        fill: #000;
        stroke-width: 0px;
      }
    </style>
  </defs>
  <path class="cls-1" d="M406,364c-.2.31-.47.59-.58.93-3.39,10.75-10.2,15.89-21.59,15.97-13.1.09-26.19.02-39.29.02-99.04,0-198.07,0-297.11-.03-3.1,0-6.3-.05-9.28-.77-8.92-2.15-15.19-10.14-15.36-19.37-.14-7-.13-14-.01-20.99.19-11.05,8.46-19.64,19.54-20.24,4.2-.23,8.41-.04,13.61-.04-1.96-2.08-3.31-3.42-4.57-4.84-17.51-19.71-23.49-42.41-17.4-68.15,1.84-7.77,3.71-15.54,6.05-23.17,5.02-16.4,16.19-26.15,32.91-29.7,1.28-.27,3.02-1.42,3.38-2.54,7.99-24.41,24.99-36.69,50.36-36.18.48,0,.95-.06,1.93-.13,0-4.05.14-8-.09-11.94-.06-1.03-1.12-2.15-1.98-2.95-3.31-3.03-6.76-5.92-10.11-8.92-3.01-2.69-3.49-6.01-1.32-8.54,2.25-2.63,5.34-2.65,8.59-.01,1.42,1.15,2.8,2.36,4.95,4.18,0-2.38,0-3.93,0-5.47,0-7.37-.03-14.75.01-22.12.03-4.9,1.88-7.29,5.55-7.34,3.71-.04,5.63,2.32,5.66,7.2.05,7.75,0,15.5.02,23.24,0,1.22.1,2.43.19,4.41,2.13-1.82,3.72-3.3,5.44-4.62,2.82-2.16,5.95-1.88,8,.59,1.85,2.23,1.71,5.56-.65,7.77-3.55,3.33-7.39,6.35-10.87,9.75-1.1,1.07-1.46,2.9-2.11,4.41-.14.32-.02.74-.02,1.12q-.03,12.73,11.04,18.39c.7.36,1.99.35,2.61-.07,16.21-11.01,33.11-11.84,51.18-3.27,0-6.27.08-12.19-.09-18.1-.03-.88-1.1-1.86-1.88-2.57-3.43-3.09-6.98-6.05-10.39-9.16-3.05-2.78-3.33-5.98-.93-8.53,2.27-2.42,5.26-2.39,8.32.13,1.44,1.18,2.84,2.42,4.72,4.04.12-1.47.28-2.49.28-3.52.02-8.37-.05-16.75.05-25.12.05-3.82,2.34-6.11,5.66-6.1,3.35.02,5.38,2.28,5.52,6.18.03.87,0,1.75,0,2.62,0,7.25,0,14.5,0,21.75,0,1.2,0,2.39,0,4.58,2.25-1.96,3.75-3.37,5.36-4.66,2.98-2.38,6.17-2.22,8.31.33,1.98,2.37,1.74,5.6-.87,8.02-3.57,3.31-7.33,6.41-10.9,9.72-.84.77-1.77,1.97-1.8,3-.17,5.83-.08,11.67-.08,18.1,11.65-6.15,23.42-8.19,35.82-5.06,12.38,3.13,21.92,10.3,29.7,20.69,0-4.79,0-9.59,0-14.38,0-5.87.17-11.76-.1-17.62-.08-1.74-1-3.82-2.22-5.07-3.04-3.12-6.5-5.83-9.76-8.74-3.22-2.87-3.74-6.22-1.44-8.79,2.39-2.66,5.41-2.54,8.89.39,1.31,1.1,2.58,2.24,4.64,4.04,0-2.73,0-4.55,0-6.37,0-7.25-.03-14.5.01-21.75.03-4.63,1.89-6.94,5.45-7,3.7-.05,5.72,2.37,5.75,7.16.05,7.75.02,15.5.02,23.24,0,1.21,0,2.43,0,4.54,2.29-1.95,3.9-3.42,5.62-4.74,2.71-2.08,5.62-1.88,7.73.38,2.14,2.29,2.09,5.64-.45,8.04-3.54,3.33-7.36,6.38-10.89,9.72-.97.92-1.9,2.44-1.92,3.7-.16,9.25-.08,18.49-.06,27.74,0,.46.19.92.25,1.22,4.54-1.25,8.88-3.08,13.36-3.55,13.88-1.46,25.43,5.55,31.5,18.65,8.54,18.45,17,36.94,25.49,55.41,5.47,11.9,10.94,23.8,16.42,35.7,7.95,17.28,7.37,24.49-3.79,40.75,14.31-1.69,25.58,1.64,30.02,16.6v27.75ZM214.37,330.67c-55.75,0-111.5,0-167.24,0-1.5,0-3-.03-4.48.11-4.88.46-8.45,3.89-8.58,8.76-.2,7.12-.2,14.25.02,21.36.14,4.55,3.49,7.87,8.02,8.5,1.72.24,3.48.25,5.22.25,111.37.01,222.74,0,334.12,0,1.25,0,2.5.03,3.74-.06,6.12-.45,9.51-4.02,9.58-10.2.07-6.25.33-12.52-.13-18.73-.19-2.63-1.35-5.97-3.26-7.47-2.19-1.72-5.69-2.43-8.63-2.44-56.12-.13-112.24-.1-168.37-.1ZM333.91,319.42c9.08-.35,18.81,1.21,28.1-4.1,10.3-5.88,14.57-15.94,9.75-26.81-2.73-6.16-5.59-12.25-8.4-18.36-11.87-25.83-23.7-51.67-35.63-77.47-5.37-11.6-16.02-15.47-27.62-10.2-7.82,3.56-15.66,7.07-23.39,10.82-9.9,4.81-13.81,15.47-9.52,25.59,1.51,3.56,3.2,7.04,4.81,10.55,12.96,28.2,26.03,56.36,38.78,84.66,1.9,4.2,4.11,5.84,8.65,5.42,4.57-.43,9.22-.09,14.45-.09ZM202.58,173.19c-6.79-5.83-17.29-8.23-27.74-6.47-17.94,3.01-31.58,20.69-29.91,38.72.2,2.19.53,3.61,3.4,4.31,4.9,1.2,9.68,3.17,14.23,5.39,4.15,2.03,5.13,5.5,3.2,8.57-1.82,2.9-5.03,3.33-8.85,1.02-4.93-2.99-10.29-4.83-15.97-4.55-16.59.83-31.88-2.96-45.89-11.91-.21-.13-.45-.21-.67-.32-18.6-9.09-38.51-.12-43.97,19.86-1.97,7.22-3.88,14.46-5.68,21.73-6.51,26.31,4.66,53.91,27.5,67.78,1.83,1.11,4.12,2.01,6.21,2.02,17.59.16,35.18.13,52.76.03,1.65,0,3.49-.52,4.91-1.35,9.9-5.83,17.57-13.83,23.11-23.94,2.83-5.17,4.83-10.35,3.06-16.34-.31-1.05-.23-2.23-.24-3.36-.28-24.35,9.62-43.42,29.56-57.33.98-.68,2.15-2.31,1.97-3.24-2.95-14.81-.13-28.28,9.02-40.61ZM204.95,210.27c.69-.2,1.39-.39,2.08-.61,9.92-3.12,20-3.98,30.3-2.39,4.79.74,7.38,3.23,6.83,6.73-.56,3.52-3.27,4.81-8.09,4.55-5.57-.3-11.25-.78-16.74-.07-22.41,2.9-40.34,20.1-45.08,42.69-4.55,21.67,5.53,44.96,24.59,56.45,1.71,1.03,3.92,1.7,5.91,1.72,14.97.14,29.94.13,44.91,0,1.88-.02,3.99-.59,5.58-1.57,13.29-8.26,21.47-20.19,24.85-35.46.89-4.01.55-7.64-1.3-11.52-7.51-15.77-14.86-31.62-21.89-47.6-6.29-14.31-1.27-29.91,11.83-38.36.8-.52,1.57-1.07,2.34-1.6-9.81-16.04-30.52-21.65-47.41-13.15-14.86,7.47-23.27,25.54-18.72,40.19ZM87.72,192.66c8.43,4.04,16.57,7.71,24.5,11.8,6.78,3.49,13.9,4.18,20.77,4.07.85-6.44.98-12.76,2.65-18.63,1.71-5.97,4.95-11.5,7.57-17.34-18.97-14.79-49.99-3.54-55.49,20.1ZM300.89,319.18c-4.08-8.88-7.92-17.22-11.45-24.89-5.31,8.25-10.7,16.64-16.01,24.89h27.46ZM168.52,301.54c-4.61,5.78-9.28,11.64-13.98,17.54h26.86c-4.41-6.01-8.72-11.88-12.88-17.54Z"/>
  <path class="cls-1" d="M238.43,86.65c-8.99-4.22-13.35-12.21-16.96-20.9-2-4.84-5.89-7.36-11.18-7.3-5.27.05-9.28,2.56-11.01,7.5-3.96,11.32-11.7,18.93-22.24,24.02-.22.11-.43.25-.65.38-11.59,6.93-12.55,13.36-3.52,23.53,5.04,5.66,5.44,13.08.99,19.27-3.7,5.15-7.41,10.3-11.2,15.39-1.76,2.37-4.14,3.23-6.91,1.85-2.68-1.34-4.16-3.8-2.84-6.48,1.96-3.98,4.38-7.8,7.09-11.32,6.13-7.98,6.25-7.89.37-15.7-6.62-8.78-6.13-19.25,1.64-30.41-8.73-4.16-13.01-11.95-16.51-20.41-2.06-4.98-5.9-7.66-11.36-7.61-5.28.06-9.28,2.58-11.01,7.51-3.94,11.16-11.46,18.79-21.93,23.82-1.34.65-2.58,1.51-3.85,2.3-7.79,4.86-8.83,13.35-2.44,19.93.43.45.89.87,1.32,1.33,5.7,6.02,6.12,13.8,1.03,20.41-2.52,3.26-5.17,6.41-7.73,9.64-2.84,3.58-3.62,7.53-2.25,11.96,1.44,4.64.29,7.53-3.21,8.52-3.5.99-6.1-.82-7.52-5.38-2.36-7.54-1.25-14.59,3.36-20.98,2.41-3.34,5.01-6.55,7.71-9.65,2.48-2.84,2.28-5.14-.43-7.73-6.69-6.38-9.05-14.17-6.83-23.21,1.37-5.56,4.53-9.95,9.22-13.2,1.64-1.13,3.31-2.27,5.1-3.12,8.96-4.24,15.02-10.79,18.78-20.21,3.55-8.9,11.23-13.2,20.82-13.19,9.59.01,16.62,4.58,20.96,13.17,1.07,2.11,2.1,4.26,2.96,6.46,2.43,6.2,7.78,9.2,13.16,12.16.53.29,1.49.26,2.03-.03,5.53-2.99,10.85-6.22,13.27-12.55.89-2.32,1.93-4.61,3.13-6.79,4.47-8.14,11.41-12.46,20.68-12.42,9.11.04,15.97,4.24,20.41,12.24,1.03,1.85,2.02,3.76,2.7,5.75,2.37,6.97,7.88,10.7,13.96,13.85.63.33,1.71.34,2.33.02,5.95-3.1,11.41-6.72,13.83-13.5.71-1.99,1.64-3.92,2.65-5.78,4.41-8.19,11.31-12.53,20.59-12.57,9.28-.04,17.12,3.92,20.48,12.48,4.15,10.57,11.61,16.78,21.01,22.13,15.74,8.96,17.88,25.56,5.44,38.56-2.51,2.63-2.54,4.77-.24,7.45,2.77,3.21,5.45,6.52,7.92,9.96,6.78,9.47,5.64,22.13-2.55,30.11-3.15,3.07-6.36,3.35-8.85.79-2.33-2.39-2.05-5.51.76-8.61,4.86-5.36,5.13-11.16.69-16.9-2.37-3.06-4.86-6.02-7.26-9.06-5.47-6.95-5.12-14.64.94-20.96,8-8.35,7.01-16.01-2.84-22-2.45-1.49-4.87-3.03-7.4-4.39-6.98-3.76-11.96-9.27-14.9-16.65-.78-1.96-1.67-3.91-2.74-5.74-4.65-7.98-16-7.99-20.74-.06-.32.53-.66,1.08-.85,1.66-3.7,11.26-11.42,18.8-21.88,23.82-.34.16-.64.38-.96.57-11.6,6.94-12.54,13.41-3.43,23.54,4.96,5.52,5.39,13.22.91,19.27-3.34,4.51-6.79,8.94-10.3,13.32-1.98,2.47-4.54,3-7.33,1.39-2.63-1.53-3.68-4.75-1.86-7.47,3.04-4.55,6.5-8.83,9.89-13.15,1.74-2.21,1.83-4.14-.09-6.32-10.6-12.05-11.24-20.74-2.34-34.3Z"/>
  <path class="cls-1" d="M331.47,310.72c-3.29-.05-6.16-2.9-6.22-6.2-.06-3.42,2.97-6.47,6.39-6.42,3.28.05,6.15,2.93,6.2,6.22.06,3.46-2.92,6.44-6.37,6.39Z"/>
  <path class="cls-1" d="M323.18,217.47c.09,3.48-2.5,6.26-5.94,6.38-3.51.12-6.27-2.39-6.44-5.85-.18-3.63,2.53-6.56,6.11-6.61,3.43-.04,6.2,2.63,6.28,6.08Z"/>
  <path class="cls-1" d="M332.43,272.96c.19-3.46,2.97-5.95,6.48-5.81,3.61.14,6.15,3.09,5.86,6.78-.27,3.42-3.19,5.9-6.64,5.64-3.43-.26-5.89-3.11-5.7-6.61Z"/>
  <path class="cls-1" d="M293.26,213.55c-.17,3.45-2.96,5.98-6.45,5.86-3.63-.12-6.19-3.02-5.93-6.72.24-3.44,3.09-5.88,6.6-5.67,3.44.21,5.95,3.05,5.78,6.53Z"/>
  <path class="cls-1" d="M320.16,256.82c-.08,3.49-2.75,6.08-6.25,6.05-3.65-.03-6.29-2.86-6.12-6.54.16-3.44,2.97-6.02,6.42-5.89,3.44.13,6.03,2.91,5.95,6.38Z"/>
  <path class="cls-1" d="M104.87,309.97c-29.87.05-51.02-27.67-43.77-57.4,1.66-6.78,3.44-13.54,5.26-20.28,2.68-9.94,11.45-13.91,20.66-9.4,1.34.66,2.72,1.26,3.99,2.04,14.03,8.53,29.23,12.45,45.64,11.71,1.86-.08,3.74.11,5.59.35,8.56,1.09,13.98,8.56,11.99,16.94-1.96,8.25-4.05,16.48-6.53,24.58-5.69,18.58-23.37,31.43-42.83,31.46ZM104.27,244.04c-7.51-3.73-14.63-7.29-21.76-10.81-3.37-1.66-4.35-1.26-5.33,2.36-1.92,7.1-3.93,14.19-5.55,21.37-4.05,18.02,6.42,35.48,24.07,40.46,17.33,4.88,35.63-4.74,41.21-22,2.45-7.58,4.18-15.4,6.21-23.12.69-2.64-.32-4.13-3.09-4.26-8.19-.37-16.39-.72-24.87-1.09-1.59,6.07-3.19,12.2-4.8,18.32-1.21,4.6-3.68,6.54-7.22,5.71-3.43-.8-4.8-3.93-3.65-8.45,1.57-6.15,3.17-12.3,4.77-18.48Z"/>
  <path class="cls-1" d="M268.52,271.94c-.13,23-18.62,41.38-41.52,41.28-22.92-.11-41.27-18.64-41.18-41.6.09-22.95,18.6-41.35,41.51-41.26,22.94.1,41.33,18.66,41.2,41.58ZM257.29,271.85c.05-16.8-13.36-30.25-30.15-30.25-16.64,0-30,13.28-30.1,29.91-.11,16.84,13.19,30.36,29.95,30.45,16.77.09,30.24-13.31,30.3-30.12Z"/>
  <path class="cls-1" d="M125.58,268.77c-3.35-.06-6.15-2.86-6.19-6.18-.03-3.44,3.01-6.46,6.42-6.38,3.32.08,6.13,2.93,6.17,6.24.04,3.48-2.9,6.38-6.41,6.32Z"/>
  <path class="cls-1" d="M111.17,279.69c.15-3.5,3.2-6.23,6.71-6,3.38.22,6,3.09,5.88,6.44-.13,3.53-3.08,6.17-6.69,5.97-3.37-.19-6.04-3.09-5.9-6.41Z"/>
  <path class="cls-1" d="M87.39,246.27c3.44-.03,6.45,3,6.37,6.42-.08,3.29-2.98,6.16-6.25,6.19-3.42.04-6.41-3.01-6.34-6.45.08-3.33,2.91-6.14,6.22-6.17Z"/>
  <path class="cls-1" d="M92.4,271.9c-.07,3.46-2.78,6.09-6.27,6.07-3.44-.02-6.23-2.77-6.25-6.16-.03-3.55,2.92-6.36,6.53-6.24,3.49.11,6.06,2.83,5.99,6.33Z"/>
  <path class="cls-1" d="M105.47,285.93c-.02,3.42-2.75,6.15-6.19,6.17-3.65.03-6.37-2.77-6.26-6.42.11-3.44,2.91-6.12,6.33-6.04,3.42.08,6.14,2.87,6.12,6.29Z"/>
  <path class="cls-1" d="M233.37,257.76c0,3.43-2.76,6.25-6.13,6.3-3.51.05-6.36-2.91-6.26-6.52.1-3.49,2.82-6.1,6.29-6.05,3.44.06,6.11,2.8,6.11,6.27Z"/>
  <path class="cls-1" d="M219.45,271.66c.07,3.38-2.67,6.23-6.09,6.34-3.46.11-6.3-2.49-6.46-5.91-.18-3.61,2.57-6.49,6.22-6.5,3.45-.01,6.26,2.68,6.33,6.07Z"/>
  <path class="cls-1" d="M227.32,292.05c-3.5.08-6.21-2.48-6.34-5.97-.13-3.61,2.67-6.57,6.2-6.55,3.39.02,6.15,2.79,6.18,6.23.03,3.48-2.6,6.22-6.05,6.3Z"/>
  <path class="cls-1" d="M241.35,277.99c-3.44.09-6.29-2.53-6.45-5.93-.16-3.39,2.49-6.29,5.91-6.46,3.69-.18,6.53,2.46,6.57,6.1.04,3.51-2.53,6.2-6.02,6.29Z"/>
</svg>