<?xml version="1.0" encoding="UTF-8"?>
<svg id="Layer_1" fill="currentColor" data-name="Layer 1" xmlns="http://www.w3.org/2000/svg" version="1.1" viewBox="0 0 428 428">
  <defs>
    <style>
      .cls-1 {
        fill: #000;
        stroke-width: 0px;
      }
    </style>
  </defs>
  <path class="cls-1" d="M176.49,284.88v-16.17c0-18.52,3.37-33.93,10.1-46.23,6.73-12.29,18.52-25.01,35.37-38.14,20.04-15.83,32.97-28.12,38.78-36.88,5.81-8.75,8.71-19.2,8.71-31.32,0-14.15-4.72-25.01-14.15-32.59-9.43-7.58-22.99-11.37-40.67-11.37-16,0-30.82,2.27-44.46,6.82-13.64,4.55-26.95,10.02-39.91,16.42l-21.22-44.46c34.19-19.03,70.81-28.55,109.89-28.55,33,0,59.19,8.08,78.56,24.25,19.37,16.17,29.05,38.48,29.05,66.94,0,12.63-1.85,23.87-5.56,33.72-3.71,9.85-9.31,19.24-16.8,28.17-7.5,8.93-20.42,20.55-38.78,34.86-15.66,12.3-26.15,22.48-31.45,30.57-5.31,8.08-7.96,18.95-7.96,32.59v11.37h-49.51ZM166.13,365.47c0-25.43,12.38-38.14,37.13-38.14,12.13,0,21.39,3.33,27.79,9.98,6.4,6.65,9.6,16.04,9.6,28.17s-3.24,21.43-9.73,28.42c-6.49,6.99-15.71,10.48-27.66,10.48s-21.14-3.41-27.53-10.23c-6.4-6.82-9.6-16.38-9.6-28.67Z"/>
</svg>