<?xml version="1.0" encoding="UTF-8"?>
<svg id="Layer_1" fill="currentColor" data-name="Layer 1" xmlns="http://www.w3.org/2000/svg" version="1.1" viewBox="0 0 428 428">
  <defs>
    <style>
      .cls-1 {
        fill: #000;
        stroke-width: 0px;
      }
    </style>
  </defs>
  <path class="cls-1" d="M406,121.7c-.93,3.35-1.71,6.74-2.81,10.03-2.38,7.13-6.63,13.09-11.92,18.37-16.36,16.33-32.68,32.71-49.07,49.02-1.6,1.6-2.53,3.07-2.2,5.51.57,4.18-1.51,7.39-4.39,10.26-16.91,16.85-33.76,33.75-50.66,50.62-1.5,1.5-2.74,2.69-2.21,5.36.64,3.21-2.47,5.6-5.9,5.79-1.62.09-3.59.71-4.7,1.81-16.79,16.61-33.5,33.31-50.14,50.07-3.62,3.65-7.43,6.14-12.91,5.26-1.06-.17-2.58,1.15-3.55,2.12-16.04,15.95-32.35,31.65-47.92,48.04-17.99,18.93-45.15,20.51-63.85,6.3-.29-.22-.66-.33-.97-.49-11.89,5.92-22.2,4.59-29.73-3.78-3.66-4.07-5.05-8.96-5.89-14.28-1.14-7.24-2.77-14.42-4.53-21.54-.32-1.3-2.04-2.75-3.42-3.19-4.74-1.54-9.61-2.65-14.43-3.94-6.38-1.71-8.44-5.27-6.77-11.75,1.12-4.35,2.49-8.64,3.47-13.02.92-4.08,3.13-6.71,7.6-7.75-1.3-1.38-2.45-2.59-3.58-3.81-6.8-7.35-10.97-16-12.78-25.82-.15-.82-.5-1.61-.75-2.41,0-4,0-8,0-12,.27-1.08.47-2.17.81-3.23,1.41-4.38,2.63-8.84,4.36-13.09,1.26-3.08,4.39-4.08,7.18-2.93,2.85,1.17,4.05,4.27,2.9,7.52-.25.7-.6,1.37-.87,2.07-5.73,14.78-3.68,28.45,6.18,40.81,2.26,2.83,5.25,5.07,8.16,7.82,1.24-2.53,2.37-4.25,2.9-6.14.3-1.1.09-2.98-.66-3.63-18.85-16.53-11.66-46.81,12.32-53.26,1.05-.28,2.23-1.51,2.63-2.57.8-2.14,1.11-4.46,1.62-6.71-.28-.34-.55-.68-.83-1.02-4.86,1.72-9.78,3.29-14.56,5.22-3.84,1.56-6.88,1.13-8.49-1.74-1.68-3.01-.41-6.26,3.32-8.26,7.29-3.9,15.07-5.91,23.34-5.98,1.07-.01,2.48.04,3.16-.57,3.75-3.38,7.32-6.96,11.07-10.58-3.28-5.7-6.69-11.52-9.99-17.39-2.89-5.15-1.73-9.3,3.37-12.34,3.11-1.85,6.33-3.53,9.39-5.46,4.7-2.96,9.37-5.44,14.46-.88,5.74-11.6,9.07-15.91,17.48-22.06,3.93-2.87,8.04-5.5,12.11-8.16,3.33-2.18,7.01-4.05,5.91-9.47-4.08-2.55-4.71-6.58-3.19-11.43,1.38-4.4,2.39-8.92,3.69-13.35,1.49-5.1,5.14-7.25,10.29-6.04,4.25,1,8.44,2.25,12.69,3.24.95.22,2.26.15,3.02-.36,3.92-2.62,7.71-5.42,11.78-8.32-.19-.76-.46-1.84-.73-2.91-1.98-7.87-2.46-15.82-.69-23.76,4.73-21.09,17.32-35.44,38.18-41.07,21.09-5.69,39.46.14,54.36,16.33.72.78,1.67,1.78,2.58,1.86,5.64.52,11.31.81,17.35,1.19,1.24-4.52,2.58-9.56,4-14.58,1.69-5.95,5.26-8,11.3-6.5,3.87.96,7.69,2.16,11.58,3.04,4.97,1.11,9.06,3.06,9.54,9.07,11.41-.96,21.65,2.68,32.07,5.78,6.77,2.01,13.81,3.83,20.81,4.25,16.97,1.03,27.29,19.25,18.99,33.93-.45.79-.6,2.36-.13,2.98,5.11,6.74,7.55,14.53,9.23,22.65v11.25ZM170.16,296.21c-.38.3-.75.61-1.13.91-.24,1.86-.5,3.71-.72,5.57-2.01,17.05-5.75,33.69-11.34,49.93-1.1,3.2-2.79,5.64-6.58,5.56-3.59-.08-5.15-2.44-6.2-5.52-10.07-29.43-14.54-59.6-12.29-90.7.1-1.36-.37-2.9-1.01-4.14-1.61-3.15-1.33-5.88.87-8.68,1.01-1.28,1.65-2.97,2.06-4.58,3.47-13.78,6.85-27.58,10.25-41.37.12-.48.28-.96.45-1.43,1.03-2.88,2.98-4.64,6.13-4.58,2.95.05,4.91,1.64,5.83,4.43,1.85,5.59,3.67,11.2,5.38,16.4,9.11-9.05,18.12-18,26.76-26.58-9.03-9.09-18.24-18.37-27.51-27.69,0,0-.27.07-.43.23-.71.71-1.4,1.43-2.07,2.17-48.92,53.02-71.67,116.13-71.96,187.74-.02,5.36,1.8,11.22,4.34,16.01,11.36,21.38,39.27,25,56.96,7.58,16.65-16.4,33.08-33.03,49.6-49.56.51-.51.92-1.12,1.66-2.03-1.75-1.6-3.48-3.05-5.06-4.64-3.16-3.18-3.45-6.32-.95-8.84,2.48-2.49,5.72-2.22,8.84.89,3.16,3.14,6.22,6.38,8.96,9.22,18.52-18.52,36.59-36.59,54.03-54.04-8.94-8.94-18.13-18.14-27.03-27.05.06.56.13,1.8.33,3.02,1.24,7.63,4.75,14.1,9.92,19.8,2.53,2.8,2.29,6.16-.22,8.3-2.43,2.07-5.44,1.82-8.03-.77-1.14-1.15-2.17-2.42-3.18-3.68-5.16-6.44-8.15-13.88-9.8-22.22-1.42.66-2.51,1.19-3.62,1.66-8.49,3.64-17.21,5.2-26.27,2.44-11.92-3.64-15.02-15.1-6.61-24.34,4.33-4.76,9.84-7.6,15.91-9.43,1.94-.58,3.89-1.1,5.59-1.57-4.96-4.99-9.77-9.84-14.12-14.22-17.98,17.99-36.12,36.12-54.63,54.63.59.47,1.66,1.16,2.54,2.03,11.86,11.82,23.72,23.65,35.54,35.52,3.13,3.14,3.35,6.37.77,8.85-2.5,2.4-5.58,2.18-8.58-.83-1.3-1.3-2.28-2.91-3.4-4.39ZM269.48,129.65c2.67-7.79,5.22-15.31,7.81-22.81,1.12-3.25,2.87-6.03,6.78-5.95,3.7.08,5.23,2.8,6.46,5.87,6.76,16.84,10.81,34.23,11.43,52.42.06,1.86,1.09,4.1,2.4,5.45,8.43,8.71,17.07,17.22,25.65,25.78.77.77,1.63,1.45,2.43,2.15.51-.34.86-.49,1.11-.74,17.06-17.06,34.26-33.97,51.11-51.24,10.58-10.84,12.92-26.23,6.82-39.58-6.1-13.35-19.09-21.21-34.4-20.8-4.5.12-8.99.38-13.49.41-3.47.02-5.65-1.95-5.89-5-.25-3.12,1.54-5.79,4.88-5.97,9.57-.53,19.28-2.05,28.65,1.01,5.61,1.83,10.93,4.55,16.37,6.86,2.65-7.02-1.46-14.1-9.13-15.1-3.1-.4-6.29-.38-9.29-1.15-8.93-2.27-17.78-4.84-26.67-7.28-6.07-1.67-12.2-2.85-18.47-1.39-1.01.23-2.36,1.15-2.63,2.03-1.66,5.59-3.07,11.25-4.58,16.99,3.65.84,6.18,2.55,5.83,6.39-.35,3.86-3.28,4.94-6.61,5.4-2.6.36-5.19.76-7.77,1.23-45.38,8.25-86.05,26.84-122.02,55.7-5.79,4.64-11.24,9.7-16.34,14.11,9.67,9.69,18.9,18.94,28.18,28.24-.03.03.37-.17.47-.46.27-.82.44-1.67.59-2.53,2.58-14.66,6.28-29.02,11.76-42.89,1.21-3.06,2.94-5.32,6.45-5.26,3.33.05,5.09,2.25,6.14,5.18,1.76,4.9,3.53,9.79,5.43,15.06,1.13-1.04,2.04-1.81,2.89-2.66,7.26-7.24,14.5-14.49,21.75-21.74,5.18-5.17,8.11-5.2,13.23-.16.86.84,1.77,1.62,2.66,2.43ZM251.97,220.77c1.22.31,2.03.54,2.85.72,8.85,2,16.74,5.91,23.09,12.4,1.31,1.34,2.04,4.12,1.68,5.97-.29,1.48-2.57,3.48-4.1,3.59-1.92.15-4.35-.94-5.91-2.26-5.47-4.67-11.63-7.7-18.66-8.99-1.28-.24-2.63-.03-3.61-.03,9.17,9.19,18.24,18.29,27.06,27.13,17.88-17.89,35.98-35.98,53.72-53.72-22.62-22.63-45.46-45.48-67.89-67.93-17.82,17.82-35.9,35.91-53.34,53.36,4.62,4.61,9.49,9.47,14.32,14.31-.31.34-.18.26-.15.16.19-.72.34-1.45.52-2.17,1.98-7.92,5.2-15.16,11.86-20.3,8.19-6.32,17.73-3.86,21.91,5.59.65,1.47,1.14,3.04,1.47,4.62,2,9.62-.15,18.57-4.82,27.57ZM250.24,57.98c2.7-1.91,5.31-3.76,7.94-5.62-13.46-14.9-37.87-16.76-54.76-4.5-17.19,12.48-20.23,35.68-14.37,46.95,2.92-.84,5.88-1.7,8.83-2.56-3.88-15.31-.41-28.16,12.59-36.92,13.57-9.15,27.15-7.22,39.77,2.65ZM117.96,198.9c11.57-14.77,23.13-29.52,34.43-43.95-1.76-1.85-3.8-4-6-6.32-6.19,4.18-12.5,8.39-18.75,12.68-8.6,5.89-13.12,14.46-15.59,24.29-.25,1-.35,2.33.1,3.18,1.9,3.6,4.04,7.08,5.8,10.11ZM250.27,89.13c10.02-3.25,19.61-6.33,29.16-9.51.68-.23,1.45-1.06,1.65-1.76,1.5-5.24,2.86-10.52,4.33-16.01-9.1-3.58-17.47-2.82-25.08,2.77-8.13,5.98-11.29,14.26-10.05,24.51ZM76.28,320.19c2.98-15.75,5.86-31.01,8.78-46.48-2.69-2.33-5.72-4.95-8.76-7.59-.53,4.36-.36,8.67-1.67,12.47-2.67,7.73-6.06,15.21-9.29,22.73-2,4.64-4.26,9.17-6.59,14.16,6.38,1.72,11.99,3.22,17.53,4.71ZM142.82,269.83c-.92,22.45,1.94,43.45,7.64,64.86,3.56-10.51,7.88-36.62,7.88-47.23,0-.92-.19-2.11-.77-2.71-4.64-4.82-9.4-9.53-14.75-14.92ZM179.18,110.15c.02.4.05.8.07,1.2,6.24,1.69,12.46,3.44,18.73,4.99.91.22,2.15-.36,3.08-.87,12.22-6.76,24.43-13.55,36.59-20.42.81-.45,1.81-1.56,1.78-2.32-.18-4.53-.64-9.04-1.05-14.13-2.38,2.05-4.7,3.72-6.63,5.76-10.4,10.95-23.07,17.61-37.76,20.87-5.05,1.12-9.88,3.26-14.81,4.93ZM92.6,220.72c-15.69,9.47-17.43,32.31-3.65,41.1,3.59-8.96,7.2-17.92,10.73-26.91.23-.6.17-1.53-.14-2.09-2.22-4-4.54-7.95-6.95-12.11ZM238.88,63.97c-7.72-4.77-17.44-3.88-24.36,2.23-5.43,4.79-9.05,14.49-5.22,22.28,9.93-8.23,19.75-16.36,29.59-24.51ZM75.46,342.32c.21-3.74.4-7.05.59-10.52-11.43-3.07-22.59-6.06-34.06-9.14-.91,3.44-1.75,6.6-2.65,9.97,12.11,3.25,23.76,6.38,36.11,9.69ZM187.13,125.13c-12.76-3.41-24.82-6.63-37.18-9.93-.95,3.47-1.78,6.55-2.7,9.91,9.68,2.62,19.15,5.19,28.63,7.69.63.17,1.57.01,2.08-.37,2.93-2.23,5.77-4.57,9.17-7.3ZM302.88,40.2c-3.24,12.12-6.35,23.71-9.6,35.85,2.94-.59,5.32-1.33,7.73-1.48,2.92-.19,3.93-1.69,4.56-4.33,1.5-6.29,3.33-12.5,5-18.75.75-2.82,1.43-5.66,2.2-8.7-3.46-.9-6.43-1.68-9.89-2.58ZM106.04,221.43c1.95-3.53,3.61-6.41,5.1-9.38.32-.65.3-1.78-.05-2.4-4.84-8.51-9.77-16.98-14.79-25.65-3.1,1.8-5.85,3.4-8.9,5.17,6.24,10.81,12.3,21.29,18.64,32.26ZM234.28,221.04c11.02-4.32,13.85-20.59,10.88-27.67-1.26-3.02-2.87-3.43-5.39-1.04-5.45,5.18-7.86,11.8-7.68,19.17.08,3.07,1.36,6.12,2.18,9.53ZM226.82,229.02c-7.28-6.83-24.1-1.67-28.93,5.36-1.39,2.02-.79,3.39,1.38,4.39,7.49,3.46,24.44-.29,27.55-9.75ZM84.47,381c-5.5-7.86-8.68-16.24-9.31-25.55-.05-.7-.98-1.68-1.71-1.93-2.54-.85-5.17-1.44-7.78-2.14,1.12,7.64,1.88,15.05,3.36,22.31,1.43,7,8.53,10.28,15.43,7.3ZM59.97,286.52c3.96-6.75,6.27-22.13,4.85-31.64-12.57,4.99-15.28,21.93-4.85,31.64ZM288.96,149.68c.45-.23.89-.45,1.34-.68-1.86-8.75-3.72-17.5-5.59-26.26-.47.02-.94.04-1.4.06-1.24,5.17-2.52,10.33-3.69,15.51-.14.63.01,1.58.42,2.03,2.92,3.16,5.94,6.24,8.93,9.34ZM162.2,146.31c.88-.81,2.55-2.34,4.71-4.32-4.37-1.06-8.05-1.95-11.72-2.84-.18.41-.36.82-.54,1.23,2.31,1.82,4.63,3.64,7.55,5.94ZM217.11,152.78c-1.47,5.4-2.64,9.7-3.98,14.59,8.17-7.32,6.96-4.88,3.98-14.59ZM150.3,220.77c-.98,4.27-1.83,7.95-2.74,11.94,5.8-2.89,5.23-6.87,2.74-11.94Z"/>
</svg>