<?xml version="1.0" encoding="UTF-8"?>
<svg fill="currentColor" id="Layer_1" data-name="Layer 1" xmlns="http://www.w3.org/2000/svg" version="1.1" viewBox="0 0 428 428">
  <defs>
    <style>
      .cls-1 {
        fill: #000;
      }

      .cls-1, .cls-2 {
        stroke-width: 0px;
      }

      .cls-2 {
        fill: #fff;
      }
    </style>
  </defs>
  <path class="cls-1" d="M21,298.25c.61-2.52,1.17-5.06,1.85-7.56,2.79-10.14,7.88-19,16.04-25.62,3.43-2.78,3.99-5.53,3.69-9.55-1.31-17.63,4.06-33.01,17.67-44.53,7.28-6.16,15.46-11.43,23.74-16.22,11.98-6.93,24.61-12.72,36.63-19.59,30.37-17.36,50.8-43.64,66.29-74.42,6.33-12.56,12.9-25.15,20.82-36.73,11.83-17.27,29.38-23.13,49.8-20.96,2.73.29,4.24-.44,5.96-2.5,8.5-10.17,19.38-16.3,32.5-18.41.85-.14,1.67-.45,2.5-.67h11.25c.57.21,1.13.52,1.72.62,25.57,4.08,43.88,24.1,45.29,49.78.15,2.64.86,3.74,3.46,4.64,21.31,7.4,35.26,22.01,41.72,43.62,1.35,4.51,2.05,9.22,3.06,13.84v18c-.62,3.55-1.19,7.11-1.88,10.64-4.76,24.4-15.29,46.41-28.89,66.9-35.89,54.06-81.09,99.24-133.39,137.38-19.43,14.17-40.34,25.88-63.52,32.87-8.18,2.47-16.7,3.84-25.06,5.72h-19.5c-.69-.23-1.37-.56-2.08-.67-27.04-4.28-45.74-18.78-54.72-44.96-.87-2.53-2.31-2.38-4.18-2.51-18.14-1.22-32.36-9.28-42.47-24.46-4.58-6.88-6.65-14.69-8.3-22.65v-12h0ZM85.46,346.79c.54,13.68,9.96,30.21,29.42,40.07,14.18,7.19,29.46,6.84,44.72,3.98,19.65-3.68,37.5-11.93,54.58-22.01,26.96-15.91,50.81-35.82,73.37-57.34,28.27-26.98,54.65-55.63,75.77-88.72,13.25-20.76,24.11-42.6,27.78-67.32,2.11-14.23,1.51-28.25-5.17-41.33-11.19-21.93-35.76-32.54-61.44-27.09-16.52,3.5-28.8,13.14-37.96,26.67-8.25,12.18-15.77,24.88-23.12,37.63-13.43,23.27-28.84,45.12-47.84,64.09-18.11,18.08-39.12,32.51-61.21,45.46-14.63,8.57-29.21,17.38-42.9,27.34-16.86,12.26-26.25,29.16-25.98,58.58h-.02ZM343.83,72.5c.01-.08.13-.44.11-.79-1.28-19.59-16.24-34.95-36.27-37.25-18.4-2.12-36.44,10.32-42.18,28.49-3.22,10.21-6.66,20.43-11.05,30.17-22.41,49.62-56.03,90.46-98.89,123.72-28.31,21.98-59.19,39.21-93.83,49.47-28.45,8.43-37.35,44.95-16.49,66.13,7.46,7.58,16.53,11.59,26.35,11.95,1.33-9.33,1.85-18.35,4-26.97,4.51-18.08,16.09-31.61,31.08-41.79,16.19-11,33.22-20.74,49.87-31.06,19.91-12.35,38.81-26.04,54.8-43.31,16.45-17.76,30.13-37.54,42.22-58.51,7.53-13.07,15.37-26.03,24.04-38.36,11.07-15.73,25.94-26.64,45.36-29.98,6.83-1.18,13.84-1.3,20.89-1.91h-.01ZM55.26,254.68c90.58-24.23,177.33-115.2,198.84-199.09-10.07-.54-19.37,1.21-27.54,7.36-8.32,6.26-13.56,14.92-18.33,23.88-6.46,12.11-12.36,24.53-19.18,36.43-8.41,14.68-18.46,28.29-30.9,39.84-15.87,14.73-34.08,26.01-53.59,35.35-12.15,5.82-24.28,11.8-34.64,20.68-10.81,9.27-15.54,21.06-14.66,35.55h0Z"/>
  <path class="cls-2" d="M21,310.25c1.65,7.96,3.71,15.77,8.3,22.65,10.11,15.18,24.33,23.24,42.47,24.46,1.87.13,3.31-.03,4.18,2.51,8.98,26.18,27.68,40.68,54.72,44.96.71.11,1.38.44,2.08.67H21v-95.25Z"/>
  <path class="cls-2" d="M405,134c-1-4.62-1.71-9.32-3.06-13.84-6.46-21.61-20.41-36.23-41.72-43.62-2.6-.9-3.31-2-3.46-4.64-1.41-25.68-19.72-45.7-45.29-49.78-.59-.09-1.15-.41-1.72-.62h95.25v112.5h0Z"/>
  <path class="cls-1" d="M136.4,370.98c.65-7.06,3.6-14.57,7.78-21.61,9.26-15.61,22.62-27.05,38.45-35.29,14.14-7.36,29-13.32,43.41-20.19,20.87-9.95,40.14-22.32,56.73-38.6,20.05-19.69,32.93-43.37,39.7-70.55,3.48-13.97,9.1-26.97,18.86-37.83,7.65-8.52,16.91-14.35,28.35-16.27,1.57-.26,3.3-.43,4.81-.06,3.14.77,4.94,3.05,4.84,6.28-.09,3.22-1.95,5.67-5.16,6.02-13.89,1.53-23.11,9.86-29.5,21.25-4.17,7.42-7.66,15.54-9.71,23.79-10.88,43.91-36.46,76.81-73.98,101.11-17.47,11.32-36.26,19.96-55.43,27.91-16.89,7-32.45,16.12-44.37,30.41-6.42,7.69-11.18,16.19-12.24,26.44-.41,3.92-3.39,6.36-6.79,6.1-3.77-.28-6-3.24-5.77-8.91h.02Z"/>
  <path class="cls-1" d="M303.29,47.08c4,.04,6.94,2.63,7.08,6.22.13,3.4-2.42,6.16-6.32,6.51-7.24.65-11.96,4.23-14.21,11.24-1.28,3.99-4.58,5.62-8.15,4.5-3.31-1.04-4.93-4.26-4.09-8.13,2.39-11.04,14.27-20.44,25.69-20.33h0Z"/>
</svg>