<?xml version="1.0" encoding="UTF-8"?>
<svg id="Layer_1" data-name="Layer 1" xmlns="http://www.w3.org/2000/svg" version="1.1" viewBox="0 0 428 428">
  <defs>
    <style>
      .cls-1 {
        fill: #000;
        stroke-width: 0px;
      }
    </style>
  </defs>
  <path class="cls-1" d="M420.1,342.06c-.92,3.86-1.54,7.82-2.82,11.56-9.06,26.55-27.62,43.35-54.13,51.39-37.96,11.52-75.63,8.96-112.93-3.41-16.73-5.55-32.3-13.52-47.51-22.37-12.51-7.28-25.26-14.16-38.06-20.91-16.3-8.59-33.42-10.26-51.48-6.41-14.69,3.13-29.62,5-44.77,3.96-11.65-.8-22.97-3.15-33.63-7.78-14.49-6.3-22.71-18.01-23.14-33.56-.74-26.32-.92-52.71,0-79.02,1.02-29.16,21.61-55.15,49.67-63.38,10.63-3.12,21.89-4.37,32.95-5.64,31.44-3.6,62.89-7.19,94.41-10.01,39.22-3.52,78.53-7.07,117.94-5.05,38.34,1.96,70.35,17.43,93.77,48.62,10.49,13.97,16.85,29.76,19.02,47.16.16,1.29.47,2.56.71,3.84v91.02h0ZM108.46,180.7c.97,1.13,1.51,1.85,2.14,2.49,51.56,51.57,103.12,103.14,154.71,154.66,1.08,1.08,2.54,1.96,3.98,2.45,17.55,5.94,35.55,9.07,54.11,7.97,6.68-.4,13.31-1.63,20.85-2.6-1.83-1.92-2.8-2.99-3.82-4-20.04-20.05-40.09-40.08-60.11-60.14-1.31-1.31-2.62-2.68-3.6-4.24-1.96-3.13-1.36-6.94,1.25-9.5s6.4-3.09,9.52-1.08c1.54,1,2.9,2.32,4.21,3.63,22.13,22.09,44.27,44.17,66.31,66.36,2.05,2.06,3.48,2.31,6.07.87,13.58-7.56,23.64-18.3,30.46-32.24,1.19-2.43,1-3.86-.98-5.79-9.71-9.48-19.25-19.14-28.84-28.74-33.59-33.59-67.17-67.2-100.83-100.72-1.26-1.25-3.34-2.51-4.97-2.43-16.47.81-32.94,1.87-49.4,2.93-5.08.33-10.15.87-16.43,1.42,4.07,3.95,7.33,7.04,10.5,10.21,13.09,13.07,26.18,26.13,39.22,39.26,4.12,4.15,4.43,8.98,1.03,12.33-3.4,3.36-8.12,2.94-12.36-1.09-.67-.64-1.32-1.31-1.98-1.97-18.07-18.07-36.16-36.11-54.16-54.23-1.93-1.94-3.67-2.78-6.57-2.43-11.35,1.38-22.75,2.34-34.12,3.55-8.56.92-17.1,2-26.2,3.07h.01ZM27.4,286.3c0,9.55-.58,19.26.17,28.86.66,8.46,5.26,15.37,13.55,18.18,8.12,2.75,16.57,4.92,25.04,6.18,15.35,2.27,30.55-.47,45.53-3.5,19.89-4.03,38.94-2.35,57.05,6.81,13.97,7.08,27.57,14.9,41.46,22.15,12,6.27,23.81,13.08,36.33,18.11,31.89,12.82,64.9,16.81,98.94,10.06,20.72-4.11,38.49-12.72,50.44-31.05,8.02-12.29,9.24-25.78,7.99-39.73-4.34,5.02-8.24,10.29-12.92,14.75-4.68,4.47-9.8,8.67-15.32,12.04-24.41,14.91-51.19,17.59-78.89,14.03-24.6-3.16-47.12-12.14-68.6-24.47-17.03-9.77-34.45-18.97-52.21-27.33-16.57-7.79-34.31-11.42-52.78-9.09-11.47,1.45-22.86,3.52-34.33,5.01-16.23,2.12-31.95.71-45.95-8.72-5.37-3.61-10.18-8.05-15.49-12.3h-.01ZM40.42,204.46c1.43,1.03,2.77,1.75,3.79,2.77,23.54,23.49,47.25,46.81,70.42,70.65,5.91,6.08,11.67,9.98,20.3,8.06.88-.2,1.85.04,2.78.08,21.56.89,41.31,8.06,60.39,17.5,6.59,3.26,13.06,6.76,19.59,10.16-.71-1.41-1.68-2.46-2.69-3.47-39.79-39.78-79.69-79.45-119.23-119.48-5.37-5.44-10.09-7.46-17.84-6.16-14.47,2.44-26.9,7.88-37.51,19.89h0ZM285.39,167.22c38.65,38.66,77.5,77.51,116.9,116.91.6-9.83,1.63-19.57,1.68-29.32.06-10.9-3-21.28-7.85-31.02-21.47-43.07-65.78-60.07-110.73-56.57h0ZM102.73,289.07c-23.76-23.73-47.17-47.13-70.68-70.61-.24.45-.66,1.1-.93,1.8-3.66,9.24-4.62,18.77-3.11,28.59,3.26,21.16,18.73,38.37,38.58,42.43,12.12,2.48,24.02-.11,36.14-2.21Z"/>
  <path class="cls-1" d="M127.74,81.52c.31-8.89,3.8-16.19,11.01-21.52,4.16-3.08,7.11-6.94,5.66-12.14-.83-2.96-3.19-5.66-5.35-8.03-4.44-4.85-2.94-12.32,3.29-13.48,2.38-.44,5.61.56,7.65,2.02,13.89,9.9,14.31,31.22,1.05,42.22-1.13.93-2.33,1.77-3.42,2.75-5.1,4.62-5.21,11.75-.3,16.54,1.14,1.11,2.46,2.09,3.4,3.35,2.11,2.85,1.65,7.36-.82,9.91-2.87,2.96-6.79,3.41-10.5.8-7.73-5.42-11.46-13.01-11.66-22.43h0Z"/>
  <path class="cls-1" d="M199.61,81.61c.27-8.89,3.76-16.2,10.93-21.55,4.14-3.08,7.16-6.89,5.73-12.11-.81-2.96-3.13-5.69-5.29-8.05-4.45-4.87-3.05-12.29,3.16-13.51,2.37-.46,5.61.51,7.66,1.95,13.91,9.79,14.4,31.24,1.18,42.22-1.33,1.1-2.78,2.08-4,3.28-4.47,4.4-4.5,11.21-.13,15.72.65.67,1.39,1.24,2.06,1.88,3.52,3.42,4,8.08,1.19,11.36-2.96,3.45-7.26,3.83-11.41.75-7.32-5.43-10.87-12.84-11.08-21.94Z"/>
  <path class="cls-1" d="M304.48,49.43c-.16,9.04-3.53,16.24-10.41,21.73-8.57,6.84-8.92,12.71-1.16,20.41,3.31,3.28,3.81,7.88,1.2,11.08-2.87,3.51-7.22,3.91-11.41,1.04-14.57-9.99-15-32.06-.77-43.27,3.33-2.62,6.29-5.3,6.5-9.93.2-4.22-1.66-7.3-4.77-9.99-3.69-3.19-4.43-6.62-2.62-10.25,2.23-4.47,7.41-5.73,11.88-2.6,7.6,5.33,11.28,12.82,11.55,21.78h0Z"/>
  <path class="cls-1" d="M268.74,250.98c-.1,4.27-3.81,7.87-8.01,7.76-4.22-.11-7.75-3.83-7.67-8.1.08-4.36,3.62-7.75,8-7.67,4.35.08,7.78,3.66,7.68,8h0Z"/>
</svg>