<?xml version="1.0" encoding="UTF-8"?>
<svg id="Layer_1" fill="currentColor" data-name="Layer 1" xmlns="http://www.w3.org/2000/svg" version="1.1" viewBox="0 0 428 428">
  <defs>
    <style>
      .cls-1 {
        fill: #000;
        stroke-width: 0px;
      }
    </style>
  </defs>
  <path class="cls-1" d="M23,230.73c2.62-4.73,6.91-5.54,11.81-5.2,1.95.13,4.86.51,5.71-.54,2.36-2.92,5.17-6.41,5.49-9.89,1.92-21.37,7.19-41.74,15.89-61.33,9.51-21.42,14.06-43.91,13.85-67.37-.02-2.37-.7-3.78-2.67-5.2-10.28-7.46-14.57-20.1-11.17-32.22,3.39-12.09,13.57-20.79,26.27-21.68,8.09-.56,16.24-.32,24.36-.33,17.12-.04,34.25-.08,51.37,0,15.85.08,27.7,8.78,30.97,23.11,2.85,12.5-.97,23-11.13,30.87-2.26,1.75-3.02,3.44-3.01,6.18.06,24.35,5.06,47.59,15.24,69.71,1.25,2.72,1.61,6.51,3.68,7.99,1.81,1.3,5.45-.03,8.28-.07,15.05-.23,27.86,5.02,38.16,16.03,1.42,1.52,2.5,1.81,4.46,1.2,33.41-10.43,65.96,13.56,65.56,48.51-.1,8.96-1.24,17.92-2.04,26.86-.31,3.48-.49,3.47,5.15,6.95,0-3.14-.03-5.91,0-8.67.24-18.27,12.21-33.18,29.98-37.23,2.42-.55,4.94-.82,7.43-.9,4.52-.14,7.9,2.9,8.17,7.07.27,4.09-2.75,7.58-7.37,7.78-12.97.57-21.36,9.46-22.84,19.47-.57,3.88-.09,7.91-.09,11.27,5.94-2.47,11.87-5.88,18.25-7.4,21.76-5.19,42.21,6.57,50.5,28.56,1.61,4.27,2.52,8.81,3.75,13.22v15.75c-.23.82-.57,1.63-.66,2.46-3.47,32.52-21.49,56.35-45.98,76.05-6.73,5.42-14.83,6.62-23.38,3.47-6.4-2.37-12.94-1.91-19.52-.04-3.42.98-7.1,1.59-10.64,1.51-8.19-.19-14.78-4.19-20.31-9.96-10.69-11.16-21.64-22.11-28.55-35.06-11.49,5.99-22.65,11.75-33.73,17.68-.9.48-1.71,2-1.78,3.08-.97,15.33-10.33,24.3-25.67,24.31-43.36.03-86.72.02-130.08,0-13.47,0-21.02-7.65-21.03-21.23-.02-20,.06-39.99-.09-59.99-.02-2.46-.76-5.19-1.99-7.32-7.75-13.39-13.68-27.48-16.86-42.63-1.53-7.3-2.5-14.73-3.72-22.09v-12.75h-.02ZM261.4,304.78c.13,14.63,3.1,27.64,9.81,39.69,7.21,12.95,17.64,23.23,27.99,33.54,3.89,3.88,8.81,4.7,14.24,2.87,8.88-2.99,18.02-3.35,26.86-.23,5.81,2.05,10.33.6,14.37-3.24,4.88-4.65,9.65-9.43,14.19-14.41,13.48-14.78,21.34-32.09,22.93-52.13.82-10.34-.47-20.2-6.6-28.95-7.06-10.09-17.67-14.38-28.97-11.74-12.43,2.9-20.18,11.3-22.02,23.88-.63,4.31-3.44,7.06-7.32,7.18-4.31.13-6.96-2.59-7.77-7.85-1.87-12.06-9.1-19.46-20.5-22.81s-22.34.31-29.48,9.47c-5.87,7.53-8.02,16.22-7.73,24.73h0ZM38.05,240.86c.87,6.55,1.69,12.79,2.54,19.27,6.76,0,12.99-.06,19.22.02,5.22.06,8.48,3.01,8.5,7.48.03,4.49-3.22,7.42-8.42,7.48-4.74.05-9.48.01-15.24.01,2.27,5.38,3.83,10.15,6.29,14.39.99,1.71,3.95,2.27,6,3.39.77.42,1.52.87,2.23,1.37,5.09,3.66,10.05,3.48,15.26.03,9.86-6.53,19.97-6.57,29.84-.1,5.37,3.52,10.26,3.53,15.61.01,9.88-6.48,19.98-6.45,29.84.07,5.21,3.45,10.07,3.49,15.29.04,10-6.62,20.18-6.56,30.17.04,5.07,3.36,9.87,3.43,14.96.06,10.12-6.71,20.32-6.59,30.54-.04,1.7,1.09,3.63,1.82,5.19,2.59,2.56-7.57,4.92-14.58,7.38-21.86H124.27c-1.37,0-2.76.05-4.12-.09-3.63-.37-6.24-3.04-6.56-6.57-.33-3.68,1.54-6.78,5.03-7.78,1.64-.47,3.44-.53,5.17-.54,47.24-.03,94.47,0,141.71-.09,2.26,0,4.68-.61,6.74-1.55,6.86-3.13,13.97-4.55,21.49-3.92,1.81.15,3.63.28,5.75.44.5-4.91.97-9.44,1.45-14.16M62.11,207.32h5.73c10.82-.04,19.63,4.29,25.22,13.43,2.51,4.11,5.1,5.16,9.45,4.95,2.87-.14,4.28-.89,5.6-3.56,9.66-19.52,30.97-30.5,52.17-26.98,2.33.39,3.29-.22,4.23-2.24,3.82-8.24,9.56-15,17.28-19.71,3.28-2,3.43-3.61,1.99-6.76-6.67-14.55-12.25-29.51-14.82-45.37-.58-3.55-2.13-3.99-5.14-3.98-23.73.09-47.45.05-71.18.05h-4.1c-.24.98-.42,1.56-.52,2.16-2.85,16.46-8.55,31.97-15.18,47.24-5.63,12.96-9.03,26.6-10.74,40.79v-.02ZM197.25,356.9c5.7,0,11.77,1.28,17.02-.25,13.02-3.8,24.64-10.77,35.33-19.14.69-.54,1.26-1.9,1.11-2.73-1.22-6.86-2.56-13.71-4.03-20.52-.2-.92-1.18-1.98-2.07-2.38-4.17-1.85-8.6-3.17-12.6-5.29-4.52-2.4-8.77-2.86-13.04.02-10.85,7.31-21.6,7.35-32.46.02-4.26-2.88-8.73-2.82-12.98.04-10.72,7.22-21.38,7.3-32.12.07-4.4-2.96-8.92-2.95-13.31,0-10.59,7.12-21.17,7.21-31.8.11-4.54-3.03-9.14-3.14-13.62-.02-5.09,3.54-10.62,5.44-16.85,5.19-.28-.01-.58.29-1.02.53.74,1.02,1.35,1.95,2.04,2.81,14.81,18.39,33.15,32.07,55.25,40.4,4.33,1.63,9.36,1.44,13.96,2.07,1.69-7.88,3.61-10.21,7.9-10.33,4.36-.11,6.15,1.93,8.37,9.59h6.52c1.54-7.28,3.54-9.63,8.01-9.59,4.42.04,6.34,2.33,7.97,9.52h6.85c.77-6.65,3.1-9.48,7.64-9.52,4.62-.05,6.91,2.66,7.95,9.4h-.02ZM123.78,225.21h176.94c-.13-1.19-.15-2.42-.42-3.6-4.81-21.37-28.35-33.1-48.4-24.14-8.01,3.58-9.1,3.18-14.39-3.58-8.55-10.95-19.82-15.8-33.61-13.57-13.94,2.26-23.17,10.51-27.77,23.79-2.79,8.05-5.14,9.44-13.28,6.96-14.61-4.44-30.88,1.33-39.07,14.14h0ZM128.08,72.03c12.49,0,24.98.11,37.47-.04,8.81-.11,15.09-6.39,15.18-14.75.09-8.39-6.06-15.05-14.79-15.12-25.1-.19-50.21-.11-75.31-.04-5.2,0-9.43,2.28-12.31,6.69-3.13,4.77-3.49,9.86-.94,14.94,2.77,5.52,7.45,8.28,13.61,8.3,12.36.05,24.73.02,37.09.02h0ZM61.31,332.3c-.3.44-.55.63-.55.82-.03,14.62-.06,29.23-.06,43.85,0,3.21,1.66,4.78,4.9,4.78,16.99-.02,33.98-.02,50.97-.03.48,0,.95-.18,1.38-.27-.38-2.94-1.03-5.76-1.04-8.58,0-2.27-.82-3.27-2.84-4.08-19.28-7.75-36.01-19.31-50.42-34.25-.74-.77-1.54-1.47-2.34-2.24h0ZM166.31,101.82c-.23-5.11-.45-9.77-.66-14.46h-74.86v14.46h75.52ZM132.17,372.51c-.03,5.6,2.88,8.96,8.22,9.14,6.12.21,12.24.09,18.37.1,13,0,25.99.06,38.99-.03,6.22-.04,9.38-3.26,9.25-9.21h-74.83ZM76.97,225.45c-5.95-4.25-12.97-4.09-16.74,0h16.74Z"/>
  <path class="cls-1" d="M90.9,275.13c-4.12,0-7.38-3.2-7.46-7.3-.08-4.19,3.37-7.74,7.5-7.72,4.12.02,7.63,3.65,7.51,7.77-.12,4.05-3.46,7.26-7.56,7.25h0Z"/>
  <path class="cls-1" d="M200.54,209.81c-4.17-.02-7.35-3.15-7.41-7.31-.07-4.29,3.27-7.72,7.48-7.7,3.98.03,7.42,3.41,7.52,7.39.1,4.15-3.37,7.63-7.59,7.62Z"/>
  <path class="cls-1" d="M264.65,213.73c-.07,4.16-3.24,7.3-7.41,7.32-4.22.02-7.69-3.47-7.59-7.62.09-3.97,3.55-7.36,7.52-7.39,4.22-.03,7.55,3.39,7.48,7.69h0Z"/>
  <path class="cls-1" d="M225.14,208.28c-.2,4.04-3.66,7.31-7.64,7.22-4.18-.1-7.51-3.68-7.34-7.88.18-4.26,3.69-7.37,8-7.1,4.09.25,7.18,3.69,6.98,7.77h0Z"/>
</svg>