<?xml version="1.0" encoding="UTF-8"?>
<svg id="Layer_1" data-name="Layer 1" xmlns="http://www.w3.org/2000/svg" version="1.1" viewBox="0 0 428 428">
  <defs>
    <style>
      .cls-1 {
        fill: #000;
        stroke-width: 0px;
      }
    </style>
  </defs>
  <path class="cls-1" d="M202.5,20.5h24c.96.21,1.92.47,2.89.62,9.85,1.53,19.85,2.44,29.55,4.66,73.95,16.91,132.14,78.82,144.65,153.63,1.17,7,1.95,14.06,2.91,21.1v24c-.21.97-.49,1.92-.63,2.9-1.3,8.88-2.13,17.86-3.94,26.64-15.37,74.42-79.04,135.35-153.98,147.5-7.12,1.16-14.3,1.98-21.45,2.96h-24c-.84-.2-1.66-.48-2.51-.6-8.76-1.28-17.61-2.13-26.28-3.86-74.44-14.9-136.06-78.87-148.21-153.71-1.18-7.25-2.01-14.55-3-21.83v-24c1.22-8.5,2.14-17.06,3.72-25.5C40.51,98.54,104.36,36.07,181.04,23.45c7.12-1.17,14.31-1.98,21.46-2.95ZM214.41,31.75c-99.86.08-180.73,81.04-180.66,180.83.07,99.83,81.06,180.74,180.83,180.66,99.85-.08,180.75-81.06,180.66-180.84-.09-99.87-81.04-180.74-180.84-180.66h.01Z"/>
  <path class="cls-1" d="M229.35,98.17c.55-5.53.4-10.98,1.72-16.04,6.22-23.87,32.37-34.27,53.24-21.17,42.49,26.66,73.26,63.28,92.2,109.74,9.91,24.3-7.16,49.34-33.41,49.31h-3.98c1.61,8.86.34,17.07-3.86,24.89,15.7,10.17,22.89,25.09,25.23,42.89,1.88,14.31-6.76,24.62-21.22,25.27-11.01.5-21.62-.99-31.84-5.91-.63,4-.93,7.72-1.83,11.29-3.43,13.62-11.28,23.76-24.13,29.77-3.28,1.53-6.56,3.07-9.92,4.41-5.73,2.28-10.13,5.84-13.79,10.97-8.74,12.27-21.65,16.85-36.09,17.52-15.15.71-29.19-3.34-41.95-11.51-3.01-1.93-5.95-4.29-8.17-7.06-6.01-7.49-13.46-13.1-21.97-17.16-10.16-4.85-14.53-13.01-14.57-23.71-.03-7.35.8-14.71,1.04-22.06.13-3.97-.13-7.95-.31-11.92-.14-3.08-1.63-4.35-4.93-4.62-16.69-1.36-31.05-8.07-42.92-19.87-34.05-33.84-24.01-91.35,19.45-111.79.89-.42,1.77-.89,3.2-1.61-1.56-3.19-2.89-6.37-4.63-9.32-4.06-6.9-4.25-13.64.06-20.49.49-.78.76-2.09.48-2.92-3.96-11.53-1.6-18.38,8.77-25.08-1.24-16.09,4.97-22.41,22.69-22.84,3.36-14.5,15.84-16.02,27.39-18.48,4.94-1.05,10.18-.99,15.28-.93,9.41.11,16.2,6.02,17.84,15.02,1.47,8.12-3.26,16.17-11.57,19.67-.57.24-1.13.5-2.05.91,1.59,5.51.04,10.66-1.72,15.95-1.24,3.71-1.73,7.82-1.77,11.76-.1,10.9-4.05,16.8-14.65,20.4,1.07,1.34,2.07,2.55,3.03,3.79,3.39,4.38,4.67,9.23,3.76,14.77-.2,1.23.4,3.28,1.33,3.91,13.57,9.1,22.93,21.35,28.09,36.84.12.35.36.66.71,1.29,15.39-2.47,30.13.07,44.54,6.87-2.93-3.4-5.77-6.88-8.82-10.18-9.39-10.13-19.98-18.85-31.68-26.21-10.01-6.3-16.04-15.11-17.39-27.01-2.47-21.83,15.91-40.97,37.87-39.36.59.04,1.18,0,1.24,0h.01ZM299.11,262.93c-.96-.4-1.39-.67-1.86-.77-12.78-2.6-21.37-10.2-26.43-22.07-1.71-4.02-3.52-8-5.44-11.92-.57-1.15-1.55-2.25-2.6-3-4.49-3.16-9.14-6.09-13.61-9.28-12.75-9.12-26.8-13.27-42.41-10.84-13.72,2.14-24.93,7.7-29.53,22.29-3.73,11.81-11.78,20.09-22.74,25.65-1.78.9-3.5,1.94-5.19,3-7.15,4.48-8.84,9.12-6.29,17.09.61,1.9,1.2,3.81,1.87,5.69,2.57,7.19,3.28,14.51,2.42,22.13-.74,6.56-.91,13.2-1.1,19.82-.2,6.82,2.46,11.77,9.01,14.95,9.62,4.68,18.08,11.02,24.85,19.53,1.89,2.37,4.6,4.23,7.23,5.85,8.32,5.13,17.46,8.11,27.2,8.73,15.07.96,28.15-2.55,36.98-16.35,2.17-3.39,6.03-6,9.62-8.1,4.82-2.82,10.14-4.79,15.24-7.14,10.3-4.73,16.8-12.75,18.48-23.83,1.03-6.83.15-13.93.44-20.89.25-6.07.78-12.14,1.51-18.17.5-4.17,1.56-8.27,2.37-12.4l-.02.03ZM301.65,251.5c20.04-.02,31.56-16.88,24.93-33.58-5.73-14.43-12.98-28.08-21.7-40.94-2.52-3.72-5.3-7.27-7.79-11-1.91-2.86-1.27-6.19,1.29-7.96,2.51-1.73,5.4-1.26,7.66,1.31.66.75,1.23,1.58,1.82,2.38,9.89,13.25,18.18,27.45,25.2,42.42.76,1.62,2.74,3.34,4.45,3.75,9.65,2.32,18.21-.11,24.76-7.6,6.61-7.55,7.6-16.28,3.77-25.54-18.09-43.82-47.13-78.48-87.13-103.93-16.48-10.48-36.56-.44-37.87,19.09-.46,6.79,1.02,13.05,8.07,16.71,4.07,2.11,7.86,4.91,11.38,7.88,9.25,7.81,18.34,15.81,27.34,23.9,2.86,2.57,2.8,5.92.45,8.28-2.28,2.28-5.58,2.15-8.35-.4-1.19-1.1-2.3-2.3-3.46-3.43-11.55-11.33-24.17-21.31-37.97-29.75-8.66-5.3-17.66-5.47-26.12.24-8.47,5.73-12.05,14.11-10.74,24.31,1.02,7.87,5.61,13.38,12.18,17.51,16.33,10.27,30.47,23.01,42.49,38.08,10.42,13.07,18.68,27.38,25.06,42.84,4.07,9.85,11.65,14.93,20.25,15.42h.03ZM130.92,260.62c-9.53-1.4-18.07-5.18-25.33-11.71-14.38-12.92-19.45-33.6-12.57-51.35,1.64-4.23,4.25-5.83,7.62-4.67,3.34,1.15,4.42,4.15,3.02,8.35-.2.59-.43,1.17-.62,1.77-6.63,20.27,6.09,42.07,27.01,45.99,3.08.58,6.78,1.04,9.46-.13,4.98-2.16,9.44-5.54,14.1-8.44,5.24-3.26,9.13-7.66,11.6-13.36,2.08-4.8,4.41-9.5,6.54-14.28.38-.86.57-1.92.48-2.85-1.56-16.4-16.26-30.36-32.72-31.31-7.32-.42-14.11,1.11-20.53,4.6-2.79,1.52-5.42.99-7.29-1.6-1.76-2.44-1.51-5.01.6-7.14.94-.95,2.24-1.58,3.45-2.21,24.67-12.62,55.29-.7,65,25.29.52,1.38,1.03,2.76,1.57,4.21,3.43-1.64,6.64-3.18,9.81-4.69-5.34-21.68-30.93-46.9-66.85-39.94-30.89,5.99-51.48,36.69-45.56,67.54,4.84,25.23,31.94,49.99,50.72,46.55.16-3.39.31-6.73.49-10.64v.02ZM328.73,254.15c-5.4,2.8-10.39,5.39-15.62,8.1,5.89,4.94,11.8,9.9,17.7,14.87,3.51,2.96,4.22,6.33,1.91,9.02-2.39,2.78-5.45,2.66-9.19-.43-4.13-3.43-8.22-6.91-12.35-10.34-.69-.57-1.53-.97-3.05-1.91-.73,5.77-1.4,10.81-1.99,15.85-.33,2.77.88,4.57,3.33,6.06,9.98,6.04,20.85,7.31,32.13,6.18,4.67-.47,8.11-4.42,7.84-9.05-.94-16.02-6.61-29.59-20.71-38.34h0ZM123.88,102.18c-4.65-.14-7.42,1.98-8,5.53-.57,3.48,1.42,6.94,5.14,7.54,7.89,1.27,15.15,3.89,22,8,3.19,1.92,6.92.63,8.8-2.42,1.91-3.09,1.28-6.73-1.89-8.91-8.08-5.54-17.06-8.71-26.04-9.74h0ZM177.96,74.7c.02-.1.05-.2.07-.31h1.12c4.99,0,8.14-2.58,8.23-6.73.09-4.08-2.93-6.58-8.09-6.79-8.35-.33-16.4,1.05-24.14,4.15-1.58.63-3.3,1.46-4.35,2.71-.9,1.07-1.41,2.96-1.19,4.34.22,1.37,8.56,2.93,10.17,2.66,3.86-.66,7.76-1.21,11.66-1.33,2.15-.06,4.33.84,6.5,1.31h.02ZM163.57,122.25c4.34-1.1,6.38-2.74,6.32-6.21-.14-8.1,1.26-15.8,4.07-23.39,1.3-3.51-.84-6.89-4.19-8.1-3.31-1.19-6.91.21-8.29,3.75-1.58,4.04-2.75,8.25-3.86,12.45-.26,1,.04,2.64.74,3.33,5,5,6.67,10.92,5.23,18.16h-.02ZM150.64,84.02c-6.22-1.27-12.11-2.76-18.09-3.57-3.41-.46-5.86,1.98-6.18,5.25-.18,1.85.89,5.12,2.19,5.59,5.9,2.15,12.08,3.54,18.19,5.22,1.13-3.62,2.31-7.42,3.88-12.49h0ZM114.84,125.85c0,2.59-.68,5.28.14,7.39,1.73,4.47,4.24,8.64,6.54,13.14,2.94-.49,6.1-1.01,9.42-1.56-1.36-3.33-3.39-6.44-3.83-9.76-.85-6.39-4.3-9.05-10.34-9.21h-1.94,0ZM138.8,134.72c1.25,2.47,2.41,5.07,3.86,7.5.71,1.18,1.81,2.62,3.01,2.94,5.46,1.47,11.03,2.59,17.01,3.94-1.01-6.48-7.17-9.51-8.78-14.38h-15.1,0Z"/>
  <path class="cls-1" d="M219.28,331.89c-23.24.04-42.89-18.43-43.79-41.17-.99-24.88,16.63-44.48,41.64-46.31,22.48-1.65,43.14,16.1,45.5,39.24.34,3.32.19,6.73-.1,10.07-.31,3.55-2.78,5.46-6.06,5.18-3.13-.27-5.07-2.78-5.08-6.28,0-3.73.3-7.55-.42-11.16-2.88-14.43-15.01-24.66-30.13-25.81-13.52-1.03-26.92,7.71-31.98,20.86-5.2,13.52-.85,28.85,10.67,37.59,11.36,8.62,27.14,8.77,38.79.36,1.01-.73,1.93-1.59,2.97-2.28,2.75-1.86,5.76-1.49,7.7.89,2.04,2.5,1.78,5.61-.94,7.98-8.23,7.17-17.84,10.79-28.78,10.85h0Z"/>
  <path class="cls-1" d="M119.27,222.91c-3.23.08-5.86-2.3-5.99-5.4-.15-3.62,2.92-6.11,7.75-6.29,3.23-.12,5.83,2.25,5.93,5.41.12,3.74-2.86,6.17-7.7,6.29h.01Z"/>
  <path class="cls-1" d="M139.66,198.26c.04,3.41-2.12,5.86-5.27,5.99-3.7.15-6.13-2.87-6.2-7.7-.05-3.44,2.06-5.82,5.28-5.94,3.8-.15,6.13,2.74,6.19,7.65Z"/>
  <path class="cls-1" d="M145.57,231.76c0,3.37-2.22,5.85-5.35,5.96-3.64.12-6.08-3-6.12-7.83-.03-3.33,2.25-5.87,5.34-5.98,3.57-.12,6.11,3.14,6.13,7.84h0Z"/>
  <path class="cls-1" d="M160.47,211.03c-.06,3.6-3.37,6.05-8.05,5.96-3.27-.07-5.67-2.48-5.63-5.67.04-3.67,3.2-6.03,7.99-5.96,3.21.04,5.74,2.57,5.69,5.68h0Z"/>
</svg>