<?xml version="1.0" encoding="UTF-8"?>
<svg id="Layer_1" fill="currentColor" data-name="Layer 1" xmlns="http://www.w3.org/2000/svg" version="1.1" viewBox="0 0 428 428">
  <defs>
    <style>
      .cls-1 {
        fill: #000;
        stroke-width: 0px;
      }
    </style>
  </defs>
  <path class="cls-1" d="M243.73,24c3.84,2.21,8.1,3.91,11.4,6.75,4.36,3.76,5.67,9.25,5.68,14.95,0,9.49,0,18.99,0,28.48,0,6.55-.51,7.26-6.91,9.55.63,3.72,1.26,7.5,1.92,11.45,30.24-5.32,53.87,4,66.65,32.54,10.29,22.98,4.53,44.13-11.93,61.79,3.77,9.79,8,19.11,10.95,28.82,4.42,14.52,4.5,29.48,2.99,44.54-2.35,23.35-4.34,46.74-6.47,70.11-1.28,14.05-2.4,28.11-3.88,42.14-1.71,16.2-13.97,29.14-30.05,32.19-.72.14-1.4.45-2.09.68h-137.27c-2.95-.93-6-1.61-8.82-2.83-14.8-6.37-21.98-18.01-23.38-33.79-3.12-35.22-6.04-70.46-9.71-105.62-2.79-26.76.49-52.06,14.51-75.44,1.49-2.48,3.12-4.66,6.45-4.02,4.47.86,6.07,4.95,3.5,9.27-5.47,9.2-9.4,18.97-11.86,29.39-3.21,13.6-2.5,27.27-1.18,41,2.25,23.5,4.32,47.03,6.48,70.54,1.16,12.56,2.03,25.16,3.61,37.67,1.72,13.55,12.34,22.53,26.08,22.55,33.88.07,67.76.02,101.63.02,8.13,0,16.25.04,24.38-.01,14.72-.09,25.33-9.87,26.67-24.51,3.62-39.69,8.11-79.32,10.63-119.08,2.4-37.89-13.23-68.2-44.74-89.36-10.41-6.99-16.13-15.51-17.65-27.48-.08-.6-.2-1.19-.33-1.98h-74.72c-.75,3.34-1.41,6.62-2.24,9.87-1.91,7.47-6.09,13.17-12.71,17.35-5.15,3.25-9.92,7.14-14.75,10.88-3.54,2.74-6.45,2.81-8.84-.09-2.2-2.68-1.84-5.76,1.5-8.4,5.29-4.17,10.66-8.26,16.25-12.01,4.54-3.04,7.31-6.8,8.22-12.29,3.06-18.6,6.36-37.16,9.66-56.25-6.85-.36-7.15-4.99-7.01-10.32.24-8.99.05-18,.07-27,.03-11.1,5.01-17.89,15.67-21.45.33-.11.59-.41.89-.62h60.76v.02ZM249.56,71.85v-24.68c0-1.12.02-2.26-.13-3.36-.71-5.22-4.29-8.51-9.68-8.53-17.48-.07-34.97-.08-52.45,0-5.81.03-9.54,3.89-9.6,9.73-.09,8.24-.03,16.48,0,24.72,0,.7.23,1.39.36,2.12h71.52-.02ZM178.07,122.6h71.02c-2.29-13.28-4.52-26.25-6.73-39.1h-57.64c-2.23,13.13-4.42,26-6.65,39.1ZM259.88,118.87c18.38-3.18,30.28.65,38.01,12.76,8.62,13.5,7.07,26.7-2.46,39.43,2.62,3.09,5.21,6.16,7.83,9.25,14.9-14.62,16.75-39.15,4.65-56.36-13.12-18.66-36.42-22.39-50-16.66.64,3.74,1.28,7.52,1.97,11.58h0ZM287.23,162.64c6.9-7.92,6.34-19.33-1.32-27.39-6.77-7.12-17.49-8.94-23.94-4,.44,2.66.77,5.39,1.36,8.05.99,4.44,2.53,8.63,6.51,11.37,5.73,3.95,11.46,7.89,17.38,11.96h.01Z"/>
  <path class="cls-1" d="M213.41,374.22c-14.25,0-28.5.03-42.75,0-17.43-.04-29.06-11.14-30.53-28.44-1.92-22.53-3.86-45.06-6.4-67.52-4.79-42.38,27.79-83.44,70.09-87.83,44.79-4.65,82.92,24.75,88.99,69.48,1.34,9.87-.19,20.16-.64,30.24-.25,5.61-.93,11.2-1.6,16.78-.5,4.18-2.9,6.19-6.36,5.7-3.51-.49-5.1-2.87-4.72-7.17.89-10.08,1.86-20.15,2.68-30.23,2.85-35.11-22.25-67.32-57.1-73.32-35-6.03-69.06,16.18-78.14,50.77-2.82,10.75-2.33,21.5-1.25,32.37,2,20.14,3.93,40.28,5.73,60.43.96,10.68,7.93,17.47,18.64,17.49,29,.05,57.99.04,86.99,0,10.18-.01,17.03-6,18.43-16.01.5-3.58.69-7.21,1.19-10.8.48-3.43,2.61-5.03,5.96-4.77,3.18.25,5.35,2.45,5.11,5.74-.36,4.85-.64,9.77-1.65,14.5-2.87,13.36-14.2,22.31-28.06,22.59h-44.62.01Z"/>
  <path class="cls-1" d="M190.48,269.38c-.61-3.05-1.6-6.08-1.7-9.14-.07-2.13.46-4.9,1.83-6.34,6.03-6.32,12.41-12.31,18.76-18.33,2.66-2.52,5.67-2.56,8.35-.04,6.36,6,12.78,11.95,18.75,18.33,1.48,1.58,1.8,4.72,1.77,7.12-.03,2.8-1.04,5.6-1.86,9.54,4.68-5.29,9.8-3.53,14.71-3.11,3.36.29,6.71.66,10.06,1.01,3.38.35,5.31,2.28,5.32,5.63.02,6.49.02,13-.46,19.47-.13,1.83-1.58,3.94-3.04,5.23-4.57,4.06-9.53,7.68-14.13,11.71-1.13.98-1.93,2.81-2.09,4.33-.39,3.72-.19,7.49-.46,11.23-.42,5.84-4.01,7.93-9.3,5.42-4.73-2.25-9.37-4.69-14.07-7.02-1.08-.54-2.21-.97-3.82-1.67,0,5.87.02,11.2,0,16.53-.03,4.63-2.17,7.29-5.71,7.18-3.43-.1-5.47-2.67-5.51-7.1-.05-5.35,0-10.7,0-16.67-5.83,2.88-11.16,5.5-16.49,8.14-6.94,3.43-11.22,1.24-10.49-6.3.9-9.24-2.65-14.99-9.97-20.47-12.35-9.25-9.38-4.72-10.23-20.27-.17-3.12-.23-6.25-.17-9.37.06-3.49,1.83-5.61,5.4-5.99,4.72-.5,9.45-.87,14.16-1.46,3.75-.48,7.23-.31,10.39,2.41h0ZM255,279.22c-1.87-.26-3.48-.36-5.04-.72-3.37-.76-5.8.15-8.04,2.99-3.47,4.41-7.34,8.52-11.24,12.57-3.03,3.15-8.35,2.05-9.35-1.92-.43-1.72-.12-3.73.23-5.53,1.52-7.71,3.26-15.38,4.74-23.1.27-1.42.27-3.52-.56-4.41-3.8-4.1-7.95-7.88-12.14-11.95-4.27,4.1-8.39,7.89-12.27,11.92-.72.75-.84,2.5-.62,3.66,1.6,8.33,3.27,16.65,5.11,24.94.74,3.31.39,6.05-2.85,7.64-3.09,1.52-5.46.17-7.55-2.24-3.85-4.43-7.75-8.83-11.78-13.1-.82-.87-2.27-1.6-3.42-1.59-2.7.02-5.39.53-7.99.83-1.11,7.19-.6,13.4,6.58,17.13,1.74.9,3.01,2.67,4.7,3.7,6.19,3.79,9.52,8.95,8.4,16.44-.04.29.22.63.47,1.27,5.12-2.54,10.29-4.74,15.09-7.58,4.27-2.52,7.97-2.48,12.24-.01,4.9,2.84,10.15,5.09,15.76,7.85,0-2.22.15-3.72-.03-5.19-.54-4.47,1.31-7.54,4.91-10.12,4.35-3.13,8.48-6.61,12.49-10.18,1.12-1,1.91-2.8,2.09-4.33.33-2.83.09-5.72.09-8.98h-.02Z"/>
</svg>