<?xml version="1.0" encoding="UTF-8"?>
<svg id="Layer_1" data-name="Layer 1" xmlns="http://www.w3.org/2000/svg" version="1.1" viewBox="0 0 428 428">
  <defs>
    <style>
      .cls-1 {
        fill: #000;
        stroke-width: 0px;
      }
    </style>
  </defs>
  <path class="cls-1" d="M406,227.63c-.96,7.02-1.54,14.12-2.95,21.06-15.02,74.07-58.08,124.83-129.65,148.96-98.61,33.26-205.84-20.18-240.43-117.9-5.56-15.71-9.05-31.86-10.31-48.48-.09-1.22-.43-2.42-.66-3.63,0-7.99,0-15.97,0-23.96,1.22-8.49,2.14-17.03,3.72-25.45C40.01,101.89,103.86,39.54,180.54,26.95c7.12-1.17,14.31-1.97,21.46-2.95,7.75,0,15.5,0,23.25,0,7.41.99,14.86,1.72,22.21,3.02,32.09,5.7,60.93,18.71,86.45,38.98,3.39,2.69,4.08,5.98,1.92,8.69-2.12,2.65-5.54,2.76-8.95.05-24.36-19.31-51.81-31.97-82.5-36.83-55.03-8.73-104.43,4.42-147.19,40.26-31.99,26.82-52.78,60.91-60.23,102-12.28,67.68,7.37,125.2,58.52,171.46,23.84,21.57,52.04,35.37,83.69,40.96,63.4,11.19,118.57-5.62,164.21-51.18,27.9-27.86,44.53-61.87,49.58-100.92,7.09-54.85-7.87-103.36-44.29-145.17-.74-.85-1.55-1.64-2.22-2.53-1.95-2.6-1.76-5.79.41-7.78,2.31-2.12,5.7-2.08,8.01.52,4.15,4.65,8.31,9.34,12.06,14.31,22.69,30.03,35.6,63.78,38.45,101.33.08,1.09.42,2.17.63,3.25v23.21Z"/>
  <path class="cls-1" d="M165.83,353.12c1.36-7.53,2.39-14.68,3.99-21.69,2.29-10.04,6.09-19.49,12.24-27.89.55-.75,1.02-2.24.65-2.86-3.26-5.32-3.16-11.17-3.08-17.05.04-3.21,0-6.43,0-9.64-3.91-1.03-6.8-.55-9.21,2.66-1.1,1.46-3.14,3.01-4.79,3.05-1.76.04-4.52-1.25-5.11-2.68-.75-1.79-.42-4.73.63-6.45,4.02-6.59,9.76-10.21,18.19-7.86v-13.95c-3.7,0-7.46-.34-11.09.16-1.52.21-2.67,2.4-4.18,3.4-1.69,1.12-3.58,2.64-5.42,2.7-4.19.12-6.66-4.98-4.19-8.48,1.93-2.73,4.21-5.32,6.74-7.49,1.26-1.08,3.42-1.39,5.21-1.49,3.99-.22,8-.09,11.99-.12.24,0,.48-.11,1.05-.26-.27-.77-.52-1.51-.79-2.24-.93-2.56-2.23-5.06-2.74-7.7-1.17-6.02-1.01-6.08-6.93-7.46-10.21-2.39-20.41-4.76-30.63-7.09-10.94-2.5-17.37-9.72-18.25-20.78-.14-1.82-.52-2.77-2.55-3.36-5.99-1.74-9.25-6.13-9.7-12.34-.04-.5-.08-1-.04-1.5.54-6.07.31-11.02-6.76-14.31-6.01-2.79-8.18-9.45-8.41-16.19-.09-2.61-.01-5.22-.01-8.94-1.25,1.73-1.96,2.62-2.57,3.58-34.05,53.91-27.89,125.92,14.82,173.4.58.65,1.18,1.29,1.74,1.96,2.87,3.4,2.93,6.55.2,8.88-2.5,2.13-6.01,1.79-8.51-1.4-6.16-7.83-12.82-15.41-18-23.87-34.98-57.15-30.61-127.19,10.79-179.99,1.02-1.3,1.79-3.02,2.04-4.64,2.55-16.15,10.74-28.54,24.79-36.9,5.14-3.06,10.55-5.66,15.9-8.35,6-3.02,11.75-2.3,17.45,1.13,1.32.79,3.55,1.09,4.96.56,38.45-14.48,76.84-14.59,115.31-.06,1.4.53,3.61.14,4.95-.65,5.61-3.29,11.27-3.94,17.13-1.02,5.36,2.67,10.75,5.31,15.9,8.36,13.68,8.1,21.86,20.07,24.69,35.74.36,1.98,1.26,4.08,2.51,5.64,67.84,84.65,30.95,211.64-72.15,246.25-51.43,17.27-99.75,9.22-144.04-22.19-3.53-2.51-4.37-5.83-2.37-8.59,2.03-2.81,5.32-3,8.92-.52.92.64,1.81,1.33,2.73,1.98,11.08,7.8,22.96,14.04,36.01,18.54ZM262.08,353.46c49.44-19.65,81.39-54.12,94.11-105.52,4.79-19.36,4.87-39.01,1.23-58.65-3.61-19.49-10.8-37.48-22.32-53.88.91,12.99-1.49,23.99-15.37,28.88-.15,10.31,2.56,21.88-11.84,24.95-1.52,14.83-7.1,20.97-21.42,24.16-10.59,2.36-21.15,4.88-31.7,7.4-.95.23-2.38.85-2.56,1.55-1.27,4.96-2.28,9.98-3.4,15.15,3.82,0,8.18-.04,12.54.01,4.12.05,12.15,7.17,12.64,11.24.36,2.98-.94,5.08-3.8,6.09-2.8.99-4.77-.4-6.6-2.31-1.27-1.32-2.55-3.39-4.04-3.59-3.75-.52-7.62-.17-11.52-.17v13.25c1.02.11,1.91.43,2.69.26,7.75-1.64,12.22,3.02,15.88,8.59,1.02,1.55,1.25,4.47.46,6.09-.71,1.46-3.33,2.77-5.08,2.75-1.65-.02-3.75-1.54-4.81-3-2.49-3.44-5.49-3.74-9.35-2.66,0,2.45.04,4.81,0,7.16-.12,6.55.91,13.27-2.87,19.32-.33.53.15,1.9.66,2.58,7.3,9.83,11.26,21.04,13.6,32.88,1.08,5.47,1.83,11.01,2.88,17.46ZM244.44,161.17c.12,0,.25,0,.37,0,0-4.24-.05-8.48.01-12.72.1-7.54-2.64-13.85-8.07-19.03-5.51-5.26-11.02-10.51-16.56-15.74-4.45-4.2-8.27-4.24-12.76-.03-5.65,5.29-11.23,10.65-16.83,16-5.03,4.8-7.74,10.73-7.87,17.63-.17,9.23-.33,18.47.04,27.68.66,16.36,13.02,29.12,28.73,30.15,16.15,1.06,30.28-9.83,32.79-26.02.9-5.84.15-11.94.15-17.91ZM175.65,209.82c-.39-8.19,1.23-15.92-2.22-23.33-.97-2.09-1.44-4.58-1.48-6.89-.23-11.58-.59-23.18-.22-34.74.3-9.36,4.64-17.19,11.41-23.65,3.43-3.27,6.94-6.46,10.29-9.82.88-.88,1.79-2.24,1.8-3.39.14-9.47.13-18.95.04-28.42-.04-3.46-2.43-5.79-5.56-5.84-3.27-.05-5.62,2.35-5.75,6.04-.09,2.74.05,5.49-.06,8.23-.14,3.73-2.46,6.22-5.64,6.22-3.2,0-5.49-2.46-5.56-6.21-.08-3.84-.02-7.68-.02-12.22-4.82,1.79-9.91,2.59-13.34,5.41-1.79,1.47-.67,6.49-.86,9.9,0,.12.03.26,0,.37-.99,2.9-2.77,5.8-2.75,8.69.02,3.03,2.54,6.02,2.62,9.07.33,11.83.25,23.68.08,35.52-.1,6.92-2.9,13.27-9.04,16.21-5.86,2.81-6.69,6.65-6.01,11.99.09.74.03,1.49,0,2.24-.15,6.73-3.47,11.43-9.87,13.37-1.89.57-2.31,1.36-2.2,3.12.29,4.39,3.15,8.42,7.71,9.55,11.97,2.95,24,5.64,36.63,8.57ZM251.95,209.83c12.64-2.94,24.56-5.6,36.42-8.53,4.54-1.12,7.06-4.46,7.91-9.05.36-1.95.07-3.05-2.31-3.7-6.12-1.68-9.48-6.35-9.64-12.69-.08-3.12.14-6.25-.12-9.35-.09-1.06-1-2.54-1.94-2.96-9.15-4.13-13.26-11.26-13.21-21.1.05-9.48-.2-18.97.1-28.44.15-4.7,1.24-9.37,2.07-15.15-3.18-3.75-1.93-9.67-2.19-15.34-.05-1.08-.43-2.79-1.14-3.09-3.99-1.66-8.12-2.98-12.59-4.56,0,4.46.06,8.31-.02,12.15-.08,3.74-2.39,6.22-5.59,6.19-3.18-.02-5.47-2.52-5.61-6.26-.09-2.37,0-4.74-.03-7.11-.05-4.58-2.21-7.21-5.82-7.12-3.47.09-5.53,2.63-5.55,7.01-.03,8.86-.1,17.72.08,26.57.03,1.52.84,3.35,1.89,4.47,3.34,3.53,7,6.77,10.48,10.17,5.61,5.49,9.85,12.07,10.23,19.87.62,12.92.24,25.89.12,38.84-.02,2.06-.55,4.28-1.43,6.15-3.41,7.3-1.47,14.93-2.11,23ZM134.26,153.26c7.71.99,12.75-2.37,12.89-8.76.24-11.46.09-22.94.07-34.4,0-2.48-1.06-3.55-3.55-2.25-5.11,2.67-9.75,5.51-9.55,12.47.1,3.38-2.96,5.64-5.97,5.36-2.93-.27-4.98-2.59-5.07-5.91-.21-7.69,2.86-13.8,9.21-18.15,2.57-1.76,5.16-3.68,8.02-4.77,6.22-2.36,7.68-6.71,7.01-12.86-.61-5.58-4.19-8.12-9.19-5.63-4.8,2.39-9.6,4.8-14.24,7.48-9.77,5.64-17.01,13.86-18.53,24.99-1.55,11.39-1.21,23.07-1.22,34.62,0,4.27,3.63,7.62,7.66,7.99,3.56.32,7.18.07,11.25.07,0-2.43-.07-4.64.02-6.85.15-3.67,2.18-5.83,5.39-5.91,3.21-.08,5.48,2.03,5.76,5.61.17,2.22.03,4.46.03,6.9ZM177.63,353.25c.74.08,1.12.22,1.45.14.97-.24,1.93-.52,2.86-.87,9.88-3.71,17.8-9.92,23.79-18.6,5.18-7.52,11.36-7.44,16.64.15.78,1.13,1.58,2.25,2.46,3.3,6.64,7.96,14.79,13.56,25.56,16.4-1.65-16.49-4.57-31.91-14.78-45.15-4.65,2.04-8.97,3.96-13.32,5.82-5.83,2.5-11.65,2.37-17.44-.16-3.31-1.45-6.67-2.8-9.91-4.42-1.91-.95-3.08-.8-4.34,1.04-8.74,12.78-11.48,27.31-12.98,42.36ZM304.65,153.64c3.24,0,6.08.06,8.91-.01,6.27-.16,9.95-3.82,10-10.09.07-8.1.17-16.2-.04-24.29-.33-13.2-5.92-23.9-16.77-31.35-5.71-3.92-12.12-6.89-18.36-9.98-3.65-1.81-7.46.52-7.92,4.6-.28,2.46-.4,5.02-.03,7.45.23,1.48,1.2,3.26,2.41,4.09,3.48,2.4,7.26,4.36,10.9,6.53,7.27,4.32,10.84,10.78,10.89,19.17.06,9.22.01,18.43.02,27.65,0,1.96,0,3.91,0,6.24ZM240.64,207.11c-18.12,12.42-35.76,12.34-53.73.03,0,5.9-.03,11.23,0,16.55.04,4.86,2.44,8.29,6.77,10.31,5.08,2.36,10.13,4.91,15.43,6.66,2.75.91,6.27,1.04,8.99.14,5.53-1.82,10.78-4.53,16.1-6.98,3.82-1.76,6.17-4.86,6.38-9,.28-5.68.07-11.38.07-17.71ZM190.92,246.12c0,5.48-.13,11.2.05,16.91.11,3.62,1.96,6.42,5.32,7.96,4.52,2.08,9,4.34,13.71,5.91,2.29.76,5.25.78,7.54.02,4.7-1.57,9.37-3.52,13.63-6.04,2.22-1.32,4.77-4.03,5.03-6.35.7-6.19.24-12.52.24-18.38-7.64,2.35-15.07,6.43-22.48,6.41-7.55-.01-15.09-4.05-23.02-6.44ZM190.88,281.9c0,1.86.07,3.93-.01,6-.23,5.36,1.97,9.04,7.09,11.04,3.83,1.5,7.42,3.71,11.33,4.83,2.69.77,5.97.91,8.61.12,4.5-1.35,8.72-3.66,13.05-5.58,3.07-1.37,5.16-3.68,5.47-7.03.3-3.17.06-6.4.06-9.28-7.68,2.39-15.21,6.55-22.73,6.55-7.52,0-15.03-4.19-22.87-6.65ZM293.4,153.17v-3.57c0-8.85-.37-17.71.11-26.53.39-7.22-2.33-11.88-8.8-14.82-3.35-1.52-4.34-1.21-4.36,2.46-.07,10.84-.13,21.68.02,32.52.1,7.67,4.92,11.36,13.03,9.94ZM223.59,70.36h-19.2c4.13,9.86,1.05,20.07,2.46,29.49h14.36c1.25-9.46-1.66-19.56,2.38-29.49ZM233.45,360.51c0-.36,0-.71,0-1.07-3.47-2.6-6.99-5.14-10.41-7.81-3.43-2.67-6.76-5.46-9.77-7.91-5.46,4.8-11.99,10.55-19.08,16.79h39.25ZM119.11,165.09c0,3.55-.14,6.99.04,10.42.16,2.99,2.71,2.71,4.52,2.37,2.85-.53,7.12,2.28,8.27-2.32.81-3.23.16-6.83.16-10.47h-12.99ZM295.57,165.04c0,3.61.04,6.85-.01,10.08-.04,2.76,1.89,3.2,3.79,2.77,3.06-.68,7.61,2.48,8.96-2.42.88-3.2.17-6.85.17-10.43h-12.9Z"/>
  <path class="cls-1" d="M95.02,264.77c.19-18.2,12.16-34.61,29.5-40.12,4.81-1.53,7.34-.3,8.73,4.58,6.54,22.84,13.04,45.69,19.5,68.55,1.27,4.5-.51,7.02-5.54,8.24-22.49,5.44-45.8-9.04-50.85-31.67-.7-3.14-.91-6.39-1.34-9.59ZM120.8,290.91c5.42,3.62,12.02,5.54,19.66,4.67-1.89-6.62-3.71-13-5.66-19.86-4.87,5.28-9.38,10.18-14,15.18ZM129.57,257.22c-2.06-7.17-3.88-13.54-5.8-20.22-6.89,3.73-11.71,8.58-14.68,15.67,6.85,1.52,13.26,2.95,20.48,4.56ZM124.85,267.71c-5.61-1.24-11.73-2.6-17.9-3.97-.8,6.32,1.02,12.92,4.81,17.89,4.32-4.6,8.65-9.2,13.08-13.92Z"/>
  <path class="cls-1" d="M332.7,264.73c-.09,27.14-24.57,46.96-51.19,41.45-6.13-1.27-7.65-3.76-5.93-9.84,6.25-22.02,12.51-44.03,18.78-66.05,1.76-6.19,4.1-7.39,10.17-5.27,16.84,5.87,28.23,21.91,28.17,39.71ZM306.76,291.19c-4.5-4.91-9.05-9.88-13.73-14.98-1.83,6.48-3.63,12.86-5.49,19.44,7.78.69,14.44-1.08,19.22-4.45ZM298.42,257.24c7.23-1.61,13.7-3.05,20.5-4.57-3.12-7.23-7.9-12.13-14.71-15.67-1.91,6.69-3.72,13.01-5.79,20.24ZM316.24,281.85c4.15-6.24,5.79-12.71,4.67-18.1-6.14,1.39-12.27,2.77-17.8,4.02,4.35,4.66,8.65,9.28,13.13,14.08Z"/>
  <path class="cls-1" d="M226.07,152.28c3.21.1,5.92,2.9,5.89,6.09-.03,3.39-2.93,6.06-6.38,5.88-3.32-.17-5.75-2.85-5.63-6.19.12-3.28,2.87-5.87,6.12-5.77Z"/>
  <path class="cls-1" d="M207.7,158.18c.08,3.27-2.49,5.96-5.81,6.08-3.35.12-6.03-2.33-6.19-5.64-.17-3.42,2.56-6.34,5.94-6.36,3.2-.02,5.99,2.71,6.07,5.92Z"/>
</svg>