<?xml version="1.0" encoding="UTF-8"?>
<svg id="Layer_1" data-name="Layer 1" xmlns="http://www.w3.org/2000/svg" version="1.1" viewBox="0 0 428 428">
  <defs>
    <style>
      .cls-1 {
        fill: #000;
        stroke-width: 0px;
      }
    </style>
  </defs>
  <path class="cls-1" d="M145,22c5.77,4.39,6.3,6.71,2.9,13.26-2.53,4.86-3.4,9.8-1.24,15.04,22.07-5.5,34.7.72,47.86,23.4,9.99-6.02,16.4-20.25,14.28-31.44-.51-2.68-.97-5.44-.88-8.15.25-7.1,5.76-11.81,12.82-10.85,3.04.41,6.23,1.2,8.9,2.64,18.47,9.97,34.74,22.61,46.65,40.18,5.26,7.76,8.53,16.31,9.12,25.82.07,1.14,1.56,2.62,2.76,3.21,13.86,6.85,22.6,17.46,24.4,33.1,1,8.67-1.71,16.52-6.1,23.91,4.42,3.07,9.03,5.84,13.15,9.2,20.71,16.9,31.26,38.49,29.39,65.52-.23,3.36.54,5.22,3.53,7.11,14.25,9.02,18.6,23.1,12.16,38.59-14.66,35.24-29.26,70.51-44.15,105.65-5.77,13.62-14.73,24.26-30.04,27.81h-153c-15.82-3.63-24.34-15.01-30.61-28.8-.83-1.82-1.66-3.63-2.42-5.48-13.64-32.84-27.27-65.68-40.9-98.53-6.87-16.56-2.26-30.98,13.18-40.09,2.87-1.7,3.17-3.29,2.7-6.25-2.77-17.38,1.2-32.98,12.95-46.33,8.39-9.53,18.92-15.85,30.85-19.77,3.31-1.09,4.05-2.53,3.62-5.85-1.87-14.5-.38-28.43,8.07-40.99-.35-.44-.61-.88-.97-1.2-15.35-13.94-16.07-37.92-1.95-52.82.7-.74.77-2.42.59-3.58-.58-3.68-2.07-7.32-2.05-10.97.05-9.04,1.75-17.64,9.93-23.34h4.5ZM214.06,243.49c9.26-12.3,21.25-18.96,36.38-18.85,15.24.11,27.16,7.1,36.18,19.53,12.11-16.06,28.4-20.18,48-17.64-.35-5.4-.15-10.53-1.08-15.46-3.9-20.71-16.33-35.1-34.29-45.3-2.5-1.42-4.09-1.18-6.17.72-2.75,2.52-5.83,4.7-8.91,6.83-17.65,12.2-37.14,20.93-56.53,29.84-.67.31-1.43.47-2.16.59-3.36.54-6.57-1.2-7.97-4.27-1.38-3.02-.57-6.69,2.13-8.77,1.17-.9,2.58-1.49,3.92-2.16,14.04-7.06,28.23-13.83,42.08-21.24,9.37-5.02,18.05-11.23,25.16-19.29,11.82-13.4,7.86-31.75-8.18-38.62-2.24,3.44-4.25,7.06-6.75,10.28-8.23,10.57-19.44,17.04-31.5,22.18-20.05,8.55-41.19,13.54-62.23,18.88-18.13,4.6-36.32,9.01-54.24,14.34-12.12,3.6-22.23,10.8-28.94,21.9-5.48,9.06-6.52,18.85-4.33,29.32,9.07-.92,17.74-.85,26.16,2.23,8.43,3.08,15.25,8.3,20.55,15.61,18.19-25.54,53.72-26.16,72.74-.65ZM177.58,390.8h28.92c0-1.53,0-2.88,0-4.23,0-6.62-.11-13.25.06-19.87.11-4.29,3.42-7.27,7.53-7.22,3.94.05,7,2.93,7.35,7.05.13,1.49.05,3,.05,4.5,0,6.57,0,13.15,0,19.75h28.84c.18-.66.33-1.13.44-1.6,9.15-39.88,18.32-79.77,27.39-119.67.46-2.01.41-4.26.03-6.3-2.66-14.53-15.92-24.81-30.19-23.56-15.05,1.32-26.32,13.35-26.48,28.44-.11,9.87-.02,19.74-.03,29.61,0,6.19-2.68,9.49-7.61,9.44-4.77-.05-7.37-3.3-7.39-9.26-.02-10.25.29-20.51-.12-30.74-.45-11.28-5.99-19.76-16.21-24.65-10.22-4.9-20.28-3.88-29.33,2.9-7.86,5.89-13.08,14.06-10.93,23.94,8.82,40.47,18.33,80.78,27.66,121.47ZM142.19,154.95c4.54-1.12,8.89-2.11,13.21-3.26,24.2-6.47,48.5-12.61,72.55-19.62,11.99-3.49,23.38-8.84,32.6-17.75,6.27-6.06,10.25-13.18,9.73-22.23-.48-8.33-4.23-15.33-9.21-21.72-9.58-12.3-21.82-21.51-35.02-29.54-.6-.36-1.32-.53-2.3-.9.18,1.3.33,2.26.44,3.23.11.99.25,1.99.27,2.98.3,15.56-6.92,27.77-18.18,37.44-6.74,5.79-14.7,10.24-22.42,14.77-8.06,4.73-16.75,8.4-24.69,13.3-15.14,9.34-21.47,25.79-16.98,43.29ZM265.77,391c5.78,0,11.16-.27,16.5.06,8.98.55,15.37-3.39,19.99-10.73,1.46-2.32,2.94-4.67,4.02-7.18,6.88-16.05,13.69-32.14,20.43-48.25,8.14-19.45,16.22-38.93,24.27-58.42,3.34-8.1,1.7-14.28-5.53-19.26-3.14-2.16-6.73-3.89-10.36-5.06-18.97-6.11-36.97,3.9-40.78,22.29-2.73,13.2-5.68,26.35-8.66,39.49-6.54,28.83-13.16,57.65-19.88,87.05ZM162.17,390.88c-2.87-12.61-5.71-25-8.5-37.4-6.69-29.7-13.36-59.41-20.03-89.11-1.98-8.83-6.15-16.36-14.63-20.18-12.29-5.52-24.53-5.26-35.96,2.6-7.78,5.35-9.44,11.36-5.82,20.1,13.12,31.7,26.14,63.45,39.46,95.06,2.99,7.09,6.74,13.91,10.71,20.51,2.86,4.75,7.45,8,13.17,8.31,7.09.38,14.21.09,21.6.09ZM144.84,102.15c11.28-5.95,21.97-11.79,32.86-17.23,3.01-1.5,3.16-3.17,2.35-5.85-2.74-9.03-11.11-15.46-20.6-15.73-9.24-.27-17.91,5.63-21.15,14.4-3.36,9.08-.63,18.72,6.54,24.42Z"/>
  <path class="cls-1" d="M221.47,333.4c-.04,4.18-3.52,7.5-7.73,7.38-4.05-.12-7.25-3.45-7.21-7.5.04-4.12,3.65-7.6,7.72-7.44,3.98.15,7.26,3.59,7.23,7.57Z"/>
</svg>