<?xml version="1.0" encoding="UTF-8"?>
<svg id="Layer_1" data-name="Layer 1" xmlns="http://www.w3.org/2000/svg" version="1.1" viewBox="0 0 428 428">
  <defs>
    <style>
      .cls-1 {
        fill: #000;
        stroke-width: 0px;
      }
    </style>
  </defs>
  <path class="cls-1" d="M372.45,284l1.4-3.44c8.53-20.94,7.93-33.83,6.21-43.68-5.35-30.74-22.48-51.32-50.93-61.19-28.16-9.75-54.79-4.04-77.03,16.52-10.54,9.74-21.73,13.94-35.25,13.19-18.77-1.03-35.53,5.59-49.78,19.68-1.56,1.55-4.21,2.6-6.58,2.61-6.94.06-13.99.05-20.82.05-8.77,0-17.84-.02-26.75.12-6.36.09-11.35.67-15.7,1.82-25.67,6.79-42.05,23.47-48.66,49.58-.05.18-.09.36-.13.53-.31,1.35-1.05,4.53-5.16,4.42-5.1-.12-10.31-.15-15.35-.18-1.15,0-2.29-.01-3.44-.02v15.18c.17.71.33,1.42.49,2.13.41,1.8.83,3.67,1.31,5.46,6.23,23.24,26.79,39.41,51.18,40.23,2.92.1,5.92.07,8.83.04,1.39-.01,2.79-.03,4.18-.03h1.75l.6,1.65c.47,1.3.9,2.6,1.33,3.88.9,2.69,1.75,5.24,2.88,7.59,10.1,20.91,26.51,31.64,48.76,31.9,38.34.45,77.35.32,115.08.19,7.12-.02,14.24-.05,21.36-.07,24.17-.07,45.43-16.67,51.69-40.37.15-.59.34-1.15.58-1.86.14-.43.31-.92.51-1.54l.56-1.73h1.82c1.84,0,3.72.05,5.54.1,3.93.1,8,.21,11.91-.17,24.49-2.33,44.23-21.01,48-45.42.12-.75.36-1.37.57-1.93.03-.07.05-.13.08-.2v-15.06h-31.04ZM177.46,239.96c9.57-11.25,23.46-17.54,38.1-17.24,6.07.12,13.19.09,19.96-1.14,9.67-1.75,18.42-6.74,27.55-15.7,13.58-13.34,32.09-19.26,50.76-16.22,18.59,3.02,34.2,14.43,42.81,31.29,10.03,19.64,9.06,39.54-2.88,59.15-1.75,2.88-4.08,4.16-7.56,4.16-22.96-.07-46.3-.07-68.86-.06h-18.39s-.01,0-.01,0h-17.6c-22.02-.01-44.8-.02-67.2.08h-.05c-4.32,0-6.4-1.75-7.19-6.04-2.47-13.51,1.38-27.46,10.57-38.26ZM66.5,280.69c.1-.37.19-.75.27-1.12.22-.95.45-1.93.86-2.92,7.48-18.64,21.4-29.3,40.24-30.84,9.6-.78,19.46-.59,28.99-.4,3.97.08,8.06.16,12.14.17l6.87-6.87-3.45,10.16c-3.45,10.16-4.39,20.66-2.87,32.13l.38,2.83h-84.26l.84-3.15ZM315.82,350.67c-.19.46-.35.9-.51,1.32-.37.99-.72,1.92-1.23,2.84-7.03,12.83-18.04,19.64-31.84,19.72-22,.12-43.98.16-65.64.16-24.14,0-47.89-.05-70.85-.11-15.08-.04-29.75-10.68-33.39-24.21l-.09-.32v-2.84h204.93l-1.39,3.44ZM383.54,305.33c-.14.38-.25.74-.36,1.08-.27.82-.52,1.6-.92,2.39-6.13,11.94-15.84,18.78-28.86,20.33-1.99.23-4.1.35-6.27.35-29.58,0-59.15,0-88.73,0-59.15,0-118.3,0-177.45.03h-.04c-16.32,0-28.2-7.06-35.32-20.98-.32-.63-.55-1.24-.81-1.96-.13-.35-.27-.73-.44-1.17l-1.33-3.41h341.73l-1.2,3.34Z"/>
  <path class="cls-1" d="M189.93,121.82c5.91,6.67,5.93,12.99.06,19.89l-1,1.17c-1.71,1.99-3.31,3.87-4.7,5.91-3.09,4.55-4.71,9.22-4.92,14.21h17.6c.84-3.86,3.31-6.54,5.53-8.96.69-.75,1.33-1.45,1.92-2.17,9.89-12.13,9.98-27.78.23-39.86-.82-1.03-1.67-2-2.57-3.04-.43-.49-.85-.98-1.27-1.47-5.44-6.37-5.51-12.58-.22-18.99.56-.68,1.14-1.36,1.71-2.03,1.54-1.82,3-3.53,4.29-5.37,3.11-4.43,4.79-9.17,5.11-14.42h-17.06c-.59.87-1.15,1.72-1.7,2.54-1.68,2.55-3.27,4.96-5.19,7.13-7.57,8.61-10.08,18.12-7.67,29.08,1.43,6.5,5.63,11.66,9.82,16.38Z"/>
  <path class="cls-1" d="M131.15,146.28c5.74,6.49,5.79,12.91.15,19.62-.47.56-.95,1.12-1.43,1.68-1.48,1.73-2.88,3.37-4.12,5.13-3.19,4.51-4.91,9.33-5.21,14.67h16.96c.63-.91,1.23-1.79,1.81-2.64,1.75-2.57,3.4-4.99,5.27-7.26,4.79-5.81,7.38-11.23,8.14-17.06,1.33-10.18-1.87-19.04-10.07-27.9-6.27-6.76-6.35-12.89-.27-20.48,3.09-3.86,6.25-8.05,8.39-12.49,1.04-2.15,1.49-4.78,1.96-7.56.07-.4.14-.8.21-1.21h-2.34c-5.3,0-10.31-.02-15.2.05-.02,0-.06.01-.1.02-.81,3.96-3.31,6.66-5.54,9.06-.71.77-1.38,1.49-1.99,2.24-5.77,7.1-8.11,14.94-7.14,23.96.88,8.25,5.59,14.56,10.54,20.16Z"/>
</svg>