<?xml version="1.0" encoding="UTF-8"?>
<svg id="Layer_1" data-name="Layer 1" xmlns="http://www.w3.org/2000/svg" version="1.1" viewBox="0 0 428 428">
  <defs>
    <style>
      .cls-1 {
        fill: #000;
        stroke-width: 0px;
      }
    </style>
  </defs>
  <path class="cls-1" d="M214,406h-12c-7.28-.99-14.64-1.57-21.83-3.04-72.73-14.93-122.07-57.21-147.84-126.9-.41-1.11-.68-2.28-1.08-3.64,5.12-1.62,9.95-3.15,15-4.75,10.93,33.18,29.49,60.69,56.81,83.16-2.45-12.28-.25-22.67,8.11-31.17,8.43-8.57,18.85-11.13,30.74-8.85.09-8.54,2.85-15.8,7.89-22.31-1.24.48-2.27,1.1-3.26,1.78-8.67,5.91-17.3,11.87-26.01,17.72-4.88,3.27-8.79,2.57-12.36-2.04-1.88-2.43-3.7-4.91-5.48-7.27-.61.22-.87.26-1.07.4-4.13,2.81-8.25,5.63-12.39,8.43-5.8,3.93-9.5,3.31-13.7-2.38-14.32-19.4-28.63-38.81-42.91-58.23-4.06-5.52-3.35-9.73,2.28-13.62,7.2-4.97,14.43-9.88,21.64-14.83,6.26-4.29,12.51-8.58,19.67-13.5-1.57.23-2.02.27-2.46.37-8.98,2.03-15.22-1.21-18.52-9.67-2.03-5.22-2.2-10.55-.12-15.73,1.64-4.08,1.54-7.87,0-11.97-2.47-6.58-1.73-13.04,1.89-19.08,3.36-5.61,9.43-8.09,15.79-6.49,9.48,2.38,16.01,8.22,18.79,17.54,1.6,5.37,2.11,11.07,3,16.06,3.16-12.34,12.46-20.07,23.69-26.14-5.42-2.75-8.34-2.77-13.69-1.2-3.18.93-6.63,1.63-9.9,1.43-14.24-.84-20.64-12.33-14.08-24.95,3.13-6.02,7.95-10.19,14.36-12.45,2.08-.73,4.21-1.33,6.64-2.1-7.71-9.35-11.47-18.86-2.21-29.18,6.02-4.38,12.51-6.21,20.06-4.79,2.4.45,5.25-.86,7.76-1.75,3.73-1.32,7.22-3.52,11.03-4.39,10.79-2.47,19.86,5.08,19.63,16.1-.07,3.31-.72,6.61-1.12,10.06.64-.24,1.31-.48,1.97-.74,11.33-4.51,19.23-.74,22.92,10.9.26.83.87,1.56,1.32,2.33-.25,1.59-.27,3.26-.78,4.76-2.75,8-2.44,15.81-.27,24.01.98,3.7-.83,8.13-1.36,12.16,3.94-1.65,8.13-3.39,12.65-5.28-4.7-3.71-7.19-8.31-7.83-13.88-.83-7.25-1.62-14.5-2.42-21.75-1.71-6.15-.5-11.97,1.46-17.89,1.55-4.68,2.76-9.59,3.29-14.48,1.42-13,7.58-22.45,19.98-26.95,10.96-3.98,22.45-4.73,34.01-3.41,18.87,2.16,34.48,11.17,48.39,23.52,5.42,4.81,9.71,10.55,11.17,17.79.77,3.82.65,7.83.95,11.98,9.34-6.89,19.32-8.16,29.14-1.49,10.13,6.88,12.49,16.89,9.21,28.54,1.86.76,3.54,1.45,5.11,2.09,11.49-14.95,28.37-12.52,36.96-4.12,10.93,10.69,9.67,25.35-3.5,37.72,3.81,7.84,4.05,15.8-.41,23.53-4.53,7.87-11.79,11.48-20.52,12.21-1.15,15.43-13.95,27.23-31.43,22.92-1.4,2.9-2.76,5.7-4.28,8.83,3.16,0,6.36-.02,9.56,0,6.95.06,9.65,2.71,10.01,9.74.03.65.21,1.29.44,2.58,5.92-5.95,11.33-11.47,16.83-16.9,4.6-4.55,8.74-4.55,13.34,0,7.28,7.21,14.52,14.47,21.75,21.74,4.85,4.88,4.82,8.93-.1,13.9-5.63,5.69-11.2,11.43-17.01,16.92-2.46,2.33-3.57,4.71-3.46,8.15.25,7.37.1,14.75.07,22.12-.03,6.99-2.81,9.81-9.76,9.85-7.75.05-15.5.11-23.25-.04-2.59-.05-4.42.75-6.23,2.58-13.9,14.03-27.87,27.98-41.86,41.91-4.72,4.71-8.89,4.67-13.61.02-3.47-3.42-6.89-6.9-10.36-10.33-.62-.61-1.37-1.1-2.43-1.95,6.38,21.57,1.6,36.39-13.97,44.26-6.83,3.45-14.04,4.31-21.5,2.63-11.16-2.52-18.5-9.64-22.83-19.22-5.07,3.72-9.97,7.32-15,11.01,6.87.45,13.78.9,20.86,1.37v15.7ZM141.44,132.13c.72-6.67,1.44-13.34,2.15-19.95-3.44,1.5-6.96,3.04-10.64,4.65,4.18,4.38,8.03,8.92,8.49,15.29,1.88,5.56-1.07,9.72-4.18,13.85,11.54,3.2,21.34,7.85,20.67,21.24,2.88-2.86,6.09-6.03,9.18-9.1-1.38-.22-3.23-.33-4.96-.83-10.32-2.99-16.22-10.1-18.76-20.33-.41-1.67-1.29-3.22-1.96-4.83ZM233.72,61.19c-6.49,1.06-13.06,1.77-19.44,3.29-5.81,1.39-9.58,5.37-10.14,11.58-.71,7.88-2.36,15.47-5.18,22.9-.95,2.49-.51,5.63-.22,8.43.67,6.66,1.78,13.29,2.37,19.96.24,2.68,1.05,4.5,3.53,5.57,5.26,2.28,10.49,4.62,15.75,6.92,6.91,3.03,13.54,2.43,20.07-1.28,8.68-4.93,17.44-9.72,26.19-14.51,9.36-5.12,15.38-12.8,18.41-23.03,2.05-6.89.99-12.91-4.27-17.84-13.21-12.39-28.19-21-47.07-21.99ZM268.02,198.05c-35.43,12.11-62.96,33.08-84.42,62.87,1.42.87,2.55,1.62,3.73,2.27,29.49,16.03,66.38,2.6,78.79-28.58,1.05-2.63,1.06-4.36-1.17-6.5-4.17-3.99-3.94-8.21.11-12.43,1.12-1.17,2.42-2.2,3.4-3.47.63-.82,1.27-1.99,1.18-2.94-.33-3.44-.96-6.85-1.62-11.21ZM154.6,265.28c-12.04-16.34-23.77-32.24-35.6-48.3-6.33,4.34-12.34,8.46-18.52,12.69,12.03,16.31,23.78,32.23,35.64,48.29,6.22-4.27,12.16-8.34,18.48-12.67ZM243.49,189.26c-1.86.86-3.31,1.54-4.77,2.21-17.12,7.87-33,17.7-47.34,29.93-8.26,7.04-14.99,15.37-19.82,25.14-.47.95-.5,2.12-.73,3.19.32.1.64.19.95.29,11.05-15.33,24.08-28.7,39.19-40.01,15.16-11.35,31.63-20.28,50.7-26.7-4.55-4.63-8.55-8.85-12.75-12.84-.69-.66-2.36-.73-3.44-.48-31.65,7.38-60.09,21.33-85.22,41.95-.96.79-2.12,2.24-2.03,3.27.51,5.47,1.39,10.9,2.14,16.35,19.75-27.37,47.28-42.97,76.47-57,2.27,5.03,4.37,9.66,6.65,14.71ZM309.2,202.21c.12-15.15,6.92-24.34,20.44-28.08-3.89-1.85-7.9-3.75-12.05-5.73-10.34,7.59-20.95,7.56-31.21.01-4.22,2.01-8.18,3.91-11.75,5.61,3.22,7.27,6.49,14.65,9.78,22.09.57-.52,1.4-1.25,2.18-2.03,5.65-5.57,9.26-5.58,14.91.09,2.61,2.62,5.12,5.34,7.68,8.02ZM133.99,357.97c8.75.02,15.95-7.16,16.03-15.97.08-8.64-7.37-16.1-16.01-16.03-8.8.07-15.99,7.27-15.99,16.02,0,8.79,7.17,15.97,15.97,15.98ZM237.99,317.99c.03-8.71-7.33-16.09-15.98-16.02-8.79.07-16.03,7.32-16.02,16.02,0,8.75,7.25,15.97,16.02,15.98,8.78,0,15.95-7.16,15.98-15.98ZM253.91,365.85c-.02-8.65-7.02-15.75-15.66-15.87-8.95-.13-16.19,7.12-16.14,16.15.05,8.85,7.19,15.9,16.03,15.84,8.79-.06,15.79-7.22,15.77-16.12ZM181.75,373.88c8.89.12,16-6.71,16.27-15.64.26-8.67-6.97-16.08-15.75-16.16-8.92-.07-16.11,6.86-16.24,15.65-.13,8.83,6.88,16.02,15.72,16.14ZM173.88,325.88c8.86.07,16.01-6.93,16.11-15.77.1-8.79-7.05-16.01-15.85-16.02-8.94,0-16.04,6.94-16.14,15.77-.1,8.78,7.01,15.95,15.88,16.01ZM49.43,242.77c12.03,16.31,23.72,32.16,35.6,48.27,2.8-1.94,5.29-3.68,7.91-5.5-.93-1.34-1.6-2.38-2.33-3.37-8.52-11.57-17.05-23.12-25.58-34.68-4.63-6.29-3.95-10.24,2.52-14.66,6.19-4.23,12.38-8.44,18.53-12.73.71-.5,1.11-1.44,1.66-2.17-.32-.24-.64-.49-.96-.73-12.35,8.46-24.7,16.92-37.34,25.58ZM255.38,338.87c-2.39-5.23-1.03-8.72,2.28-11.9,5.53-5.32,10.91-10.79,17.14-16.97-4.45,0-7.76.01-11.07,0-6.78-.04-9.74-2.99-9.78-9.85-.04-7.49,0-14.98-.02-22.47,0-1.02-.18-2.04-.32-3.49-9.78,6.21-19.93,9.91-31.83,11.43,26.91,2.15,40.15,28.43,27.24,50.2,1.87.9,3.73,1.79,6.37,3.06ZM142.25,220.87c-1.11-14.97,1.84-28.32,8.09-40.76-10.81,3.73-20.96,8.03-26.67,17.94,7.26,5.81,11.3,14.98,18.58,22.82ZM122.87,286.98c-11.93-16.17-23.74-32.18-35.64-48.31-2.12,1.52-3.89,2.79-5.78,4.15,11.95,16.2,23.7,32.1,35.59,48.22,2.1-1.46,3.81-2.65,5.84-4.06ZM222.59,159.31c-26-5.12-50.21,11.39-57.76,29.08,18.17-12.49,37.38-21.93,57.76-29.08ZM293.98,233.89c3.97-3.97,8.07-8.07,11.6-11.6-4-4.03-8.08-8.13-11.97-12.03-3.76,3.72-7.82,7.73-11.6,11.47,4.03,4.09,8.1,8.23,11.97,12.16ZM377.94,254.21c-4.01-4.02-8.12-8.12-11.93-11.94-3.88,3.89-7.98,8.01-11.55,11.58,3.76,3.98,7.74,8.2,11.55,12.24,4.06-4.05,8.11-8.08,11.93-11.88ZM286.25,322.55c-4.01,4.02-8.03,8.04-11.59,11.62,3.66,3.7,7.66,7.74,11.35,11.48,3.82-3.82,7.83-7.83,11.68-11.67-3.81-3.81-7.84-7.83-11.44-11.42ZM321.95,310.32c-4.16-4.2-8.16-8.24-12.17-12.29-3.86,3.8-7.91,7.78-11.56,11.38,4.22,4.2,8.33,8.29,12.23,12.17,3.67-3.6,7.67-7.51,11.5-11.26ZM268.18,261.81h25.88c0-2.01.13-3.87-.06-5.68-.09-.8-.67-1.75-1.33-2.24-2.24-1.7-4.71-3.09-6.88-4.85-2.06-1.67-3.86-3.66-5.81-5.55-2.01,3.52-3.62,6.62-5.51,9.55-1.87,2.9-4.01,5.62-6.29,8.77ZM111.1,186.48c4.96-4.62,9.01-9.43,14.03-12.79,4.98-3.34,10.94-5.22,16.67-7.84-4.82-5.92-13.38-3.72-20.1.37-9.17,5.58-12.97,12.26-10.61,20.27ZM141.38,85.43c-9.19,7.57-20.04,8.02-31.13,7.29,1.3,6.96,6.16,9.9,13.61,9.2,11.12-1.04,18.03-6.93,17.51-16.49ZM285.9,278.18h-15.5v15.58h15.5v-15.58ZM325.74,246.34h-15.52v15.47h15.52v-15.47ZM357.89,286.21h-15.61v15.41h15.61v-15.41ZM277.79,149.98c-.01-4.59-3.52-8.08-8.01-7.97-4.24.1-7.77,3.73-7.76,7.99,0,4.47,3.63,7.97,8.17,7.88,4.48-.09,7.62-3.35,7.6-7.9ZM301.85,157.89c4.54.06,8.16-3.48,8.13-7.92-.03-4.27-3.55-7.84-7.82-7.94-4.35-.11-7.84,3.24-7.95,7.63-.12,4.79,3.02,8.17,7.64,8.23ZM373.89,141.83c-.08-4.33-3.58-7.82-7.89-7.85-4.37-.03-8.08,3.76-7.98,8.17.09,4.26,3.71,7.83,7.94,7.85,4.42.02,8.01-3.69,7.92-8.18ZM333.82,205.89c4.5.07,8.22-3.52,8.18-7.92-.04-4.26-3.58-7.85-7.84-7.95-4.4-.11-8.18,3.58-8.17,7.98,0,4.28,3.52,7.82,7.84,7.88ZM325.89,118.02c0-4.51-3.64-8.13-8.08-8.03-4.25.09-7.78,3.72-7.79,7.99,0,4.43,3.75,8.13,8.14,8.02,4.32-.11,7.73-3.64,7.73-7.98ZM357.97,181.89c4.37,0,7.91-3.4,8.02-7.69.11-4.4-3.55-8.15-7.99-8.17-4.42-.02-8.12,3.73-8.02,8.13.1,4.31,3.63,7.73,7.98,7.73ZM333.84,157.89c4.5.07,8.2-3.52,8.17-7.91-.03-4.25-3.55-7.84-7.81-7.96-4.54-.13-7.97,3.3-7.97,7.97,0,4.55,3.16,7.83,7.61,7.89ZM101.73,209.46c3.37-2.35,6.62-4.63,10.63-7.43-6.67.11-11.78-1.69-14.42-6.63-2.37-4.43-3.37-9.6-4.43-12.81-1.7,4.1-4.09,9.85-6.45,15.54,8.27-1.53,9.74,6.79,14.66,11.33ZM69.1,189.82c6.44-2.32,9.39-8.19,8.87-16.44-.37-5.88-.86-11.96-8.11-14.75,3.61,10.25,3.45,20.37-.76,31.19ZM166.88,141.68c-4.28-10.78-4.13-20.88-.17-31.29-6.05,1.75-8.59,6.7-8.74,15.27-.15,8.28,2.54,13.84,8.92,16.03ZM125.35,133.79c-4.38-8.15-11.69-8.06-18.92-7.46-4.89.4-9.81,1.52-11.7,7.67,10.23-3.3,20.37-3.18,30.61-.21ZM193.53,283.35c2.08,1.97,5.59,5.29,9.23,8.74,3.33-1.58,8.09-3.83,11.81-5.59-7-1.05-15.14-2.27-21.03-3.15ZM159.53,381.69c-3-4.65-5.59-8.66-8.07-12.51-3.59,1.5-7.15,2.99-11.54,4.83,6.82,2.67,12.89,5.05,19.61,7.68ZM315.05,278.1c2.92,3.57,6.36,7.78,9.8,11.99.26-.21.52-.42.79-.63v-11.36h-10.59ZM161.88,279.85c4.02-.71,7.04-1.45,10.09-1.74,2.91-.27,5.87-.06,8.96-.06-3.08-1.86-6-3.62-8.86-5.35-3.33,2.33-6.45,4.52-10.2,7.14ZM285.07,130.96c.17.26.33.52.5.78,3.28-1.75,6.56-3.49,9.87-5.25-.49-1.86-.98-3.7-1.47-5.58-3.06,3.46-5.98,6.76-8.9,10.05Z"/>
  <path class="cls-1" d="M22,202.75c1.22-8.62,2.02-17.33,3.73-25.85,9.01-45.03,31.34-82.24,66.71-111.47,27.81-22.98,59.89-36.51,95.53-41.73,4.42-.65,8.86-1.14,13.28-1.7,8.5,0,17,0,25.5,0,6.89.98,13.83,1.7,20.66,2.98,52.05,9.73,93.41,36.25,124.15,79.35.28.39.48.84.87,1.55-4.25,2.91-8.44,5.77-12.82,8.77-.7-.81-1.29-1.41-1.78-2.09-29.88-41.27-70.01-66.13-120.44-72.9-51.02-6.86-96.63,6.98-136.54,39.5-.67.54-1.2,1.24-1.8,1.87-10.64,8.44-19.54,18.54-27.41,29.52-24.44,34.1-35.6,72.13-33.25,114.07.08,1.46.01,2.93.01,4.73-5.25.44-10.29.87-15.34,1.29-.41-2.06-.74-3.72-1.07-5.39,0-7.5,0-15,0-22.5Z"/>
  <path class="cls-1" d="M406,226c-.56,4.17-1.13,8.33-1.75,12.94-5.17-.65-10.18-1.29-15.67-1.98,2.83-23.21,1.4-45.97-4.59-68.78,5.16-1.39,10.03-2.71,15.68-4.23,1.39,7.07,2.88,13.84,4.02,20.66.97,5.77,1.55,11.6,2.31,17.4v24Z"/>
  <path class="cls-1" d="M280.81,394.08c-1.93-5.18-3.7-9.92-5.58-14.99,31.65-12.06,57.68-31.36,78.4-57.95,4.29,3.3,8.32,6.4,12.64,9.73-22.62,29.11-50.89,49.99-85.45,63.21Z"/>
  <path class="cls-1" d="M261.78,101.89h-15.39v-15.72h15.39v15.72Z"/>
  <path class="cls-1" d="M222.29,125.85v-15.64h15.44v15.64h-15.44Z"/>
  <path class="cls-1" d="M229.65,85.75h-15.45v-15.52h15.45v15.52Z"/>
</svg>