<?xml version="1.0" encoding="UTF-8"?>
<svg id="Layer_1" data-name="Layer 1" xmlns="http://www.w3.org/2000/svg" version="1.1" viewBox="0 0 428 428">
  <defs>
    <style>
      .cls-1 {
        fill: #000;
        stroke-width: 0px;
      }
    </style>
  </defs>
  <path class="cls-1" d="M417.33,61.21c-.09-.17-.19-.34-.3-.51-.09-.15-.23-.37-.25-.46-5.3-23.14-25.31-36.14-48.65-31.62-9.97,1.93-19.78,3.75-29.14,5.42-.9.16-1.92-.03-2.15-.22-11.05-11.02-24.54-17.69-40.11-19.83-.08-.07-.17-.14-.25-.21l-.4-.29h-14.56l-.37.05c-1.76.45-3.54.88-5.31,1.3-3.86.92-7.86,1.87-11.71,3.16-8.74,2.91-17.6,5.96-26.17,8.9-8.48,2.91-17.25,5.93-25.91,8.81-1.3.43-3.33.25-4.52-.4-26.62-14.57-58.7-10.45-79.84,10.25-27.62,27.04-55.06,54.48-81.55,81.55-20.69,21.13-24.82,53.09-10.28,79.52.71,1.29.92,3.47.46,4.85-4.77,14.37-9.78,28.94-14.63,43.02l-2.98,8.66c-9.3,27.06-4.19,51.4,15.2,72.35.53.58.92,1.94.78,2.76-1.78,10.38-3.72,20.56-5.38,29.13-2.36,12.15.02,23.9,6.69,33.08,6.34,8.73,16.09,14.31,27.44,15.71,2.18.27,4.37.38,6.58.38,5.56,0,11.18-.71,16.67-1.39,1.18-.15,2.35-.3,3.52-.44,10.61-1.27,19.48-6.63,26.37-15.92,3.52-4.75,6.86-9.58,9.95-14.08,2.81-4.11,2.26-8.54-1.36-11.03-3.67-2.52-7.68-1.5-10.73,2.72-1.74,2.41-3.45,4.84-5.15,7.28-1.36,1.94-2.72,3.88-4.1,5.81-4.3,6.03-9.64,9.54-15.85,10.44-6.78.98-14.65,2.02-22.3,1.92-6.65-.09-13.12-3.15-17.75-8.4-4.59-5.19-6.8-11.9-6.09-18.41.77-6.99,2.16-13.99,3.5-20.76.47-2.37.95-4.81,1.4-7.21,1.69.62,3.36,1.27,5,1.9,4.73,1.82,9.63,3.71,14.61,4.92,12.1,2.94,24.49,5.5,36.47,7.98,2.99.62,5.97,1.24,8.96,1.86,22.71,4.74,41.15-2.4,54.82-21.22,4.93-6.79,10.08-14.12,15.74-22.41,1.03-1.51,1.96-1.96,3.8-1.91,15.16.5,28.42-4.83,39.39-15.85,24.94-25.03,50.51-50.6,76.01-75.98,11.24-11.19,16.62-24.55,16-39.73-.07-1.72.41-2.59,2.06-3.73,2.06-1.43,4.13-2.84,6.2-4.25,6.24-4.26,12.69-8.66,18.72-13.42,15.91-12.55,22.56-29.37,19.22-48.65-3.03-17.5-7.03-34.71-10.87-50.83-1.12-4.71-2.95-9.31-4.71-13.76-.59-1.48-1.19-3-1.77-4.53,2.16-.4,4.34-.81,6.53-1.22,6.22-1.17,12.65-2.37,19.04-3.47,6.67-1.15,13.63.45,19.09,4.39,5.18,3.74,8.54,9.2,9.48,15.37.75,4.94.3,10.24-.13,15.37-.18,2.11-.36,4.3-.46,6.44-.41,8.71-4.28,15.49-11.82,20.72l-1.34.93c-3.36,2.33-6.83,4.73-10.19,7.19-3.75,2.75-4.71,7.08-2.32,10.54,2.43,3.53,6.83,4.15,10.7,1.51,4.43-3.02,9.14-6.27,13.75-9.77,9.44-7.17,14.79-17.05,15.91-29.35.25-2.81.63-5.67,1-8.44.17-1.29.34-2.57.5-3.86v-12.28s-.16-.33-.16-.33ZM252.48,84.86c-3.38-4.37-7.42-5.32-11.07-2.62-1.62,1.2-2.61,2.78-2.87,4.59-.31,2.23.51,4.69,2.37,7.12,14.07,18.37,28.16,36.72,42.24,55.08l12.21,15.91c13.07,17.03,11.79,36.28-3.41,51.5-26.41,26.44-51,51.02-75.18,75.16-15.01,14.99-34.05,16.2-50.92,3.23-.75-.58-1.5-1.16-2.25-1.74-1.9-1.48-3.87-3.01-5.87-4.44-3.79-2.71-8.21-2.26-10.74,1.09-1.21,1.6-1.73,3.5-1.46,5.34.29,2.03,1.47,3.86,3.41,5.28,5.03,3.71,10.02,7.24,15.29,10.97,1.72,1.22,3.45,2.44,5.18,3.67-1.34,1.9-2.66,3.83-4.05,5.86-3.74,5.46-7.61,11.11-11.92,16.36-9.29,11.32-21.65,15.46-36.75,12.31-13.56-2.83-28.09-5.98-45.74-9.93-15.19-3.4-27.67-12.53-35.15-25.73-7.46-13.16-8.89-28.52-4.02-43.25,3.75-11.34,7.58-22.4,11.63-34.11,1.58-4.56,3.16-9.14,4.75-13.77.04.03.07.06.11.09,1.18,1.01,2.3,1.97,3.46,2.87,24.13,18.57,49.83,38.36,75.57,58.11,2.02,1.55,4.28,2.24,6.39,1.95,1.87-.26,3.49-1.24,4.69-2.84,2.76-3.68,1.83-7.73-2.56-11.1-5.62-4.32-11.23-8.64-16.84-12.96-17.21-13.26-35-26.97-52.66-40.25-13.65-10.27-21.34-22.3-23.52-36.79-2.56-17.05,1.86-31.67,13.14-43.45,12.73-13.3,26.01-26.5,38.86-39.26,5.41-5.38,10.82-10.75,16.21-16.15l4.84-4.85c6.55-6.57,13.33-13.37,20.03-20.01,11.84-11.73,26.81-17.62,42.15-16.59,15.35,1.03,29.4,8.88,39.57,22.1.56.72,1.1,1.45,1.65,2.18,1.24,1.65,2.52,3.35,3.88,4.97,2.79,3.33,7.15,3.96,10.37,1.49,3.27-2.5,3.79-6.99,1.19-10.45-2.79-3.72-5.63-7.3-8.64-11.1-.84-1.05-1.68-2.12-2.53-3.2,2.57-.89,5.12-1.77,7.67-2.66,7.14-2.48,14.52-5.04,21.78-7.42,2.37-.77,4.76-1.61,7.08-2.42,6.73-2.35,13.68-4.77,20.65-5.93,26.85-4.44,52.89,13.06,59.27,39.83,4.21,17.68,7.84,35.56,10.53,49.16,2.59,13.09-1.12,24.48-10.73,32.95-5.52,4.87-11.68,9.17-17.64,13.32-2.18,1.52-4.42,3.08-6.59,4.65-9.13-14.51-19.7-27.95-29.93-40.97-5.56-7.07-11.31-14.38-16.71-21.72-4.04-5.5-8.3-10.96-12.41-16.25-1.34-1.72-2.68-3.44-4.01-5.17Z"/>
  <path class="cls-1" d="M96.19,185.43c-2.23-.08-4.32.74-5.92,2.28-1.56,1.51-2.43,3.52-2.44,5.66-.01,2.11.88,4.21,2.46,5.74,1.53,1.5,3.57,2.35,5.63,2.35.07,0,.13,0,.2,0,4.3-.11,7.82-3.71,7.84-8.01.02-4.36-3.39-7.88-7.76-8.02Z"/>
  <path class="cls-1" d="M65.51,279c.07,0,.15,0,.22,0,2.15-.07,4.14-.99,5.62-2.59,1.5-1.63,2.27-3.74,2.15-5.94-.22-4.37-3.84-7.71-8.2-7.59-4.25.11-7.86,3.78-7.87,8,0,2.12.91,4.23,2.5,5.78,1.53,1.49,3.55,2.33,5.57,2.33Z"/>
  <path class="cls-1" d="M275.6,69.65c.2.01.4.02.6.02,1.96,0,3.83-.71,5.32-2.03,1.65-1.46,2.61-3.46,2.72-5.63.11-2.11-.69-4.24-2.19-5.85-1.5-1.61-3.59-2.56-5.71-2.6-.05,0-.1,0-.15,0-4.24,0-7.79,3.44-7.96,7.73-.17,4.45,3,8.04,7.38,8.36Z"/>
  <path class="cls-1" d="M155.43,80.04h-.01c-4.23,0-7.93,3.6-8.06,7.85-.07,2.1.77,4.22,2.3,5.8,1.54,1.59,3.65,2.5,5.77,2.5h0c2.16,0,4.19-.86,5.71-2.43,1.54-1.58,2.35-3.67,2.29-5.88-.12-4.33-3.71-7.84-8-7.84Z"/>
  <path class="cls-1" d="M173.48,158.1c-4.29-.04-7.96,3.39-8.16,7.67-.1,2.09.71,4.21,2.23,5.82,1.53,1.63,3.62,2.58,5.74,2.6.03,0,.07,0,.1,0,4.19,0,7.84-3.53,8-7.76.08-2.21-.69-4.3-2.18-5.87-1.49-1.56-3.52-2.44-5.73-2.46Z"/>
  <path class="cls-1" d="M311.35,69.66s.07,0,.11,0c4.3-.06,7.85-3.6,7.92-7.9.03-2.15-.84-4.28-2.4-5.83-1.54-1.54-3.62-2.38-5.74-2.37-2.14.04-4.14.92-5.62,2.48-1.52,1.6-2.31,3.71-2.22,5.95.16,4.33,3.65,7.68,7.97,7.68Z"/>
  <path class="cls-1" d="M138.98,130.76h-.05c-4.28,0-7.9,3.46-8.08,7.74-.09,2.09.74,4.21,2.27,5.82,1.54,1.62,3.64,2.56,5.75,2.57h.06c4.21,0,7.88-3.56,8.03-7.81.08-2.18-.72-4.26-2.24-5.84-1.52-1.58-3.56-2.46-5.75-2.48Z"/>
  <path class="cls-1" d="M93.81,150.95s.05,0,.08,0c4.32,0,7.8-3.38,7.96-7.73.08-2.24-.71-4.35-2.23-5.94-1.49-1.56-3.49-2.43-5.65-2.46-4.34-.05-7.89,3.44-8.04,7.78-.08,2.25.71,4.36,2.21,5.93,1.47,1.54,3.49,2.4,5.67,2.42Z"/>
  <path class="cls-1" d="M65.73,298.02c-2.19-.03-4.3.77-5.88,2.33-1.56,1.53-2.41,3.55-2.4,5.69.02,4.24,3.61,7.93,7.86,8.05.08,0,.15,0,.23,0,2.05,0,4-.8,5.51-2.28,1.58-1.54,2.48-3.66,2.47-5.83-.01-4.43-3.36-7.85-7.79-7.96Z"/>
  <path class="cls-1" d="M207.03,91.23c-4.4.1-7.82,3.66-7.79,8.1.03,4.49,3.43,7.89,7.9,7.92h.06c4.45,0,7.86-3.34,7.96-7.8.05-2.25-.79-4.35-2.36-5.92-1.54-1.54-3.58-2.37-5.77-2.31Z"/>
</svg>