<?xml version="1.0" encoding="UTF-8"?>
<svg id="Layer_1" data-name="Layer 1" xmlns="http://www.w3.org/2000/svg" version="1.1" viewBox="0 0 428 428">
  <defs>
    <style>
      .cls-1 {
        fill: #000;
        stroke-width: 0px;
      }
    </style>
  </defs>
  <path class="cls-1" d="M406,154c-1.95,9.11-7.6,13.17-16.89,13.8-12.08.82-23.93.03-35.71-2.59-4.37-.97-5.22-.35-5.93,4.11-5.9,37.35-20.96,70.59-44.85,99.85-1.26,1.54-2.46,3.36-4.11,4.33-6.76,3.95-8.09,10.38-8.69,17.37-.96,11.07-2.1,22.12-3.17,33.18-.05.5-.05,1-.12,1.49-.55,3.84-2.8,5.94-6.11,5.71-3.32-.23-5.35-2.6-5.03-6.56.81-10.2,1.82-20.39,2.76-30.58.17-1.85.38-3.69.63-6.12-1.42.53-2.38.91-3.36,1.25-6.23,2.16-12.37,4.75-18.75,6.3-3.84.93-5.21,2.45-4.81,6.17,1.29,12.15,2.19,24.35,3.82,36.45,2.31,17.21,2.37,34.35-.14,51.52-.21,1.46-.32,2.94-.5,4.74h20.8c-.41-9.74-.85-19.43-1.21-29.13-.15-3.99-.22-7.99-.16-11.99.05-3.81,2.27-6.28,5.44-6.35,3.16-.07,5.55,2.35,5.72,6.12.64,13.85,1.25,27.69,1.75,41.55.21,5.77-3.49,8.96-8.13,11.37h-26.25c-8.44-3.48-10.31-6.62-8.88-15.94,2.51-16.28,2.79-32.54.6-48.88-1.42-10.63-2.74-21.27-3.89-31.93-.37-3.41-.06-6.9-.06-10.61-3.24.32-5.83.75-8.43.81-29.32.69-58.65,1.36-87.98,1.93-2.46.05-4.09.67-5.64,2.69-10.42,13.68-23.16,24.76-38.15,33.2-4.32,2.43-8.79,4.62-13.14,6.9,4.07,14.92,8.06,29.71,12.17,44.48,2.59,9.32,1.28,12.71-7.11,17.35h-25.5c-4.83-1.95-7.8-5.28-8.91-10.57-4.45-21.24-8.77-42.51-13.82-63.6-2.11-8.83-.78-15.88,5.04-22.85,7.73-9.25,14.76-19.09,22.39-29.06-.96-.74-1.82-1.28-2.52-1.98-12.73-12.74-19.78-27.73-18.01-46.1.23-2.34-.93-2.94-2.59-3.75-12.45-6.05-20.9-15.54-24.6-29.01-.76-2.75-1.33-5.55-1.99-8.33,0-4.25,0-8.5,0-12.75.09-.09.23-.16.25-.27,2.74-9.91,4.25-11.11,14.69-11.62,12.19-.6,20.75,2.34,35.08,12.11,2.91-2.64,5.84-5.33,8.81-7.97,13.01-11.51,28.54-16.45,45.56-15.99,19.71.53,39.41,1.76,59.08,3.17,21.17,1.52,42.24,4,63.55,3.55,17.5-.37,31.35-7.53,42.19-20.76,4.4-5.37,7.92-11.48,11.83-17.26,1.85-2.73,1.31-4.58-1.63-6.37-10.38-6.34-14.07-17.85-9.4-28.49,1.74-3.97,4.64-6.36,9-6.99,11.83-1.7,23.11.21,34.02,4.91,1.64.71,3.43,1.07,5.28,1.63.45-8.79-5.36-17.4-13.9-20.64-11.53-4.37-22.88-2.66-33.91,1.88-4.12,1.7-7.99,4.08-11.84,6.37-5.46,3.26-10.47,3.14-14.42-.63-3.92-3.74-4.45-8.52-1.35-14,10.75-18.98,25.84-32.5,47.57-37.59,1.43-.34,2.86-.7,4.29-1.05,3.75,0,7.5,0,11.25,0,.33.16.65.42,1.01.48,15.97,2.6,28.02,11.43,37.5,24.02,11.5,15.26,16.28,32.64,15.57,51.65-.05,1.46.16,3.56,1.09,4.33,10.7,8.8,18.07,19.86,22.83,32.77v18.75ZM58,220.16c7.82-3.42,14.8-6.7,21.97-9.51,4.15-1.62,7.17-.06,8.19,3.37,1.01,3.4-.86,5.73-4.98,7.44-5.62,2.33-11.03,5.17-16.58,7.68-4.11,1.86-4.79,5.16-4.57,9.22.73,13.25,6.76,23.81,16.23,32.68,6.06,5.68,6.5,10.41,1.49,16.96-7.98,10.41-15.89,20.87-24,31.19-1.59,2.03-1.81,3.87-1.3,6.2,2.25,10.11,4.42,20.24,6.62,30.36,2.81,12.9,5.62,25.79,8.46,38.79h19.84c-.21-.95-.34-1.8-.57-2.62-4-14.55-8-29.11-12.04-43.65-1.96-7.04-.06-11.89,6.47-14.78,19.64-8.68,35.81-21.58,48.73-38.73,1.56-2.07,4.56-3.24,7.1-4.32,2.01-.86,5.11-.23,6.34-1.55,1.39-1.5,1.27-4.43,1.73-6.76.26-1.35.35-2.72.54-4.09,3.49-25.85-14.03-51.78-39.2-58-3.95-.98-6.01-3.63-5.3-6.83.77-3.44,3.9-5.35,7.92-4,7.15,2.39,14.13,5.28,21.61,8.13,8.07-15.49,13.96-32.64,17.18-51.96-9.51,0-18.36-.09-27.2.05-3.36.05-6.76.37-10.05,1.01-12.25,2.39-21.9,9.36-30.55,17.92-7.05,6.98-11.35,7.33-19.12,1.24-7.59-5.95-16.21-8.66-25.83-8.22-1.82.08-3.27.26-3.7,2.68-2.35,13.32,4.51,28.72,16.29,35.81,2.98,1.79,6.18,3.21,8.28,4.28ZM322.6,214.83c.86-1.78,1.27-2.53,1.6-3.32,5.73-13.9,9.8-28.28,12.03-43.15,1.79-11.92,8.6-16.7,20.22-14.02,11.29,2.61,22.71,3.41,34.22,1.85,1.25-.17,3.34-1.4,3.35-2.18.16-6.3,1.68-13.32-.52-18.8-8.52-21.18-24.79-33.29-47.57-35.99-6.71-.8-13.09-2.09-19.56-4.22-6.6-2.18-13.9-2.24-20.91-3.11-2.38-.3-3.57.95-3.95,3.4-.78,4.98,1.22,9.04,6.27,12.07,7.58,4.55,10.22,12.32,5.62,19.85-5.04,8.27-11.07,15.94-16.69,23.86-.56.78-1.23,1.48-1.94,2.31,12.68,18.65,21.84,38.74,27.83,61.44ZM220.71,288.6c.21.1.42.31.62.29,5.35-.45,10.7-.9,16.05-1.38,29.61-2.66,53.21-15.34,68.59-41.47,10.83-18.41,9.64-10.39,4.97-31.37-.69-3.11-2.07-4.41-5.22-4.3-16.08.55-32.19.69-48.25,1.65-7.51.45-14.93,2.39-22.24,3.64-1.22,29.09,2.26,28.35-14.52,72.94ZM151.57,240.43c.11-.04.49-.09.78-.28,20.94-14.41,43.59-25.18,68.07-32.05,2.37-.66,2.23-2.13,1.77-3.69-3.17-10.6-6.39-21.19-9.77-31.73-.3-.94-1.89-1.99-2.96-2.08-15.3-1.28-30.62-2.44-45.94-3.48-.87-.06-2.51,1.12-2.66,1.93-3.6,19.27-9.82,37.61-18.87,55.01-.45.86-.41,2.48.12,3.25,3.01,4.42,6.24,8.69,9.46,13.1ZM157.83,290.24s.62.16,1.22.15c15.23-.23,30.46-.41,45.69-.85,1.29-.04,3.03-1.48,3.71-2.73,7.46-13.72,12.29-28.38,14.32-43.84,1.02-7.81,1.08-15.75,1.57-23.7-1.41,0-1.8-.09-2.14.01-23.34,6.73-44.94,17.09-64.72,31.17-.83.59-1.25,2.46-1.1,3.64.57,4.44,1.99,8.83,2.1,13.26.18,7.56-.39,15.13-.65,22.89ZM305.88,199.17c-5.28-14.08-11.76-26.72-20.1-38.82-18.43,14.66-39.65,13.14-60.59,11.49,3.09,11.03,6.07,21.67,9.17,32.72,23.09-5.18,46.81-6.73,71.52-5.38ZM276.09,64.25c9.23-5.28,18.91-9.15,29.43-10.44,23.69-2.89,43.45,7.13,46.61,32.63.11.88.93,2.13,1.69,2.39,5.52,1.85,11.11,3.49,16.84,5.25.05-.58.19-1.29.16-2-.73-19.56-7.84-36.2-22.98-48.91-8.85-7.44-19.03-11.44-30.83-9.41-18.73,3.22-31.32,14.86-40.93,30.49Z"/>
</svg>