<?xml version="1.0" encoding="UTF-8"?>
<svg id="Layer_1" fill="currentColor" data-name="Layer 1" xmlns="http://www.w3.org/2000/svg" version="1.1" viewBox="0 0 428 428">
  <defs>
    <style>
      .cls-1 {
        fill: #000;
        stroke-width: 0px;
      }
    </style>
  </defs>
  <path class="cls-1" d="M402.5,233.25h-32.42l1.59-4.64c4.25-12.4,2.7-23.11-4.75-32.73-7.06-9.12-17.18-13.27-30.88-12.69l-5.15.21,1.7-4.86c3.99-11.46,2.97-21.51-3.1-30.74-5.83-8.85-14.75-13.89-26.5-14.98l-4.08-.38,1.01-3.97c.96-3.77,1.94-7.48,2.9-11.17l.32-1.23c2.28-8.71,4.65-17.72,6.78-26.84,1.83-7.86.47-16-3.84-22.9-4.22-6.76-10.7-11.44-18.24-13.17-16.7-3.84-32.84,6.15-36.75,22.75-2.49,10.59-4.7,19.77-6.74,28.06-1.31,5.31-2.7,10.74-4.04,15.98l-.76,2.98c-.62,2.42-1.24,4.84-1.86,7.29l-.72,2.82-2.9-.19c-15.7-1.01-27.58-6.84-36.32-17.84-7.72-9.72-12.27-21.46-13.52-34.89-.41-4.42-.8-8.83-1.2-13.46-2.73,2.55-5.54,5.15-8.38,7.64-16.13,14.13-26.4,32.01-30.54,53.16-.74,3.79-3.1,5.65-7.01,5.54-3.25-.1-6.75-.1-10.68,0-15.9.37-28.62,10.19-32.42,25.01-1.64,6.41-1.2,12.96,1.41,20.6l1.64,4.84-5.11-.21c-13.7-.57-23.79,3.58-30.86,12.69-7.44,9.59-9,20.29-4.76,32.74l1.58,4.62H25.5v15.54l2.35.02c4.27.05,9.05.12,13.69.1h0s1.43-.02,1.43-.02h.09c2.23,0,5.43.45,7.47,4.32,15.14,28.67,24.14,58.85,26.74,89.7,1.39,16.58,8.9,27.1,22.3,31.26,3,.93,6.6,1.42,10.39,1.43,66.13.09,136.14.1,208.08.04,17.87-.02,30.46-11.28,32.09-28.68,3.01-32.32,11.12-61.45,24.81-89.07,2.62-5.29,6.26-10.05,14.99-9.1,3.5.39,7.08.24,10.88.08.57-.02,1.14-.04,1.71-.06v-15.59ZM254.4,128.22c.83-3.44,1.65-6.86,2.46-10.26l.89-3.74c2.83-11.83,5.61-23.43,8.56-35.28.96-3.84,3.36-7.07,6.77-9.09,3.44-2.04,7.63-2.62,11.51-1.61,7.51,1.96,12.05,9.93,10.13,17.78-3.47,14.2-7.25,28.6-10.82,42.05-.57,2.19-3.03,4.68-5.64,4.75-3.28.08-6.73.12-10.85.12h-14.16l1.14-4.72ZM71.47,207.92l.67-1.05c3.25-4.99,8.97-8.03,15.3-8.13,7.89-.12,15.86-.09,23.56-.06h2.49c2.59.02,5.18.03,7.74.02h.86v-15.83c-.28-.12-.55-.23-.82-.35-2.26-.96-4.38-1.86-6.36-3.33-5.71-4.23-7.92-12.13-5.38-19.2,2.57-7.14,8.91-11.45,16.95-11.51,7.23-.06,14.7-.03,21.3,0h3.08c2.01.02,4.01.03,6.02.03h1.05c-.4-15.57,3.04-29.53,10.48-42.61l3.22-5.66,2.94,5.81c.51,1,.98,1.96,1.45,2.89.98,1.98,1.8,3.63,2.69,5.23,11.92,21.6,30.18,33.03,54.28,33.97,15.13.59,30.46.49,45.29.39h2.16c5.91-.05,12.02-.09,18.02-.07h1.59c.75,0,1.54,0,2.35.04,10,.59,17.35,8.28,17.09,17.89-.26,9.61-7.7,16.67-17.68,16.79-6.06.07-12.01.06-18.08.04h-4.68s0,15.49,0,15.49h22c12.42,0,25.09,0,37.59.03,1.95,0,4.87.09,7.6.86,7.78,2.17,13.14,10.31,12.18,18.53-.96,8.26-7.67,14.67-15.95,15.25-1.19.08-2.35.08-3.46.08h-55.82c-63.58,0-129.33,0-193.99.06-9.15,0-15.32-3.64-18.35-10.83-2.08-4.91-1.82-10.21.68-14.74l-.03-.03ZM342.34,299.26l-.36,1.8c-.43,2.12-.87,4.23-1.31,6.31-.96,4.53-1.94,9.22-2.71,13.87-1.25,7.69-2.16,14.65-2.76,21.27-1.14,12.55-6.62,17.67-18.89,17.67H111.32c-11.13,0-16.81-4.93-18.4-16-1.37-9.53-2.97-19.06-4.52-28.29-.71-4.2-1.41-8.41-2.1-12.62-.07-.44-.12-.89-.17-1.36l-.04-.38c-.02-.24-.04-.46-.07-.69l-.42-4h257.21l-.48,2.4h0ZM357.23,259.12c-2.65,6.43-5.15,12.5-7.77,18.66-1,2.34-3.63,3.1-4.42,3.28-1.15.26-2.23.21-3.03.17-.23,0-.48-.02-.72-.02h-39.91c-70.37,0-143.13,0-214.7.1-5,0-7.86-2.02-9.59-6.77-1.77-4.83-3.84-9.64-5.85-14.3l-.11-.27c-.83-1.94-1.68-3.91-2.52-5.9l-2.03-4.86h291.87l4.88-4.88-6.1,14.79Z"/>
</svg>