<?xml version="1.0" encoding="UTF-8"?>
<svg id="Layer_1" data-name="Layer 1" xmlns="http://www.w3.org/2000/svg" version="1.1" viewBox="0 0 428 428">
  <defs>
    <style>
      .cls-1 {
        fill: #000;
        stroke-width: 0px;
      }
    </style>
  </defs>
  <path class="cls-1" d="M418.6,227.77c-2.07,6.45-5.52,11.69-11.98,14.62-.83.38-1.35,2.17-1.44,3.36-3.34,41.65-22.46,74.21-56.58,98.03-10.75,7.51-22.57,12.97-35.21,16.5-2.57.72-3.68,1.73-3.53,4.6.19,3.69.12,7.49-.53,11.12-1.57,8.77-8.91,14.98-17.81,15.53-.93.06-1.86.1-2.79.1-49.63,0-99.27-.03-148.9.03-8.63.01-15.38-3.15-19.13-11.08-1.37-2.9-1.77-6.35-2.15-9.61-.35-3.01-.07-6.1-.07-9.35-4.95-1.75-9.91-3.18-14.6-5.22-48.24-21.04-75.31-57.63-80.5-110.14-.23-2.37-.97-3.69-3.17-4.86-7.94-4.22-11.8-12.8-9.89-21.15,2-8.78,8.92-14.81,18.04-15.44,3.81-.26,7.65-.04,11.63-.04.84-21.7,10.2-37.5,30.58-45.01,18.08-6.66,34.21-2.04,48.55,11.18,9.03-8.98,20.06-14.04,32.97-14.04,12.81,0,23.87,4.67,33.22,14.18,9.18-9.14,20.22-14.19,33.15-14.18,12.81,0,23.86,4.71,33.2,14.2,9.18-9.21,20.25-14.21,33.17-14.2,12.81,0,23.83,4.78,33.07,14.07,14.99-13.84,32.15-18.36,51.09-10.28,18.8,8.02,27.46,23.39,28.07,43.37,3.48.85,6.94,1.28,10.07,2.54,6.26,2.52,9.35,7.93,11.48,13.99v7.19ZM131.96,364.4c-1.63,13.35,1.89,14.38,11.79,14.34,47.64-.18,95.27-.08,142.91-.08,1.33,0,2.68.09,3.99-.09,3.41-.47,5.7-2.31,5.97-5.89.2-2.71.04-5.45.04-8.22-7.35.43-14.22,1.15-21.11,1.17-31.8.12-63.6.06-95.41.03-1.58,0-3.21-.12-4.72-.54-3.07-.85-4.58-3.1-4.5-6.24.07-2.97,1.58-5.11,4.5-5.84,1.78-.44,3.68-.53,5.52-.53,31.27-.03,62.54-.07,93.81,0,12.59.03,25.03-1.26,36.94-5.32,39.48-13.45,65.26-40.24,76.8-80.37,2.1-7.31,2.85-15,4.31-23.05-2.62,0-4.32,0-6.02,0-100.46,0-200.93,0-301.39,0-1.59,0-3.23.12-4.78-.16-3.44-.64-5.43-2.79-5.39-6.36.04-3.56,2.04-5.7,5.51-6.25,1.69-.27,3.45-.16,5.18-.16,102.73,0,205.45,0,308.18,0,1.2,0,2.4.03,3.59,0,4.9-.18,7.89-2.76,7.8-6.7-.09-3.79-2.92-6.17-7.67-6.42-.66-.04-1.33-.01-2-.01-121.09,0-242.18,0-363.27.02-1.58,0-3.2.1-4.75.43-3.16.69-5.17,3.12-4.67,6,.38,2.21,2.41,4.4,4.23,6.01.97.87,3.04.65,4.62.66,7.58.06,15.17-.03,22.75.06,4.14.05,6.64,2.17,7.04,5.61.49,4.21-2.24,7.18-6.97,7.27-6.09.11-12.18.03-18.39.03-.08.88-.21,1.39-.17,1.89,1.54,18.73,6.84,36.3,17,52.15,19.91,31.06,48.19,49.18,84.89,53.85,4.47.57,9.05.41,13.5,1.06,5.34.78,7.95,6.34,4.57,9.96-1.56,1.67-4.58,2.72-6.95,2.75-5.68.07-11.36-.63-17.3-1.03ZM383.39,204.53c1.28-13.63-7.29-27.2-20.04-32.17-14.15-5.53-29.43-1.17-38.43,10.98-4.9,6.61-8.85,6.64-13.7.09-13.3-17.97-39.36-17.99-52.67-.03-4.86,6.55-8.83,6.54-13.7-.03-13.3-17.94-39.38-17.9-52.67.08-4.73,6.41-8.81,6.46-13.45.17-13.46-18.21-39.52-18.27-52.92-.12-4.71,6.39-8.77,6.41-13.45.06-13.38-18.14-39.55-18.17-52.89.07-4.5,6.15-6.53,13.14-5.86,20.89h329.77Z"/>
  <path class="cls-1" d="M209.68,66.41c.4,9.43-2.88,18.83-7.97,27.78-5.41,9.5-6.05,19.69-3.42,30.11.71,2.8,2.03,5.46,3.3,8.09,2.47,5.13,1.89,8.7-1.94,10.69-3.59,1.86-7.06.3-9.51-4.49-8.55-16.66-8.9-33.55-.06-50.05,5.5-10.27,8.28-20.69,5.64-32.14-.76-3.32-2.21-6.53-3.67-9.63-2.44-5.18-1.98-8.76,1.71-10.75,3.88-2.09,7.13-.44,10.03,4.9,4.16,7.65,5.98,15.86,5.88,25.51Z"/>
  <path class="cls-1" d="M218.72,112.42c-.41-9.42,2.92-18.81,8-27.76,5.4-9.51,6.02-19.71,3.36-30.11-.78-3.04-2.38-5.89-3.71-8.78-1.99-4.34-1.26-7.87,2.12-9.74,3.56-1.97,7.18-.66,9.49,3.75,8.75,16.71,9.32,33.74.43,50.41-5.55,10.41-8.42,20.93-5.7,32.52.84,3.57,2.52,6.97,4.03,10.35,2.02,4.53,1.32,8.06-2.24,9.99-3.44,1.86-6.89.31-9.36-4.04-4.51-7.94-6.56-16.48-6.42-26.58Z"/>
</svg>