<?xml version="1.0" encoding="UTF-8"?>
<svg id="Layer_1" data-name="Layer 1" xmlns="http://www.w3.org/2000/svg" version="1.1" viewBox="0 0 428 428">
  <defs>
    <style>
      .cls-1 {
        fill: #000;
        stroke-width: 0px;
      }
    </style>
  </defs>
  <path class="cls-1" d="M406,224.5c-.98,7.39-1.72,14.83-2.98,22.18-5.99,34.76-20.58,65.52-43.44,92.36-2.61,3.06-5.99,3.56-8.52,1.43-2.72-2.29-2.76-5.49.15-8.9,16.58-19.48,29.15-41.29,35.81-65.98,18.8-69.74,3.09-131.06-48.3-181.82-36.54-36.1-81.8-52.32-133.14-50.31-82.28,3.22-152.23,62.96-168.51,143.62-1.85,9.15-2.6,18.53-3.63,27.82-.34,3.06-.79,5.8-4.11,6.8-3.5,1.05-5.65-.95-7.33-3.7,0-2.25,0-4.5,0-6.75.22-1.21.5-2.42.67-3.64.89-6.55,1.41-13.18,2.67-19.66,7.02-36.19,22.97-67.94,48.22-94.84,29.32-31.23,65.1-50.76,107.36-58.16,6.99-1.22,14.06-1.98,21.09-2.95,8,0,16,0,24,0,1.09.22,2.17.46,3.26.66,12.5,2.24,25.3,3.44,37.47,6.88,71.29,20.19,124,79.24,136.4,152.15,1.23,7.22,1.93,14.54,2.87,21.81v21Z"/>
  <path class="cls-1" d="M202.75,406c-7.04-.94-14.11-1.68-21.1-2.86-37.73-6.39-70.63-22.69-98.58-48.77-30.44-28.41-49.58-63.21-57.66-104.05-1.04-5.26-1.68-10.6-2.42-15.92-.54-3.92,1.37-6.75,4.74-7.24,3.33-.49,5.89,1.68,6.37,5.74,2.11,18.22,6.21,35.95,13.77,52.69,25.53,56.58,68.55,92.48,129.28,105.17,56.4,11.78,107.45-1.7,152.41-37.86.88-.7,1.7-1.48,2.6-2.15,3.07-2.28,6.24-2.05,8.31.57,1.88,2.37,1.56,5.76-1.12,8-4.41,3.68-8.85,7.36-13.53,10.68-29.29,20.78-61.79,32.76-97.67,35.4-.97.07-1.92.4-2.89.61h-22.5Z"/>
  <path class="cls-1" d="M126.1,84.1c4.97,1.71,9.75-1.21,14.75-3.91,18.14-9.77,37.58-15.37,58.04-17.57,1.57-.17,3.29-1.03,4.51-2.07,13.26-11.43,28.29-15.15,45.01-9.73,27.93,9.05,52.89,23.41,74.63,43.23,7.66,6.99,15.24,14.07,22.81,21.17,8.62,8.08,10.16,17.3,5.08,27.84-.72,1.49-.74,3.91-.04,5.42,18.28,39.79,19.9,80.19,4.6,121.21-.83,2.24-.82,3.56,1.06,5.41,12.13,11.96,7.61,32.21-8.42,37.88-2.59.92-4.05,2.16-4.98,4.84-4.16,12-16.58,18.2-28.65,14.33-2.21-.71-3.6-.44-5.34.97-16.01,12.98-33.93,22.32-53.73,28.1-1.79.52-3.59,1.73-4.9,3.09-21.15,22.06-51.34,22.25-72.77.46-1.4-1.42-3.37-2.57-5.28-3.13-19.66-5.72-37.58-14.77-53.76-27.34-1.2-.93-3.4-1.36-4.9-1-12.34,2.96-23.81-3.23-28.18-15.17-.58-1.59-2.21-3.36-3.76-3.93-16.34-6.06-21.35-24.05-10.41-37.52.78-.96.88-2.81.67-4.14-.27-1.68-1.37-3.22-1.81-4.9-1.57-5.99-4.18-10.37-10.32-13.66-10.17-5.46-13.03-18.57-7.75-29.23,1.06-2.14,1.1-3.72.04-5.88-5.58-11.31-1.92-23.56,8.73-30.39,1.18-.76,2.18-2.26,2.64-3.62,3.73-11.22,7.36-22.47,10.86-33.77.55-1.79.66-3.92.31-5.76-4.33-22.7,4.59-44.16,22.9-54.72,8.46-4.88,17.65-6.74,28.38-6.52ZM211.14,265.23c6.86,9.52,13.51,18.83,23.2,25.14,7.2,4.68,14.86,8.67,22.41,12.79,5.52,3.01,9.35,2.22,13.71-2.43,6.06-6.48,12.08-13,18.13-19.48,19.23-20.58,33.25-44.24,41.77-71.09,4.9-15.43-2.27-31.87-16.58-38.9-7.56-3.71-12.93-2.88-19.07,2.95-9.57,9.07-20.89,12.04-33.83,10.18-15.68-2.25-30.55-6.93-45.14-13.08-29.45-12.4-63.63,2.2-75.18,32-6.08,15.7-11.44,31.67-17.16,47.51-1.06,2.95-.46,5.29,1.9,7.38,5.34,4.71,10.68,9.43,15.85,14.32,2.69,2.54,5.34,3,8.84,1.77,15.3-5.37,30.51-11.08,46.06-15.6,13.84-4.03,25.19-10.48,32.03-23.7,1.77-3.43,5.23-3.99,7.99-2.21,2.9,1.88,3.32,4.99,1.2,8.52-6.29,10.48-13.76,19.69-26.14,23.93ZM325.03,164.51c.94-1.22,2.09-2.4,2.87-3.78,4.4-7.69,8.81-15.37,13.02-23.16,2.9-5.36,2.1-9.6-2.41-13.82-8.21-7.69-16.39-15.42-24.77-22.91-20.22-18.06-43.35-31.11-69.12-39.42-15.69-5.06-32.37,1.68-40.15,15.86-4.77,8.7-4.06,14.42,2.73,21.68,5.99,6.41,9.61,13.95,10.53,22.69.39,3.7-1.76,6.38-4.98,6.71-2.98.3-5.69-1.85-6.12-5.32-.88-7.14-4.11-12.97-9.14-17.99-3.91-3.91-6.65-8.69-6.85-14.21-.18-5.2.7-10.43,1.13-15.81-14.6,2.1-28.99,6.65-43.2,13.87,18.23,8.55,29.53,22.16,35.75,40.29,3.02,8.8,6.34,17.5,9.57,26.36.94.04,2.06.08,3.18.14,1.22.06,2.45.15,3.94.23.66-2.41,1.28-4.67,1.9-6.93,1.21-4.43,3.95-6.41,7.46-5.41,3.25.93,4.52,3.93,3.48,8.31-.48,2.02-1.01,4.02-1.52,6.08,3.05,1.12,5.82,1.92,8.39,3.13,13.23,6.19,27.1,10.06,41.53,12.13,8.26,1.18,15.9.15,22.94-5.69-2.63-3.72-5.22-7.35-7.78-11.01-2.44-3.48-2.27-6.5.44-8.61,2.82-2.2,6.02-1.5,8.65,2.01,2.6,3.47,5.1,7,7.59,10.43,12.56-4.15,14.85-3.84,30.95,4.15ZM165.53,347.1c-.31-.93-.6-1.7-.82-2.49-1.28-4.69-2.66-9.35-3.73-14.08-.37-1.63-.59-4,.29-5.03,1.35-1.59,3.71-3.2,5.65-3.22,3.32-.03,4.65,2.75,5.07,5.92,1.8,13.36,7.97,24.32,18.43,32.8,14.03,11.37,31.78,11.77,45.93.78,14.01-10.88,20.52-25.37,19.86-43.12-.09-2.38-.82-3.66-3.08-4.79-13.07-6.54-26.42-12.78-36.43-23.89-5.43-6.02-10.27-12.57-15.44-18.82-.64-.77-1.94-1.93-2.46-1.72-4.73,1.87-10.4,1.68-12.74,8.15-3.14,8.66-7.4,16.91-11.19,25.32-1.58,3.5-4.48,4.91-7.48,3.7-3.05-1.22-4.24-4.2-2.98-7.76.62-1.76,1.38-3.48,2.15-5.18,2.21-4.95,4.46-9.88,7.07-15.67-7.29,2.52-13.74,4.71-20.16,7-4.11,1.46-8.2,1.98-12.48.66-.86-.27-2.31-.03-2.94.56-3.93,3.64-7.7,7.46-11.63,11.31,5.95,9.59,5.55,18.88-.48,27.8,9.79,8.53,29.91,19.59,39.59,21.79ZM181.65,155.57c-.07-.28-.22-1.49-.64-2.62-3.39-9.11-6.38-18.41-10.34-27.27-9.29-20.77-29.51-32.24-52.1-30.14-16.12,1.5-28.76,12.6-32.29,28.36-5.34,23.86,7.78,48.15,31.33,57.86,4.96,2.04,10.07,3.71,15.02,5.76,2.17.9,3.23.37,4.48-1.52,5.44-8.26,12.29-15.28,20.98-19.95,7.4-3.97,15.37-6.88,23.57-10.47ZM333.27,172.66c7.35,9.39,11.22,20.06,9.53,31.81-1.07,7.42-3.4,14.87-6.41,21.76-5.47,12.53-11.87,24.66-17.96,37.12,2.54,2.57,5.65,5.74,7.98,8.1,5.33-1.12,9.97-2.52,14.7-2.93,2.37-.2,3.22-.88,3.95-2.85,13.01-34.85,12.67-69.57-.85-104.19-.36-.93-.92-1.79-1.42-2.72-3.23,4.71-6.26,9.13-9.52,13.88ZM124.04,215.69c-11.1,0-21.58.01-32.06,0-5.79-.01-7.4-1.56-7.58-7.21-.17-5.29-2.85-9.24-7.48-11.04-4.41-1.71-9.4-.55-12.71,2.95-3.53,3.74-4.41,8.68-1.82,13.49,2.94,5.46,2.83,10.58-.09,16.01-2.49,4.62-1.59,9.49,1.8,13.18,3.32,3.6,8.14,4.81,12.66,3.15,4.58-1.68,7.46-5.79,7.64-10.95.21-5.87,1.84-7.49,7.77-7.52,8.25-.04,16.5.06,24.74-.1,1.17-.02,2.91-.89,3.37-1.86,1.43-3.01,2.37-6.26,3.75-10.12ZM121.36,269.79c-4.44,4.46-8.73,8.79-13.04,13.09-5.07,5.07-6.47,5.1-11.79.49-3.88-3.36-8.29-3.97-12.9-1.84-4.54,2.09-6.74,5.98-6.62,10.84.13,5.03,2.57,9.15,7.48,10.61,6.51,1.93,10.31,5.84,12.29,12.29,1.5,4.89,5.54,7.31,10.62,7.42,4.93.11,8.68-2.17,10.82-6.65,2.22-4.65,1.43-9.02-1.89-12.87-4.49-5.2-4.5-6.77.28-11.54,4.55-4.54,9.12-9.06,13.8-13.72-3.23-2.9-6-5.38-9.05-8.12ZM303.17,281.96c3.39,3.26,6.67,6.32,9.85,9.48,4.11,4.09,4.15,6.3.25,10.43-3.64,3.86-4.46,8.29-2.51,13.13,1.83,4.55,6.41,7.23,11.37,6.98,4.93-.25,8.96-3.14,10.5-8.18,1.8-5.9,5.42-9.53,11.34-11.3,5.04-1.51,7.91-5.58,8.1-10.54.19-4.99-2.28-9.18-6.61-11.23-4.51-2.13-9.57-1.21-13.46,2.44-4.09,3.85-6.35,3.82-10.43-.28-3.48-3.5-6.9-7.07-10.53-10.8-2.81,3.53-5.19,6.53-7.85,9.87ZM295.6,290.65c-9.75,8.08-15.58,20.37-27.82,25.13-.36,5.39-.34,10.65-1.15,15.79-.79,5.06-2.41,9.99-3.69,15.05,12.11-3.75,33.67-16.34,39.56-23.09-5.39-8.77-5.34-17.62-.16-26.2-2.31-2.29-4.49-4.45-6.74-6.68ZM115.67,239c-4.92,0-9.16.27-13.36-.07-4.56-.37-7.86.24-8.74,5.66-.31,1.92-1.79,3.97-3.31,5.3-3.4,2.98-7.15,5.55-11.26,8.67,1.03,2.76,2.25,6.25,3.7,9.64.26.62,1.55,1.26,2.25,1.16,6.18-.93,11.8.58,17.29,3.98,3.42-3.53,6.78-6.87,9.94-10.38.61-.68.84-2.24.52-3.13-1.62-4.45-1.41-8.78.22-13.14.86-2.31,1.65-4.64,2.73-7.69ZM129.85,198.18c-19.68-5.84-37.61-14.55-48.63-34.81-2.35,8.06-4.34,14.9-6.39,21.94,11.46,2.03,17.97,8.52,20.76,19.12,9.1,0,18.1-.27,27.07.12,4.44.19,6.86-1.02,7.19-6.37Z"/>
  <path class="cls-1" d="M194.5,219.42c.06,3.12-2.55,5.79-5.64,5.75-2.93-.04-5.48-2.57-5.55-5.5-.08-3.1,2.54-5.72,5.68-5.69,3.01.03,5.45,2.44,5.51,5.44Z"/>
  <path class="cls-1" d="M305.66,200.8c-.06,3.01-2.5,5.45-5.47,5.48-3.05.03-5.72-2.69-5.64-5.75.08-3.15,2.7-5.53,5.91-5.37,3.07.15,5.26,2.53,5.19,5.65Z"/>
  <path class="cls-1" d="M174.67,209.72c.02,3.07-2.68,5.75-5.73,5.67-2.94-.08-5.36-2.58-5.38-5.57-.02-3.07,2.26-5.48,5.29-5.59,3.18-.12,5.79,2.36,5.82,5.5Z"/>
  <path class="cls-1" d="M195.87,196.08c.08,3.03-2.64,5.79-5.68,5.76-2.96-.03-5.43-2.5-5.5-5.49-.07-3.06,2.2-5.51,5.23-5.66,3.17-.16,5.86,2.28,5.94,5.39Z"/>
  <path class="cls-1" d="M251.99,91.81c-3.18.09-5.75-2.4-5.74-5.56.01-2.98,2.44-5.49,5.4-5.6,3.05-.11,5.79,2.56,5.79,5.63,0,2.96-2.44,5.44-5.44,5.53Z"/>
  <path class="cls-1" d="M234.56,81.08c-.06,3.17-2.67,5.6-5.84,5.44-3.02-.15-5.28-2.61-5.23-5.67.06-2.98,2.52-5.46,5.46-5.5,3.07-.04,5.68,2.62,5.61,5.73Z"/>
  <path class="cls-1" d="M239.47,335.06c.01,3.11-2.67,5.73-5.76,5.64-2.96-.09-5.43-2.62-5.45-5.58-.02-3.11,2.63-5.69,5.76-5.61,2.98.08,5.43,2.58,5.45,5.55Z"/>
  <path class="cls-1" d="M215.28,343.57c3.03.08,5.43,2.5,5.43,5.49,0,3.1-2.66,5.7-5.76,5.6-2.98-.09-5.4-2.58-5.42-5.56-.02-3.15,2.55-5.62,5.75-5.53Z"/>
  <path class="cls-1" d="M110.2,131.27c-3.04-.02-5.71-2.81-5.58-5.84.13-2.96,2.63-5.31,5.65-5.3,3.21.01,5.64,2.54,5.52,5.74-.12,2.98-2.64,5.42-5.58,5.4Z"/>
</svg>