<?xml version="1.0" encoding="UTF-8"?>
<svg id="Layer_1" data-name="Layer 1" xmlns="http://www.w3.org/2000/svg" version="1.1" viewBox="0 0 428 428">
  <defs>
    <style>
      .cls-1 {
        fill: #000;
        stroke-width: 0px;
      }
    </style>
  </defs>
  <path class="cls-1" d="M406.99,254.33c-.39-2.28-.75-4.57-1.11-6.86-.79-5-1.61-10.18-2.7-15.22-3.15-14.51-8.84-28.49-17.4-42.75-1.37-2.29-2.32-5.04-2.59-7.55-3.89-35.75-18.56-69.41-42.41-97.33-23.9-27.98-54.84-47.62-89.47-56.82-7.72-2.05-15.78-3.25-23.57-4.42-3.64-.54-7.41-1.11-11.08-1.75-.53-.09-1.05-.24-1.61-.39-.27-.07-.54-.15-.81-.22l-22.75-.03-.24.03c-.28.07-.56.15-.84.23-.53.16-1.03.3-1.5.34-27.3,2-52.77,9.79-75.68,23.14-7.46,4.35-14.56,9.56-21.43,14.6-2,1.47-4.01,2.94-6.02,4.39-1.91,1.38-3.06,3.11-3.33,5-.24,1.7.25,3.38,1.42,4.86,2.55,3.24,6.4,3.35,10.29.29.49-.39.98-.78,1.46-1.18.48-.39.97-.79,1.46-1.17,40.7-31.83,85.86-43.45,134.24-34.55,59.93,11.03,102.9,45.82,127.71,103.41,2.56,5.95,4.46,12.33,6.3,18.5.67,2.24,1.35,4.54,2.07,6.82l-6.7-6.61c-11.89-11.72-27.18-11.69-38.95.08-14.24,14.24-28.47,28.49-42.7,42.74-38.98,39.03-79.28,79.4-119.16,118.86-5.65,5.6-8.78,13.24-8.57,20.97.2,7.33,3.34,14.07,8.86,18.97,1.95,1.74,3.89,3.56,5.77,5.32.46.43.92.86,1.38,1.29-.25.01-.45-.02-.64-.06-43.96-9.46-81.63-35.93-106.08-74.54-24.45-38.61-32.28-83.99-22.04-127.77,6.23-26.62,18.32-50.67,35.93-71.49,3.23-3.82,3.29-7.58.17-10.31-1.32-1.16-2.88-1.71-4.52-1.59-2.01.15-3.97,1.28-5.66,3.28-21.08,24.82-34.7,53.55-40.49,85.4-.87,4.8-1.5,9.72-2.11,14.47-.28,2.22-.57,4.44-.88,6.66v22.64s0,.14,0,.14c.3,2.14.58,4.28.86,6.42.6,4.58,1.21,9.31,2.04,13.94,6.78,38.15,24.35,71.27,52.21,98.44,28.26,27.55,62.74,44.31,102.47,49.79,6.47.89,11.41,2.51,16.02,5.23,17.54,10.38,37.08,16.58,58.08,18.42.47.04.97.19,1.5.35.28.08.55.17.83.24l20.8.03.25-.17c.47-.31.99-.6,1.54-.9,1.3-.72,2.65-1.46,3.46-2.68,1.28-1.92,1.43-4.13.42-6.05-1.19-2.27-3.78-3.7-6.75-3.75-2.22-.03-4.45-.03-6.67-.03-5.3,0-10.76.01-16.07-.5-22.29-2.16-42.59-9.87-61.88-23.52,15.48,4.05,30.34,6.07,44.57,6.07,37.56,0,70.68-14.08,98.84-42.13,38.62-38.46,51.1-86.39,37.15-142.54.68.97,1.36,1.95,1.99,2.93,22.66,35.15,27.42,77.61,13.08,116.5-13.99,37.93-44.67,66.48-84.17,78.32-.69.21-1.27.39-1.84.61-3.84,1.46-5.7,4.76-4.63,8.2,1.12,3.6,4.49,5.35,8.37,4.36,3.02-.77,6.99-1.86,10.82-3.42,54.17-21.94,85.14-62.25,92.05-119.8.07-.59.23-1.2.39-1.83.08-.32.17-.63.24-.95l.03-21.22v-.17ZM168.85,330.81c19.74-19.78,39.5-39.54,59.27-59.29l32.19-32.19c23.41-23.41,46.82-46.83,70.25-70.23,1.29-1.29,2.47-2.43,3.79-3.29,1.66-1.08,3.36-1.63,5.02-1.63.59,0,1.17.07,1.74.21,2.16.53,3.98,2.03,5.28,4.33,7.94,14.11,13.02,29.17,15.1,44.77.55,4.14.88,8.39,1.21,12.5.15,1.89.3,3.79.46,5.68-.3,66.11-49.88,121.86-115.36,129.67-26.91,3.21-52.67-1.64-76.57-14.43-3.83-2.05-6.07-4.56-6.47-7.25-.41-2.74.97-5.71,4.09-8.84Z"/>
  <path class="cls-1" d="M225.16,141.52h.08c19.16,0,34.78-15.55,34.83-34.7.03-9.34-3.55-18.1-10.08-24.68-6.53-6.57-15.25-10.21-24.58-10.23h-.09c-9.29,0-18.02,3.58-24.59,10.1-6.59,6.54-10.23,15.26-10.26,24.56-.02,9.3,3.57,18.06,10.13,24.67,6.56,6.61,15.28,10.26,24.55,10.28ZM203.73,106.83c-.02-5.83,2.2-11.28,6.25-15.36,4.04-4.06,9.46-6.31,15.26-6.32h.04c5.81,0,11.24,2.22,15.28,6.26,4.05,4.05,6.28,9.49,6.27,15.31,0,5.79-2.25,11.22-6.33,15.27-4.06,4.04-9.47,6.26-15.25,6.26h-.09c-11.77-.05-21.38-9.66-21.43-21.44Z"/>
  <path class="cls-1" d="M97.65,216.11c-4.47,4.44-6.93,10.35-6.94,16.64,0,6.34,2.43,12.27,6.85,16.71,4.42,4.43,10.34,6.86,16.67,6.86h.01c6.32,0,12.24-2.46,16.67-6.91,4.43-4.45,6.86-10.39,6.83-16.71-.05-12.85-10.53-23.36-23.36-23.43-6.33-.05-12.27,2.39-16.74,6.84ZM103.96,232.5c.13-5.44,4.82-9.98,10.27-9.98.04,0,.09,0,.14,0,5.58.08,10.12,4.69,10.13,10.28,0,2.76-1.07,5.35-3.02,7.28-1.97,1.96-4.62,3.05-7.41,2.98-2.76-.03-5.32-1.13-7.23-3.1-1.93-2-2.95-4.65-2.88-7.47Z"/>
  <path class="cls-1" d="M190.98,214.62c3.91,3.84,9.06,5.94,14.52,5.94.08,0,.15,0,.23,0,11.27-.12,20.48-9.36,20.51-20.6.02-5.56-2.12-10.77-6.03-14.69-3.91-3.92-9.13-6.08-14.69-6.07-5.59,0-10.84,2.2-14.78,6.17-3.9,3.93-6.02,9.12-5.97,14.61.04,5.55,2.25,10.75,6.22,14.64ZM198.05,200.03c-.05-1.98.7-3.86,2.11-5.3,1.43-1.46,3.33-2.27,5.36-2.27h0c2.04,0,3.94.8,5.36,2.25,1.4,1.43,2.14,3.32,2.1,5.33-.09,3.99-3.44,7.24-7.47,7.24h0c-4.09,0-7.37-3.18-7.47-7.25Z"/>
  <path class="cls-1" d="M129.61,296.27c-.72-.75-1.44-1.52-2.15-2.29-2.23-2.4-4.53-4.89-7.19-6.87-1.13-.84-2.6-1.09-4.05-.69-1.6.44-2.91,1.6-3.52,3.1-.83,2.05-.99,5.37.2,7.37,1.5,2.53,3.93,4.98,6.85,6.91,1.04.69,2.55,1.05,4.05,1.05.95,0,1.9-.15,2.71-.46,1.4-.53,2.31-1.95,3.04-3.1.25-.39.49-.76.69-1.02l.3-.37-.09-.46c-.11-.53-.16-.97-.21-1.33-.1-.77-.17-1.37-.63-1.85Z"/>
  <path class="cls-1" d="M173.28,252.69c2.15-1.9,4.21-3.98,6.12-6.19.67-.77,1.03-1.71,1.46-2.8.2-.51.42-1.07.69-1.67l.27-.59-.43-.49c-.36-.41-.71-.89-1.08-1.4-.93-1.29-1.9-2.62-3.33-3.14-1.87-.69-4.78-.28-6.63.92-2.23,1.45-4.04,3.51-5.79,5.5l-.55.62c-2.5,2.83-2.43,6.48.18,9.09,1.31,1.31,2.93,1.96,4.57,1.96s3.16-.6,4.53-1.8Z"/>
  <path class="cls-1" d="M148.51,89.51c.8.58,1.97.83,3.16.83s2.45-.26,3.35-.7c1.38-.68,2.22-2.14,2.83-3.2.18-.31.33-.58.47-.76l.21-.28v-.35c-.09-3.17-3.3-7.43-6.25-10.04-1.33-1.18-3.88-3.14-5.91-2.95-1.9.18-4.51,1.33-5.6,3.1-.99,1.62-1.23,4.9-.05,6.54,2.12,2.96,4.81,5.66,7.79,7.8Z"/>
  <path class="cls-1" d="M291.63,122.98c2.41-1.97,4.57-4.35,6.42-6.43.62-.7.98-1.57,1.38-2.57.2-.49.42-1.03.7-1.63l.27-.56-.39-.49c-.32-.4-.63-.87-.96-1.38-.82-1.26-1.75-2.68-3.16-3.28-1.92-.81-5-.54-6.71.6-2.71,1.8-4.96,4.39-6.85,6.67-2.32,2.8-2.11,6.15.54,8.73,1.35,1.32,2.92,1.98,4.5,1.98,1.45,0,2.91-.55,4.25-1.65Z"/>
  <path class="cls-1" d="M126.18,180.09c.97.7,2.09,1.05,3.24,1.05.93,0,1.88-.23,2.77-.7,2.25-1.18,3.68-3.56,3.65-6.07-.05-3.87-7.93-11.95-11.87-12.18-2.49-.13-4.92,1.23-6.19,3.5-1.12,2-1.07,4.24.14,6,2.19,3.19,5.05,6.09,8.26,8.4Z"/>
  <path class="cls-1" d="M104.9,113.04c-1.74-1.34-5.51-1.48-7.46-.28-2.57,1.59-5.12,4.11-7.35,7.3-1.18,1.69-1.17,4.71-.4,6.47.59,1.37,1.97,2.28,3.07,3.01.4.26.77.51,1.05.74l.38.31.48-.11c.53-.12.99-.19,1.38-.25.84-.13,1.51-.23,2.03-.73.65-.62,1.31-1.24,1.98-1.86,2.41-2.24,4.91-4.55,6.79-7.3,1.15-1.68-.21-5.98-1.94-7.31Z"/>
  <path class="cls-1" d="M256.31,339.24s.1,0,.15,0c11.27-.08,20.55-9.31,20.67-20.57.06-5.48-2.07-10.69-5.99-14.67-3.95-4-9.17-6.22-14.7-6.24-5.55.02-10.78,2.15-14.75,6.1-3.95,3.93-6.12,9.13-6.12,14.63,0,5.51,2.2,10.73,6.2,14.69,3.95,3.92,9.1,6.07,14.53,6.07ZM248.85,318.49c0-1.94.82-3.87,2.27-5.29,1.42-1.4,3.32-2.19,5.24-2.19.05,0,.09,0,.14,0,3.98.08,7.35,3.49,7.36,7.44,0,1.94-.83,3.87-2.29,5.31-1.46,1.43-3.41,2.23-5.36,2.19-3.98-.09-7.35-3.51-7.36-7.46Z"/>
  <path class="cls-1" d="M306.79,271.36c.1,0,.2,0,.3,0,5.62,0,10.86-2.14,14.79-6.04,3.94-3.91,6.09-9.13,6.05-14.71-.07-11.26-9.28-20.49-20.54-20.57-.05,0-.1,0-.16,0-5.56,0-10.76,2.12-14.66,5.98-3.9,3.86-6.07,9.04-6.09,14.58-.04,11.3,9.07,20.61,20.3,20.76ZM307.19,243.33h.03c2.06,0,3.97.8,5.36,2.25,1.38,1.42,2.1,3.32,2.04,5.34-.12,4.04-3.38,7.19-7.44,7.19h-.04c-2.04-.01-3.94-.81-5.33-2.24-1.38-1.43-2.12-3.33-2.07-5.35.1-4.03,3.37-7.18,7.44-7.18Z"/>
</svg>