<?xml version="1.0" encoding="UTF-8"?>
<svg id="Layer_1" data-name="Layer 1" xmlns="http://www.w3.org/2000/svg" version="1.1" viewBox="0 0 428 428">
  <defs>
    <style>
      .cls-1 {
        fill: #000;
        stroke-width: 0px;
      }
    </style>
  </defs>
  <path class="cls-1" d="M299.26,10.5c5.97,2.38,9.01,7.17,10.17,13.14,2.8,14.38,6,28.72,7.9,43.23,2.97,22.66,4.99,45.45,7.42,68.18.04.38.19.74.43,1.62,3.83,0,7.75-.02,11.67,0,9.68.05,17.12,4.87,20.53,13.98,18.46,49.23,36.12,98.71,45.48,150.69,2.41,13.4,4.99,26.84,2.37,40.53-3.91,20.41-15.98,35.35-32.37,47.17-17.11,12.34-36.73,18.68-57.23,21.9-17.07,2.68-34.33,4.6-51.57,5.63-18.99,1.13-37.33-2.73-54.7-10.78-1.27-.59-3.09-.66-4.45-.26-29.6,8.7-59.89,12.33-90.58,10.25-30.53-2.07-56.63-14.43-75.18-39.4-20.66-27.81-28.47-70.08,4.47-106.56,6.65-7.36,13.4-14.62,20.06-21.97,19.03-21.02,31.09-45.41,35.63-73.48,1.07-6.64,2.67-13.2,4.1-19.78,2.47-11.35,10.66-17.89,22.36-17.91,4.88-.01,9.76,0,14.77,0,0-2.29.18-4.36-.03-6.39-2.59-25.63-5.02-51.28-7.97-76.87-1.13-9.82-3.52-19.44-8.36-28.33-3.03-5.56-.62-10.65,6.03-14.58h34.92c5.75,2.09,8.76,6.47,10.2,12.18.55,2.18,1.24,4.32,1.73,6.5,6.24,27.92,8.96,56.33,11.89,84.71.77,7.48,1.41,14.96,2.15,22.77,3.96,0,7.64,0,11.32,0,10.41.03,17.61,4.87,21.39,14.52,2.64,6.76,5.15,13.57,7.74,20.35.33.85.79,1.65,1.52,3.14,1.37-6.54,2.52-12.23,3.74-17.91,3.1-14.36,10.26-20.11,24.94-20.11,4.3,0,8.59,0,12.94,0,0-1.18.04-1.71,0-2.23-2.44-25.51-4.58-51.06-7.47-76.52-1.18-10.44-3.04-20.94-8.04-30.49-4.09-7.81-2.56-12.79,5.17-16.93h34.92ZM142.5,147.75c-5.69,0-11.38-.05-17.06.01-6.24.07-9.81,3.04-11.11,9.16-1.37,6.46-2.85,12.9-3.99,19.4-5.84,33.18-20.96,61.48-44.38,85.56-5.98,6.15-11.72,12.59-17.14,19.24-7.86,9.65-14.12,20.34-15.39,32.96-3.27,32.7,8.96,58.95,36.89,75.66,35.31,21.12,72.52,21.43,108.86,2.07,21.77-11.59,35.11-30.12,37.24-55.49,1.24-14.78-1.17-29.29-4.07-43.68-9.51-47.29-25.84-92.49-42.57-137.55-1.87-5.05-5.59-7.44-11.01-7.36-5.42.08-10.85.02-16.27.02ZM255.45,376.35c4.46-.26,9.46-.22,14.36-.9,19.97-2.79,34.42-12.88,39.82-32.89,2.59-9.6,4.1-19.72,4.41-29.65.79-24.8-2.19-49.32-7.84-73.5-.9-3.84.74-6.72,3.92-7.44,3.21-.72,5.87,1.09,6.77,4.99,7.07,30.84,10.75,61.98,6.92,93.6-1.66,13.69-5.75,26.68-15.27,37.18-14.85,16.38-34.15,20.82-55.18,19.18-6.87-.53-12.67-.24-18.18,4.45-3.51,2.98-7.97,4.84-12.26,7.35,26.36,10.13,65.94,9.18,93.51-8.74,20.4-13.26,32.83-31.38,33.98-56.32.62-13.32-1.32-26.38-3.89-39.35-9.48-47.98-25.99-93.8-43.03-139.46-1.84-4.93-5.52-7.12-10.75-7.09-10.58.06-21.16.02-31.74.02-8.46,0-11.52,2.55-13.27,10.95-1.7,8.14-3.01,16.4-5.31,24.37-2.35,8.19-2.68,15.91,1.1,23.72,1.42,2.93,2.12,6.2,3.15,9.31,1.16-1.63,1.38-3.09,1.95-4.41,3.39-7.84,5.79-16.36,10.52-23.3,9.86-14.45,30.58-14.19,40.27.39,4.37,6.58,6.77,14.51,9.69,21.97,1.1,2.81-.56,5.18-3.36,6.31-2.92,1.17-5.18,0-6.72-2.55-.61-1-.87-2.2-1.32-3.3-1.9-4.63-3.37-9.5-5.79-13.85-6.18-11.13-18.69-11.3-25.4-.46-1.86,3-3.4,6.3-4.51,9.66-3.01,9.15-5.77,18.38-8.47,27.63-.37,1.27-.11,2.89.3,4.21,7.05,23.15,12.54,46.66,16.52,70.52,2.34,14.05,4.02,28.29-1.46,41.86-3.51,8.7-8.73,16.71-13.44,25.52ZM312.9,147.8c.19.72.28,1.22.44,1.69,9.99,28.93,20.43,57.71,29.85,86.82,9.11,28.17,16.28,56.87,18.28,86.58,1.5,22.15-3.96,42.23-18.92,59.09-4.69,5.28-10.1,9.92-15.18,14.85,6.57-1.66,13.08-3.71,19.42-6.21,10.54-4.15,20.02-10.07,28.41-17.74,18.54-16.96,22.65-37.86,18.23-61.82-5.68-30.83-13.09-61.16-23.32-90.79-7.41-21.45-14.99-42.83-22.46-64.26-1.61-4.62-4.44-8.01-9.58-8.16-8.31-.24-16.62-.06-25.16-.06ZM179.59,147.8c8.35,24.47,16.73,48.5,24.76,72.64,10.69,32.12,19.82,64.64,23.04,98.51,2.25,23.64-2.78,45.25-18.95,63.36-4.63,5.18-9.99,9.7-14.99,14.5.35,0,.88.11,1.34-.02,11.38-3.11,22.39-7.14,32.49-13.34,12.65-7.77,22.95-17.78,29.36-31.39,6.49-13.78,4.93-28.06,2.57-42.4-4.98-30.3-13.02-59.83-22.83-88.88-7.34-21.75-15.16-43.34-22.73-65.01-1.58-4.52-4.42-7.74-9.34-7.9-8.31-.26-16.64-.07-24.73-.07ZM313.44,136.49c0-1.58.12-2.78-.02-3.95-2.91-25.72-5.58-51.48-8.91-77.15-1.32-10.17-4.01-20.18-6.3-30.21-.31-1.34-1.89-3.38-2.94-3.41-8.64-.28-17.29-.16-25.74-.16,13.13,37.41,12.8,76.38,16.67,114.87h27.23ZM135.63,21.62c13.3,37.37,12.77,76.48,16.74,114.8h27.29c0-.76.05-1.29,0-1.81-3.04-27.04-5.85-54.12-9.28-81.11-1.23-9.65-3.91-19.12-6.14-28.62-.29-1.24-1.78-3.1-2.75-3.13-8.67-.25-17.35-.14-25.86-.14Z"/>
  <path class="cls-1" d="M191.24,298.1c.46,17.32-.08,31.01-3.67,44.44-6.77,25.36-23.35,39.91-49.03,43.81-19.64,2.98-38.42-.35-55.95-9.97-.12-.06-.24-.11-.36-.18-4.09-2.34-5.34-5.17-3.64-8.28,1.72-3.15,4.89-3.76,8.9-1.48,12.4,7.03,25.82,10.04,39.94,9.71,15.15-.36,29.07-4.26,39.4-16.3,8.36-9.74,11.46-21.67,12.52-34.04,2.96-34.64-1.39-68.55-11.29-101.8-1.96-6.57-3.75-13.22-6.21-19.61-1.44-3.74-3.58-7.46-6.23-10.45-6.35-7.15-16.69-6.74-21.66,1.36-3.74,6.08-5.96,13.13-8.55,19.87-5.53,14.39-10.5,29.01-16.39,43.25-4.34,10.5-11.61,19.14-20.14,26.69-5.44,4.82-10.95,9.6-15.97,14.85-13.44,14.05-15.24,31.69-5.28,48.35,2.37,3.96,2,7.14-1.04,8.97-3.06,1.85-5.88.77-8.48-3.24-12.48-19.25-10.05-43.77,6.37-61.3,4.87-5.2,10.23-9.97,15.62-14.62,9.18-7.92,16.53-17.23,20.86-28.51,5.58-14.51,10.36-29.34,15.79-43.91,2.11-5.65,4.4-11.43,7.74-16.38,10.38-15.35,31.16-15.24,41.68.04,2.51,3.65,4.51,7.8,6.05,11.97,11.91,32.37,18.63,65.75,19.01,96.76Z"/>
</svg>