<?xml version="1.0" encoding="UTF-8"?>
<svg id="Layer_1" fill="currentColor" data-name="Layer 1" xmlns="http://www.w3.org/2000/svg" version="1.1" viewBox="0 0 428 428">
  <defs>
    <style>
      .cls-1 {
        fill: #000;
        stroke-width: 0px;
      }
    </style>
  </defs>
  <path class="cls-1" d="M22,159.25c0-6.5,0-13,0-19.5.72-4.4,1.39-8.8,2.15-13.19,8.56-49.08,46.98-89.66,95.78-100.96,6.77-1.57,13.71-2.42,20.57-3.6,6.25,0,12.5,0,18.75,0,.46.18.9.42,1.38.52,10.23,2.19,20.45,4.38,30.69,6.51,1.31.27,2.71.34,4.05.25,4.98-.34,9.95-1.03,14.94-1.16,46.05-1.2,87.41,12.09,123.78,40.48,11.08,8.65,20.96,18.54,29.79,29.48,3,3.72,2.59,7.7-.99,9.5-3.55,1.78-5.86-.14-8.02-2.73-33.26-39.9-75.84-61.65-127.64-65.3-4.11-.29-8.25-.04-11.22-.04,8.48,7.32,17.41,15.07,26.41,22.73.98.84,2.34,1.44,3.62,1.69,29.21,5.57,54.66,18.55,76.63,38.54,1.39,1.27,3.3,2.3,5.13,2.69,27.85,5.89,45.69,34.42,38.93,62.2-.52,2.15-.41,4.71.19,6.86,17,59.94-3.27,124.49-51.78,163.61-31.48,25.38-67.55,36.95-107.98,34.54-2.54-.15-4.2.08-5.62,2.75-2.99,5.62-9.41,8.58-15.6,7.09-10.06-2.41-20.13-4.92-29.94-8.14-8.36-2.75-16.38-6.56-24.78-10-1.31,1.99-2.67,4.04-4.03,6.11.52.4.8.65,1.12.84.86.51,1.72,1.01,2.6,1.49,37.87,20.58,78.09,27.3,120.33,18.8,50.92-10.25,90.22-37.99,117.52-82.08,20.94-33.82,28.98-70.95,25.04-110.51-2.49-25.05-10.16-48.53-22.73-70.39-2.21-3.84-1.61-7.07,1.4-8.83,3.09-1.81,6.05-.71,8.3,3.17,10.98,18.99,18.41,39.29,22.2,60.89,1.25,7.11,2.04,14.3,3.04,21.46v24c-.22,1.09-.57,2.17-.65,3.27-1.07,14.5-3.57,28.77-8.41,42.45-24.98,70.6-74.13,113.58-147.63,128.43-6.69,1.35-13.54,1.92-20.31,2.85h-24c-.96-.22-1.91-.57-2.88-.64-17.81-1.28-35.12-5.01-51.7-11.55-10.18-4.01-19.99-8.97-30.16-13.59-7.96,6.43-14.46,6.75-22.74-.26-9.33-7.89-18.69-15.88-27.08-24.73-7.7-8.12-14.23-17.37-21.1-26.26-2.3-2.97-1.7-6.43.9-8.29,2.65-1.9,5.88-1.24,8.16,1.75,1.21,1.59,2.23,3.33,3.46,4.9,5.13,6.54,10.32,13.05,15.25,19.27,3.91-4.37,7.37-8.24,10.27-11.47-2.81-3.16-5.62-6.5-8.62-9.66-6.48-6.84-6.35-16.22.52-22.68,3.37-3.17,6.88-6.18,10.32-9.27,7.89-7.09,15.77-14.18,23.69-21.31-.4-.31-.57-.53-.79-.6-11.69-3.79-22.77-8.87-33.1-15.59-.88-.57-2.4-.65-3.46-.36-12.86,3.57-25.7,7.22-38.53,10.91-3.94,1.13-4.86,2.88-3.48,6.69,1.79,4.92,3.64,9.83,5.66,14.66,1.69,4.02,3.98,7.82,5.36,11.94.61,1.81.28,4.67-.85,6.1-1,1.28-3.85,1.97-5.56,1.56-1.58-.37-3.27-2.3-4-3.95-4.32-9.79-8.38-19.7-12.53-29.58,0-2.25,0-4.5,0-6.75,2.36-3.1,4.27-6.76,7.22-9.12,2.29-1.84,2.68-3.17,2.17-5.76-2.87-14.64-4.23-29.48-3.07-44.33.75-9.68.56-18.91-2.45-28.28-2.11-6.57-2.63-13.66-3.87-20.52ZM149.73,33.25c-63.97-.14-116.23,51.83-116.47,115.83-.24,64.11,51.87,116.52,116.01,116.67,63.95.15,116.21-51.82,116.48-115.83.27-64.08-51.88-116.52-116.02-116.66ZM230.18,248.16c-12.32,9.85-25.03,16.87-38.89,21.9-1.17.43-2.38,2.4-2.51,3.76-.55,5.84-.68,11.72-1.02,17.59-.23,3.84-2.48,6.12-5.77,5.98-3.2-.13-5.42-2.7-5.44-6.38,0-1.5.11-3,.19-4.49.22-4.09.44-8.17.66-12.24-6.25.8-12.08,1.39-17.84,2.4-1.19.21-2.52,1.75-3.1,3-4.42,9.51-11.7,15.08-22.12,16.3-8.47,1-15.7-1.95-22.05-7.72-8.53,7.66-17.01,15.22-25.42,22.87-2.09,1.9-2.24,4.21-.21,6.26,11.92,12.04,25.23,22.29,39.89,30.79,7.15-11.53,16.61-15.42,26.69-11.02,4.52,1.97,7.88,5.2,10.04,9.67,2.84,5.88,2.45,11.78-.39,18.27,8.56,2.12,16.74,4.25,24.99,6.11,2.6.59,4.34-1.08,4.78-3.64.66-3.91,1.08-7.86,1.66-12.21-1.45,0-2.54.01-3.63,0-10.93-.12-17.05-6.62-16.56-17.61.28-6.24.58-12.48.93-18.72.22-4.05,2.51-6.4,5.93-6.25,3.42.15,5.42,2.58,5.27,6.77-.21,6.12-.61,12.23-.88,18.35-.23,5.11.9,6.5,5.96,6.15,10.21-.71,20.42-1.52,30.58-2.74,5.48-.66,10.86-2.23,16.37-3.41-2.33-12.91,1.68-22.77,11.58-30.45-16.17-16.28-22.62-35.82-19.68-59.25ZM240.66,259.55c.13,30.41,24.86,55.04,55.17,54.94,30.51-.09,55.27-25.07,55.01-55.51-.26-30.43-24.95-54.83-55.37-54.74-30.29.1-54.93,24.96-54.8,55.3ZM356.82,155.04c-.12-21.96-17.94-39.77-39.85-39.84-21.95-.06-40.02,18.07-39.97,40.1.06,21.97,18.33,40.07,40.23,39.83,21.92-.23,39.7-18.25,39.58-40.1ZM205.2,360.66c31.41,6.24,95.87-15.85,108.2-36.91-4.81.63-9.75,1.16-14.65,1.99-2.5.42-5.16.91-7.31,2.14-20.78,11.87-42.82,20.2-66.43,24.25-6.35,1.09-12.74,1.91-19.14,2.85-.28,1.69-.54,3.16-.76,4.63-.05.34.05.71.08,1.05ZM307.99,104.73c-16.15-12.91-33.28-21.81-53.31-27.22,10.16,15.17,16.64,30.84,20.15,48.42,8.47-11.28,19.06-18.26,33.16-21.2ZM359.39,239.14c3.22-17.7,2.63-35.21-1.2-52.69-4.11,3.68-7.65,7.43-11.77,10.36-4.09,2.91-8.76,5-13.42,7.59,12.39,8.66,21.17,20.29,26.38,34.75ZM121.25,358.66c-7.49-5.2-14.73-10.27-22.05-15.2-.71-.47-2.2-.46-2.98-.04-4.31,2.34-7.44,5.85-9.12,10.47-.3.81-.08,2.35.51,2.86,6.2,5.41,12.47,10.74,18.82,15.97,2.08,1.71,4.34,1.31,5.88-.86,3.09-4.36,6-8.84,8.94-13.21ZM42.31,253.47c8.7-2.49,16.27-4.66,23.22-6.65-8.88-10.59-17.64-21.03-26.96-32.15,1.26,13.01,2.48,25.66,3.74,38.8ZM249.75,334.73c8.94-3.75,17.67-7.42,26.71-11.21-5.64-2.78-10.52-5.24-15.47-7.58-.77-.36-1.95-.48-2.71-.16-6.85,2.87-11.22,12.2-8.54,18.95ZM144.89,277.09c-4.18-.41-8.16-.25-11.81-1.27-5.53-1.55-8.88.87-11.93,4.8,7.3,6.83,18.23,5.33,23.74-3.52ZM137.06,353.99c4.99,2.24,9.92,4.47,14.88,6.7,2.67-3.54,2.64-6.82.53-10.04-1.95-2.98-4.88-4.34-8.36-3.74-3.72.64-6.25,2.81-7.04,7.09ZM272.97,182.1c-1.95,5.77-3.8,11.22-5.74,16.94,5.47-1.78,10.55-3.44,15.74-5.13-3.33-3.94-6.57-7.76-10-11.8Z"/>
  <path class="cls-1" d="M82.76,283.67c.04,9.35-7.51,16.96-16.83,16.96-9.3,0-16.93-7.65-16.89-16.94.04-9.17,7.47-16.61,16.68-16.73,9.38-.11,16.99,7.35,17.04,16.71ZM66.04,289.33c3-.07,5.41-2.5,5.45-5.49.04-3.15-2.51-5.65-5.71-5.58-3,.06-5.45,2.5-5.48,5.47-.03,3.09,2.61,5.68,5.73,5.61Z"/>
  <path class="cls-1" d="M249.08,149.36c-.1,49.61-37.1,92.02-86.16,98.52-55.75,7.39-106.56-32.37-112.25-88.07-1.96-19.19,1.32-37.58,10.05-54.89,2.41-4.78,5.3-6.28,8.69-4.5,3.23,1.7,3.68,4.77,1.39,9.45-20.71,42.38-5.93,92.16,34.35,115.71,53.79,31.45,122.7-1.85,131.51-63.56,7.03-49.27-27.99-94.83-77.43-100.08-27.07-2.87-50.8,5.25-70.75,23.97-.55.51-1.06,1.07-1.61,1.57-2.98,2.72-6.29,2.86-8.6.38-2.26-2.42-2.21-5.66.68-8.26,4.73-4.25,9.43-8.64,14.65-12.22,59.59-40.93,142.85-5.04,153.99,66.32.81,5.17,1,10.43,1.48,15.65Z"/>
  <path class="cls-1" d="M100.68,203.91c.1-9.17,7.61-16.58,16.8-16.59,9.26,0,16.96,7.73,16.9,16.96-.06,9.31-7.7,16.78-17.09,16.7-9.41-.08-16.72-7.59-16.62-17.07ZM117.48,198.62c-3.03,0-5.44,2.35-5.53,5.39-.09,3.21,2.32,5.7,5.54,5.7,2.99,0,5.51-2.4,5.61-5.34.11-3.03-2.55-5.75-5.63-5.75Z"/>
  <path class="cls-1" d="M69.26,149.19c-.03-9.3,7.6-16.95,16.89-16.94,9.29.01,16.9,7.68,16.84,16.98-.06,9.14-7.57,16.67-16.7,16.75-9.3.08-17-7.52-17.03-16.8ZM91.73,149.14c0-2.96-2.43-5.5-5.4-5.61-3.11-.12-5.8,2.47-5.8,5.58,0,2.96,2.44,5.5,5.4,5.61,3.1.12,5.8-2.48,5.81-5.58Z"/>
  <path class="cls-1" d="M196.01,149.89c0-9.29,7.65-16.92,16.94-16.88,9.29.04,16.87,7.73,16.79,17.03-.08,9.13-7.62,16.64-16.76,16.7-9.29.05-16.97-7.57-16.98-16.85ZM212.81,155.48c2.96.03,5.52-2.39,5.66-5.35.15-3.1-2.42-5.81-5.53-5.85-2.96-.04-5.52,2.38-5.65,5.35-.14,3.1,2.42,5.82,5.53,5.85Z"/>
  <path class="cls-1" d="M198.31,94.95c-.06,9.35-7.74,16.88-17.05,16.7-9.18-.18-16.63-7.7-16.66-16.82-.02-9.28,7.61-16.85,16.96-16.82,9.43.03,16.81,7.49,16.75,16.94ZM181.59,89.29c-3.16-.04-5.77,2.53-5.7,5.61.07,2.91,2.61,5.42,5.54,5.47,3.15.05,5.67-2.5,5.62-5.68-.05-3.06-2.38-5.37-5.46-5.41Z"/>
  <path class="cls-1" d="M101.35,94.31c.05-9.36,7.68-16.89,17-16.77,9.1.12,16.64,7.71,16.69,16.81.05,9.26-7.61,16.91-16.93,16.91-9.36,0-16.81-7.54-16.77-16.96ZM123.76,94.42c0-3.04-2.76-5.71-5.81-5.61-2.98.1-5.34,2.58-5.34,5.6,0,3.04,2.33,5.48,5.34,5.57,3.1.1,5.8-2.49,5.81-5.57Z"/>
  <path class="cls-1" d="M197.65,204.68c-.05,9.35-7.69,16.89-17,16.77-9.1-.12-16.64-7.71-16.7-16.81-.06-9.25,7.61-16.91,16.93-16.91,9.38,0,16.82,7.52,16.77,16.95ZM186.37,204.72c.08-3.05-2.19-5.54-5.19-5.71-3.13-.18-5.85,2.29-5.94,5.41-.09,3.05,2.58,5.78,5.64,5.76,2.96-.02,5.41-2.45,5.49-5.46Z"/>
  <path class="cls-1" d="M149.36,132.69c9.38-.08,16.92,7.38,16.95,16.77.03,9.37-7.49,16.88-16.87,16.85-9.23-.03-16.63-7.35-16.77-16.58-.14-9.37,7.3-16.96,16.69-17.03ZM155.02,149.37c-.07-3.21-2.6-5.55-5.83-5.38-3.05.15-5.27,2.56-5.21,5.64.07,3.21,2.61,5.55,5.83,5.39,3.05-.16,5.27-2.57,5.21-5.64Z"/>
  <path class="cls-1" d="M155.27,215.61c-2.14,4.1-3.59,7.87-5.97,10.92-.94,1.2-4.46,1.67-5.89.86-1.61-.91-3.34-3.89-2.98-5.53.73-3.41,2.4-6.84,4.51-9.64.97-1.27,4.15-1.84,5.88-1.29,1.71.54,2.85,2.89,4.46,4.68Z"/>
  <path class="cls-1" d="M154.53,74.52c1.53,1.71,3.96,3.26,4.31,5.19.33,1.79-1.03,4.78-2.59,5.83-2.49,1.67-5.71,2.46-8.73,3.08-2.74.56-5.31-.91-5.71-3.6-.3-1.98.4-5.19,1.81-6.13,2.91-1.94,6.58-2.74,10.9-4.37Z"/>
  <path class="cls-1" d="M210.12,190.79c-3.6-.14-6.02-1.48-6.21-4.18-.14-2,.83-4.98,2.34-5.98,2.59-1.74,5.92-2.58,9.06-3.23,2.74-.57,5.29.99,5.65,3.67.27,1.98-.48,5.13-1.91,6.11-2.78,1.9-6.36,2.65-8.93,3.62Z"/>
  <path class="cls-1" d="M176.97,119.57c4.18,1.61,7.85,2.43,10.74,4.39,1.38.94,2.24,4.43,1.59,6.08-.65,1.67-3.55,3.58-5.31,3.44-3.23-.25-6.69-1.43-9.4-3.22-1.46-.96-2.47-4.18-2.05-6.01.41-1.81,2.87-3.14,4.43-4.68Z"/>
  <path class="cls-1" d="M157.72,112.98c-.04,4.05-3.18,5.23-6.1,6.68-2.91,1.45-5.75,3.33-8.98.79-2.98-2.34-2.89-6.78.39-8.91,2.28-1.48,4.77-2.72,7.32-3.67,3.55-1.33,7.26,1.37,7.37,5.11Z"/>
  <path class="cls-1" d="M108.47,174.94c-.09,3.85-7.28,9.54-11.04,8.73-4.17-.9-6.09-5.9-3.19-9,1.83-1.96,4.13-3.65,6.52-4.88,3.67-1.9,7.8,1.03,7.7,5.15Z"/>
  <path class="cls-1" d="M148.89,177.28c3.13.09,5.55,2.75,5.37,5.92-.17,3.01-2.68,5.35-5.66,5.27-3.13-.08-5.54-2.75-5.37-5.93.17-3.01,2.67-5.34,5.66-5.26Z"/>
  <path class="cls-1" d="M106.67,129.97c-3.13-.05-5.58-2.68-5.44-5.86.13-3.02,2.61-5.37,5.6-5.33,3.13.05,5.58,2.69,5.44,5.86-.14,3.02-2.61,5.37-5.6,5.33Z"/>
  <path class="cls-1" d="M209.6,120.86c-2.92.06-5.47-2.37-5.62-5.34-.16-3.22,2.22-5.77,5.42-5.82,3.09-.05,5.46,2.18,5.61,5.25.15,3.13-2.33,5.85-5.41,5.91Z"/>
  <path class="cls-1" d="M214.98,321.27c-9.46.05-16.91-7.34-16.96-16.8-.04-9.02,7.59-16.8,16.59-16.91,9.1-.11,17.07,7.76,17.08,16.89.01,8.99-7.73,16.78-16.72,16.82ZM220.39,304.4c-.03-2.87-2.72-5.56-5.54-5.55-3,.02-5.48,2.47-5.54,5.46-.06,3.23,2.48,5.8,5.62,5.69,2.95-.1,5.49-2.71,5.46-5.61Z"/>
  <path class="cls-1" d="M223.8,274.14c.09,3.15-2.46,5.8-5.56,5.79-2.92-.01-5.5-2.52-5.6-5.45-.11-3.08,2.5-5.74,5.63-5.74,3.02,0,5.45,2.37,5.53,5.39Z"/>
  <path class="cls-1" d="M128.25,331.8c-3-.05-5.46-2.47-5.52-5.45-.06-3.05,2.66-5.77,5.7-5.72,3.1.05,5.56,2.72,5.42,5.9-.13,3.04-2.55,5.32-5.6,5.27Z"/>
  <path class="cls-1" d="M204.84,330.35c.09,3.03-2.61,5.79-5.65,5.78-2.95-.01-5.43-2.48-5.5-5.47-.08-3.06,2.18-5.53,5.2-5.69,3.16-.17,5.86,2.27,5.96,5.38Z"/>
  <path class="cls-1" d="M120.1,307.82c-.09,3.09-2.79,5.53-5.95,5.36-3.06-.16-5.28-2.57-5.2-5.65.07-3.19,2.68-5.6,5.86-5.41,2.95.18,5.38,2.8,5.3,5.69Z"/>
  <path class="cls-1" d="M145.2,304.56c3.01-.03,5.53,2.32,5.67,5.27.14,3.03-2.5,5.8-5.56,5.83-3.14.03-5.66-2.55-5.6-5.72.06-3.06,2.4-5.36,5.49-5.39Z"/>
  <path class="cls-1" d="M255.45,259.36c-5.16-7.05-4.56-14.01,0-20.97,1.23-1.88,2.26-3.88,3.41-5.81,3.2-5.36,7.85-8.11,14.17-8.27,1.25-.03,2.95-1.03,3.63-2.1,3.43-5.44,8.22-8.19,14.62-8.21,2.37,0,4.75.09,7.12-.02,7.39-.34,13.12,2.27,16.83,8.94.44.79,1.92,1.43,2.91,1.42,6.83-.04,11.63,3.13,14.93,8.91.93,1.63,1.77,3.31,2.8,4.86,4.66,7.03,5.46,14.1.15,21.23,5.16,7.08,4.57,14.05.02,21.01-1.23,1.88-2.26,3.88-3.41,5.81-3.21,5.35-7.86,8.1-14.18,8.27-1.25.03-2.96,1.03-3.63,2.1-3.42,5.46-8.24,8.17-14.63,8.2-2.37.01-4.75-.09-7.12.02-7.39.33-13.11-2.31-16.83-8.95-.44-.79-1.93-1.41-2.92-1.41-6.82.03-11.63-3.14-14.92-8.93-.92-1.63-1.77-3.31-2.8-4.86-4.69-7.03-5.39-14.1-.16-21.25ZM295.06,294.47c.13-.32.26-.65.39-.97,1.62,0,3.24.07,4.85-.01,4.5-.22,6.4-3.49,4.31-7.48-1.39-2.64-2.88-5.23-4.47-7.76-2.54-4.03-6.27-3.95-8.85.13-.8,1.26-1.61,2.53-2.22,3.88-1.28,2.8-4.93,5.61-2.23,8.65,1.8,2.03,5.42,2.44,8.22,3.58ZM319.16,264.07c-.11.31-.23.62-.34.93-1.62,0-3.24-.08-4.85.02-4.2.24-6.07,3.5-4.2,7.33.71,1.45,1.72,2.75,2.38,4.22,3.94,8.74,8.99,9.1,13.15-.14,1.31-2.92,5.03-5.84,2.23-8.98-1.79-2.01-5.51-2.3-8.37-3.36ZM318.73,253.75c1.37,0,2.74.03,4.1,0,4.9-.14,6.86-3.46,4.53-7.78-1.47-2.73-2.97-5.47-4.69-8.05-2.12-3.18-5.85-3.14-8,.03-1.39,2.05-2.54,4.27-3.77,6.43-3.63,6.31-1.93,9.36,5.22,9.38.87,0,1.74,0,2.61,0ZM272.34,254.79c.14-.35.28-.69.42-1.04,1.37,0,2.74.03,4.1,0,4.95-.13,6.95-3.42,4.64-7.74-1.46-2.74-2.96-5.47-4.68-8.05-2.14-3.19-5.83-3.17-8.02-.05-.99,1.42-1.88,2.94-2.62,4.51-1.33,2.79-4.92,5.67-2.35,8.65,1.83,2.12,5.6,2.55,8.51,3.74ZM296.19,224.21c-.14.36-.28.71-.42,1.07-1.74,0-3.5-.13-5.22.03-3.63.34-5.58,3.46-3.99,6.68,1.59,3.23,3.39,6.38,5.41,9.35,1.94,2.85,5.47,2.8,7.56.05,1.12-1.48,2.08-3.12,2.86-4.8,1.3-2.79,4.97-5.64,2.31-8.64-1.86-2.11-5.6-2.55-8.51-3.73ZM272.95,265c-1.62,0-3.24-.07-4.85.01-4.2.23-6.12,3.5-4.26,7.28.71,1.45,1.72,2.75,2.39,4.21,4.11,9.06,8.52,8.48,13.34.07,4.57-7.97,3.76-12.6-6.62-11.58ZM298.24,263.99c3.5-3.03,3.05-6.14.03-9.31h-5.3c-.92,1.61-1.78,3.13-2.53,4.45,1.11,4.37,3.67,6.14,7.8,4.86Z"/>
  <path class="cls-1" d="M345.33,155.21c0,2.62-.05,5.24.01,7.86.14,5.82-2.46,10.02-7.43,12.88-4.42,2.55-8.83,5.11-13.23,7.69-5.21,3.05-10.38,3.04-15.57-.06-4.06-2.42-8.1-4.89-12.27-7.1-6.27-3.31-8.75-8.47-8.41-15.38.2-3.97.19-7.96,0-11.93-.34-6.92,2.21-12.06,8.47-15.35,3.96-2.08,7.8-4.39,11.61-6.74,5.68-3.5,11.24-3.49,16.9.03,3.38,2.1,6.74,4.28,10.31,6.01,6.82,3.31,10.32,8.39,9.62,16.11-.18,1.99-.21,3.99-.3,5.98.1,0,.21,0,.31,0ZM333.31,155.4c3.06-7.98-1.21-11.24-7.76-15.12-6.51-3.86-10.5-3.98-17.12-.09-6.63,3.89-8.75,7.32-8.69,15.1.06,7.59,2.09,10.92,8.55,14.8,6.76,4.06,10.89,3.89,17.43-.16,6.09-3.77,10.7-6.62,7.58-14.53Z"/>
</svg>