<?xml version="1.0" encoding="UTF-8"?>
<svg id="Layer_1" data-name="Layer 1" xmlns="http://www.w3.org/2000/svg" version="1.1" viewBox="0 0 428 428">
  <defs>
    <style>
      .cls-1 {
        fill: #000;
        stroke-width: 0px;
      }
    </style>
  </defs>
  <path class="cls-1" d="M11,348.56c2.36-6.05,6.97-7.91,13.2-7.86,20.49.18,40.99.07,61.48.07,1.44,0,2.88,0,5,0,0-6.13-.37-12.04.11-17.88.42-5.12-1.49-7.78-5.8-10.61-37.17-24.44-57.19-59.04-60.13-103.45-.47-7.04,3.84-11.58,10.9-11.74,4.75-.11,9.51-.11,14.26-.16.11,0,.22-.13-.33-.5,1.59-3.61,3.18-7.22,4.92-11.17-4.98-6.84-5.02-7.14-1.21-12.4-2.37-2.22-4.89-4.31-7.09-6.7-2.91-3.17-2.96-5.96-.04-9.12,2.4-2.59,5.21-4.8,8.04-7.36-4.13-6.79-6.78-14.29-6.74-22.56.04-7.19,2.07-9.27,9.2-9.32,8.28-.05,15.82,2.52,22.66,6.76,2.5-2.76,4.71-5.57,7.3-7.97,3.38-3.12,5.95-2.97,9.42.1,1.18,1.05,2.28,2.2,3.33,3.39.96,1.08,1.79,2.27,2.5,3.17,2.46-.78,4.99-2.49,6.93-1.97,2.58.69,4.89,2.92,6.95,4.87,1.8,1.7,3.2,3.86,4.57,5.95,1.28,1.96,2.28,4.11,3.35,6.06,2.28-7.08,4.01-14.38,6.93-21.17,15.84-36.72,43.52-58.87,82.85-66.35,4.22-.8,7.23,1.02,7.85,4.57.63,3.65-1.35,6.26-5.7,7.04-25.16,4.51-45.7,16.69-61.32,36.94-11.95,15.49-18.35,33.12-19.77,53.06,7.52,2.18,9.01,8.01,8.2,14.54,3.74,1.2,6.94,2.35,10.22,3.22.99.27,2.28,0,3.28-.4,9.08-3.64,17.53-2.69,25.51,3.06,1.11.8,2.93,1.26,4.26,1.01,5.55-1.06,10.72-.22,15.87,1.95,1.08.46,3.18.18,3.97-.6,29.53-29.37,58.97-58.84,88.41-88.3.35-.35.57-.84,1.05-1.56-7.99-7.19-16.78-13.03-26.77-16.61-7.78-2.79-15.94-4.53-23.99-6.51-3.22-.79-6.3-1.38-6.92-5.33-.66-4.2,2.35-7.18,7.06-6.67,14.92,1.61,28.87,6.34,41.71,14.05,5.3,3.18,10.36,6.86,15.17,10.76,7.39,6,7.61,13.78.87,20.53-26.91,26.95-53.84,53.87-80.81,80.76-1,.99-2.47,1.51-3.72,2.25.33.41.67.83,1,1.24,2.21.74,4.38,1.64,6.64,2.14.93.2,2.23-.23,3.04-.82,1.37-1.01,2.43-2.42,3.71-3.57,4.36-3.91,10.01-4,14.29.02,4.15,3.88,8.26,7.84,12.01,12.1,1.73,1.96,2.57,4.72,4.06,7.61,8.28-1.25,16.95,1.13,26.01.21,54.64-5.56,102.1,29.78,112.96,83.55,1.34,6.62,3.06,13.34-.14,20.21-.94,2.01.54,5.12.85,7.73.64,5.34,2.14,10.72-.91,15.87-.3.5-.25,1.3-.16,1.93.7,4.55,1.45,9.1,2.18,13.6.28.17.5.4.73.42,10.48.84,12.95,3.55,12.95,14.21,0,3.17.1,6.35-.04,9.52-.24,5.4-3.72,9.13-9.07,9.8-1.57.2-3.16.22-4.75.22-92.56,0-185.12.01-277.67,0-1.71,0-3.47,0-5.12-.38-2.97-.7-4.4-2.85-4.29-5.84.12-3,1.73-4.99,4.75-5.46,1.68-.26,3.43-.2,5.14-.2,91.1,0,182.21,0,273.31,0,1.82,0,3.65,0,5.65,0v-9.59H23.2v9.59c1.42,0,2.93,0,4.45,0,21.16,0,42.31,0,63.47,0,1.32,0,2.66-.05,3.96.14,3.21.46,4.96,2.44,5.03,5.63.07,3.19-1.6,5.26-4.78,5.85-1.42.26-2.89.26-4.34.26-22.21.01-44.43-.1-66.64.08-6.19.05-10.8-1.78-13.34-7.66v-18.25ZM36.87,209.21c1.18,22.79,8.44,43.09,21.55,61.95,1.06-1.73,1.84-2.93,2.55-4.17,7.27-12.58,14.5-25.18,21.79-37.74,4.88-8.42,13.1-8.52,17.94-.19,8.5,14.61,16.96,29.25,25.36,43.92,4.66,8.14.51,15.31-8.82,15.34-13.22.03-26.44,0-39.66.02-1.09,0-2.18.16-3.27.24-.17.38-.33.76-.5,1.14,6.86,4.86,13.61,9.9,20.65,14.48,2.15,1.4,5.12,2.18,7.71,2.19,34.11.14,68.22.04,102.33.17,4.14.02,7.77-.71,11.1-3.17,6.29-4.65,12.64-9.22,18.97-13.82-.21-.41-.41-.83-.62-1.24h-3.79c-11.5,0-23,0-34.51,0-10.45,0-14.42-6.96-9.17-16.07,8.18-14.19,16.37-28.37,24.57-42.54,5.25-9.08,13.35-9.13,18.57-.1,6.75,11.66,13.46,23.34,20.2,35,.62,1.06,1.35,2.06,2.09,3.16,10.53-12.96,20.88-44.75,19.13-58.57H36.87ZM391.14,294.36c-1.96-52.08-53.1-94.92-107.58-84.18-2.13,32.25-14.61,60.19-37.4,84.18h144.98ZM390.1,306.64c-1.13-.1-1.78-.21-2.42-.21-51.04,0-102.07-.02-153.11.03-1.23,0-2.63.37-3.67,1.01-3.82,2.35-7.57,4.83-11.24,7.41-.9.64-1.38,1.87-2.58,3.56,2.69,0,4.13,0,5.58,0,32.26,0,64.52,0,96.78,0,1.32,0,2.67-.14,3.96.09,3.28.58,5.26,2.56,5.2,5.96-.06,3.38-2.02,5.35-5.37,5.78-1.3.17-2.64.07-3.96.07-32.13,0-64.26,0-96.39,0-1.55,0-3.1,0-4.85,0v10.15h173.35c-.49-3.53-.94-6.73-1.41-10.15-12.71,0-24.99,0-37.27,0-5.33,0-8.06-2.09-8-6.03.06-3.88,2.81-5.86,8.19-5.86,11.37,0,22.74,0,34.11,0h4.56c-.53-4.21-.98-7.85-1.48-11.8ZM102.83,340.45h102.7v-21.85h-102.7v21.85ZM218.25,191.21c-3.04.59-5.47.65-7.53,1.55-3.89,1.71-6.69.99-9.33-2.34-4.28-5.4-9.47-6.67-15.86-3.91-3.77,1.63-6.42.8-9.03-2.25-4.86-5.7-11.43-6.5-17.68-2.22-3.14,2.15-5.88,2.27-9.07.1-6.5-4.43-12.86-3.62-17.96,2.3-2.51,2.91-5.11,3.68-8.72,2.15-6.67-2.82-11.67-1.57-16.17,4.02-2.41,3-5.08,3.99-8.65,2.36-.89-.4-1.9-.54-3.01-.84v4.78h121.79c.34-1.56.66-3.06,1.22-5.69ZM71.14,172.64c5.03-.25,8.37,2.11,11.33,5.36.93,1.03,2.23,2.44,3.36,2.44,4.62.03,9.25-.41,14.22-.7-.9-1-1.71-1.97-2.59-2.86-6.43-6.46-12.92-12.87-19.31-19.37-2.82-2.86-3.02-6.36-.72-8.81,2.41-2.57,6.11-2.47,9.1.46,5.47,5.37,10.85,10.83,16.29,16.23.67.67,1.48,1.21,2.74,2.22-.72-7.87,1.11-13.62,9.15-15.47-.53-6.32-2.43-11.82-6.59-16.78-.69.87-1.14,1.34-1.49,1.89-1.56,2.46-3.45,4.49-6.67,4.05-3.39-.46-4.64-3.02-5.58-5.95-.65-2.04-1.71-3.94-2.96-6.76-1.19,2.28-2.01,3.6-2.59,5.02-3.33,8.15-6.05,8.8-13.02,3.13-4.57-3.71-9.64-6.27-16.08-6.71.68,7.08,3.75,12.56,8.05,17.54,4.06,4.7,2.91,8.68-2.92,10.97-1.95.77-3.8,1.8-5.9,2.8,4.18,4.3,12.74,2.41,12.19,11.3ZM91.8,237.4c-7.66,13.27-14.93,25.89-22.34,38.73h44.7c-7.48-12.95-14.71-25.48-22.36-38.73ZM242.86,276.29c-7.63-13.2-14.9-25.77-22.48-38.88-7.7,13.36-14.96,25.95-22.41,38.88h44.89ZM63.62,195.02c3.13,3.21,16.14,2.94,17.89.44-2.94-3.34-5.78-6.57-8.68-9.86-3.13,3.2-6.06,6.2-9.21,9.42ZM130.67,164.59h-13.04v8.43c10.18,1.36,13.88-1.02,13.04-8.43ZM247.77,196.98c-2.84-2.94-5.84-6.06-7.97-8.27-2.72,2.7-5.7,5.66-8.32,8.27h16.29Z"/>
  <path class="cls-1" d="M216.42,118.96c-.67,1.86-.78,3.22-1.51,4.01-3.04,3.28-6.09,6.6-9.49,9.5-2.39,2.04-5.29,1.62-7.51-.63-2.22-2.25-2.59-5.13-.53-7.52,2.92-3.38,6.07-6.65,9.58-9.39,1.29-1,4.17-.98,5.8-.25,1.61.72,2.57,2.92,3.66,4.28Z"/>
  <path class="cls-1" d="M246.92,107.86c-1.08-.83-3.37-1.75-4.02-3.34-.72-1.76-.7-4.72.37-6.13,2.6-3.43,5.86-6.42,9.12-9.3,2.24-1.98,5.33-2.01,7.13.23,1.33,1.66,2.49,5.36,1.6,6.54-3.13,4.15-7.14,7.64-10.91,11.28-.48.46-1.51.35-3.28.71Z"/>
  <path class="cls-1" d="M194.63,98.23c-1.34-1.13-3.6-2.15-4.2-3.78-.66-1.79-.53-4.69.56-6.13,2.52-3.34,5.68-6.25,8.85-9.03,2.37-2.07,5.18-1.93,7.56.19,2.24,1.99,3.02,4.84,1.15,7.11-3.08,3.74-6.72,7.03-10.25,10.38-.68.65-1.93.69-3.67,1.26Z"/>
  <path class="cls-1" d="M160.76,151.93c-1.24-.95-3.47-1.87-4.24-3.48-.77-1.62-.88-4.55.12-5.81,2.83-3.6,6.08-7.04,9.77-9.71,1.48-1.07,5.24-.79,6.68.41,1.45,1.2,2.54,5.28,1.65,6.43-3.27,4.18-7.42,7.69-11.29,11.38-.42.4-1.23.38-2.69.78Z"/>
  <path class="cls-1" d="M155.88,219.51c8.46,0,16.92-.06,25.37.02,9.34.09,13.49,7.31,8.84,15.43-8.4,14.66-16.85,29.3-25.35,43.9-4.81,8.27-13.11,8.2-17.95-.13-8.42-14.5-16.8-29.02-25.15-43.56-4.9-8.53-.69-15.61,9.25-15.65,8.33-.04,16.65,0,24.98,0ZM133.4,231.69c7.57,13.12,14.84,25.72,22.41,38.84,7.56-13.12,14.85-25.77,22.39-38.84h-44.8Z"/>
  <path class="cls-1" d="M353.93,279.49c-1.97,0-3.97.21-5.91-.05-3.3-.43-5.27-2.54-5.27-5.84,0-3.31,1.97-5.56,5.27-5.82,3.92-.31,7.89-.25,11.81-.04,3.32.18,5.77,2.98,5.5,6.05-.29,3.28-2.15,5.34-5.5,5.68-1.95.2-3.94.04-5.91.04,0,0,0-.01,0-.02Z"/>
  <path class="cls-1" d="M325.18,237.55c-1.85,0-3.71.12-5.55-.03-3.22-.26-5.14-2.23-5.42-5.32-.3-3.35,1.54-5.87,4.81-6.23,4.18-.46,8.46-.44,12.65-.06,3.28.3,5.22,2.71,5.04,6.06-.18,3.3-2.15,5.35-5.58,5.56-1.98.13-3.96.02-5.95.02Z"/>
  <path class="cls-1" d="M298.94,266.11c-1.85,0-3.71.11-5.55-.03-3.2-.24-5.14-2.1-5.46-5.24-.35-3.39,1.43-5.92,4.69-6.27,4.3-.47,8.72-.48,13.02-.01,3.25.36,5,2.88,4.67,6.29-.31,3.19-2.24,5.01-5.44,5.24-1.97.14-3.96.03-5.94.03Z"/>
</svg>