<?xml version="1.0" encoding="UTF-8"?>
<svg id="Layer_1" data-name="Layer 1" xmlns="http://www.w3.org/2000/svg" version="1.1" viewBox="0 0 428 428">
  <defs>
    <style>
      .cls-1 {
        fill: #000;
        stroke-width: 0px;
      }
    </style>
  </defs>
  <path class="cls-1" d="M201.23,157.92c0,40.73,0,81.47,0,122.2,0,55.55-34.69,102.65-87.64,119.06-14.48,4.49-29.27,7.14-44.4,7.92-6.76.35-8.99-1.87-8.99-8.56,0-84.14-.06-168.27.02-252.41.04-48.83,32.97-95.66,78.74-112.58,16.52-6.11,33.54-9.66,51.07-10.92,1.2-.09,2.4-.13,3.6-.12,5.14,0,7.57,2.37,7.59,7.6.04,14.82.02,29.65.02,44.47,0,27.78,0,55.56,0,83.34ZM73.02,393.56c1.69,0,3.03.2,4.29-.03,9.82-1.85,19.77-3.23,29.4-5.8,53.07-14.15,80.4-56.74,81.33-108.78,1.42-79.18.37-158.41.37-237.62v-5.29c-1.3,0-2.22-.14-3.1.02-10.21,1.9-20.59,3.22-30.59,5.9-50.93,13.66-79.98,53.26-81.23,107.57-1.84,79.57-.47,159.21-.47,238.82v5.22Z"/>
  <path class="cls-1" d="M367.91,157.93c0,40.73,0,81.47,0,122.2,0,55.55-34.69,102.64-87.65,119.06-14.48,4.49-29.27,7.14-44.4,7.92-6.76.35-8.99-1.87-8.99-8.57,0-84.14-.06-168.27.02-252.41.04-48.82,32.95-95.62,78.75-112.57,16.52-6.11,33.54-9.67,51.07-10.92,1.2-.09,2.4-.13,3.6-.12,5.14,0,7.56,2.37,7.58,7.61.04,15.09.02,30.18.02,45.27,0,27.51,0,55.02,0,82.53ZM355.09,35.8c-14.29,1.03-27.61,4.07-40.75,8.29-50.21,16.13-73.26,59.58-74.17,103.61-1.67,80.38-.47,160.81-.47,241.22v5.05c4.09-.47,7.7-.66,11.21-1.34,7.33-1.42,14.67-2.83,21.88-4.72,53.51-14.03,81.03-56.96,81.94-109.15,1.37-79.19.36-158.41.36-237.62v-5.34Z"/>
  <path class="cls-1" d="M92.84,150.7c-4.46-.04-7.55-3-6.88-7.4,3.76-24.72,10.89-48.23,27.49-67.63,13.99-16.35,32.32-24.9,53.54-27.41,5.92-.7,9.31,2.53,8.43,8.08-3.39,21.41-9.48,41.9-22.03,59.9-14.3,20.5-34.44,31.25-58.95,34.37-.53.07-1.07.07-1.6.09ZM161.5,62.13c-12.28,2.76-22.57,7.48-31.46,15.05-13.41,11.41-20.53,26.64-25.72,42.97-1.66,5.23-2.86,10.61-4.35,16.18,9.61-1.01,23.32-7.51,31.71-14.92,17.61-15.56,24.41-36.55,29.81-59.27Z"/>
  <path class="cls-1" d="M162.77,214.83c0-33.12,0-66.25,0-99.37,0-1.33-.13-2.7.1-4,.62-3.46,2.76-5.54,6.3-5.54,3.55,0,5.67,2.08,6.32,5.53.22,1.16.1,2.4.1,3.6,0,66.52,0,133.03,0,199.55,0,1.2.12,2.43-.1,3.6-.64,3.45-2.77,5.55-6.3,5.55-3.54,0-5.68-2.08-6.31-5.53-.23-1.3-.1-2.66-.1-4,0-33.12,0-66.25,0-99.37Z"/>
  <path class="cls-1" d="M98.66,272.53c0,33.12,0,66.25,0,99.37,0,1.33.13,2.7-.11,4-.63,3.45-2.77,5.54-6.31,5.54-3.54,0-5.67-2.09-6.3-5.54-.21-1.17-.1-2.4-.1-3.6,0-66.52,0-133.03,0-199.55,0-1.2-.12-2.43.1-3.6.64-3.46,2.77-5.53,6.31-5.53,3.55,0,5.67,2.09,6.3,5.54.24,1.3.1,2.66.1,4,0,33.12,0,66.25,0,99.37Z"/>
  <path class="cls-1" d="M149.95,247.29c0,30.85,0,61.71,0,92.56,0,1.33.13,2.7-.11,4-.63,3.45-2.77,5.54-6.31,5.53-3.54,0-5.67-2.09-6.3-5.55-.21-1.17-.1-2.4-.1-3.6,0-62.24,0-124.48,0-186.73,0-1.2-.12-2.43.1-3.6.64-3.46,2.77-5.53,6.31-5.53,3.55,0,5.67,2.09,6.3,5.54.24,1.3.1,2.66.1,4,0,31.12,0,62.24,0,93.36Z"/>
  <path class="cls-1" d="M124.3,266.53c0,30.85,0,61.71,0,92.56,0,1.33.13,2.7-.11,4-.63,3.45-2.77,5.54-6.31,5.53-3.54,0-5.67-2.09-6.3-5.55-.21-1.17-.1-2.4-.1-3.6,0-62.24,0-124.48,0-186.73,0-1.2-.12-2.43.1-3.6.64-3.46,2.77-5.53,6.31-5.53,3.55,0,5.67,2.09,6.3,5.54.24,1.3.1,2.66.1,4,0,31.12,0,62.24,0,93.36Z"/>
  <path class="cls-1" d="M260.86,381.51c-5.74,0-8.91-2.91-8.22-7.28,4.18-26.76,11.9-52.12,31.52-72.03,13.51-13.71,30.38-20.89,49.39-23.12,5.95-.7,9.42,2.47,8.56,7.96-3.4,21.69-9.58,42.43-22.44,60.57-14.64,20.67-35.22,31.11-58.81,33.89ZM266.55,367.54c12.33-2.79,22.61-7.5,31.51-15.07,13.42-11.41,20.53-26.64,25.72-42.97,1.66-5.23,2.86-10.61,4.44-16.53-9.23,1.95-16.98,5.02-24.08,9.59-23.33,15.03-31.22,39.01-37.59,64.97Z"/>
  <path class="cls-1" d="M342.27,157.33c0,33.12,0,66.25,0,99.37,0,1.33.09,2.69-.13,4-.53,3.23-3.35,5.58-6.48,5.37-3.34-.23-5.42-2.12-6.07-5.38-.26-1.29-.13-2.66-.13-4,0-66.38,0-132.77,0-199.15,0-1.2-.1-2.42.08-3.6.53-3.48,2.61-5.51,6.14-5.76,3.3-.23,6.11,2.29,6.53,5.76.16,1.32.07,2.67.07,4,0,33.12,0,66.25,0,99.37Z"/>
  <path class="cls-1" d="M265.34,214.83c0,33.12,0,66.25,0,99.37,0,1.33.13,2.7-.11,4-.63,3.45-2.77,5.54-6.31,5.54-3.54,0-5.67-2.09-6.3-5.54-.21-1.17-.1-2.4-.1-3.6,0-66.52,0-133.03,0-199.55,0-1.2-.12-2.43.1-3.6.64-3.46,2.77-5.53,6.31-5.53,3.55,0,5.67,2.09,6.3,5.54.24,1.3.11,2.66.11,4,0,33.12,0,66.25,0,99.37Z"/>
  <path class="cls-1" d="M303.8,163.54c0-30.99,0-61.98,0-92.96,0-1.33-.13-2.7.1-4,.62-3.46,2.75-5.54,6.29-5.55,3.55,0,5.67,2.08,6.32,5.53.22,1.16.1,2.4.1,3.6,0,62.24,0,124.48,0,186.73,0,1.2.12,2.43-.1,3.6-.64,3.45-2.76,5.55-6.3,5.55-3.54,0-5.68-2.08-6.31-5.53-.23-1.3-.1-2.66-.1-4,0-30.99,0-61.98,0-92.96Z"/>
  <path class="cls-1" d="M290.98,182.96c0,30.99,0,61.98,0,92.96,0,1.47.16,3-.21,4.38-.84,3.19-3.03,5.08-6.39,4.97-3.34-.11-5.42-2.09-6.08-5.35-.26-1.29-.13-2.66-.13-4,0-62.11,0-124.22,0-186.33,0-.53,0-1.07,0-1.6.08-4.94,2.6-7.92,6.6-7.79,3.85.12,6.21,2.99,6.21,7.78.02,31.66.01,63.31.01,94.97Z"/>
</svg>