<?xml version="1.0" encoding="UTF-8"?>
<svg id="Layer_1" fill="currentColor" data-name="Layer 1" xmlns="http://www.w3.org/2000/svg" version="1.1" viewBox="0 0 428 428">
  <defs>
    <style>
      .cls-1 {
        fill: #000;
        stroke-width: 0px;
      }
    </style>
  </defs>
  <path class="cls-1" d="M406,310c-7.69,23.8-24.26,37.69-48.32,43.03-3.98.89-8.18,1.14-12.27,1.14-87.6.06-175.2.21-262.8-.05-25.82-.08-45.02-12.22-57.22-35.05-1.51-2.82-2.28-6.04-3.39-9.07,0-3,0-6,0-9,.22-.43.53-.83.65-1.28,3.94-15,14.7-23.37,30.15-23.41,3.29,0,6.58,0,10.94,0-1.63-1.15-2.29-1.65-2.98-2.1-17.21-11.16-28.97-26.51-34.84-46.15-1.8-6.04-2.64-12.36-3.92-18.55,0-5.25,0-10.5,0-15.75,1.23-6.98,2.14-14.03,3.74-20.92,12.49-53.6,59.64-94.07,114.57-98.45,4.6-.37,9.23-.57,13.84-.57,40.61-.04,81.23-.1,121.84,0,30.28.08,57.36,9.55,81.17,28.29.88.69,1.81,1.37,2.54,2.2,2.13,2.41,2.18,5.07.17,7.47-1.93,2.3-4.59,2.62-7.1,1.03-2.52-1.6-4.78-3.61-7.21-5.36-69.51-50.4-168.78-11.43-185.37,72.83-4.23,21.47-3.19,42.41,8.8,61.49,13.84,22.03,34.12,33.87,60.07,34.38,31.48.61,62.98.39,94.47.08,38.58-.37,70.73-32.67,71.14-71.25.29-27.69-8.21-52.54-25.12-74.48-.76-.99-1.61-1.92-2.32-2.94-1.96-2.83-1.56-6.16.9-8.03,2.37-1.8,5.59-1.57,7.71.96,2.72,3.25,5.32,6.63,7.69,10.14,12.4,18.36,19.73,38.56,21.81,60.64.08.84.42,1.66.64,2.5v17.25c-.19.45-.5.88-.56,1.34-3.25,26.96-16.47,47.66-39.15,62.43-.48.32-1.21.26-1.82.38.33.39.67.77,1,1.16,3.86,0,7.73-.07,11.59.01,12.36.25,23.01,7.88,27.18,19.43.63,1.73,1.18,3.49,1.76,5.24v9ZM214,287.56c-53.62,0-107.24-.02-160.86,0-16.2,0-24.74,14.1-16.78,28.17,10.14,17.93,25.86,27.13,46.42,27.17,67.24.15,134.49.06,201.73.06,20.62,0,41.25.33,61.87-.1,20.71-.43,36.11-10.21,46.03-28.44,2.09-3.83,2.91-7.94,1.95-12.31-2.04-9.24-9.1-14.56-19.49-14.56-53.62-.01-107.24,0-160.86,0ZM222.58,85.23c-1.66-.12-2.22-.19-2.78-.19-24.11.01-48.23-.22-72.34.13-16.55.24-32.46,4.12-47.24,11.65-36.92,18.8-58.94,48.65-65.67,89.64-1.17,7.14,1,10.14,8.34,10.36,2.94.09,6.37-.66,8.82-2.22,10.65-6.77,20.99-6.9,31.58-.02,5.05,3.28,10.51,3.41,15.56.13,10.7-6.96,21.19-7.04,31.86.02,4.25,2.82,8.93,2.85,13.63.97,1.88-.75,2.76-1.9,3.02-4.15,5.25-46.63,28.63-81.08,69.81-103.5,1.48-.8,2.99-1.55,5.43-2.81ZM33.42,206.01c0,1.44-.05,2.18,0,2.91,3.2,38.11,34.21,67.09,72.38,67.35,26.37.18,52.74.04,79.12.03.79,0,1.58-.13,3.06-.27-25.41-16.44-39.06-39.2-41.33-69.04-9.51,2.69-17.63.28-25.52-4.68-4.66-2.93-9.88-2.11-14.55.92-10.16,6.6-20.34,6.74-30.55.14-5.34-3.45-10.83-3.68-16.26-.42-8.2,4.94-16.64,7.46-26.36,3.05Z"/>
  <path class="cls-1" d="M276.17,249.97c-14.87,0-29.74.02-44.62,0-27.35-.04-48.26-21.93-47.15-49.24.4-9.81,2.03-19.35,5.47-28.56,1.56-4.18,4.24-5.8,7.62-4.63,3.2,1.1,4.4,4.32,2.94,8.41-3.52,9.88-5.39,20.02-4.59,30.52,1.34,17.6,16.02,31.97,33.65,32.14,31.24.31,62.49.35,93.73-.01,20.31-.24,35.21-17.99,33.84-39.24-2.41-37.2-27.63-67.39-64.09-74.79-32.22-6.54-59.01,3.98-80.13,29.09-.88,1.05-1.62,2.24-2.6,3.19-2.29,2.23-4.95,2.49-7.44.52-2.48-1.96-3.07-4.69-1.22-7.33,2.22-3.16,4.58-6.29,7.29-9.03,26.46-26.72,58.14-36.4,94.2-25.35,35.81,10.97,57.05,36.26,64.03,73.16,2.63,13.89,1.97,27.45-6.17,39.68-9.16,13.76-22.1,21.11-38.65,21.41-15.37.28-30.74.06-46.12.06Z"/>
  <path class="cls-1" d="M276.36,212.41c-14.5,0-28.99.02-43.49,0-7.65-.01-11-3.48-10.79-11.05.8-28.42,23.97-51.31,52.96-52.33,27.83-.98,52.71,20.88,55.32,48.61.13,1.37.32,2.73.37,4.11.26,6.71-3.37,10.62-10.13,10.65-14.75.07-29.49.02-44.24.02ZM318.87,200.94c1.88-20.1-19.72-40.66-42.5-40.68-22.72-.02-44.24,20.4-42.63,40.68h85.14Z"/>
</svg>