<?xml version="1.0" encoding="UTF-8"?>
<svg id="Layer_1" data-name="Layer 1" xmlns="http://www.w3.org/2000/svg" version="1.1" viewBox="0 0 428 428">
  <defs>
    <style>
      .cls-1 {
        fill: #000;
        stroke-width: 0px;
      }
    </style>
  </defs>
  <path class="cls-1" d="M406,121c-.25.7-.56,1.38-.75,2.09-4.65,17.3-23.54,24.78-38.72,15.31-.63-.4-1.26-.8-2.26-1.43-5.36,4.85-10.56,10.06-16.29,14.58-5.12,4.04-6.84,8.42-6.61,15.18,1.59,46.7-6.23,92.01-21.63,136.07-1.73,4.94-2.94,10.08-4.92,14.91-8.36,20.36-24.15,32.52-44.42,39.56-16.1,5.59-32.85,7.86-49.73,8.06-24.6.3-49.24.28-73.82-.78-23.42-1.01-46.41-5.24-67.97-15.1-30.89-14.14-48.81-38.28-54.63-71.58-.88-5.02-1.51-10.08-2.26-15.13,0-7,0-14,0-21,1.24-6.47,2.04-13.05,3.78-19.39,9.63-35.11,31.33-59.95,63.98-75.94,29.53-14.46,60.67-22.8,93.14-26.59,12.15-1.42,24.4-2.05,36.61-2.91,3.9-.28,6.33,1.8,6.56,5.1.24,3.37-1.77,5.67-5.71,6.01-11.45.98-22.96,1.46-34.36,2.83-11.14,1.34-22.18,3.54-33.26,5.39-.59.1-1.14.4-1,.35,8.98,2.64,18.68,4.78,27.83,8.32,23.11,8.93,41.09,24.36,54.29,45.29,1.86,2.95,3.66,4.56,7.47,4.78,39.19,2.29,69.76,30.92,77.76,65.12.08.35.28.68.46,1,.05.09.21.11.85.44,1.74-9,3.68-17.8,5.12-26.69,3.77-23.23,6.12-46.59,4.72-70.17-.31-5.23-.85-10.47-1.68-15.64-1.69-10.56-11.56-18.31-24.34-18.98-17.59-.92-35.2-1.55-52.8-2.42-1.76-.09-4.18-.5-5.05-1.68-1.15-1.55-2.01-4.47-1.28-5.96.82-1.67,3.56-3.39,5.46-3.39,11.24.02,22.49.37,33.72.93,8.73.43,17.43,1.34,26.16,1.95,1.01.07,2.33-.15,3.04-.78,6.26-5.54,12.42-11.2,18.68-16.89-6.22-11.8-5.83-22.91,3.7-32.48,7.57-7.59,16.92-9.29,26.98-5.58,10.6,3.91,15.51,12.04,16.41,26.92,7.86-.62,14.52,2.48,19.28,8.5,3.15,3.99,5.02,8.99,7.47,13.54v8.25ZM188.84,354.21c10.62,0,21.26.33,31.86-.08,15.5-.59,30.89-2.35,45.71-7.37,18.73-6.34,32.91-17.6,39.53-36.91,3.03-8.83,4.08-17.97,4.27-27.27.86-42.05-31.61-76-73.63-76.57-4.96-.07-7.52-1.93-9.99-6.04-20.19-33.57-49.93-51.76-89.17-51.99-39.4-.23-69.56,17.69-89.98,51.26-15.28,25.13-17.06,52.54-11.27,80.76,5.3,25.82,19.55,45.01,43.08,57.13,12.32,6.34,25.48,10.1,39.03,12.67,23.33,4.42,46.94,4.79,70.56,4.41ZM339.17,144.52c6.92-6.29,13.37-12.17,19.84-18.03,4.61-4.19,6.67-4.13,11,.26,5.73,5.82,14.41,6.12,20.2.69,5.78-5.42,6.01-14.11.67-20.24-3.68-4.22-8.06-5.7-13.69-5.05-7.93.91-11.14-2.89-9.75-10.7.17-.98.3-1.98.35-2.97.31-6.81-3.44-12.46-9.58-14.5-6.05-2.01-12.65.16-16.27,5.34-3.84,5.51-3.45,12.33,1.01,17.66,3.99,4.76,3.87,6.69-.8,10.97-5.96,5.47-11.96,10.9-18.21,16.59,7.38,4.84,12.47,11.13,15.22,19.97Z"/>
  <path class="cls-1" d="M195.1,338.3c-22.53-1.06-41.02-1.53-59.45-2.91-14.87-1.12-29.34-4.52-42.93-11-20.19-9.62-33.35-25.08-38.52-46.92-5.63-23.79-4.35-46.94,8.2-68.53,3.36-5.78,7.74-11.01,11.97-16.24,2.87-3.55,6.53-3.83,9.05-1.34,2.42,2.4,2.1,5.64-.84,8.91-22.13,24.71-25.43,53.15-14.55,83.22,7.27,20.1,23.05,31.35,44.32,34.68,18.78,2.94,36.52.06,53.36-8.78,8.52-4.47,11.27-9.06,10.55-18.67-.35-4.61-.94-9.2-1.16-13.81-.41-8.87,3.44-15.43,11.31-19.52,3.43-1.78,7.02-3.24,10.51-4.91,9.31-4.45,13.61-14.53,10.5-24.49-9.51-30.44-40.43-52.32-72.23-51.17-10.36.37-20.27,2.52-29.7,6.9-4.13,1.92-7.43.9-8.81-2.49-1.29-3.16.25-5.91,4.36-7.8,44.42-20.45,96.85.34,115.09,45.79,1.32,3.3,2.94,4.03,6.24,4.13,9.08.3,18.42-.09,27.16,1.95,27.73,6.47,45.6,32.96,42.87,61.29-1.85,19.24-9.84,34.3-27.92,42.45-6.74,3.04-14.13,5.53-21.42,6.26-17.24,1.72-34.6,2.22-47.93,2.99ZM157.49,325.63c1.17.09,1.76.17,2.35.17,19.48.2,38.96.58,58.44.53,11.37-.03,22.71-.99,33.67-4.37,10.33-3.19,19.35-8.3,24.39-18.4,7.58-15.2,7.53-37.79-6.62-53.64-13.7-15.34-31.46-16.64-50.28-15.07-.1.92-.22,1.77-.3,2.63-1.11,11.94-6.74,20.68-18,25.45-2.3.97-4.59,1.96-6.84,3.01-7.21,3.36-8.6,5.86-7.85,13.81.42,4.47,1.04,8.95,1.12,13.43.2,11.23-4.52,19.8-14.59,25.05-4.85,2.53-9.88,4.73-15.5,7.4Z"/>
  <path class="cls-1" d="M154.87,241.68c0,13.2-10.71,23.93-23.81,23.86-12.99-.08-23.58-10.67-23.64-23.66-.07-13.23,10.49-23.96,23.63-24.02,13.14-.06,23.81,10.61,23.82,23.82ZM143.61,241.52c-.07-6.97-5.81-12.58-12.72-12.41-6.95.17-12.36,5.88-12.22,12.92.13,6.76,5.81,12.3,12.54,12.25,6.92-.05,12.47-5.76,12.4-12.76Z"/>
</svg>