<?xml version="1.0" encoding="UTF-8"?>
<svg id="Layer_1" fill="currentColor" data-name="Layer 1" xmlns="http://www.w3.org/2000/svg" version="1.1" viewBox="0 0 428 428">
  <defs>
    <style>
      .cls-1 {
        fill: #000;
        stroke-width: 0px;
      }
    </style>
  </defs>
  <path class="cls-1" d="M202,22c8,0,16,0,24,0,.96.21,1.92.54,2.89.61,32.26,2.47,62.12,12.25,89.12,30.07,46.45,30.66,74.94,73.42,85.06,128.23,1.29,6.97,1.97,14.06,2.94,21.09v24c-.21.97-.54,1.92-.62,2.9-3.36,41.93-18.69,78.95-46.24,110.68-29.8,34.32-67.26,55.53-112.07,63.51-6.98,1.24-14.05,1.95-21.07,2.91h-24c-.84-.2-1.66-.53-2.51-.59-14.01-.96-27.83-3.21-41.12-7.68-73.11-24.6-117.73-74.65-133.38-150.27-1.46-7.06-2.02-14.3-3-21.45,0-8,0-16,0-24,.22-1.09.48-2.16.64-3.26,1.3-8.76,2.14-17.61,3.93-26.26C42,97.99,105.51,37.21,180.54,24.97c7.12-1.16,14.3-1.99,21.46-2.97ZM394.55,214.07c.06-99.37-81.19-180.65-180.57-180.63-99.25.02-180.35,81.01-180.54,180.29-.19,99.32,80.94,180.66,180.38,180.83,99.3.17,180.66-81.09,180.72-180.49Z"/>
  <path class="cls-1" d="M223.03,158.35c1.87,5.76,3.55,10.94,5.21,16.04,4.34-.83,8.79-1.98,13.31-2.46,8.15-.87,15.92.81,23.17,4.63,16.78,8.85,33.62,17.59,50.29,26.66,19.67,10.7,27.65,32.81,19.67,53.95-.78,2.05-.48,3.16,1.24,4.36,1.74,1.21,3.28,2.7,4.9,4.07,10.59,8.92,10.44,20.65-.41,29.13-17.23,13.47-34.48,26.9-51.72,40.34-4.24,3.3-8.43,6.66-12.71,9.91-7.13,5.41-15.19,5.37-21.68,0-6.59-5.46-8.13-13.57-3.92-21.62,6.71-12.83,13.53-25.6,20.3-38.4.63-1.19,1.2-2.41,1.89-3.79-14.43-7.64-28.51-15.45-42.91-22.62-11.82-5.89-21.53-13.56-26.43-26.62-11.57,7.81-24.3,9.98-38.3,9.16,7.13,4.8,13.73,9.23,20.77,13.96-.25.21.2-.14.62-.51,7.71-6.89,18.2-4.42,21.76,5.37,7.34,20.16,14.48,40.4,21.69,60.61,4.32,12.1,8.53,24.24,12.97,36.3,2.16,5.87,1.68,11.14-2.97,15.46-4.65,4.33-9.95,4.43-15.63,1.81-17.97-8.28-33.53-19.36-43.41-37.04-2.48-4.44-4.26-9.26-6.13-13.39-5.62,1.72-11.32,3.95-17.23,5.17-9.27,1.92-18.11-.15-26.43-4.49-3.84-2-5.07-5.11-3.42-8.25,1.63-3.09,4.8-3.83,8.72-1.9,11.69,5.76,22.94,4.99,33.62-2.4,1.18-.82,2.32-2.75,2.28-4.13-.41-12.55,1.86-24.64,6.22-36.32,1.08-2.9.93-5.09-1.27-6.99-3.37-2.92-6.65-6.07-10.42-8.38-5.84-3.58-12.11-6.45-18.12-9.76-5.48-3.02-11.04-5.32-17.4-6.25-9.3-1.36-17.39-5.88-24.76-11.75-1.56-1.24-4.01-2.08-5.99-1.96-14.22.83-26.24,11.59-29.58,26.13-3.41,14.82,2.23,27.94,15.44,35.27,9.17,5.09,18.52,9.83,27.75,14.8,3.84,2.06,5.02,5.16,3.18,8.27-1.59,2.7-4.12,3.98-6.99,2.46-11.68-6.19-23.92-11.63-34.7-19.15-14.09-9.84-19.52-24.65-16.42-41.52,3.29-17.92,13.77-30.42,31.49-36.2,1.15-.38,2.33-.66,3.86-1.09-5.22-7.24-8.81-14.83-10.29-23.35-1.73-9.94-1.19-19.76,2.55-29.11,2.89-7.25,2.66-14.07-.69-20.97-.82-1.68-1.38-3.48-2.17-5.18-5.9-12.62,5.31-30.19,20.1-28.58,3.09.34,6.24.22,9.37.2,6.02-.03,10.59-2.67,13.45-7.97,1.66-3.07,3.04-6.29,4.57-9.43,6.42-13.23,24.23-15.61,33.9-4.38,2.67,3.1,4.7,6.75,6.91,10.22,5.68,8.92,13.63,13.05,24.18,11.22,13.14-2.28,23.51,1.16,29.76,13.98,10.67-2.69,21.17-5.33,31.67-7.99,17.66-4.46,35.32-8.96,52.98-13.4,10.18-2.56,17.19,2.71,17.76,13.25.04.72.15,1.49.46,2.12,12.43,25.31,24.9,50.6,37.35,75.89.77,1.57,1.57,3.13,2.22,4.75,2.83,7.13.76,14.64-5.31,19.49-6.04,4.82-14.03,5.27-20.15.64-5.57-4.22-10.86-8.82-16.15-13.4-2.54-2.19-2.68-5.72-.7-8.06,2.08-2.45,5.26-2.84,8.04-.64,4.6,3.65,9.09,7.44,13.54,11.27,2.61,2.25,5.29,3.57,8.35,1.1,2.89-2.34,2.25-5.17.82-8.11-11.8-24.24-23.54-48.5-35.33-72.74-2.58-5.3-5.65-6.09-10.39-2.47-8.64,6.6-17.2,13.3-25.72,20.05-3.97,3.15-3.94,6.67-.03,9.97,9.36,7.9,18.77,15.74,28.15,23.6.48.4.97.79,1.44,1.2,3.72,3.16,4.53,6.52,2.25,9.31-2.41,2.94-5.68,2.82-9.51-.38-6.23-5.21-12.72-10.15-18.6-15.73-6.12-5.8-11.82-9-21.18-6.65-13.9,3.49-27.75-.08-41.03-5.09-1.15-.43-2.3-.88-3.93-1.51ZM155.61,173.56c7.34.72,10.11-1.1,11.82-7.01.69-2.4,1.3-4.82,2.07-7.19,1.23-3.78,4.13-5.48,7.39-4.46,3.06.95,4.51,3.93,3.57,7.56-.81,3.14-1.62,6.29-2.63,9.37-2.56,7.82-9.34,13.01-17.56,13.59-1.09.08-2.17.16-3.76.29.7,6.17.89,12.2,2.18,17.99,1.69,7.62,4.08,15.11,6.55,22.53.49,1.48,2.68,3.28,4.19,3.39,9.88.71,19.06-1.73,27.35-7.23,18.45-12.24,25.45-35.12,16.73-55.79-4.24-10.04-4.61-19.79.16-29.66.54-1.12.95-2.31,1.38-3.48,1.52-4.17.61-7.75-2.38-11.04-3.59-3.94-8.05-4.06-12.78-3.32-17.39,2.75-30.62-3.07-39.14-18.81-1.18-2.18-2.52-4.36-4.17-6.19-4.67-5.2-12.33-4-15.24,2.26-1.26,2.71-2.38,5.5-3.75,8.16-5.31,10.32-13.82,15.42-25.42,15.3-2.75-.03-5.49-.27-8.24-.3-7.48-.1-11.87,6.15-9.28,13.24.9,2.46,2.01,4.84,3.04,7.24,3.52,8.2,3.83,16.46.41,24.76-11.78,28.59,8.54,53.51,27.55,61.75,8.94,3.88,18.36,3.48,27.98,3.06-1.17-3.41-2.67-6.39-3.15-9.53-.68-4.42-2.58-5.76-7.1-5.62-8.95.28-15.96-4.74-18.81-12.72-1.26-3.51-2.22-7.15-3.12-10.78-.78-3.13.85-5.99,3.64-6.87,3.1-.98,6.03.39,7.2,3.63.93,2.57,1.55,5.26,2.31,7.9,1.85,6.35,5.13,8.27,11.73,6.88-.85-13.53-1.7-27.05-2.57-40.77-1.08-.05-2.17-.13-3.27-.16-8.66-.24-15.66-5.3-18.38-13.45-1.06-3.19-1.93-6.46-2.72-9.73-.87-3.6.73-6.53,3.86-7.41,3.06-.86,5.98.88,7.14,4.42.85,2.61,1.48,5.29,2.28,7.91,1.71,5.57,5.09,7.5,11.29,6.38.33-8.42.65-16.88.99-25.34.18-4.55,2.45-7.16,6.02-7,3.56.16,5.46,2.85,5.37,7.51-.26,12.87-.51,25.73-.73,38.6-.06,3.35,0,6.69,0,10.14ZM292.94,275.87c15.41-.76,28.02-10.85,32.28-26.46,3.81-14-2.15-28.66-15.17-35.78-16.96-9.28-34.07-18.28-51.26-27.13-8.83-4.55-17.99-4.42-27.12-.43-2.05.89-3.13,2.05-3.32,4.39-.98,11.84-5.69,22.16-13.46,31.04-1.77,2.03-1.9,3.72-1.04,6.05,2.95,7.99,8.2,13.9,15.68,17.85,16.32,8.63,32.56,17.41,49.02,25.76,4.45,2.26,9.57,3.18,14.38,4.72ZM196.28,262.09l-1.33-.51c-.35.66-.78,1.28-1.05,1.97-2.22,5.68-4.79,11.26-6.54,17.09-4.56,15.17-5.58,30.46.73,45.45,7.92,18.83,23.39,29.59,41.22,37.64.74.33,2.51.12,2.6-.19.28-.96.21-2.17-.13-3.13-11.19-31.46-22.43-62.91-33.69-94.35-.49-1.36-1.21-2.64-1.82-3.96ZM327.89,269.81c-11.63,13.31-25.68,18.8-42.81,16.02-.77-.12-2.13.63-2.51,1.35-7.47,13.96-14.85,27.96-22.22,41.98-1.31,2.48-1.06,4.9,1.1,6.8,2.28,2,4.76,1.88,7.19.14.61-.44,1.2-.9,1.79-1.36,11.61-9.06,23.22-18.12,34.83-27.18,9.44-7.37,18.9-14.73,28.32-22.13,4.67-3.67,4.72-6.67.25-10.65-1.85-1.65-3.79-3.19-5.93-4.98ZM222.81,145.54c15.58,7.24,31.35,11.54,48.65,7.35-1.55-8.55,1.7-14.59,8.22-19.41,7.13-5.27,14.01-10.87,21-16.33.98-.77,1.93-1.58,2.89-2.36-25.15,5.73-49.92,11.99-74.68,18.31-.83.21-1.87.92-2.16,1.66-1.4,3.44-2.57,6.98-3.93,10.79Z"/>
  <path class="cls-1" d="M240.81,106.95c-9.59.12-20.09-2.72-29.97-7.93-3.56-1.88-4.67-5.05-3.05-8.1,1.56-2.93,4.67-3.95,8.06-2.18,20.09,10.48,39.79,8.01,59.24-1.7,4.23-2.11,8.21-4.74,12.21-7.27.94-.59,1.5-1.78,2.23-2.69-1.05-.57-2.04-1.43-3.15-1.66-17.09-3.6-34.2-7.11-51.3-10.65-15.64-3.24-31.26-6.51-46.91-9.69-1.34-.27-2.8.08-4.21.14.45,1.31.59,2.86,1.39,3.9,4.04,5.23,8.17,10.4,12.42,15.46,3.06,3.64,3.44,6.66.77,9.21-2.6,2.48-6.14,2.19-9.1-1.32-5.14-6.11-10.17-12.32-14.89-18.75-3.58-4.88-3.44-10.49-.17-15.05,3.5-4.88,8.29-6.49,14.15-5.28,33.47,6.94,66.94,13.88,100.42,20.74,6.2,1.27,10.69,4.39,11.89,10.83,1.2,6.42-1.82,10.93-7.08,14.47-17.26,11.58-34.57,17.58-52.94,17.53Z"/>
  <path class="cls-1" d="M95.17,263.43c-1.54-1.71-3.97-3.24-4.36-5.19-.37-1.8.89-5.2,2.38-5.9,7.32-3.42,14.91-6.33,22.51-9.1,2.75-1,5.3.27,6.48,3.05,1.21,2.84.71,5.85-2.19,7.13-7.53,3.31-15.25,6.17-22.9,9.19-.33.13-.74.07-1.11.1-.27.24-.54.48-.81.72Z"/>
  <path class="cls-1" d="M239.85,303.36c0-8.95,7.42-16.82,14.97-17.32,2.98-.2,5.06,1.19,5.97,4.06.87,2.75-.17,4.9-2.48,6.44-.81.54-1.82.79-2.73,1.19-4.45,1.97-4.95,3.27-3.05,7.82,1.56,3.73.68,6.74-2.44,8.26-3.04,1.49-6.19.29-7.88-3.43-1.22-2.68-1.9-5.6-2.36-7.02Z"/>
  <path class="cls-1" d="M43.7,179.22c.39-5.7,3.36-10.47,8.22-13.97,2.37-1.71,5.08-1.35,7.14.83,2.04,2.16,2.17,4.69.5,7.18-.55.82-1.36,1.46-2.02,2.2-3.13,3.54-3.06,4.95.35,8.11,3.2,2.97,3.68,6.13,1.32,8.8-2.33,2.65-5.55,2.6-8.95-.21-3.93-3.23-6.46-7.22-6.56-12.95Z"/>
  <path class="cls-1" d="M127.67,272.02c-.79.86-1.92,3.09-3.69,3.88-6.72,2.99-13.62,5.6-20.51,8.18-3.56,1.34-6.63-.01-7.76-3.05-1.18-3.19.09-6.11,3.61-7.56,6.69-2.75,13.42-5.43,20.19-7.97,4.29-1.6,8.28,1.09,8.15,6.52Z"/>
  <path class="cls-1" d="M141.41,286.83c-2.86-.12-4.94-1.89-5.04-4.48-.08-2,.97-5.21,2.44-5.9,7.3-3.41,14.85-6.33,22.44-9.08,2.9-1.05,5.5.37,6.67,3.3,1.09,2.71.53,5.62-2.17,6.8-7.62,3.33-15.42,6.22-23.16,9.27-.33.13-.74.06-1.18.09Z"/>
  <path class="cls-1" d="M363.05,244.53c1.41,1.12,3.59,2.03,4.2,3.56.67,1.69.15,4.02-.35,5.94-.28,1.06-1.64,1.81-2.42,2.78-2.54,3.14-2.41,4.51.57,7.29,3.41,3.18,3.97,6.36,1.59,9.04-2.3,2.6-5.83,2.43-9.27-.51-10.94-9.39-5.63-20.87,1.72-26.47.94-.72,2.25-.95,3.96-1.63Z"/>
  <path class="cls-1" d="M173.5,385.26c-7.46-.85-15.52-8.37-15.51-15.53,0-1.89,1.77-4.4,3.47-5.51,2.22-1.45,4.87-.56,6.61,1.7.59.77.89,1.77,1.29,2.68,2.18,4.85,3.38,5.31,8.32,3.16,3.41-1.49,6.47-.59,8,2.33,1.53,2.93.57,6.2-2.8,7.81-2.98,1.42-6.24,2.26-9.37,3.36Z"/>
  <path class="cls-1" d="M240.88,280.82c-5.21-.16-6.03.62-6.29,5.84-.2,4.06-2.31,6.32-5.84,6.28-3.27-.04-5.49-2.36-5.65-6.17-.54-12.72,8.51-19.33,21.2-17.1,3.04.53,4.63,2.91,4.29,6.1-.34,3.18-2.28,4.85-5.47,5.04-.74.05-1.49,0-2.24,0Z"/>
  <path class="cls-1" d="M127.71,348.42c.39-5.55,3.3-10.2,7.95-13.75,2.52-1.93,5.26-1.59,7.42.71,2.16,2.31,2.14,4.94.25,7.48-.52.69-1.23,1.24-1.81,1.89-3.1,3.51-3.02,4.98.39,8.12,3.2,2.94,3.66,6.11,1.28,8.79-2.2,2.48-5.54,2.49-8.68-.04-4.07-3.27-6.73-7.31-6.81-13.2Z"/>
  <path class="cls-1" d="M59.28,145.61c.32-2.08.49-4.21,1-6.25.83-3.36,3.65-5.2,6.64-4.56,3.13.66,4.87,3.19,4.55,6.69-.08.87-.32,1.71-.44,2.58-.58,4.35.45,6.07,4.5,7.6,3.24,1.22,4.83,3.99,4.01,7-.82,3.03-3.52,4.58-7.04,4.05-7.89-1.2-13.03-7.93-13.23-17.11Z"/>
  <path class="cls-1" d="M49.92,204.87c7.57.35,12.75,4.45,16.35,10.76,1.52,2.66.61,5.19-1.71,6.96-2.36,1.79-4.91,1.65-7.17-.35-.92-.82-1.63-1.88-2.48-2.79-2.48-2.66-4.96-4.32-8.69-1.64-2.66,1.9-5.59,1.24-7.58-1.45-1.91-2.58-1.36-5.21.77-7.46,2.84-2.99,6.45-4.09,10.51-4.04Z"/>
  <path class="cls-1" d="M366.57,226.41c.42-2.32.61-4.71,1.33-6.93.96-2.96,3.25-4.36,6.4-3.9,2.94.43,4.87,3.06,4.65,6.25-.1,1.49-.53,2.95-.58,4.44-.1,2.99.73,5.21,4.17,6.07,3.46.85,5.14,3.73,4.55,6.67-.64,3.18-3.25,4.8-7.13,4.44-7.43-.69-13.17-8.1-13.39-17.03Z"/>
  <path class="cls-1" d="M159.35,339c9.63.48,14.85,4.59,18.38,10.91,1.48,2.66.65,5.45-2.04,7.18-2.52,1.63-5.02,1.21-7.15-.84-1.07-1.03-1.91-2.3-2.96-3.35-2.24-2.24-4.52-3.12-7.57-.98-2.89,2.02-6.13,1.27-7.93-1.29-2.03-2.88-1.39-5.82,1.16-7.6,2.93-2.04,6.45-3.23,8.13-4.03Z"/>
  <path class="cls-1" d="M237.71,220.7c-1.73-1.84-3.87-3.27-4.74-5.25-1.08-2.46.02-5.19,2.6-6.28,7.43-3.15,14.94-6.11,22.52-8.88,2.63-.96,4.88.39,6.22,2.85,1.36,2.51,1.13,5.55-1.21,6.67-8.04,3.83-16.35,7.08-25.39,10.9Z"/>
  <path class="cls-1" d="M264.96,221.38c1.54,1.53,3.57,2.82,4.52,4.66,1.28,2.5.28,5.32-2.22,6.41-7.53,3.3-15.18,6.36-22.92,9.12-2.74.98-5.16-.63-6.3-3.4-1.07-2.61-.59-5.49,1.89-6.58,7.74-3.41,15.7-6.34,23.57-9.43.22-.09.49-.03.74-.05.24-.24.48-.49.72-.73Z"/>
  <path class="cls-1" d="M283.35,244.64c-1.58-1.54-3.74-2.8-4.61-4.67-1.2-2.59-.29-5.47,2.5-6.66,7.33-3.13,14.75-6.09,22.25-8.8,2.91-1.05,5.43.3,6.7,3.26,1.21,2.84.43,5.64-2.17,6.79-7.63,3.37-15.48,6.26-23.24,9.33-.22.09-.49.04-.74.06-.22.23-.45.46-.67.69Z"/>
</svg>