<?xml version="1.0" encoding="UTF-8"?>
<svg id="Layer_1" data-name="Layer 1" xmlns="http://www.w3.org/2000/svg" version="1.1" viewBox="0 0 428 428">
  <defs>
    <style>
      .cls-1 {
        fill: #000;
        stroke-width: 0px;
      }
    </style>
  </defs>
  <path class="cls-1" d="M208.09,416c-18.51-5.05-33.65-16.7-50.02-25.86-34.78-19.44-69.22-39.48-103.82-59.25-14.48-8.28-21.79-20.68-21.79-37.4.02-52.75,0-105.5,0-158.25,0-16.53,7.2-28.95,21.52-37.16,46.17-26.47,92.35-52.9,138.54-79.32,14.03-8.03,28.3-8.23,42.3-.26,46.7,26.59,93.33,53.29,139.89,80.12,13.74,7.92,20.62,20.25,20.65,36.08.1,53.14.1,106.28,0,159.43-.03,15.65-6.72,27.98-20.35,35.84-46.78,26.97-93.66,53.78-140.61,80.46-4.46,2.53-9.66,3.74-14.52,5.57h-11.81ZM54.45,113.88c1.06.73,1.46,1.05,1.91,1.31,51.69,29.98,103.4,59.94,155.02,90.03,2.54,1.48,4.04.58,5.98-.55,43.52-25.26,87.05-50.5,130.58-75.75,8.36-4.85,16.72-9.72,25.57-14.87-2.3-1.58-4.03-2.97-5.93-4.06-46.38-26.59-92.77-53.17-139.19-79.7-9.68-5.53-19.44-5.43-29.15.13-46.05,26.38-92.11,52.74-138.15,79.14-2.14,1.23-4.14,2.69-6.62,4.32ZM380.95,125.41c-2,1.12-3.03,1.67-4.05,2.26-50.92,29.52-101.82,59.06-152.78,88.49-2.63,1.52-3.53,3.11-3.53,6.13.1,58.39.07,116.78.07,175.18v4.52c3.1-1.4,5.68-2.33,8.03-3.66,46.21-26.39,92.39-52.84,138.58-79.26,9.9-5.66,14.75-14.18,14.75-25.53,0-52.88,0-105.76-.07-158.64,0-2.94-.61-5.89-1-9.49ZM207,401.89c.15-1.3.24-1.69.24-2.08,0-59.57-.01-119.14.08-178.71,0-2.68-1.37-3.59-3.26-4.69-48.53-28.14-97.04-56.31-145.56-84.47-3.57-2.07-7.19-4.08-11.55-6.56-.4,3.69-.99,6.63-.99,9.56-.06,52.88-.04,105.76-.04,158.64,0,11.36,4.85,19.84,14.76,25.5,46.31,26.47,92.59,52.99,138.91,79.45,2.22,1.27,4.67,2.14,7.42,3.37Z"/>
  <path class="cls-1" d="M214.17,140.7c-13.91-.23-24.83-8.58-26.84-20.93-1.08-6.65.98-12.47,5.51-17.34,9.16-9.86,24.86-11.88,36.45-4.81,8.4,5.13,12.73,13.69,11.07,22.94-1.85,10.35-9,15.88-18.48,18.85-2.47.77-5.14.88-7.72,1.29ZM213.9,126.98c7.19-.01,13.33-4.64,13.32-10.05,0-5.5-5.46-9.73-12.88-10.02-7.19-.28-13.81,4.52-13.8,10,.01,5.41,6.21,10.08,13.36,10.07Z"/>
  <path class="cls-1" d="M281.18,270.64c-.09-14.19,13.12-28.41,27.29-29.38,12.21-.83,21.01,8.73,19.34,21.03-1.75,12.9-13.16,24.23-26.09,25.91-11.09,1.44-20.46-6.58-20.53-17.56ZM299.61,274.91c6.82.03,15.55-9.28,15.1-16.1-.19-2.84-2.33-4.43-5.51-4.08-6.74.74-13.77,7.83-14.47,14.6-.36,3.49,1.45,5.56,4.89,5.58Z"/>
  <path class="cls-1" d="M287.72,333.26c-.12,14.56-13.88,28.58-28.48,29.01-12.25.36-20.89-10.59-17.77-22.96,3.2-12.7,11.39-20.74,24.16-23.72,11.68-2.72,22.18,5.83,22.09,17.67ZM269.67,328.63c-7.01-.01-15.39,8.51-15.28,15.54.05,3.17,2.13,4.92,5.49,4.62,6.64-.59,14.13-8.48,14.46-15.22.16-3.17-1.52-4.94-4.67-4.95Z"/>
  <path class="cls-1" d="M339.25,214.39c-11.17-.07-19.32-9.73-17.61-20.85,1.99-12.9,12.38-23.56,25.26-25.91,12.8-2.34,23.24,7.89,21.19,20.76-2.29,14.41-15.25,26.09-28.85,26.01ZM350.18,180.76c-6.36.16-13.24,6.44-14.94,13.65-1.1,4.63,1.7,7.42,6.38,6.35,6.51-1.49,12.27-7.74,13.34-14.46.54-3.4-1.38-5.62-4.77-5.54Z"/>
  <path class="cls-1" d="M165.23,315.17c14.47.1,29.04,15.22,28.6,29.69-.37,12.46-12.02,20.34-24.71,16.35-12.66-3.98-20.14-12.88-22.25-25.92-1.76-10.89,6.97-20.2,18.36-20.12ZM180.37,344.06c-.05-6.73-8.28-15.19-15.03-15.43-3.3-.12-5.36,1.82-5.21,4.91.32,6.63,7.73,14.48,14.4,15.24,3.38.39,5.86-1.62,5.84-4.72Z"/>
  <path class="cls-1" d="M175.41,268.07c-14.67-.19-28.68-14.38-28.72-29.09-.03-12.08,11.19-20.33,23.48-17.26,12.43,3.11,21.97,13.87,23.57,26.58,1.35,10.75-7.14,19.91-18.33,19.77ZM180.37,250.29c.12-7.01-8.45-15.68-15.28-15.65-2.9.01-4.8,1.23-4.95,4.31-.32,6.76,8.22,15.61,15.03,15.7,3.14.04,4.91-1.38,5.2-4.36Z"/>
  <path class="cls-1" d="M88.64,308.41c-14.92.15-29.43-14.35-29.33-29.3.08-11.73,11.03-19.95,22.92-17.2,12.64,2.92,22.47,13.73,24.12,26.51,1.38,10.66-6.79,19.88-17.71,19.99ZM77.93,274.95c-2.9-.11-4.87,1.06-5.15,4.11-.64,6.92,8.65,16.3,15.61,15.89,3-.18,4.61-1.76,4.59-4.71-.04-6.82-8.3-15.14-15.05-15.28Z"/>
  <path class="cls-1" d="M87.94,214.38c-16.43-.29-31.74-18.6-28.03-33.53,2.24-9.05,11.04-14.85,20.29-13.38,13.52,2.15,24.31,13.21,26.14,26.79,1.47,10.93-7.11,20.32-18.39,20.12ZM93,196.33c.11-6.77-8.58-15.61-15.31-15.58-3.05.02-5.04,1.96-4.95,4.83.22,6.69,8.1,14.93,14.7,15.37,3.29.22,5.51-1.62,5.55-4.63Z"/>
</svg>