<?xml version="1.0" encoding="UTF-8"?>
<svg id="Layer_1" data-name="Layer 1" xmlns="http://www.w3.org/2000/svg" version="1.1" viewBox="0 0 428 428">
  <defs>
    <style>
      .cls-1 {
        fill: #000;
        stroke-width: 0px;
      }
    </style>
  </defs>
  <path class="cls-1" d="M238,406h-48c-2.72-.23-5.44-.58-8.17-.68-30.09-1.1-60.07-3.47-89.8-8.37-16.51-2.72-32.9-6.07-48.37-12.72-9.13-3.93-17.96-8.43-21.67-18.74v-30.75c3.2-8.27,9.92-12.85,17.46-16.5,13.37-6.47,27.71-9.77,42.14-12.75,2.11-.44,4.22-.89,6.71-1.41-.85-1.23-1.34-1.95-1.84-2.65-10.13-14.14-15.22-29.8-15.01-47.31.26-20.98.16-41.98,0-62.96-.05-6.88,2.24-12.7,7.51-16.8,4.88-3.79,10.09-7.71,15.8-9.77,12.28-4.41,24.93-7.83,37.52-11.31,5.34-1.47,10.92-2.07,16.42-3.07-.76-2.96-1.56-5.46-2.02-8.03-.46-2.57-.74-5.2-.82-7.81-.2-7.33,4.65-12.85,11.9-13.2,2.44-.12,3.45-1.13,4.4-3.08,3.94-8.07,7.85-16.16,12.07-24.09,6.03-11.34,19.76-13.45,29.12-4.64,2.36,2.23,4.46,4.76,6.98,6.79,1.12.9,3.12,1.53,4.46,1.2,11.83-2.88,21.39.62,29.02,9.86,1.33,1.6,2.52,3.32,3.97,5.26,1.11-1.47,1.93-2.53,2.72-3.62,8.73-12.18,17.22-24.54,26.21-36.52,25.89-34.49,69.96-46.75,110.2-31.3,8.99,3.45,16.19,8.06,19.06,17.72v8.25c-4.16,12.88-13.32,17.58-26.4,17.11-12.86-.46-25.76-.41-38.61.08-19.92.76-36.99,8.71-48.94,24.55-9.26,12.27-16.35,26.18-24.7,39.83,2.14.4,3.35.63,4.56.86,14.32,2.78,28.76,5.08,42.93,8.48,11.78,2.83,23.16,7.17,32.77,15.01,5.95,4.86,9.02,10.93,8.94,18.87-.22,21.12-.19,42.25-.04,63.37.12,16.7-4.84,31.69-14.3,45.31-.75,1.08-1.51,2.16-2.49,3.56,1.33.32,2.14.55,2.97.71,15.57,3.07,31.06,6.41,45.5,13.32,7.67,3.68,14.55,8.26,17.81,16.68v30.75c-2.39,6.9-7.28,11.76-13.66,14.68-8.25,3.77-16.63,7.53-25.34,9.95-33.62,9.36-68.21,12.2-102.87,14.36-8.71.54-17.42,1.01-26.13,1.51ZM83.98,234.11c0,7.19.05,14.76-.01,22.33-.12,13.44,3.93,25.59,11.53,36.55,13,18.75,31.28,30.59,52.1,38.81,32.09,12.68,65.29,15.08,99.08,9.43,24.59-4.11,47.48-12.77,67.21-28.48,14.02-11.17,25.3-24.68,28.47-42.72,1.93-10.96,1.2-22.38,1.64-33.59.04-.92-.18-1.85-.26-2.67-6.12,2.75-11.86,5.77-17.9,7.97-28.01,10.21-57.3,13.26-86.78,14.96-23.87,1.38-47.73.74-71.52-1.55-19.29-1.86-38.47-4.63-56.97-10.58-8.95-2.88-17.54-6.86-26.58-10.46ZM216.81,368.77c29.87.11,62.54-1.5,95.05-5.61,19.95-2.52,39.81-5.75,58.96-12.06,6.91-2.28,13.57-5.61,19.93-9.2,3.91-2.2,3.88-5.24.09-7.65-5.12-3.25-10.48-6.62-16.22-8.27-13.76-3.96-27.8-6.91-41.7-10.37-2.35-.58-3.95-.01-5.68,1.61-8.43,7.92-17.96,14.33-28.26,19.53-33.63,17-69.34,22.43-106.58,18.41-34.69-3.74-66.32-15-92.71-38.76-.84-.76-2.56-1.14-3.7-.9-11.47,2.42-23.08,4.4-34.28,7.75-8.26,2.47-16.21,6.35-23.84,10.45-4.82,2.59-4.6,5.85.1,8.83,4.07,2.58,8.5,4.78,13.02,6.46,17.88,6.63,36.55,10.02,55.33,12.78,35.67,5.24,71.57,7.04,110.49,6.99ZM136.7,165.26c-1.09.06-1.86-.03-2.55.16-9.03,2.42-18.26,4.33-27.01,7.52-6.7,2.45-13.19,5.99-19.06,10.07-5.77,4-5.69,8.7.1,12.73,5.36,3.73,11.31,6.93,17.44,9.2,25.31,9.36,51.83,12.59,78.57,14.29,26.24,1.67,52.47,1.25,78.62-1.57,20.4-2.2,40.61-5.47,59.89-12.79,5.66-2.15,11.23-4.96,16.22-8.37,6.92-4.73,6.82-9.57,0-14.53-3.8-2.76-8.04-5.09-12.37-6.91-20.25-8.5-41.73-11.71-63.35-14.21-.88-.1-2.17.08-2.68.65-2.5,2.81-4.81,5.8-7.49,9.1,3.66,0,6.78-.04,9.89,0,10.86.17,19.12,8.1,19.23,18.44.12,10.26-8.13,18.73-18.87,18.77-33.62.12-67.25.18-100.87-.03-14.14-.09-25.49-9.73-28.32-23.34-1.36-6.53-.37-12.87,2.6-19.17ZM158.72,133.56c-1.23,12.47,8.49,28.48,19.71,32.73.92.35,2.39-.43,3.5-.94,4.72-2.15,9.21-5.33,14.15-6.35,5.77-1.19,11.93-.58,17.92-.66,7.28-.09,13.81,2.22,19.32,6.92,1.86,1.59,3.13,1.25,4.9.2,6.07-3.58,10.78-8.42,14.22-14.57,6.69-11.99,13.43-23.96,20.2-35.91,16.34-28.85,41.11-43.32,74.25-43.45,12.62-.05,25.25.03,37.87-.04,4.37-.03,7.66-2.69,8.51-6.51.95-4.24-.8-8.03-4.9-9.86-10.45-4.67-21.26-8.1-32.82-8.29-29.47-.48-53.07,11.09-70.46,34.96-8.9,12.22-17.71,24.51-26.34,36.91-7.08,10.18-16.68,14.97-28.99,14.89-15.75-.1-31.5-.02-47.25-.02-7.86,0-15.72,0-23.82,0ZM34.77,355.17c-1.09,8.95-.29,11.16,7.11,14.58,6.54,3.02,13.33,5.69,20.26,7.64,34.59,9.73,70.12,13.64,105.85,14.88,30.07,1.04,60.22.89,90.3.08,32.37-.87,64.52-4.56,96.14-11.92,11.79-2.74,23.57-5.7,34.1-12.02,5.31-3.19,6.43-6.88,4.32-12.86-3.85,1.75-7.63,3.66-11.56,5.2-3.94,1.55-7.98,2.91-12.06,4.05-34.38,9.62-69.69,12.76-105.12,14.93-33.47,2.05-66.94,2-100.41,0-27.32-1.63-54.56-4.1-81.46-9.32-16.3-3.16-32.41-7.04-47.48-15.25ZM84.32,209c-1.27,5.15.16,9.37,4.62,12.31,3.01,1.99,6.08,3.97,9.36,5.45,19.47,8.75,40.25,12.36,61.22,14.99,28.48,3.57,57.08,4,85.7,2.17,23.97-1.53,47.81-4.38,70.71-12.01,8.08-2.69,15.85-6.63,23.25-10.88,5.15-2.96,5.77-6.65,4.26-11.89-5.86,2.63-11.61,5.65-17.66,7.85-28.14,10.22-57.55,13.31-87.17,14.96-25.88,1.44-51.73.65-77.48-2.26-20.13-2.27-40.09-5.57-59.15-12.76-6.01-2.27-11.75-5.25-17.66-7.92ZM207.7,195.34c5.99,0,11.97.06,17.96-.02,4.93-.06,7.47-3.13,6.82-8.06-1.23-9.48-8.61-16.29-18.21-16.63-4.36-.15-8.73-.17-13.09.01-9.75.39-17.59,7.94-18.02,17.14-.23,5.06,1.95,7.49,6.95,7.54,5.86.06,11.72.01,17.58.01ZM155.23,163.84c-7.08,3.34-10.85,10.77-8.83,18.57,2.83,10.95,12.14,14.84,24.07,12.46.56-5.95,1.09-11.68,1.58-16.9-5.47-4.6-10.96-9.21-16.82-14.13ZM174.64,120.75h20.06c2.38-5.55,4.5-10.5,6.86-16-1.96-1.87-4.34-4.25-6.85-6.49-3.18-2.84-7.28-2.48-9.24,1.14-3.72,6.87-7.09,13.93-10.83,21.35ZM244.57,183.22v12.05c6.42,0,13.15.2,19.85-.09,3.26-.14,5.1-2.5,5.17-5.83.07-3.32-1.67-5.85-4.92-6.03-6.56-.35-13.16-.11-20.11-.11ZM237.96,120.51c-6.24-9.97-11.88-13.14-19.22-11.38-5.53,1.32-9.83,6.22-10.24,11.38h29.46Z"/>
  <path class="cls-1" d="M170.5,22c.25,5.16-2.49,8.7-6.32,11.63-1.95,1.49-3.94,2.93-6.55,4.86,8.37,6.05,17.43,11.79,10.83,23.61-4.2,7.52-13.06,10.71-22.54,8.98.15-5.39,3.18-8.97,7.36-11.87,6.34-4.39,6.21-3.99.18-8.29-10.39-7.42-10.27-17.51.14-25.03,1.53-1.1,2.77-2.59,4.15-3.9,4.25,0,8.5,0,12.75,0Z"/>
  <path class="cls-1" d="M244.75,22c.39,5.2-2.46,8.68-6.25,11.63-1.94,1.51-3.95,2.93-6.59,4.87,8.46,5.99,17.44,11.77,10.89,23.58-4.17,7.52-12.92,10.67-22.48,9.04-.09-8.42,7.2-11.25,12.75-16.18-2.05-1.54-3.76-2.87-5.52-4.15-9.98-7.25-9.97-17.36-.01-24.59,1.8-1.31,3.47-2.8,5.21-4.21,4,0,8,0,12,0Z"/>
  <path class="cls-1" d="M195.25,22c.3,5.17-2.48,8.69-6.3,11.63-1.94,1.5-3.94,2.92-6.57,4.86,8.36,6.05,17.47,11.76,10.86,23.6-4.19,7.5-12.94,10.67-23.57,8.84,1.85-3.26,3.11-6.52,5.27-9.01,2.22-2.56,5.32-4.36,8.61-6.94-2.01-1.52-3.62-2.79-5.28-3.99-10.39-7.5-10.37-17.55.04-25.04,1.71-1.23,3.29-2.64,4.93-3.96,4,0,8,0,12,0Z"/>
  <path class="cls-1" d="M220,22c.34,5.19-2.47,8.69-6.27,11.63-1.94,1.5-3.94,2.93-6.55,4.86,8.31,6.06,17.47,11.75,10.85,23.61-4.19,7.49-12.93,10.66-23.57,8.85,1.85-3.26,3.11-6.52,5.27-9.01,2.23-2.56,5.33-4.36,8.6-6.94-2-1.52-3.61-2.79-5.26-3.98-10.4-7.5-10.38-17.56.02-25.04,1.71-1.23,3.28-2.64,4.92-3.97,4,0,8,0,12,0Z"/>
</svg>