<?xml version="1.0" encoding="UTF-8"?>
<svg id="Layer_1" data-name="Layer 1" xmlns="http://www.w3.org/2000/svg" version="1.1" viewBox="0 0 428 428">
  <defs>
    <style>
      .cls-1 {
        fill: #000;
        stroke-width: 0px;
      }
    </style>
  </defs>
  <path class="cls-1" d="M268.75,22c.43.22.84.52,1.3.64,13.13,3.36,21.24,12.78,22.26,25.88.92,11.8-5.97,22.76-17.96,27.51-3.75,1.48-4.78,3.35-4.95,7.23-1.43,32.91-29.66,61.02-62.51,62.55-1.34.06-2.69.17-4.41.27v10.91h-11.25v-10.83h-11.26v10.81h-11.27v-11c-3.52,0-6.5-.16-9.44.12-.71.07-1.76,1.54-1.84,2.43-.24,2.71-.09,5.45-.09,8.45h-11.21v-11.24c-6.3.33-12.1.05-17.67,1.05-8,1.44-13.98,8.95-14.86,17.31-.88,8.4,2.99,15.56,10.98,19.02,3.46,1.5,7.4,2.46,11.16,2.59,9.86.35,19.75.21,29.62.03,1.66-.03,3.63-.81,4.89-1.9,5.88-5.07,12.65-8.46,20.3-8.71,15.98-.53,31.98-.35,47.97-.45.21,0,.42.21.91.46-.54.93-1.02,1.88-1.62,2.75-7.54,11.04-15.02,22.11-22.7,33.05-1.6,2.28-1.76,3.79-.08,6.16,7.63,10.82,15.03,21.81,22.49,32.74.68,1,1.29,2.05,1.91,3.04-.39.32-.57.59-.75.59-15.62-.09-31.24.08-46.84-.41-8.1-.25-15.02-4.14-21.3-9.21-1.48-1.2-3.7-2.07-5.58-2.08-18.5-.13-37,.18-55.49-.08-27.14-.39-49.58-11.07-67.24-31.72-.65-.76-1.26-1.56-1.86-2.35-.37-.49-.71-1.01-1.29-1.84,2.92-2.16,5.79-4.29,7.74-5.74,5.27,5.17,10.3,10.11,15.48,15.19,1.92-1.82,2.92-2.73,3.88-3.69,11.56-11.59,23.08-23.23,34.72-34.75,1.81-1.79,2.41-3.44,1.86-5.92-.53-2.4-.49-4.93-.72-7.63H33.26c2.6,8.75,5.09,17.13,7.73,26.04-2.52,1.32-5.67,2.96-9.1,4.75-4.36-8.06-6.97-16.43-8.42-25.2-.53-3.19-.98-6.38-1.47-9.58,0-3.25,0-6.5,0-9.75.86-5.02,1.43-10.11,2.61-15.06,9.58-40.06,44.42-67.24,86.39-67.33,46.49-.1,92.98-.04,139.46-.06,1.39,0,2.78,0,4.81,0-5.37-7.85-12.09-11.23-20.54-11.24-20.62-.03-41.24,0-61.86,0-1.32,0-2.65,0-4,0v-11.19c23.31,0,46.3-.3,69.28.14,9.95.19,18.18,5.1,24.32,13.02,2.04,2.63,3.58,5.66,5.36,8.54,6.28-.83,11.7-6.14,12.93-12.7,2.09-11.15-5.79-20.32-17.64-20.34-37.49-.04-74.98-.02-112.47-.02-1.45,0-2.9,0-4.9,0v-11.25c41,0,82,0,123,0ZM157.71,78.58v55.93c.98.07,1.71.17,2.43.17,14.62,0,29.25.2,43.87-.08,23.63-.45,44.22-15.84,51.63-38.29,1.87-5.67,3.15-11.48,2.52-17.72h-100.45ZM33.56,151.16c.82.33,1.05.49,1.28.49,22.62.03,45.23.07,67.85.01.91,0,2.05-.69,2.69-1.41,1.56-1.77,2.88-3.75,4.41-5.8-13.18-18.23-26.39-36.51-39.77-55.01-22.45,14.84-34.6,35.13-36.45,61.71ZM118.39,138.51c8.77-4.93,18.19-3.54,27.49-3.89v-56.42c-22.01,1.36-44.23-3.14-65.66,6.2,12.76,18.09,25.33,35.9,38.18,54.11ZM73.2,221.02c15.89,9.05,32.92,10.31,50.69,9.19,0-11.11.03-21.94-.06-32.78,0-.77-.7-1.79-1.38-2.24-4.71-3.15-9.5-6.18-13.96-9.05-11.34,11.21-23.21,22.94-35.29,34.88ZM218.66,185.92c-7.47,0-13.94-.03-20.41.02-2.12.01-4.25.07-6.35.36-11.2,1.53-21.58,11.61-22.59,22.19,10.85,0,21.66.02,32.48-.05.74,0,1.74-.53,2.16-1.13,4.77-6.82,9.45-13.7,14.71-21.39ZM218.37,241.81c-4.57-6.69-9.06-13.1-13.35-19.63-1.27-1.93-2.73-2.5-4.94-2.47-9.24.1-18.48.04-27.71.06-1.05,0-2.11.16-3.19.25,2.13,11.22,11.54,20.63,22.76,21.64,8.52.77,17.17.15,26.44.15ZM135.32,230.28h25.1c-4.66-11.05-4.43-21.94.11-32.82h-25.22v32.82Z"/>
  <path class="cls-1" d="M280.75,406c-9.41-7.43-18.75-14.94-28.31-22.18-1.31-1-3.73-.97-5.56-.77-6.92.79-13.81,1.84-21.2,2.87-.28-3.94-.53-7.38-.82-11.31,5.2-.65,10.36-1.18,15.49-1.94,18.12-2.68,35.52-7.9,52.53-14.64,26.09-10.35,52.27-20.49,78.41-30.72.89-.35,1.76-.74,3.36-1.42-7.56-2.96-14.48-5.7-21.43-8.39-25.48-9.86-50.64-20.67-76.52-29.35-50.33-16.89-100.49-14.84-149.95,4.48-2.32.91-3.25,1.98-3.24,4.57.12,19.25.1,38.5.02,57.75,0,2.2.67,3.22,2.78,4.08,19.34,7.85,39.36,12.85,60.13,14.85,1.12.11,2.23.28,3.34.45.47.07.94.2,1.75.38-.32,3.62-.63,7.16-1.01,11.53-10.91-1.84-21.52-3.33-31.99-5.47-15.08-3.08-29.37-8.69-43.77-14.05-5.43-2.02-12.28-1.07-18.32-.28-4.36.57-6.96,5.69-6.88,10.44.09,4.62,2.79,8.72,6.89,10.26,1.28.48,2.64.72,4.12,1.11v10.68c-10.95.61-20.04-7.29-21.96-18.93-1.84-11.15,4.95-22.12,15.67-24.87,2.98-.76,6.17-.77,9.27-.94,2.72-.15,5.45-.03,8.45-.03v-11.16c-1.2-.06-2.51-.17-3.82-.17-12.75-.01-25.5-.01-38.25,0-8.48,0-13.39,3.35-14.17,9.65-.82,6.6,2.79,11,10.97,13.28v10.67c-10,.42-19.08-6.74-21.66-16.9-2.58-10.15,2.21-21.1,11.72-25.43,3.4-1.55,7.42-2.33,11.18-2.41,13.24-.28,26.5-.11,39.75-.11,1.35,0,2.69,0,4.3,0v-11.12c-1.41,0-2.75,0-4.08,0-13.75,0-27.5.13-41.25-.05-11.4-.15-20.89-8.74-22.14-19.6-1.34-11.66,5.71-22.03,16.98-24.87,1.54-.39,3.17-.45,5.11-.7v10.88c-7.43,2.28-10.66,5.52-10.93,10.99-.3,6.11,3.88,11.74,10.01,11.89,15.34.36,30.69.12,46.3.12v-11.23c-3.47,0-7.04.07-10.6-.01-12.66-.31-21.2-7.74-22.91-19.87-1.91-13.49,8.65-25.56,22.03-24.96v10.62c-5.05.82-9.08,3.05-10.52,8.51-1.74,6.62,1.94,13.14,8.68,14.01,6.12.79,12.2,1.1,18.33-1.55,42.04-18.22,85.73-23.22,130.91-15.68,1.58.26,3.72-.27,5-1.23,8.68-6.55,17.22-13.27,25.73-20.03,1.57-1.25,2.69-1.63,4.55-.43,40.32,25.96,80.69,51.85,121.05,77.77.3.19.54.48,1.17,1.07-4.06,2.64-7.95,5.19-11.88,7.71-36.58,23.47-73.16,46.93-109.74,70.41-.82.53-1.55,1.2-2.33,1.8h-.75ZM348.43,349.11c-.04-.13-.08-.27-.12-.4-27.44,10.41-54.88,20.83-82.3,31.24,4.09,3.2,8.66,6.65,13.06,10.3,1.81,1.5,3.15,1.72,5.19.3,5.03-3.48,10.26-6.67,15.4-9.99,16.26-10.48,32.52-20.97,48.77-31.45ZM281.62,259.71c-5.51,4.31-10.74,8.41-15.54,12.17,27.41,10.45,54.6,20.81,81.79,31.17.09-.15.17-.31.26-.46-22.09-14.24-44.17-28.48-66.51-42.88Z"/>
  <path class="cls-1" d="M379.99,230.32h-93.76c4.75-9.57,9.3-18.73,13.97-28.14-6.98-7.63-13.96-15.28-20.95-22.92-4.72-5.16-9.52-10.26-14.15-15.5-7.98-9.03-7.54-21.21.96-29.67,35.97-35.79,94.55-36.35,131.32-1.24,9.95,9.5,10.78,23.66,1.51,33.85-10.01,10.99-20.35,21.68-30.69,32.35-1.98,2.04-2.29,3.55-.95,6.08,4.3,8.13,8.33,16.41,12.75,25.19ZM338.03,140.24h-11.35v-21.7c-13.26.72-25.01,4.59-37.31,11.61,6.59,6.04,12.71,11.67,18.14,16.65-2.71,3.32-4.97,6.09-7.43,9.11-6.77-6.65-13.15-12.93-19.78-19.44-1.86,1.66-3.95,3.42-5.92,5.3-4.73,4.55-4.94,10.04-.51,14.9,11.61,12.74,23.23,25.48,34.96,38.11,1.02,1.1,2.91,1.82,4.44,1.91,4.3.26,8.63.09,12.95.09v11.28c-4.67,0-9.13-.07-13.6.05-1.11.03-2.74.38-3.19,1.13-1.81,3.04-3.26,6.3-4.92,9.65h57.04c-1.45-2.94-2.88-5.42-3.91-8.05-.87-2.23-2.22-2.9-4.52-2.83-5.07.15-10.14.05-15.11.05v-11.28c4.93,0,9.55.08,14.16-.05,1.25-.04,2.88-.33,3.67-1.15,11.71-12.13,23.41-24.28,34.87-36.65,4.09-4.41,4.54-11.39,1.33-15.25-2.27-2.73-5.12-4.99-8.53-8.24-6.58,6.96-12.79,13.54-18.45,19.54-2.94-2.76-5.53-5.19-8.73-8.2,5.78-5.86,11.59-11.75,17.39-17.63-10.75-6.07-22.52-9.97-35.7-10.58v21.66Z"/>
  <path class="cls-1" d="M213.47,375.31v10.8h-10.9v-10.8h10.9Z"/>
  <path class="cls-1" d="M151.48,320.92h-10.84v-10.79h10.84v10.79Z"/>
  <path class="cls-1" d="M151.44,343.47h-10.75v-10.75h10.75v10.75Z"/>
  <path class="cls-1" d="M134.57,44.85v10.66h-10.93v-10.66h10.93Z"/>
  <path class="cls-1" d="M146.22,44.74h10.73v10.85h-10.73v-10.85Z"/>
  <path class="cls-1" d="M224.94,90.11v10.51h-10.9v-10.51h10.9Z"/>
  <path class="cls-1" d="M326.88,157.72h10.81v10.62h-10.81v-10.62Z"/>
</svg>