<?xml version="1.0" encoding="UTF-8"?>
<svg id="Layer_1" data-name="Layer 1" xmlns="http://www.w3.org/2000/svg" version="1.1" viewBox="0 0 428 428">
  <defs>
    <style>
      .cls-1 {
        fill: #000;
        stroke-width: 0px;
      }
    </style>
  </defs>
  <path class="cls-1" d="M411.74,212.06c-.14,110.78-89.32,199.52-201.09,198.68-109.19-.82-196.52-89.43-196.59-198.55C13.99,101.7,103.3,12.86,213.59,13.11c109.13.26,198.29,89.78,198.15,198.95ZM392.4,258.09c25.08-91.68-27.59-198.27-133.18-225.74C154.7,5.16,49.25,72.62,30.14,179.61c-18.48,103.48,53.05,204.7,162.45,216.83,102.18,11.33,180.33-60.78,198.32-134.12-1.4,1.33-2.5,2.33-3.55,3.37-38.38,38.38-76.75,76.76-115.14,115.13-4.85,4.85-7.78,4.83-12.61.03-5.29-5.26-10.55-10.54-15.82-15.82-5.38-5.39-5.61-7.28-1.52-13.58,27.59-42.47,55.19-84.94,82.79-127.4,4.45-6.85,8.05-7.23,13.8-1.48,4.45,4.45,8.87,8.92,13.41,13.49,2.69-2.86,4.92-5.3,7.23-7.67,4.35-4.46,8.24-4.22,12.05.81,5.67,7.48,11.32,14.98,16.89,22.54,1.52,2.07,2.72,4.37,3.94,6.35ZM265.48,367.63c36.94-36.95,73.59-73.62,110.46-110.51-3.48-4.64-7.24-9.64-11.21-14.93-36.7,38.77-72.98,77.09-109.18,115.34,3.66,3.73,6.92,7.05,9.92,10.11ZM333.24,235.84c-13.37,20.57-26.55,40.87-39.74,61.17.21.15.42.3.63.45,16.32-17.24,32.65-34.48,48.99-51.74-3.39-3.39-6.4-6.41-9.87-9.88Z"/>
  <path class="cls-1" d="M294.43,103.23c10.9-7.26,21.61-14.32,32.25-21.5,2.92-1.97,5.81-3.43,9.13-1.16,3.44,2.35,3.58,5.71,2.23,9.22-5.78,15.14-5.87,30.26-.03,45.41,1.34,3.48,1.31,6.87-2.11,9.27-3.47,2.45-6.47.78-9.48-1.25-10.3-6.94-20.73-13.69-30.95-20.76-3.15-2.18-6.15-3.25-9.96-2.47-3.06.63-6.22.78-9.53,1.51,26.1,9.79,47.72,25.53,64.62,47.98,1.39-.85,2.67-1.58,3.88-2.39,9.88-6.57,19.77-13.14,29.62-19.76,2.8-1.88,5.62-2.38,8.43-.24,2.6,1.99,3.36,4.76,2.21,7.78-6.06,15.95-6.22,31.86-.04,47.82,1.23,3.18.42,6.05-2.41,8.07-2.89,2.06-5.69,1.29-8.44-.56-11.23-7.53-22.45-15.09-33.81-22.44-1.67-1.08-4.09-1.72-6.05-1.52-37.1,3.94-74.3,6.34-111.62,5.76-25.44-.4-49.49-6.19-70.91-20.61-3.08-2.07-5.94-4.5-8.74-6.95-3.13-2.73-3.54-5.9-1.46-9.63,6.03-10.82,14.11-19.71,24.32-26.69.89-.61,1.78-1.22,3.53-2.4-4.74-.6-8.61-1.01-12.45-1.59-21.51-3.2-41.5-10.11-58.45-24.28-5.67-4.74-6.12-7.05-2.18-13.45,13.14-21.4,32.44-34.82,56.96-38.12,52.51-7.07,98.37,6.98,134.85,46.92,2.22,2.44,4.19,5.1,6.57,8.02ZM219.2,178.69v-52.63c-21.48-1.88-52.18,11.7-59.48,26.49h39.67v13.08h-30.09c15.52,8.43,32.06,12.4,49.89,13.07ZM122.99,99.22c15.58,8.56,32.18,12.62,49.77,13.11v-52.65c-22.17-1.4-53.33,12.48-59.29,26.48h39.49v13.06h-29.97ZM186.54,113.12c27.18-1.33,53.84-2.63,80.49-3.94.02-.49.03-.97.05-1.46-25.73-10.74-52.52-15.95-80.54-15.42v20.81ZM233.01,158.98v20.42c27.02-1.31,53.74-2.61,80.45-3.91-15.71-10.29-63.15-19.43-80.45-16.51ZM312.06,158.64c-22.66-19.65-48.95-30.31-78.99-32.2v18.72c27.3-.22,53.49,4.26,78.99,13.48ZM265.66,92.34c-22.64-19.65-48.94-30.31-79.01-32.21v18.73c27.29-.23,53.49,4.25,79.01,13.48ZM367.12,189.73c-2.11-7.34-2.1-14.4-.02-21.74-5.3,3.53-10.59,7.05-16.31,10.86,5.86,3.91,11.1,7.39,16.33,10.88ZM320.73,101.66c-5.29,3.53-10.58,7.06-16.35,10.91,5.83,3.86,11.09,7.35,16.35,10.84-2.36-7.44-2.02-14.41,0-21.75Z"/>
  <path class="cls-1" d="M53.78,265.33c.07-44.62,35.72-79.97,80.5-79.82,43.29.14,78.71,36.24,78.58,80.09-.13,43.47-36.18,79.21-79.68,79.01-43.8-.2-79.46-35.82-79.39-79.28ZM199.6,265.03c-.12-36.57-29.79-66.33-66.09-66.27-36.98.06-66.54,29.72-66.48,66.71.06,36.44,30.13,66.04,66.91,65.87,36.08-.17,65.77-30.16,65.66-66.31Z"/>
  <path class="cls-1" d="M65.24,185.5c-5.93,0-11.87.16-17.8-.05-5.47-.2-8.57-4.73-6.15-9.43,9.38-18.19,19.4-36.07,34.6-50.15,12.52-11.6,27.5-13.52,43.21-7.89,13.55,4.86,19.63,19.48,15.43,35.02-5.11,18.87-16.64,28.15-38.35,30.79-4.65.57-9.31,1.26-13.98,1.48-5.64.26-11.31.06-16.96.06,0,.06,0,.12,0,.18ZM106.81,167.22c8.97-1.85,16.7-14.43,14.98-24.19-4.61,2.68-9.14,5.25-13.58,7.96-.67.41-1.32,1.47-1.34,2.24-.12,4.63-.06,9.26-.06,13.98ZM115.63,131.23c-10.57-4.85-25.54-2.53-29.24,4.2,4.42,1.12,8.79,2.29,13.21,3.28,1.11.25,2.56.27,3.51-.24,4.1-2.2,8.07-4.64,12.52-7.24ZM93.26,170.99v-11.35c-7.09,4.14-13.75,8.03-20.42,11.92.11.32.22.64.33.96,6.67-.51,13.35-1.02,20.09-1.54ZM85.25,148.93c-3.44-.94-5.65-1.72-7.92-2.08-1-.16-2.59.21-3.14.94-2.8,3.65-5.36,7.49-8,11.26l.63.65c5.83-3.41,11.67-6.82,18.44-10.77Z"/>
  <path class="cls-1" d="M246.31,257.61c-16.91,2.39-29.48-5.36-32.77-19.99-3.02-13.41,4.69-26.79,17.84-30.97,14.51-4.61,27.23,2.55,34.24,19.48,8.76-2.04,16.87-.45,23.93,5.36,5.23,4.3,8.2,9.96,9.26,16.6,2.04,12.73-6.46,25.74-19.06,29.24-14.36,3.99-26.58-3.15-33.44-19.71ZM272.55,265.09c7.28-.01,13.15-5.85,13.22-13.12.07-7.46-5.96-13.52-13.36-13.42-6.68.09-13.16,6.74-13.13,13.48.03,7.21,6,13.08,13.27,13.07ZM239.37,218.6c-7.29,0-13.17,5.82-13.24,13.1-.07,7.48,5.93,13.53,13.33,13.44,6.68-.08,13.18-6.72,13.15-13.45-.03-7.22-5.97-13.09-13.25-13.09Z"/>
  <path class="cls-1" d="M245.4,298.39c0,8.82.98,17.35-.22,25.57-1.92,13.12-10.16,21.73-22.85,25.69-2.57.8-3.68,2.02-4.44,4.53-4.22,14.02-16.54,23.3-31.09,23.55-6.6.11-13.2.02-19.75.02-3.76-19.27,10.56-42.28,39.17-39.87-.89-13.71,2.69-25.66,14.52-33.87,7.49-5.2,15.91-6.48,24.66-5.62ZM204.61,351.53c-11.92-1.17-21.42,4.15-23,12.71,11.44,1.15,19.72-3.32,23-12.71ZM219.82,336.37c9.59-3.45,14.93-13.79,12.25-23.18-9.07,3.29-13.54,11.61-12.25,23.18Z"/>
  <path class="cls-1" d="M53.58,205.6v12.74h-12.81v-12.74h12.81Z"/>
  <path class="cls-1" d="M305.5,66.45v12.74h-12.75v-12.74h12.75Z"/>
  <path class="cls-1" d="M272.26,59.44h-12.65v-12.87h12.65v12.87Z"/>
  <path class="cls-1" d="M226.39,271.77h12.65v12.87h-12.65v-12.87Z"/>
  <path class="cls-1" d="M365.19,126.15v12.67h-12.89v-12.67h12.89Z"/>
  <path class="cls-1" d="M292.12,218.46h-12.73v-12.75h12.73v12.75Z"/>
  <path class="cls-1" d="M135.33,318.09c-2.49,0-4.97.04-7.46,0-5.37-.1-7.83-2.61-7.78-7.92.17-21.32,17.06-41.17,38.21-44.2,7.05-1.01,14.3-.82,21.46-.82,4.33,0,6.59,3.03,6.55,7.83-.19,21.34-17.1,41.02-38.2,44.28-4.21.65-8.5.77-12.75,1.14l-.03-.3ZM172.07,278.54c-19.47-1.42-35.84,9.99-37.63,26.02,18.64,1.97,34.79-9.12,37.63-26.02Z"/>
  <path class="cls-1" d="M106.58,258.41c-10.77-.05-19.69-9.08-19.65-19.87.05-11.04,9.07-19.97,20.07-19.87,10.82.1,19.66,9.03,19.65,19.86,0,11-9.03,19.93-20.08,19.87ZM113.4,238.48c-.03-3.57-2.99-6.52-6.55-6.54-3.73-.02-6.79,3.14-6.65,6.86.14,3.56,3.2,6.43,6.75,6.34,3.56-.09,6.47-3.1,6.44-6.66Z"/>
  <path class="cls-1" d="M80.44,271.83h12.79c1.04,3.6,2.91,6.59,7.25,6.41,3.92-.17,5.67-2.91,6.58-6.36h12.76c.14,10.74-8.59,19.53-19.33,19.68-10.9.15-19.7-8.33-20.05-19.73Z"/>
  <path class="cls-1" d="M140.29,232.08h12.61c.98,3.49,2.82,6.53,7.14,6.38,3.89-.14,5.8-2.73,6.61-6.38h12.73c.53,10.56-8.61,19.7-19.54,19.7-10.93,0-20.08-9.13-19.55-19.7Z"/>
</svg>