<?xml version="1.0" encoding="UTF-8"?>
<svg id="Layer_1" data-name="Layer 1" xmlns="http://www.w3.org/2000/svg" version="1.1" viewBox="0 0 428 428">
  <defs>
    <style>
      .cls-1 {
        fill: #000;
        stroke-width: 0px;
      }
    </style>
  </defs>
  <path class="cls-1" d="M274.06,143.88c9.34-9.32,18.54-18.41,27.59-27.65.95-.97,1.34-2.81,1.38-4.27.16-5.67-.21-11.36.2-17.01.17-2.39,1.2-5.25,2.83-6.91,20.64-20.91,41.44-41.66,62.26-62.39,5.3-5.28,11.78-6.94,18.87-4.64,10.79,3.49,17.75,10.89,20.22,22,1.46,6.59-.86,12.31-5.61,17.05-20.57,20.57-41.08,41.19-61.79,61.61-1.75,1.73-4.81,2.13-7.27,3.13-.12.05-.29,0-.43,0-6.4.04-13.58-1.72-18.97.63-5.72,2.49-9.77,8.86-14.52,13.56-4.95,4.9-9.88,9.83-14.9,14.82,15.44,17.31,26.57,36.64,33.37,58.5,27.25,87.58-29.35,180.5-119.62,196.29-82.98,14.51-161.18-38.45-177.75-121.11-8.66-43.19.34-83.13,25.59-119.3,3.06-4.39,7.27-5.49,10.72-2.97,3.45,2.53,3.73,6.66.54,11.18-18.37,26.09-26.85,55.1-25.87,86.96,1.95,63.58,50.59,119.99,113.23,131.22,75.85,13.6,145.76-32.63,162.81-107.67,17.09-75.24-33.61-152.35-109.46-166.48-36.15-6.73-69.9-.53-101.23,18.75-.74.46-1.47.94-2.24,1.34-3.73,1.96-7.56,1.16-9.64-1.99-2.21-3.35-1.51-7.6,2.4-9.78,8.6-4.81,17.09-10.15,26.25-13.58,58.48-21.85,111.78-12.42,159.67,27.62.33.28.69.53,1.37,1.07ZM317.06,110.85c3.29,0,5.92-.23,8.5.05,4.1.45,6.94-1.06,9.85-4.01,18.24-18.54,36.71-36.86,55.09-55.26,4.15-4.15,4.42-6.6.77-11.29-1.48-1.9-3.45-3.52-5.47-4.87-3.17-2.12-6.01-1.74-8.9,1.17-19.13,19.3-38.4,38.46-57.57,57.7-.96.96-2.08,2.29-2.16,3.51-.27,4.16-.1,8.35-.1,12.99Z"/>
  <path class="cls-1" d="M158.95,166.58c6.28-.26,14.14,3.92,21.37,9.59,4.23,3.32,8.29,6.85,12.44,10.27,4.81,3.96,10.15,6.31,16.51,7.09,24.27,2.97,39.47,17.39,44.39,41.21,1.2,5.79.02,11.06-2.65,15.96-3.01,5.53-3,10.81-1.19,16.72,10.76,34.99-14.37,74.42-50.62,79.98-9.78,1.5-19.08.59-28.12-3.37-2.52-1.11-5.15-2-7.61-3.23-4.81-2.4-9.21-2.48-14.45-.31-9.94,4.12-19.56,1.01-28.24-4.17-14.35-8.57-21.28-21.75-21.85-38.33-.06-1.71.03-3.64.76-5.11,2.37-4.75.95-8.78-1.43-13.04-3.64-6.51-5.97-13.44-6.55-21.03-.21-2.81-2.11-5.66-3.76-8.15-11.85-17.81-10.54-34.11,4.98-49.13,12.16-11.76,25.99-21.44,41.03-29.23,6.73-3.48,13.97-5.59,24.97-5.72ZM189.97,334.97c.08-.2.15-.39.23-.59,2.59-.34,5.2-.58,7.77-1.03,27.79-4.86,46.77-35.49,38.4-62.35-2.79-8.95-2.64-17.27,1.73-25.71,1.35-2.61,2-6.23,1.42-9.07-3.53-17.34-14.64-27.16-32.88-29.04-7.67-.79-14.34-3.55-20.31-8.16-5.41-4.17-10.64-8.57-15.94-12.88-6.46-5.26-13.9-7.18-21.67-4.39-20.08,7.22-37.31,19.1-50.57,35.71-6.98,8.74-5.72,15.37-.18,23.21,3.13,4.43,6.56,9.51,7.21,14.63,1.08,8.5,4.26,15.91,7.98,23.29,2.51,4.97,2.93,9.9.86,15.13-.68,1.71-1.09,3.66-1.06,5.48.2,12.27,8.82,24.16,20.52,27.56,3.57,1.04,8.18,1.7,11.33.31,7.85-3.46,15.11-3.3,22.65.27,3.01,1.43,6.09,2.8,9.25,3.84,4.37,1.44,8.85,2.54,13.28,3.79Z"/>
  <path class="cls-1" d="M69.08,158.2c-3.86-.07-6.89-3.18-6.81-6.99.08-3.77,3.31-6.87,7.08-6.79,3.78.08,6.89,3.31,6.82,7.06-.07,3.8-3.23,6.78-7.09,6.72Z"/>
  <path class="cls-1" d="M184.4,233.05c-.01,17.25-14.08,31.35-31.31,31.39-17.41.04-31.59-14.21-31.49-31.65.1-17.2,14.28-31.22,31.53-31.17,17.24.06,31.28,14.17,31.27,31.42ZM152.9,215.59c-9.59.05-17.39,7.94-17.34,17.54.05,9.59,7.94,17.39,17.54,17.34,9.58-.05,17.38-7.95,17.34-17.55-.05-9.6-7.92-17.39-17.54-17.34Z"/>
  <path class="cls-1" d="M191.53,271.45c11.59.06,20.95,9.65,20.79,21.28-.16,11.39-9.64,20.65-21.06,20.58-11.57-.07-20.96-9.68-20.79-21.29.16-11.38,9.64-20.64,21.07-20.58ZM198.35,292.39c0-3.77-3.08-6.9-6.84-6.96-3.75-.06-6.95,2.98-7.07,6.74-.13,3.91,3.15,7.25,7.06,7.18,3.76-.06,6.85-3.2,6.85-6.96Z"/>
</svg>