<?xml version="1.0" encoding="UTF-8"?>
<svg id="Layer_1" fill="currentColor" data-name="Layer 1" xmlns="http://www.w3.org/2000/svg" version="1.1" viewBox="0 0 428 428">
  <defs>
    <style>
      .cls-1 {
        fill: #000;
        stroke-width: 0px;
      }
    </style>
  </defs>
  <path class="cls-1" d="M406,95.5c-4.53,19.14-16.16,34.98-24.5,52.35-2.01,4.2-2.55,7.64-1.08,12.24,26.72,83.75-11.16,172.6-89.91,211.35-3.36,1.65-6.8,3.12-10.26,4.56-3.83,1.59-7.01.62-8.33-2.39-1.41-3.22.05-6.34,4.03-7.98,16.07-6.6,30.88-15.32,44.03-26.66,33.18-28.61,52.94-64.67,56.7-108.35,5.45-63.35-18.25-114.23-69.84-151.19-34.11-24.44-72.87-33.32-114.47-27.56-66.91,9.26-119.32,55.8-136.81,120.72-18.83,69.9,12.77,146.29,75.48,182.52,36.85,21.29,76.13,27.43,117.76,18.91,2.77-.57,5.49-.93,7.55,1.66,2.82,3.55.8,8.27-4.24,9.13-8.61,1.47-17.24,3.1-25.93,3.71-23.68,1.68-46.85-1.27-69.39-8.96-1.64-.56-4.01-.37-5.56.41-12.59,6.35-24.96,13.15-37.63,19.33-5.76,2.8-12.06,4.5-18.12,6.69h-11.25c-.31-.19-.6-.5-.93-.55-10.5-1.62-19.14-6.65-26.5-14.19-6.87-7.04-14.25-13.63-20.74-21-4.29-4.87-7.71-10.6-10.92-16.28-1.71-3.04-2.15-6.79-3.16-10.23,0-3.75,0-7.5,0-11.25,1.95-11.04,7.83-20.41,12.82-30.15,4.16-8.11,8.27-16.24,12.68-24.21,1.6-2.9,1.66-5.38.62-8.44-10.06-29.78-11.95-60.2-5.56-90.9C63.69,77.21,166.89,16.23,265.78,46.91c6.29,1.95,11.02,1.29,16.74-1.56,16.46-8.19,31.67-19.12,49.98-23.35,3.75,0,7.5,0,11.25,0,.43.21.85.54,1.3.61,9.95,1.59,18.27,6.23,25.32,13.34,7.28,7.34,14.61,14.63,21.93,21.94,4.82,4.82,8.65,10.3,10.86,16.78,1.07,3.15,1.9,6.38,2.84,9.57v11.25ZM140.23,372.91c-38.4-18.67-66.48-46.77-85.02-84.91-.69,1.1-1.19,1.78-1.58,2.52-5.48,10.5-11.02,20.98-16.38,31.54-7.1,13.97-4.76,28.73,6.27,39.94,7.45,7.56,14.95,15.07,22.51,22.51,11.18,11,25.92,13.28,39.95,6.21,6.57-3.31,13.06-6.78,19.58-10.18,4.71-2.45,9.42-4.91,14.65-7.64ZM372.82,140.27c.49-.86.68-1.17.85-1.5,6.02-11.62,12.48-23.05,17.94-34.93,5.99-13.02,3.93-25.56-5.69-36.16-8.13-8.96-16.82-17.44-25.67-25.7-7.94-7.42-17.8-10.75-28.37-7.94-15.75,4.19-29.23,13.47-43.65,21.37,18.58,8.76,35.02,20.34,49.42,34.74,14.43,14.42,26.04,30.86,35.15,50.13Z"/>
  <path class="cls-1" d="M360.85,212.54c-.24,74.46-54.18,136.61-125.98,146.79-76.77,10.89-149.33-40.14-164.71-115.84-15.14-74.5,29.15-148.49,101.85-170.17.96-.29,1.9-.62,2.87-.84,3.43-.79,6.16.65,7.15,3.73.96,2.99-.56,5.81-3.91,7.04-6.44,2.36-13.16,4.1-19.31,7.05-47.99,23.05-75.61,61.07-79.71,114.21-4.89,63.35,34.08,119.45,94.46,138.85,74.08,23.8,154.96-22.29,172.35-98.23,16.73-73.04-27.4-145-99.97-162.87-13.05-3.21-26.33-4.53-39.78-3.48-1,.08-2,.15-3,.14-3.65-.06-6.23-2.38-6.26-5.59-.02-3.06,2.3-5.33,5.82-5.62,18.52-1.53,36.79.16,54.38,6.09,53.51,18.03,87.07,54.59,100.37,109.54,1.26,5.2,1.96,10.56,2.55,15.89.56,4.96.63,9.97.82,13.32Z"/>
  <path class="cls-1" d="M156.54,177.21c1.48-7.51,2.09-14.83,4.4-21.57,9.62-28.13,39.8-43.54,68.46-35.43,28.58,8.08,46.1,37.19,39.67,66.16-.59,2.68.09,3.61,2.44,4.7,24.27,11.26,37.43,38.07,31.4,63.66-6.23,26.41-29.49,44.63-56.52,43.91-15.14-.4-28.12-6.18-38.82-16.96-.96-.97-1.8-2.06-2.63-3.01-32.39,19.24-68.34,4.33-81.55-23.68-14.1-29.89.49-67.1,33.15-77.78ZM214.45,219.66c24.69-.12,44.77-20.56,44.67-45.47-.1-24.94-20.54-45.08-45.58-44.92-24.76.16-44.81,20.56-44.66,45.43.15,25.02,20.49,45.07,45.58,44.95ZM159.06,188.8c-18,5.25-34.94,28-28.32,53.48,6.17,23.79,30.44,38.34,54.53,32.52,20.22-4.88,37.59-27.47,33.83-43.81-30.2.36-50.11-13.79-60.03-42.19ZM264.29,200.49c-.31.43-.69.9-.99,1.42-7,12.15-16.99,20.81-30.2,25.6-1.96.71-2.23,1.82-2.25,3.64-.18,15.02-5.46,28.01-15.75,38.96-.48.51-.85,1.12-1.23,1.63,11.71,14.33,32.32,19.45,50.22,12.66,17.82-6.76,29.56-24.52,28.85-43.61-.68-18.24-13.05-35.72-28.66-40.28Z"/>
  <path class="cls-1" d="M129.36,174.37c-9.41.03-16.89-7.4-16.92-16.78-.03-9.33,7.51-16.96,16.81-16.99,9.23-.04,16.94,7.63,16.99,16.88.04,9.28-7.54,16.87-16.87,16.9ZM129.29,151.87c-3.07,0-5.61,2.64-5.56,5.76.05,3.07,2.34,5.38,5.4,5.46,3.2.08,5.75-2.34,5.8-5.49.05-3.05-2.6-5.74-5.64-5.74Z"/>
  <path class="cls-1" d="M298.62,185.65c-9.33-.03-16.93-7.66-16.85-16.91.07-9.25,7.8-16.91,17-16.87,9.27.05,16.83,7.71,16.78,17.02-.04,9.41-7.51,16.79-16.93,16.76ZM293.05,168.7c-.07,3.12,2.43,5.66,5.61,5.68,3.09.02,5.43-2.19,5.59-5.26.16-3.12-2.28-5.83-5.35-5.96-3.01-.12-5.78,2.5-5.85,5.55Z"/>
  <path class="cls-1" d="M183.96,321.12c.06-9.35,7.65-16.8,17.02-16.7,9.36.1,16.83,7.69,16.75,17.02-.08,9.25-7.86,16.89-17.07,16.76-9.33-.12-16.76-7.73-16.7-17.09ZM200.83,315.71c-3.18,0-5.66,2.51-5.6,5.67.05,3,2.42,5.43,5.41,5.53,3.08.11,5.77-2.44,5.83-5.53.06-3.1-2.5-5.68-5.63-5.68Z"/>
  <path class="cls-1" d="M211.06,160.22c.07,3.16-2.48,5.78-5.59,5.74-2.93-.04-5.49-2.55-5.57-5.47-.09-3.06,2.58-5.75,5.67-5.72,2.99.02,5.43,2.44,5.49,5.45Z"/>
  <path class="cls-1" d="M205.51,188.76c-.11,3.06-2.92,5.6-5.97,5.4-3.03-.2-5.23-2.66-5.16-5.73.08-3.22,2.61-5.52,5.87-5.33,2.98.17,5.36,2.74,5.26,5.67Z"/>
  <path class="cls-1" d="M233.63,177.28c0,3.22-2.5,5.66-5.69,5.56-2.96-.09-5.42-2.61-5.43-5.54,0-3.11,2.62-5.61,5.78-5.52,3.09.09,5.34,2.4,5.34,5.5Z"/>
  <path class="cls-1" d="M163.06,230.98c-.02,3.02-2.39,5.45-5.4,5.52-3.13.07-5.8-2.51-5.78-5.6.02-3.04,2.82-5.7,5.85-5.57,2.96.13,5.34,2.65,5.32,5.64Z"/>
  <path class="cls-1" d="M163.06,253.41c.08,3.05-2.17,5.51-5.2,5.67-3.16.17-5.86-2.26-5.96-5.36-.09-3.03,2.62-5.8,5.65-5.77,2.96.02,5.44,2.47,5.52,5.46Z"/>
  <path class="cls-1" d="M185.63,247.91c-.02,3.05-2.37,5.46-5.38,5.54-3.07.08-5.77-2.58-5.75-5.63.03-3.11,2.66-5.57,5.84-5.46,3.08.11,5.31,2.45,5.28,5.55Z"/>
  <path class="cls-1" d="M270.63,259.03c-3.03.09-5.52-2.2-5.69-5.21-.17-3.15,2.27-5.87,5.37-5.96,3.02-.09,5.8,2.62,5.79,5.65-.02,2.94-2.49,5.44-5.47,5.52Z"/>
  <path class="cls-1" d="M247.74,247.78c-3.04-.06-5.37-2.42-5.4-5.48-.03-3.15,2.57-5.77,5.63-5.69,2.89.08,5.45,2.67,5.49,5.56.04,3.1-2.58,5.67-5.73,5.61Z"/>
  <path class="cls-1" d="M247.78,264.71c.06,3.03-2.25,5.49-5.27,5.62-3.15.14-5.85-2.33-5.91-5.42-.06-3.04,2.67-5.78,5.7-5.72,2.96.05,5.42,2.53,5.47,5.52Z"/>
</svg>