<?xml version="1.0" encoding="UTF-8"?>
<svg id="Layer_1" data-name="Layer 1" xmlns="http://www.w3.org/2000/svg" version="1.1" viewBox="0 0 428 428">
  <defs>
    <style>
      .cls-1 {
        fill: #000;
        stroke-width: 0px;
      }
    </style>
  </defs>
  <path class="cls-1" d="M152.18,134.5c.87-2.55,1.94-5.05,2.49-7.66.21-1-.58-2.42-1.3-3.35-4.72-6.1-4.5-10.87.9-16.49.52-.55,1.07-1.08,1.64-1.57,10.02-8.67,8.59-5.96,4.76-18.12-3.04-9.64.07-15.93,10.02-17.09,8.67-1.01,12.4-4.62,13.61-13.28,1.49-10.75,7.53-14.17,17.51-10.05,7.69,3.17,12.55,2.15,17.62-4.69,6.46-8.71,14.11-8.8,20.63-.16,5.24,6.94,10.2,8.01,18.03,4.74,9.46-3.95,15.66-.59,17.18,9.51,1.36,9.06,5.15,13.11,14.44,14.16,9.47,1.07,13.09,7.61,9.36,16.5-3.5,8.32-2.59,13.99,5.14,19.07,2.88,1.89,4.41,5.83,6.88,9.28,1.58-1.77,3.61-4.08,5.67-6.36,7.2-8.01,13.85-8.53,20.41-.03,5.37,6.95,10.42,8.17,18.41,4.84,9.38-3.91,15.65-.4,16.95,9.8,1.17,9.2,5.4,12.69,14.23,13.8,9.51,1.2,13.15,7.5,9.46,16.45-3.39,8.24-2.35,13.61,5.01,19.16,8.1,6.11,7.6,12.95.16,19.84-1.22,1.13-2.51,2.19-3.75,3.3-4.96,4.4-5.37,6.24-2.33,12.08.43.84,1.71,1.67,2.65,1.73,4.38.3,5.49,2.81,5.41,6.74-.51,25.12-5.7,49.21-15.71,72.25-18.54,42.66-48.95,74.04-90.23,95.17-9.32,4.77-18.77,7.21-29.47,7.07-38.15-.49-76.3-.12-114.45-.3-4.1-.02-8.52-.77-12.22-2.44-63.73-28.74-101.33-77.95-113.72-146.52-1.53-8.44-1.45-17.18-2.11-25.78-.26-3.37,1-5.94,4.57-5.96,2.84-.02,3.66-1.43,4.2-3.64.66-2.69,2.51-5.42-.38-7.96-2.38-2.1-4.79-4.19-7.06-6.4-6.46-6.28-7.14-12.96-.1-18.25,8.02-6.02,9.49-11.92,5.64-21.05-3.25-7.7.71-14.36,9.08-15.38,9.81-1.19,14.33-5.34,15.39-15.36.9-8.43,7.55-12.3,15.33-8.88,9.24,4.05,15.03,2.25,20.97-5.72,5.14-6.89,12.46-6.88,17.72.01,5.98,7.83,11.72,9.82,20.99,5.71,7.82-3.46,13.25.39,15.5,8.88.69,2.63,1.03,5.35,1.74,7.97.45,1.63,1.3,3.14,1.98,4.7.38-.08.77-.16,1.15-.24ZM36.17,246.21c3.91,12.22,7.65,23.52,11.1,34.9,1.31,4.34,3.69,5.5,8.19,5.49,105.94-.15,211.89-.11,317.83-.11,1.21,0,2.5.25,3.61-.08,1.12-.34,2.59-1.04,3.01-1.97,5.38-12.17,9.31-24.79,11.6-38.22H36.17ZM375.79,295.71H54.08c6.28,12.26,13.5,23.16,21.82,33.39,2.44,3,5.04,4.03,8.88,4.03,84.32-.11,168.64-.24,252.96.14,8.82.04,14.82-2.09,19.43-9.61,5.66-9.21,11.95-18.02,18.61-27.96ZM160.62,209.72c-2.34-11.76-1.8-13.66,5.31-19.98,8.58-7.63,8.94-6.29-.11-13.96-6.23-5.28-8.08-11.07-5.23-18.87,3.68-10.05,3.46-10.36-7.08-12.28-7.41-1.35-11.93-5.04-13.51-12.58-2.36-11.23-2.55-11.34-13.55-7.79-6.89,2.22-12.44.78-17-4.81-1.62-1.99-3.44-3.82-5.12-5.77-1.79-2.08-3.45-2.02-5.25.01-2.2,2.5-4.45,4.95-6.73,7.37-3.79,4.01-8.3,5.29-13.62,3.56-3.16-1.03-6.34-1.97-9.5-2.99-2.36-.76-3.74-.02-4.24,2.48-.66,3.25-1.44,6.48-2.16,9.73-1.2,5.42-4.52,8.75-9.91,10.01-3.23.76-6.47,1.53-9.72,2.18-2.67.54-3.57,1.83-2.56,4.5,1.07,2.82,1.88,5.74,2.84,8.61,2.01,6.01.43,10.98-4.25,15.11-2.27,2-4.48,4.07-6.76,6.06-1.91,1.67-1.84,3.26,0,4.93,2.69,2.44,5.42,4.84,8,7.38,3.37,3.33,4.66,7.32,3.34,12.02-.44,1.58-.73,3.2-1.15,5.09h117.94ZM386.47,209.7c-3.88-8.41-1.83-14.63,4.76-20.17,8.9-7.48,8.8-6.19-.21-13.9-6.23-5.33-7.91-11.12-5.1-18.92,4.13-11.44,4.48-9.68-7.26-12.22-8.85-1.91-11.62-4.67-13.49-13.59-2.53-12.05-1.13-11.08-12.3-7.12-7.59,2.7-13.38,1.26-18.58-4.88-7.11-8.39-7.41-8.38-14.54-.05-4.89,5.72-10.34,7.72-17.69,5.24-10.76-3.64-10.97-3.47-13.29,7.65-1.51,7.25-5.59,11.5-12.92,12.66-2.09.33-4.19.68-6.23,1.23-1.47.4-2.84,1.16-4.36,1.8,4.44,6.33,4.89,9.18,2.51,16.16-3.79,11.14-4.33,8.89,4.71,16.97.41.36.89.64,1.73,1.22.12-1.39.17-2.25.27-3.11,2.26-20.25,12.24-35.38,30.83-43.8,6.55-2.97,14.22-3.63,21.48-4.75,1.33-.2,4.25,2.4,4.35,3.86.11,1.47-2.23,3.29-3.79,4.62-.65.55-2.04.23-3.1.29-21.59,1.07-39.86,19.23-40.79,40.77-.17,4.02-.92,7.18-5.45,7.78,2.86,11.61-8.6,14.6-13.23,22.23h121.67ZM340.68,342.14H88.35c1.05,1.15,1.61,1.84,2.25,2.45,15.31,14.73,32.62,26.53,52.19,34.79,4.29,1.81,9.27,2.76,13.95,2.79,35.88.22,71.77-.31,107.63.37,12.21.23,22.89-2.63,33.18-8.49,2.23-1.27,4.51-2.46,6.73-3.77,13.07-7.7,25.1-16.75,36.4-28.13ZM298.78,113.23c-1.56-1.48-2.39-2.32-3.28-3.09-9.42-8.16-10.16-10.83-6.18-22.42q2.77-8.08-5.79-9.72c-11.39-2.19-13.7-4.33-15.97-15.38-2.11-10.26-1.52-9.4-11.27-6.16-9.81,3.26-13.28,2.38-19.95-5.28-7.22-8.29-6.19-8.1-13.45.06-6.82,7.66-10.04,8.51-19.97,5.17-1.14-.39-2.3-.74-3.45-1.11-5.52-1.77-6.31-1.67-6.87,3.86-1.2,11.82-6.88,18.68-19.15,19.23-.15,0-.29.09-.44.12-5.4,1.26-6.09,1.74-3.84,6.54,5.29,11.28,3.11,20.06-7.26,27-1.3.87-2.99,3.57-2.61,4.11,1.28,1.85,3.2,3.55,5.25,4.47,2.42,1.09,5.29,1.14,7.85,1.96,8.65,2.79,8.63,2.85,14.52-3.92.3-.34.59-.69.89-1.03,7.57-8.63,14.46-9.04,21.36-.04,5,6.52,10.04,8.44,17.2,4.41.13-.07.28-.1.43-.15,10.16-3.19,15.47-.02,17.65,10.53.18.89.41,1.77.59,2.66,1.78,8.65,2.07,8.9,11.52,9.56,2.59-6,8.16-7.33,13.94-8.36q8.27-1.48,9.94-9.67c.12-.59.19-1.19.3-1.79,2.02-10.9,6.17-13.77,18.05-11.57ZM393.05,236.96c.5-5.94.99-11.81,1.48-17.74H34.2c.55,6.11,1.06,11.89,1.59,17.74h357.26ZM269.86,191.19c-1.11-1.25-1.92-2.64-3.12-3.44-10.49-6.95-13.17-15.88-7.37-27.26,1.73-3.39.86-5.72-3.39-6.22-2.69-.32-5.32-1.09-7.98-1.68-5.54-1.24-9.1-4.54-10.37-10.14-.6-2.65-1.24-5.3-1.66-7.98-.62-3.98-2.3-5.66-6.44-3.81-2.47,1.1-5.12,1.84-7.73,2.57-5.4,1.51-10.17.53-14.02-3.8-1.91-2.15-3.93-4.2-5.75-6.42-2.22-2.71-4.26-2.99-6.59-.12-1.81,2.23-3.83,4.28-5.73,6.44-3.82,4.33-8.59,5.37-14,3.94-2.04-.54-4.04-1.26-6.04-1.93-7.3-2.45-7.92-2.02-8.05,4.61,4.19,3.17,7.88,5.96,12.09,9.13-.29.14.38-.17,1.04-.51,7.4-3.73,15.2-6.03,23.53-5.64,1.56.07,3.71,1.54,4.35,2.94.52,1.12-.4,3.57-1.48,4.58-1.02.96-3.07,1.01-4.68,1.13-9.51.67-17.94,4.03-25.23,10.14-4.02,3.37-4.01,7.19-.19,10.71,2.44,2.25,5.08,4.34,7.29,6.8,4.45,4.95,4.53,10.04.15,15.05-2.28,2.6-4.88,5-7.64,7.07-3.93,2.95-2.25,6.15-1.33,9.73.97,3.77,3.61,2.97,6.05,2.97,24.35.02,48.71.01,73.06.01h7.37c.51-9.42,9.71-12.1,13.87-18.83Z"/>
  <path class="cls-1" d="M49.12,180.29c.86-26.54,23.76-49.43,50.29-50.33,3.31-.11,6.52.33,6.65,4.29.13,3.97-3.08,4.54-6.37,4.7-22.72,1.1-40.37,18.85-41.6,41.81-.18,3.29-.79,6.44-4.82,6.25-4.09-.2-4.33-3.49-4.14-6.72Z"/>
  <path class="cls-1" d="M227.72,63.13c-.14,0,.46.01,1.07,0,2.97-.07,5.26,1.11,5.32,4.24.06,3.1-2.09,4.38-5.09,4.5-11.12.46-20.93,4.21-29.08,11.91-8.49,8.03-13.21,17.86-13.82,29.59-.04.75-.04,1.52-.15,2.26-.4,2.71-1.71,4.62-4.7,4.44-2.97-.18-4.16-2.13-4.11-4.93.26-12.87,4.54-24.26,13.02-33.93,9.73-11.09,22.08-17.03,37.55-18.08Z"/>
</svg>