<?xml version="1.0" encoding="UTF-8"?>
<svg id="Layer_1" fill="currentColor" data-name="Layer 1" xmlns="http://www.w3.org/2000/svg" version="1.1" viewBox="0 0 428 428">
  <defs>
    <style>
      .cls-1 {
        fill: #000;
        stroke-width: 0px;
      }
    </style>
  </defs>
  <path class="cls-1" d="M418.6,199.83c-1.07,8.41-1.87,16.86-3.25,25.22-3.48,21.06-10.17,40.98-21.96,58.94-14.42,21.97-34.72,36.33-59.16,45.18-20.06,7.26-40.87,10.72-62.13,11.1-18.09.33-36.21.57-54.28-.09-39.35-1.42-77.25-9.28-112.44-27.75-29.36-15.41-51.75-37.85-67.25-67.15-14.67-27.76-22.44-57.55-26.02-88.57-2.14-18.54-2.95-37.12-1.66-55.76.66-9.62,4.82-14.28,14.56-14.23,18.07.08,36.21.05,54.19,1.65,25.51,2.28,50.23,8.51,73.96,18.49,42.54,17.9,72.91,47.95,90.46,90.64,4.23,10.29,7.27,21.07,10.86,31.62.45,1.33.87,2.67,1.34,4.11,3.75-6.16,7.07-12.23,10.97-17.9,15.17-22.05,36.58-35.61,61.5-43.97,23.98-8.04,48.78-10.58,73.96-9.59,10.8.43,12.99,2.56,16.35,14.1v23.95ZM237.74,297.42c.41-.28.81-.56,1.22-.84,0-1.04.04-2.09,0-3.13-1.17-24.68-5.09-48.9-12.88-72.38-6.62-19.97-16.12-38.46-30.1-54.39-18.99-21.65-43.25-34.83-70.27-43.52-19.08-6.14-38.71-9.45-58.63-11-10.56-.82-21.19-.9-31.81-1.31,0,7.69-.24,14.71.04,21.7,1.1,27.39,5.64,54.13,15.22,79.92,14.63,39.4,40.64,67.98,79.65,84.41,24.76,10.43,50.73,15.47,77.32,17.87,4.36.39,8.75.47,13.12.69-.74-1.92-1.9-2.81-2.93-3.84-28.98-28.96-57.94-57.94-86.91-86.92-1.22-1.22-2.5-2.41-3.53-3.79-2.96-3.96-3.46-8.32-1.36-12.78,2.1-4.46,5.81-6.85,10.74-7.09,4.46-.22,7.77,2.02,10.82,5.07,29.22,29.29,58.49,58.52,87.72,87.8,1.01,1.01,1.72,2.34,2.57,3.52ZM265.38,296.87c1.59-1.48,2.65-2.41,3.64-3.4,16.37-16.36,32.73-32.73,49.11-49.08,1.22-1.22,2.42-2.52,3.84-3.47,4.36-2.93,9.02-3.21,13.53-.49,4.5,2.71,6.93,6.99,5.73,12.12-.74,3.15-2.63,6.43-4.92,8.77-16.39,16.71-33.02,33.2-49.56,49.76-1,1-1.93,2.05-3.36,3.57,13.8-1.2,26.54-3.63,38.92-7.76,24.71-8.23,44.31-22.67,56.07-46.53,7.79-15.81,11.91-32.64,13.82-50.05.85-7.74,1.16-15.53,1.73-23.49-1.48-.14-2.25-.28-3.02-.27-19.25.35-38.16,2.86-56.43,9.12-17.44,5.97-32.86,15.11-44.3,29.9-16.02,20.71-22.1,44.96-24.79,71.32Z"/>
</svg>