<?xml version="1.0" encoding="UTF-8"?>
<svg id="Layer_1" data-name="Layer 1" xmlns="http://www.w3.org/2000/svg" version="1.1" viewBox="0 0 428 428">
  <defs>
    <style>
      .cls-1 {
        fill: #000;
        stroke-width: 0px;
      }
    </style>
  </defs>
  <path class="cls-1" d="M418.6,199.83c-1.07,8.41-1.85,16.86-3.25,25.21-3.77,22.39-10.98,43.47-24.24,62.2-10.84,15.31-24.77,26.87-41.52,35.23-19.64,9.8-40.55,14.71-61.81,16.93.51-9.94.92-19.68,1.6-29.41.09-1.35,1.31-2.82,2.36-3.88,14.82-14.91,29.75-29.71,44.5-44.68,2.07-2.1,3.95-4.8,4.83-7.57,1.68-5.33-1-10.88-5.77-13.61-4.83-2.76-10.74-2.11-15.05,2.11-9.22,9.02-18.29,18.21-27.39,27.35-1.47,1.48-2.79,3.11-4.79,5.36-1.41-9.84-2.19-18.55-3.99-27.04-2.75-12.98-6.1-25.83-9.44-38.68-.63-2.41-.3-3.87,1.34-5.63,14.54-15.51,32.39-25.74,52.35-32.38,23.99-7.99,48.78-10.57,73.95-9.57,10.79.43,12.98,2.56,16.35,14.1v23.95Z"/>
  <path class="cls-1" d="M262.47,322.75c-.84-1.37-1.44-2.96-2.54-4.07-37.4-37.48-74.86-74.9-112.26-112.37-3.03-3.04-6.27-5.43-10.73-5.3-4.91.15-8.69,2.41-10.9,6.84-2.21,4.42-1.81,8.78,1.05,12.8.99,1.4,2.28,2.59,3.5,3.81,37.34,37.35,74.68,74.7,112.05,112.02,1.02,1.02,2.33,1.73,3.49,2.57-.81.86-.97,1.18-1.14,1.18-33.18,1.38-65.86-1.85-97.83-11.07-23.68-6.83-45.77-16.96-65.52-31.95-18.22-13.83-32.29-31.14-43.06-51.17-15-27.88-22.83-57.95-26.44-89.23-2.14-18.53-2.96-37.11-1.68-55.75.68-9.87,4.82-14.44,14.83-14.39,18.07.1,36.21.08,54.17,1.69,25.78,2.32,50.78,8.6,74.65,18.87,36.88,15.86,65.17,40.96,83.4,77.06,13.9,27.52,21.72,56.76,24.56,87.31,1.4,15.07,1.53,30.25,2.19,45.38.07,1.55-.2,3.11-.31,4.67-.49.36-.97.72-1.46,1.07Z"/>
</svg>